G75*
%MOIN*%
%OFA0B0*%
%FSLAX25Y25*%
%IPPOS*%
%LPD*%
%AMOC8*
5,1,8,0,0,1.08239X$1,22.5*
%
%ADD10C,0.14000*%
%ADD11C,0.06000*%
%ADD12C,0.06693*%
%ADD13C,0.00800*%
%ADD14C,0.01000*%
%ADD15C,0.02900*%
D10*
X0298197Y0062197D03*
X0318197Y0062197D03*
D11*
X0346997Y0092997D02*
X0352997Y0092997D01*
X0352997Y0102997D02*
X0346997Y0102997D01*
X0346997Y0112997D02*
X0352997Y0112997D01*
X0352997Y0122997D02*
X0346997Y0122997D01*
X0346997Y0132997D02*
X0352997Y0132997D01*
X0352997Y0142997D02*
X0346997Y0142997D01*
X0346697Y0262397D02*
X0352697Y0262397D01*
X0352697Y0272397D02*
X0346697Y0272397D01*
X0346697Y0282397D02*
X0352697Y0282397D01*
X0352697Y0292397D02*
X0346697Y0292397D01*
X0346697Y0302397D02*
X0352697Y0302397D01*
X0352697Y0312397D02*
X0346697Y0312397D01*
X0306034Y0344860D02*
X0306034Y0350860D01*
X0296034Y0350860D02*
X0296034Y0344860D01*
X0286034Y0344860D02*
X0286034Y0350860D01*
X0276034Y0350860D02*
X0276034Y0344860D01*
X0266034Y0344860D02*
X0266034Y0350860D01*
X0256034Y0350860D02*
X0256034Y0344860D01*
X0128597Y0343397D02*
X0128597Y0349397D01*
X0118597Y0349397D02*
X0118597Y0343397D01*
X0108597Y0343397D02*
X0108597Y0349397D01*
X0098597Y0349397D02*
X0098597Y0343397D01*
X0088597Y0343397D02*
X0088597Y0349397D01*
X0078597Y0349397D02*
X0078597Y0343397D01*
D12*
X0198197Y0352097D03*
X0353497Y0197397D03*
X0197797Y0042597D03*
X0042497Y0197197D03*
D13*
X0035997Y0056970D02*
X0035997Y0039997D01*
X0194082Y0039997D01*
X0193919Y0040221D01*
X0193595Y0040856D01*
X0193375Y0041535D01*
X0193270Y0042197D01*
X0197397Y0042197D01*
X0197397Y0042997D01*
X0193270Y0042997D01*
X0193375Y0043659D01*
X0193595Y0044337D01*
X0193919Y0044973D01*
X0194339Y0045550D01*
X0194843Y0046055D01*
X0195421Y0046475D01*
X0196056Y0046799D01*
X0196735Y0047019D01*
X0197129Y0047081D01*
X0189102Y0047081D01*
X0188183Y0047462D01*
X0187479Y0048165D01*
X0165022Y0070623D01*
X0164641Y0071542D01*
X0164641Y0094905D01*
X0113005Y0094905D01*
X0112086Y0095285D01*
X0111383Y0095989D01*
X0054459Y0152912D01*
X0054079Y0153831D01*
X0054079Y0187913D01*
X0053654Y0188337D01*
X0053129Y0189605D01*
X0053129Y0190978D01*
X0053654Y0192246D01*
X0054624Y0193216D01*
X0055892Y0193742D01*
X0057265Y0193742D01*
X0058533Y0193216D01*
X0059503Y0192246D01*
X0060029Y0190978D01*
X0060029Y0189605D01*
X0059503Y0188337D01*
X0059079Y0187913D01*
X0059079Y0155364D01*
X0102179Y0112263D01*
X0102179Y0113060D01*
X0102704Y0114328D01*
X0103675Y0115299D01*
X0104943Y0115824D01*
X0106315Y0115824D01*
X0107583Y0115299D01*
X0108008Y0114874D01*
X0110206Y0114874D01*
X0111125Y0114493D01*
X0118472Y0107146D01*
X0119134Y0107809D01*
X0120402Y0108334D01*
X0121003Y0108334D01*
X0121746Y0109078D01*
X0120971Y0109853D01*
X0120446Y0111121D01*
X0120446Y0112493D01*
X0120971Y0113761D01*
X0121396Y0114186D01*
X0121396Y0173447D01*
X0121777Y0174366D01*
X0192334Y0244923D01*
X0193253Y0245304D01*
X0195589Y0245304D01*
X0196014Y0245729D01*
X0197282Y0246254D01*
X0198654Y0246254D01*
X0199922Y0245729D01*
X0200411Y0245240D01*
X0200411Y0348137D01*
X0199937Y0347895D01*
X0199259Y0347675D01*
X0198597Y0347570D01*
X0198597Y0351697D01*
X0197797Y0351697D01*
X0197797Y0347570D01*
X0197135Y0347675D01*
X0196456Y0347895D01*
X0195821Y0348219D01*
X0195243Y0348639D01*
X0194739Y0349143D01*
X0194319Y0349721D01*
X0193995Y0350356D01*
X0193775Y0351035D01*
X0193670Y0351697D01*
X0197797Y0351697D01*
X0197797Y0352497D01*
X0193670Y0352497D01*
X0193775Y0353159D01*
X0193995Y0353837D01*
X0194202Y0354244D01*
X0122679Y0354244D01*
X0121750Y0353315D01*
X0122836Y0352229D01*
X0123597Y0350391D01*
X0123597Y0342402D01*
X0122836Y0340565D01*
X0121429Y0339158D01*
X0119591Y0338397D01*
X0117602Y0338397D01*
X0115765Y0339158D01*
X0114358Y0340565D01*
X0113597Y0342402D01*
X0113597Y0350391D01*
X0114358Y0352229D01*
X0115765Y0353636D01*
X0116097Y0353773D01*
X0116097Y0354195D01*
X0116477Y0355113D01*
X0117181Y0355817D01*
X0117544Y0356180D01*
X0114615Y0356180D01*
X0111750Y0353315D01*
X0112836Y0352229D01*
X0113597Y0350391D01*
X0113597Y0342402D01*
X0112836Y0340565D01*
X0111429Y0339158D01*
X0109591Y0338397D01*
X0107602Y0338397D01*
X0105765Y0339158D01*
X0104358Y0340565D01*
X0103597Y0342402D01*
X0103597Y0350391D01*
X0104358Y0352229D01*
X0105765Y0353636D01*
X0106097Y0353773D01*
X0106097Y0354195D01*
X0106477Y0355113D01*
X0107181Y0355817D01*
X0109344Y0357980D01*
X0106415Y0357980D01*
X0101750Y0353315D01*
X0102836Y0352229D01*
X0103597Y0350391D01*
X0103597Y0342402D01*
X0102836Y0340565D01*
X0101429Y0339158D01*
X0099591Y0338397D01*
X0097602Y0338397D01*
X0095765Y0339158D01*
X0094358Y0340565D01*
X0093597Y0342402D01*
X0093597Y0350391D01*
X0092836Y0352229D01*
X0091429Y0353636D01*
X0089591Y0354397D01*
X0087602Y0354397D01*
X0085765Y0353636D01*
X0084358Y0352229D01*
X0083597Y0350391D01*
X0083597Y0342402D01*
X0084358Y0340565D01*
X0085765Y0339158D01*
X0087602Y0338397D01*
X0089591Y0338397D01*
X0091429Y0339158D01*
X0092836Y0340565D01*
X0093597Y0342402D01*
X0093597Y0350391D01*
X0094358Y0352229D01*
X0095765Y0353636D01*
X0096097Y0353773D01*
X0096097Y0354195D01*
X0096477Y0355113D01*
X0097181Y0355817D01*
X0097181Y0355817D01*
X0100761Y0359397D01*
X0035997Y0359397D01*
X0035997Y0335423D01*
X0038054Y0339928D01*
X0038054Y0339928D01*
X0041409Y0343800D01*
X0041409Y0343800D01*
X0041409Y0343800D01*
X0045719Y0346570D01*
X0045719Y0346570D01*
X0050635Y0348014D01*
X0055759Y0348014D01*
X0055759Y0348014D01*
X0060674Y0346570D01*
X0064984Y0343800D01*
X0068339Y0339928D01*
X0068339Y0339928D01*
X0070468Y0335268D01*
X0070468Y0335268D01*
X0071197Y0330197D01*
X0070468Y0325126D01*
X0070468Y0325126D01*
X0068339Y0320465D01*
X0068339Y0320465D01*
X0064984Y0316593D01*
X0064984Y0316593D01*
X0060674Y0313823D01*
X0060674Y0313823D01*
X0055759Y0312380D01*
X0050635Y0312380D01*
X0045719Y0313823D01*
X0045719Y0313823D01*
X0041409Y0316593D01*
X0041409Y0316593D01*
X0038054Y0320465D01*
X0038054Y0320465D01*
X0035997Y0324970D01*
X0035997Y0067423D01*
X0038054Y0071928D01*
X0038054Y0071928D01*
X0041409Y0075800D01*
X0041409Y0075800D01*
X0041409Y0075800D01*
X0045719Y0078570D01*
X0045719Y0078570D01*
X0050635Y0080014D01*
X0055759Y0080014D01*
X0060674Y0078570D01*
X0060674Y0078570D01*
X0064984Y0075800D01*
X0064984Y0075800D01*
X0068339Y0071928D01*
X0068339Y0071928D01*
X0070468Y0067268D01*
X0070468Y0067268D01*
X0071197Y0062197D01*
X0070468Y0057126D01*
X0070468Y0057126D01*
X0068339Y0052465D01*
X0068339Y0052465D01*
X0064984Y0048593D01*
X0064984Y0048593D01*
X0060674Y0045823D01*
X0060674Y0045823D01*
X0055759Y0044380D01*
X0050635Y0044380D01*
X0045719Y0045823D01*
X0045719Y0045823D01*
X0041409Y0048593D01*
X0041409Y0048593D01*
X0038054Y0052465D01*
X0038054Y0052465D01*
X0035997Y0056970D01*
X0035997Y0056361D02*
X0036275Y0056361D01*
X0035997Y0055563D02*
X0036640Y0055563D01*
X0037004Y0054764D02*
X0035997Y0054764D01*
X0035997Y0053966D02*
X0037369Y0053966D01*
X0037734Y0053167D02*
X0035997Y0053167D01*
X0035997Y0052369D02*
X0038138Y0052369D01*
X0038830Y0051570D02*
X0035997Y0051570D01*
X0035997Y0050772D02*
X0039522Y0050772D01*
X0040214Y0049973D02*
X0035997Y0049973D01*
X0035997Y0049175D02*
X0040906Y0049175D01*
X0041748Y0048376D02*
X0035997Y0048376D01*
X0035997Y0047577D02*
X0042990Y0047577D01*
X0044233Y0046779D02*
X0035997Y0046779D01*
X0035997Y0045980D02*
X0045475Y0045980D01*
X0047904Y0045182D02*
X0035997Y0045182D01*
X0035997Y0044383D02*
X0050624Y0044383D01*
X0055770Y0044383D02*
X0193619Y0044383D01*
X0193363Y0043585D02*
X0035997Y0043585D01*
X0035997Y0042786D02*
X0197397Y0042786D01*
X0198197Y0042786D02*
X0332665Y0042786D01*
X0333907Y0041988D02*
X0202291Y0041988D01*
X0202324Y0042197D02*
X0198197Y0042197D01*
X0198197Y0042997D01*
X0202324Y0042997D01*
X0202219Y0043659D01*
X0201999Y0044337D01*
X0201675Y0044973D01*
X0201255Y0045550D01*
X0200750Y0046055D01*
X0200173Y0046475D01*
X0199537Y0046799D01*
X0198859Y0047019D01*
X0198464Y0047081D01*
X0202223Y0047081D01*
X0202297Y0047008D01*
X0202297Y0046407D01*
X0202822Y0045139D01*
X0203793Y0044169D01*
X0205061Y0043643D01*
X0206433Y0043643D01*
X0207701Y0044169D01*
X0208672Y0045139D01*
X0209197Y0046407D01*
X0209197Y0047780D01*
X0208672Y0049048D01*
X0207701Y0050018D01*
X0206433Y0050543D01*
X0205833Y0050543D01*
X0204675Y0051701D01*
X0203756Y0052081D01*
X0190634Y0052081D01*
X0173535Y0069181D01*
X0174267Y0069913D01*
X0174792Y0071181D01*
X0174792Y0071781D01*
X0205058Y0102048D01*
X0205439Y0102966D01*
X0205439Y0182955D01*
X0205864Y0183380D01*
X0206389Y0184648D01*
X0206389Y0185693D01*
X0209884Y0185693D01*
X0224369Y0171208D01*
X0224369Y0170607D01*
X0224894Y0169339D01*
X0225865Y0168369D01*
X0227133Y0167843D01*
X0228505Y0167843D01*
X0228970Y0168036D01*
X0228970Y0102050D01*
X0229350Y0101131D01*
X0250075Y0080406D01*
X0250778Y0079703D01*
X0251697Y0079322D01*
X0252077Y0079322D01*
X0252502Y0078898D01*
X0253770Y0078372D01*
X0255143Y0078372D01*
X0256316Y0078859D01*
X0257490Y0078372D01*
X0258655Y0078372D01*
X0258655Y0066686D01*
X0258230Y0066262D01*
X0257705Y0064994D01*
X0257705Y0063621D01*
X0258230Y0062353D01*
X0259200Y0061383D01*
X0260468Y0060857D01*
X0261841Y0060857D01*
X0263109Y0061383D01*
X0264079Y0062353D01*
X0264605Y0063621D01*
X0264605Y0064994D01*
X0264079Y0066262D01*
X0263655Y0066686D01*
X0263655Y0096627D01*
X0263274Y0097546D01*
X0262571Y0098249D01*
X0260777Y0100043D01*
X0261107Y0100264D01*
X0261474Y0100631D01*
X0261763Y0101063D01*
X0261962Y0101543D01*
X0262063Y0102052D01*
X0262063Y0102312D01*
X0259426Y0102312D01*
X0259426Y0102312D01*
X0262063Y0102312D01*
X0262063Y0102572D01*
X0261962Y0103081D01*
X0261763Y0103561D01*
X0261474Y0103993D01*
X0261107Y0104361D01*
X0260675Y0104649D01*
X0260195Y0104848D01*
X0259685Y0104950D01*
X0259426Y0104950D01*
X0259426Y0102312D01*
X0259426Y0102312D01*
X0259426Y0104950D01*
X0259166Y0104950D01*
X0258656Y0104848D01*
X0258176Y0104649D01*
X0257744Y0104361D01*
X0257377Y0103993D01*
X0257365Y0103975D01*
X0257365Y0110590D01*
X0257556Y0110590D01*
X0277268Y0090877D01*
X0278187Y0090497D01*
X0342620Y0090497D01*
X0342758Y0090165D01*
X0344165Y0088758D01*
X0346002Y0087997D01*
X0353991Y0087997D01*
X0355829Y0088758D01*
X0357236Y0090165D01*
X0357997Y0092002D01*
X0357997Y0093991D01*
X0357236Y0095829D01*
X0355829Y0097236D01*
X0353991Y0097997D01*
X0355829Y0098758D01*
X0357236Y0100165D01*
X0357373Y0100497D01*
X0357795Y0100497D01*
X0358713Y0100877D01*
X0359417Y0101581D01*
X0359797Y0102500D01*
X0359797Y0115459D01*
X0359417Y0116378D01*
X0358713Y0117081D01*
X0356433Y0119362D01*
X0357236Y0120165D01*
X0357997Y0122002D01*
X0357997Y0123991D01*
X0357236Y0125829D01*
X0355829Y0127236D01*
X0353991Y0127997D01*
X0355829Y0128758D01*
X0357236Y0130165D01*
X0357997Y0132002D01*
X0357997Y0133991D01*
X0357236Y0135829D01*
X0355829Y0137236D01*
X0353991Y0137997D01*
X0346002Y0137997D01*
X0344165Y0137236D01*
X0342758Y0135829D01*
X0341997Y0133991D01*
X0341997Y0132002D01*
X0342758Y0130165D01*
X0344165Y0128758D01*
X0346002Y0127997D01*
X0353991Y0127997D01*
X0346002Y0127997D01*
X0344165Y0127236D01*
X0343011Y0126082D01*
X0274069Y0195024D01*
X0274829Y0195784D01*
X0275355Y0197052D01*
X0275355Y0198037D01*
X0275463Y0198300D01*
X0275463Y0202912D01*
X0345259Y0202912D01*
X0345684Y0202487D01*
X0346952Y0201962D01*
X0348324Y0201962D01*
X0349592Y0202487D01*
X0350563Y0203458D01*
X0351088Y0204726D01*
X0351088Y0206098D01*
X0350563Y0207366D01*
X0349592Y0208337D01*
X0348324Y0208862D01*
X0346952Y0208862D01*
X0345684Y0208337D01*
X0345259Y0207912D01*
X0275463Y0207912D01*
X0275463Y0301661D01*
X0275083Y0302580D01*
X0274380Y0303283D01*
X0253297Y0324365D01*
X0253297Y0324966D01*
X0252772Y0326234D01*
X0252069Y0326936D01*
X0263193Y0338059D01*
X0276531Y0338059D01*
X0277450Y0338440D01*
X0278153Y0339143D01*
X0278534Y0340062D01*
X0278534Y0340483D01*
X0278534Y0340483D01*
X0278534Y0323262D01*
X0278914Y0322343D01*
X0279618Y0321640D01*
X0340980Y0260277D01*
X0341899Y0259897D01*
X0342320Y0259897D01*
X0342458Y0259565D01*
X0343865Y0258158D01*
X0345702Y0257397D01*
X0353691Y0257397D01*
X0355529Y0258158D01*
X0356936Y0259565D01*
X0357697Y0261402D01*
X0357697Y0263391D01*
X0356936Y0265229D01*
X0355529Y0266636D01*
X0353691Y0267397D01*
X0355529Y0268158D01*
X0356936Y0269565D01*
X0357697Y0271402D01*
X0357697Y0273391D01*
X0356936Y0275229D01*
X0355529Y0276636D01*
X0353691Y0277397D01*
X0355529Y0278158D01*
X0356936Y0279565D01*
X0357697Y0281402D01*
X0357697Y0283391D01*
X0356936Y0285229D01*
X0355529Y0286636D01*
X0353691Y0287397D01*
X0355529Y0288158D01*
X0356936Y0289565D01*
X0357697Y0291402D01*
X0357697Y0293391D01*
X0356936Y0295229D01*
X0355529Y0296636D01*
X0353691Y0297397D01*
X0355529Y0298158D01*
X0356936Y0299565D01*
X0357697Y0301402D01*
X0357697Y0303391D01*
X0356936Y0305229D01*
X0355529Y0306636D01*
X0353691Y0307397D01*
X0345702Y0307397D01*
X0344896Y0307063D01*
X0344896Y0308615D01*
X0345089Y0308516D01*
X0345716Y0308313D01*
X0346367Y0308209D01*
X0349297Y0308209D01*
X0349297Y0311997D01*
X0350097Y0311997D01*
X0350097Y0312797D01*
X0349297Y0312797D01*
X0349297Y0316584D01*
X0346367Y0316584D01*
X0345716Y0316481D01*
X0345089Y0316277D01*
X0344896Y0316179D01*
X0344896Y0321842D01*
X0344516Y0322761D01*
X0342897Y0324380D01*
X0345759Y0324380D01*
X0350674Y0325823D01*
X0354984Y0328593D01*
X0354984Y0328593D01*
X0358339Y0332465D01*
X0360468Y0337126D01*
X0361197Y0342197D01*
X0360468Y0347268D01*
X0358339Y0351928D01*
X0354984Y0355800D01*
X0350674Y0358570D01*
X0347859Y0359397D01*
X0361397Y0359397D01*
X0361397Y0039997D01*
X0347859Y0039997D01*
X0350674Y0040823D01*
X0354984Y0043593D01*
X0354984Y0043593D01*
X0358339Y0047465D01*
X0360468Y0052126D01*
X0361197Y0057197D01*
X0360468Y0062268D01*
X0358339Y0066928D01*
X0354984Y0070800D01*
X0350674Y0073570D01*
X0345759Y0075014D01*
X0340635Y0075014D01*
X0335719Y0073570D01*
X0331409Y0070800D01*
X0328054Y0066928D01*
X0326966Y0064545D01*
X0325827Y0067295D01*
X0323295Y0069827D01*
X0319987Y0071197D01*
X0316407Y0071197D01*
X0313099Y0069827D01*
X0310567Y0067295D01*
X0309197Y0063987D01*
X0309197Y0060407D01*
X0310567Y0057099D01*
X0313099Y0054567D01*
X0316407Y0053197D01*
X0319987Y0053197D01*
X0323295Y0054567D01*
X0325288Y0056560D01*
X0325926Y0052126D01*
X0325926Y0052126D01*
X0328054Y0047465D01*
X0331409Y0043593D01*
X0331409Y0043593D01*
X0335719Y0040823D01*
X0335719Y0040823D01*
X0338535Y0039997D01*
X0201512Y0039997D01*
X0201675Y0040221D01*
X0201999Y0040856D01*
X0202219Y0041535D01*
X0202324Y0042197D01*
X0202107Y0041189D02*
X0335150Y0041189D01*
X0337193Y0040391D02*
X0201761Y0040391D01*
X0202231Y0043585D02*
X0331422Y0043585D01*
X0330725Y0044383D02*
X0207916Y0044383D01*
X0208690Y0045182D02*
X0330033Y0045182D01*
X0329341Y0045980D02*
X0209021Y0045980D01*
X0209197Y0046779D02*
X0328649Y0046779D01*
X0328054Y0047465D02*
X0328054Y0047465D01*
X0328003Y0047577D02*
X0209197Y0047577D01*
X0208950Y0048376D02*
X0327638Y0048376D01*
X0327274Y0049175D02*
X0208545Y0049175D01*
X0207747Y0049973D02*
X0326909Y0049973D01*
X0326544Y0050772D02*
X0205605Y0050772D01*
X0204806Y0051570D02*
X0326180Y0051570D01*
X0325891Y0052369D02*
X0190347Y0052369D01*
X0189549Y0053167D02*
X0325776Y0053167D01*
X0325661Y0053966D02*
X0321843Y0053966D01*
X0323492Y0054764D02*
X0325547Y0054764D01*
X0325432Y0055563D02*
X0324291Y0055563D01*
X0325089Y0056361D02*
X0325317Y0056361D01*
X0326717Y0065145D02*
X0327240Y0065145D01*
X0327604Y0065943D02*
X0326387Y0065943D01*
X0326056Y0066742D02*
X0327969Y0066742D01*
X0328054Y0066928D02*
X0328054Y0066928D01*
X0328584Y0067540D02*
X0325581Y0067540D01*
X0324783Y0068339D02*
X0329276Y0068339D01*
X0329968Y0069137D02*
X0323984Y0069137D01*
X0323031Y0069936D02*
X0330660Y0069936D01*
X0331352Y0070734D02*
X0321104Y0070734D01*
X0315290Y0070734D02*
X0263655Y0070734D01*
X0263655Y0069936D02*
X0295486Y0069936D01*
X0295559Y0069966D02*
X0294568Y0069556D01*
X0293638Y0069019D01*
X0292787Y0068366D01*
X0292028Y0067607D01*
X0291375Y0066755D01*
X0290838Y0065826D01*
X0290427Y0064834D01*
X0290150Y0063798D01*
X0290009Y0062733D01*
X0290009Y0062597D01*
X0297797Y0062597D01*
X0297797Y0070384D01*
X0297660Y0070384D01*
X0296596Y0070244D01*
X0295559Y0069966D01*
X0293843Y0069137D02*
X0263655Y0069137D01*
X0263655Y0068339D02*
X0292760Y0068339D01*
X0291977Y0067540D02*
X0263655Y0067540D01*
X0263655Y0066742D02*
X0291367Y0066742D01*
X0290906Y0065943D02*
X0264211Y0065943D01*
X0264542Y0065145D02*
X0290556Y0065145D01*
X0290297Y0064346D02*
X0264605Y0064346D01*
X0264574Y0063548D02*
X0290117Y0063548D01*
X0290012Y0062749D02*
X0264243Y0062749D01*
X0263677Y0061951D02*
X0297797Y0061951D01*
X0297797Y0061797D02*
X0290009Y0061797D01*
X0290009Y0061660D01*
X0290150Y0060596D01*
X0290427Y0059559D01*
X0290838Y0058568D01*
X0291375Y0057638D01*
X0292028Y0056787D01*
X0292787Y0056028D01*
X0293638Y0055375D01*
X0294568Y0054838D01*
X0295559Y0054427D01*
X0296596Y0054150D01*
X0297660Y0054009D01*
X0297797Y0054009D01*
X0297797Y0061797D01*
X0298597Y0061797D01*
X0298597Y0062597D01*
X0306384Y0062597D01*
X0306384Y0062733D01*
X0306244Y0063798D01*
X0305966Y0064834D01*
X0305556Y0065826D01*
X0305019Y0066755D01*
X0304366Y0067607D01*
X0303607Y0068366D01*
X0302755Y0069019D01*
X0301826Y0069556D01*
X0300834Y0069966D01*
X0299798Y0070244D01*
X0298733Y0070384D01*
X0298597Y0070384D01*
X0298597Y0062597D01*
X0297797Y0062597D01*
X0297797Y0061797D01*
X0297797Y0061152D02*
X0298597Y0061152D01*
X0298597Y0061797D02*
X0298597Y0054009D01*
X0298733Y0054009D01*
X0299798Y0054150D01*
X0300834Y0054427D01*
X0301826Y0054838D01*
X0302755Y0055375D01*
X0303607Y0056028D01*
X0304366Y0056787D01*
X0305019Y0057638D01*
X0305556Y0058568D01*
X0305966Y0059559D01*
X0306244Y0060596D01*
X0306384Y0061660D01*
X0306384Y0061797D01*
X0298597Y0061797D01*
X0298597Y0061951D02*
X0309197Y0061951D01*
X0309197Y0062749D02*
X0306382Y0062749D01*
X0306277Y0063548D02*
X0309197Y0063548D01*
X0309346Y0064346D02*
X0306097Y0064346D01*
X0305838Y0065145D02*
X0309676Y0065145D01*
X0310007Y0065943D02*
X0305488Y0065943D01*
X0305027Y0066742D02*
X0310338Y0066742D01*
X0310812Y0067540D02*
X0304417Y0067540D01*
X0303634Y0068339D02*
X0311611Y0068339D01*
X0312409Y0069137D02*
X0302550Y0069137D01*
X0300908Y0069936D02*
X0313362Y0069936D01*
X0309197Y0061152D02*
X0306317Y0061152D01*
X0306179Y0060354D02*
X0309219Y0060354D01*
X0309550Y0059555D02*
X0305965Y0059555D01*
X0305634Y0058757D02*
X0309880Y0058757D01*
X0310211Y0057958D02*
X0305204Y0057958D01*
X0304652Y0057160D02*
X0310542Y0057160D01*
X0311305Y0056361D02*
X0303940Y0056361D01*
X0303000Y0055563D02*
X0312103Y0055563D01*
X0312902Y0054764D02*
X0301647Y0054764D01*
X0298597Y0054764D02*
X0297797Y0054764D01*
X0297797Y0055563D02*
X0298597Y0055563D01*
X0298597Y0056361D02*
X0297797Y0056361D01*
X0297797Y0057160D02*
X0298597Y0057160D01*
X0298597Y0057958D02*
X0297797Y0057958D01*
X0297797Y0058757D02*
X0298597Y0058757D01*
X0298597Y0059555D02*
X0297797Y0059555D01*
X0297797Y0060354D02*
X0298597Y0060354D01*
X0298597Y0062749D02*
X0297797Y0062749D01*
X0297797Y0063548D02*
X0298597Y0063548D01*
X0298597Y0064346D02*
X0297797Y0064346D01*
X0297797Y0065145D02*
X0298597Y0065145D01*
X0298597Y0065943D02*
X0297797Y0065943D01*
X0297797Y0066742D02*
X0298597Y0066742D01*
X0298597Y0067540D02*
X0297797Y0067540D01*
X0297797Y0068339D02*
X0298597Y0068339D01*
X0298597Y0069137D02*
X0297797Y0069137D01*
X0297797Y0069936D02*
X0298597Y0069936D01*
X0290076Y0061152D02*
X0262552Y0061152D01*
X0259757Y0061152D02*
X0181564Y0061152D01*
X0182362Y0060354D02*
X0290214Y0060354D01*
X0290429Y0059555D02*
X0183161Y0059555D01*
X0183959Y0058757D02*
X0290760Y0058757D01*
X0291190Y0057958D02*
X0184758Y0057958D01*
X0185556Y0057160D02*
X0291742Y0057160D01*
X0292454Y0056361D02*
X0186355Y0056361D01*
X0187153Y0055563D02*
X0293393Y0055563D01*
X0294746Y0054764D02*
X0187952Y0054764D01*
X0188750Y0053966D02*
X0314551Y0053966D01*
X0331409Y0070800D02*
X0331409Y0070800D01*
X0331409Y0070800D01*
X0332549Y0071533D02*
X0263655Y0071533D01*
X0263655Y0072331D02*
X0333792Y0072331D01*
X0335034Y0073130D02*
X0263655Y0073130D01*
X0263655Y0073928D02*
X0336939Y0073928D01*
X0335719Y0073570D02*
X0335719Y0073570D01*
X0339659Y0074727D02*
X0263655Y0074727D01*
X0263655Y0075525D02*
X0361397Y0075525D01*
X0361397Y0074727D02*
X0346735Y0074727D01*
X0349455Y0073928D02*
X0361397Y0073928D01*
X0361397Y0073130D02*
X0351360Y0073130D01*
X0350674Y0073570D02*
X0350674Y0073570D01*
X0352602Y0072331D02*
X0361397Y0072331D01*
X0361397Y0071533D02*
X0353845Y0071533D01*
X0354984Y0070800D02*
X0354984Y0070800D01*
X0355042Y0070734D02*
X0361397Y0070734D01*
X0361397Y0069936D02*
X0355733Y0069936D01*
X0356425Y0069137D02*
X0361397Y0069137D01*
X0361397Y0068339D02*
X0357117Y0068339D01*
X0357809Y0067540D02*
X0361397Y0067540D01*
X0361397Y0066742D02*
X0358425Y0066742D01*
X0358339Y0066928D02*
X0358339Y0066928D01*
X0358789Y0065943D02*
X0361397Y0065943D01*
X0361397Y0065145D02*
X0359154Y0065145D01*
X0359519Y0064346D02*
X0361397Y0064346D01*
X0361397Y0063548D02*
X0359883Y0063548D01*
X0360248Y0062749D02*
X0361397Y0062749D01*
X0361397Y0061951D02*
X0360513Y0061951D01*
X0360468Y0062268D02*
X0360468Y0062268D01*
X0360628Y0061152D02*
X0361397Y0061152D01*
X0361397Y0060354D02*
X0360743Y0060354D01*
X0360858Y0059555D02*
X0361397Y0059555D01*
X0361397Y0058757D02*
X0360973Y0058757D01*
X0361087Y0057958D02*
X0361397Y0057958D01*
X0361397Y0057160D02*
X0361191Y0057160D01*
X0361077Y0056361D02*
X0361397Y0056361D01*
X0361397Y0055563D02*
X0360962Y0055563D01*
X0360847Y0054764D02*
X0361397Y0054764D01*
X0361397Y0053966D02*
X0360732Y0053966D01*
X0360617Y0053167D02*
X0361397Y0053167D01*
X0361397Y0052369D02*
X0360503Y0052369D01*
X0360468Y0052126D02*
X0360468Y0052126D01*
X0360214Y0051570D02*
X0361397Y0051570D01*
X0361397Y0050772D02*
X0359849Y0050772D01*
X0359485Y0049973D02*
X0361397Y0049973D01*
X0361397Y0049175D02*
X0359120Y0049175D01*
X0358755Y0048376D02*
X0361397Y0048376D01*
X0361397Y0047577D02*
X0358391Y0047577D01*
X0358339Y0047465D02*
X0358339Y0047465D01*
X0357745Y0046779D02*
X0361397Y0046779D01*
X0361397Y0045980D02*
X0357053Y0045980D01*
X0356361Y0045182D02*
X0361397Y0045182D01*
X0361397Y0044383D02*
X0355669Y0044383D01*
X0354984Y0043593D02*
X0354984Y0043593D01*
X0354971Y0043585D02*
X0361397Y0043585D01*
X0361397Y0042786D02*
X0353729Y0042786D01*
X0352486Y0041988D02*
X0361397Y0041988D01*
X0361397Y0041189D02*
X0351244Y0041189D01*
X0350674Y0040823D02*
X0350674Y0040823D01*
X0349201Y0040391D02*
X0361397Y0040391D01*
X0361397Y0076324D02*
X0263655Y0076324D01*
X0263655Y0077122D02*
X0361397Y0077122D01*
X0361397Y0077921D02*
X0263655Y0077921D01*
X0263655Y0078719D02*
X0361397Y0078719D01*
X0361397Y0079518D02*
X0263655Y0079518D01*
X0263655Y0080316D02*
X0361397Y0080316D01*
X0361397Y0081115D02*
X0263655Y0081115D01*
X0263655Y0081913D02*
X0361397Y0081913D01*
X0361397Y0082712D02*
X0263655Y0082712D01*
X0263655Y0083510D02*
X0361397Y0083510D01*
X0361397Y0084309D02*
X0263655Y0084309D01*
X0263655Y0085108D02*
X0361397Y0085108D01*
X0361397Y0085906D02*
X0263655Y0085906D01*
X0263655Y0086705D02*
X0361397Y0086705D01*
X0361397Y0087503D02*
X0263655Y0087503D01*
X0263655Y0088302D02*
X0345267Y0088302D01*
X0343823Y0089100D02*
X0263655Y0089100D01*
X0263655Y0089899D02*
X0343024Y0089899D01*
X0342620Y0095497D02*
X0279720Y0095497D01*
X0261092Y0114125D01*
X0261092Y0114726D01*
X0260566Y0115994D01*
X0259596Y0116965D01*
X0258328Y0117490D01*
X0257365Y0117490D01*
X0257365Y0152794D01*
X0266243Y0143916D01*
X0266243Y0143278D01*
X0265819Y0142853D01*
X0265293Y0141585D01*
X0265293Y0140213D01*
X0265819Y0138945D01*
X0266789Y0137974D01*
X0268057Y0137449D01*
X0269430Y0137449D01*
X0270698Y0137974D01*
X0271668Y0138945D01*
X0272193Y0140213D01*
X0272193Y0140513D01*
X0280066Y0132640D01*
X0280066Y0106456D01*
X0279641Y0106031D01*
X0279116Y0104763D01*
X0279116Y0103391D01*
X0279641Y0102122D01*
X0280612Y0101152D01*
X0281880Y0100627D01*
X0283252Y0100627D01*
X0284520Y0101152D01*
X0285491Y0102122D01*
X0286016Y0103391D01*
X0286016Y0104763D01*
X0285491Y0106031D01*
X0285066Y0106456D01*
X0285066Y0134173D01*
X0284686Y0135092D01*
X0283982Y0135795D01*
X0232811Y0186966D01*
X0231893Y0187346D01*
X0231671Y0187346D01*
X0226432Y0192585D01*
X0231895Y0192585D01*
X0232813Y0192966D01*
X0234298Y0194451D01*
X0235002Y0195154D01*
X0235382Y0196073D01*
X0235382Y0216775D01*
X0340577Y0111581D01*
X0341280Y0110877D01*
X0342199Y0110497D01*
X0342620Y0110497D01*
X0342758Y0110165D01*
X0344165Y0108758D01*
X0346002Y0107997D01*
X0353991Y0107997D01*
X0346002Y0107997D01*
X0344165Y0107236D01*
X0342758Y0105829D01*
X0341997Y0103991D01*
X0341997Y0102002D01*
X0342758Y0100165D01*
X0344165Y0098758D01*
X0346002Y0097997D01*
X0353991Y0097997D01*
X0346002Y0097997D01*
X0344165Y0097236D01*
X0342758Y0095829D01*
X0342620Y0095497D01*
X0343216Y0096287D02*
X0278930Y0096287D01*
X0278132Y0097085D02*
X0344014Y0097085D01*
X0344348Y0098682D02*
X0276535Y0098682D01*
X0277333Y0097884D02*
X0345729Y0097884D01*
X0343442Y0099481D02*
X0275736Y0099481D01*
X0274938Y0100279D02*
X0342711Y0100279D01*
X0342380Y0101078D02*
X0284341Y0101078D01*
X0285245Y0101876D02*
X0342049Y0101876D01*
X0341997Y0102675D02*
X0285720Y0102675D01*
X0286016Y0103473D02*
X0341997Y0103473D01*
X0342113Y0104272D02*
X0286016Y0104272D01*
X0285889Y0105070D02*
X0342444Y0105070D01*
X0342798Y0105869D02*
X0285558Y0105869D01*
X0285066Y0106667D02*
X0343596Y0106667D01*
X0344720Y0107466D02*
X0285066Y0107466D01*
X0285066Y0108264D02*
X0345356Y0108264D01*
X0343860Y0109063D02*
X0285066Y0109063D01*
X0285066Y0109861D02*
X0343061Y0109861D01*
X0341806Y0110660D02*
X0285066Y0110660D01*
X0285066Y0111458D02*
X0340699Y0111458D01*
X0339901Y0112257D02*
X0285066Y0112257D01*
X0285066Y0113055D02*
X0339102Y0113055D01*
X0338304Y0113854D02*
X0285066Y0113854D01*
X0285066Y0114652D02*
X0337505Y0114652D01*
X0336707Y0115451D02*
X0285066Y0115451D01*
X0285066Y0116249D02*
X0335908Y0116249D01*
X0335110Y0117048D02*
X0285066Y0117048D01*
X0285066Y0117846D02*
X0334311Y0117846D01*
X0333513Y0118645D02*
X0285066Y0118645D01*
X0285066Y0119444D02*
X0332714Y0119444D01*
X0331916Y0120242D02*
X0285066Y0120242D01*
X0285066Y0121041D02*
X0331117Y0121041D01*
X0330319Y0121839D02*
X0285066Y0121839D01*
X0285066Y0122638D02*
X0329520Y0122638D01*
X0328722Y0123436D02*
X0285066Y0123436D01*
X0285066Y0124235D02*
X0327923Y0124235D01*
X0327125Y0125033D02*
X0285066Y0125033D01*
X0285066Y0125832D02*
X0326326Y0125832D01*
X0325528Y0126630D02*
X0285066Y0126630D01*
X0285066Y0127429D02*
X0324729Y0127429D01*
X0323931Y0128227D02*
X0285066Y0128227D01*
X0285066Y0129026D02*
X0323132Y0129026D01*
X0322334Y0129824D02*
X0285066Y0129824D01*
X0285066Y0130623D02*
X0321535Y0130623D01*
X0320737Y0131421D02*
X0285066Y0131421D01*
X0285066Y0132220D02*
X0319938Y0132220D01*
X0319140Y0133018D02*
X0285066Y0133018D01*
X0285066Y0133817D02*
X0318341Y0133817D01*
X0317543Y0134615D02*
X0284883Y0134615D01*
X0284363Y0135414D02*
X0316744Y0135414D01*
X0315945Y0136212D02*
X0283565Y0136212D01*
X0282766Y0137011D02*
X0315147Y0137011D01*
X0314348Y0137809D02*
X0281968Y0137809D01*
X0281169Y0138608D02*
X0313550Y0138608D01*
X0312751Y0139406D02*
X0280371Y0139406D01*
X0279572Y0140205D02*
X0311953Y0140205D01*
X0311154Y0141003D02*
X0278774Y0141003D01*
X0277975Y0141802D02*
X0310356Y0141802D01*
X0309557Y0142600D02*
X0277177Y0142600D01*
X0276378Y0143399D02*
X0308759Y0143399D01*
X0307960Y0144197D02*
X0275580Y0144197D01*
X0274781Y0144996D02*
X0307162Y0144996D01*
X0306363Y0145794D02*
X0273983Y0145794D01*
X0273184Y0146593D02*
X0305565Y0146593D01*
X0304766Y0147391D02*
X0272386Y0147391D01*
X0271587Y0148190D02*
X0303968Y0148190D01*
X0303169Y0148988D02*
X0270789Y0148988D01*
X0269990Y0149787D02*
X0302371Y0149787D01*
X0301572Y0150585D02*
X0269192Y0150585D01*
X0268393Y0151384D02*
X0300774Y0151384D01*
X0299975Y0152182D02*
X0267595Y0152182D01*
X0266796Y0152981D02*
X0299177Y0152981D01*
X0298378Y0153779D02*
X0265998Y0153779D01*
X0265199Y0154578D02*
X0297580Y0154578D01*
X0296781Y0155377D02*
X0264401Y0155377D01*
X0263602Y0156175D02*
X0295983Y0156175D01*
X0295184Y0156974D02*
X0262804Y0156974D01*
X0262005Y0157772D02*
X0294386Y0157772D01*
X0293587Y0158571D02*
X0261207Y0158571D01*
X0260408Y0159369D02*
X0292789Y0159369D01*
X0291990Y0160168D02*
X0259610Y0160168D01*
X0258811Y0160966D02*
X0291192Y0160966D01*
X0290393Y0161765D02*
X0258013Y0161765D01*
X0257214Y0162563D02*
X0266919Y0162563D01*
X0266937Y0162559D02*
X0267197Y0162559D01*
X0267457Y0162559D01*
X0267966Y0162661D01*
X0268446Y0162860D01*
X0268878Y0163148D01*
X0269245Y0163516D01*
X0269534Y0163948D01*
X0269733Y0164428D01*
X0269834Y0164937D01*
X0269834Y0165197D01*
X0269834Y0165457D01*
X0269733Y0165966D01*
X0269534Y0166446D01*
X0269245Y0166878D01*
X0268878Y0167245D01*
X0268446Y0167534D01*
X0267966Y0167733D01*
X0267457Y0167834D01*
X0267197Y0167834D01*
X0267197Y0165197D01*
X0269834Y0165197D01*
X0267197Y0165197D01*
X0267197Y0165197D01*
X0267197Y0165197D01*
X0267197Y0167834D01*
X0266937Y0167834D01*
X0266428Y0167733D01*
X0265948Y0167534D01*
X0265516Y0167245D01*
X0265148Y0166878D01*
X0264860Y0166446D01*
X0264661Y0165966D01*
X0264559Y0165457D01*
X0264559Y0165197D01*
X0267197Y0165197D01*
X0267197Y0162559D01*
X0267197Y0165197D01*
X0267197Y0165197D01*
X0267197Y0165197D01*
X0264559Y0165197D01*
X0264559Y0164937D01*
X0264661Y0164428D01*
X0264860Y0163948D01*
X0265148Y0163516D01*
X0265516Y0163148D01*
X0265948Y0162860D01*
X0266428Y0162661D01*
X0266937Y0162559D01*
X0267197Y0162563D02*
X0267197Y0162563D01*
X0267475Y0162563D02*
X0289595Y0162563D01*
X0288796Y0163362D02*
X0269091Y0163362D01*
X0269622Y0164160D02*
X0287998Y0164160D01*
X0287199Y0164959D02*
X0269834Y0164959D01*
X0269774Y0165757D02*
X0286401Y0165757D01*
X0285602Y0166556D02*
X0269461Y0166556D01*
X0268715Y0167354D02*
X0284804Y0167354D01*
X0284005Y0168153D02*
X0251625Y0168153D01*
X0252423Y0167354D02*
X0265678Y0167354D01*
X0264933Y0166556D02*
X0253222Y0166556D01*
X0254020Y0165757D02*
X0264619Y0165757D01*
X0264559Y0164959D02*
X0254819Y0164959D01*
X0255617Y0164160D02*
X0264772Y0164160D01*
X0265302Y0163362D02*
X0256416Y0163362D01*
X0250826Y0168951D02*
X0283207Y0168951D01*
X0282408Y0169750D02*
X0250028Y0169750D01*
X0249229Y0170548D02*
X0281610Y0170548D01*
X0280811Y0171347D02*
X0248430Y0171347D01*
X0247632Y0172145D02*
X0280012Y0172145D01*
X0279214Y0172944D02*
X0246833Y0172944D01*
X0246035Y0173742D02*
X0278415Y0173742D01*
X0277617Y0174541D02*
X0245236Y0174541D01*
X0244438Y0175339D02*
X0276818Y0175339D01*
X0276020Y0176138D02*
X0243639Y0176138D01*
X0242841Y0176936D02*
X0275221Y0176936D01*
X0274423Y0177735D02*
X0242042Y0177735D01*
X0241244Y0178533D02*
X0273624Y0178533D01*
X0272826Y0179332D02*
X0240445Y0179332D01*
X0239647Y0180130D02*
X0272027Y0180130D01*
X0271229Y0180929D02*
X0238848Y0180929D01*
X0238050Y0181727D02*
X0270430Y0181727D01*
X0269632Y0182526D02*
X0237251Y0182526D01*
X0236453Y0183324D02*
X0268833Y0183324D01*
X0268035Y0184123D02*
X0235654Y0184123D01*
X0234856Y0184921D02*
X0267236Y0184921D01*
X0266438Y0185720D02*
X0234057Y0185720D01*
X0233259Y0186518D02*
X0265639Y0186518D01*
X0264841Y0187317D02*
X0231964Y0187317D01*
X0230902Y0188115D02*
X0264042Y0188115D01*
X0263244Y0188914D02*
X0230103Y0188914D01*
X0229305Y0189712D02*
X0262445Y0189712D01*
X0261647Y0190511D02*
X0228506Y0190511D01*
X0227708Y0191310D02*
X0260848Y0191310D01*
X0260050Y0192108D02*
X0226909Y0192108D01*
X0232670Y0192907D02*
X0259251Y0192907D01*
X0258453Y0193705D02*
X0233552Y0193705D01*
X0234351Y0194504D02*
X0257654Y0194504D01*
X0256856Y0195302D02*
X0235063Y0195302D01*
X0235382Y0196101D02*
X0256057Y0196101D01*
X0255259Y0196899D02*
X0235382Y0196899D01*
X0235382Y0197698D02*
X0254460Y0197698D01*
X0253662Y0198496D02*
X0235382Y0198496D01*
X0235382Y0199295D02*
X0252863Y0199295D01*
X0252065Y0200093D02*
X0235382Y0200093D01*
X0235382Y0200892D02*
X0251266Y0200892D01*
X0250468Y0201690D02*
X0235382Y0201690D01*
X0235382Y0202489D02*
X0249669Y0202489D01*
X0248871Y0203287D02*
X0235382Y0203287D01*
X0235382Y0204086D02*
X0248072Y0204086D01*
X0247274Y0204884D02*
X0235382Y0204884D01*
X0235382Y0205683D02*
X0246475Y0205683D01*
X0245677Y0206481D02*
X0235382Y0206481D01*
X0235382Y0207280D02*
X0244878Y0207280D01*
X0244079Y0208078D02*
X0235382Y0208078D01*
X0235382Y0208877D02*
X0243281Y0208877D01*
X0242482Y0209675D02*
X0235382Y0209675D01*
X0235382Y0210474D02*
X0241684Y0210474D01*
X0240885Y0211272D02*
X0235382Y0211272D01*
X0235382Y0212071D02*
X0240087Y0212071D01*
X0239288Y0212869D02*
X0235382Y0212869D01*
X0235382Y0213668D02*
X0238490Y0213668D01*
X0237691Y0214466D02*
X0235382Y0214466D01*
X0235382Y0215265D02*
X0236893Y0215265D01*
X0236094Y0216063D02*
X0235382Y0216063D01*
X0245483Y0223610D02*
X0245483Y0230239D01*
X0245103Y0231158D01*
X0244400Y0231862D01*
X0237777Y0238484D01*
X0236858Y0238865D01*
X0230743Y0238865D01*
X0229824Y0238484D01*
X0229121Y0237781D01*
X0226677Y0235337D01*
X0226677Y0301544D01*
X0247190Y0322057D01*
X0247893Y0321355D01*
X0249161Y0320830D01*
X0249761Y0320830D01*
X0270463Y0300128D01*
X0270463Y0200875D01*
X0269950Y0200663D01*
X0269190Y0199903D01*
X0245483Y0223610D01*
X0245483Y0224048D02*
X0270463Y0224048D01*
X0270463Y0223250D02*
X0245843Y0223250D01*
X0246642Y0222451D02*
X0270463Y0222451D01*
X0270463Y0221653D02*
X0247440Y0221653D01*
X0248239Y0220854D02*
X0270463Y0220854D01*
X0270463Y0220056D02*
X0249037Y0220056D01*
X0249836Y0219257D02*
X0270463Y0219257D01*
X0270463Y0218459D02*
X0250634Y0218459D01*
X0251433Y0217660D02*
X0270463Y0217660D01*
X0270463Y0216862D02*
X0252231Y0216862D01*
X0253030Y0216063D02*
X0270463Y0216063D01*
X0270463Y0215265D02*
X0253829Y0215265D01*
X0254627Y0214466D02*
X0270463Y0214466D01*
X0270463Y0213668D02*
X0255426Y0213668D01*
X0256224Y0212869D02*
X0270463Y0212869D01*
X0270463Y0212071D02*
X0257023Y0212071D01*
X0257821Y0211272D02*
X0270463Y0211272D01*
X0270463Y0210474D02*
X0258620Y0210474D01*
X0259418Y0209675D02*
X0270463Y0209675D01*
X0270463Y0208877D02*
X0260217Y0208877D01*
X0261015Y0208078D02*
X0270463Y0208078D01*
X0270463Y0207280D02*
X0261814Y0207280D01*
X0262612Y0206481D02*
X0270463Y0206481D01*
X0270463Y0205683D02*
X0263411Y0205683D01*
X0264209Y0204884D02*
X0270463Y0204884D01*
X0270463Y0204086D02*
X0265008Y0204086D01*
X0265806Y0203287D02*
X0270463Y0203287D01*
X0270463Y0202489D02*
X0266605Y0202489D01*
X0267403Y0201690D02*
X0270463Y0201690D01*
X0270463Y0200892D02*
X0268202Y0200892D01*
X0269000Y0200093D02*
X0269381Y0200093D01*
X0275463Y0200093D02*
X0349852Y0200093D01*
X0350039Y0200350D02*
X0349619Y0199773D01*
X0349295Y0199137D01*
X0349075Y0198459D01*
X0348970Y0197797D01*
X0353097Y0197797D01*
X0353097Y0201924D01*
X0352435Y0201819D01*
X0351756Y0201599D01*
X0351121Y0201275D01*
X0350543Y0200855D01*
X0350039Y0200350D01*
X0350594Y0200892D02*
X0275463Y0200892D01*
X0275463Y0201690D02*
X0352039Y0201690D01*
X0353097Y0201690D02*
X0353897Y0201690D01*
X0353897Y0201924D02*
X0354559Y0201819D01*
X0355237Y0201599D01*
X0355873Y0201275D01*
X0356450Y0200855D01*
X0356955Y0200350D01*
X0357375Y0199773D01*
X0357699Y0199137D01*
X0357919Y0198459D01*
X0358024Y0197797D01*
X0353897Y0197797D01*
X0353897Y0196997D01*
X0358024Y0196997D01*
X0357919Y0196335D01*
X0357699Y0195656D01*
X0357375Y0195021D01*
X0356955Y0194443D01*
X0356450Y0193939D01*
X0355873Y0193519D01*
X0355237Y0193195D01*
X0354559Y0192975D01*
X0353897Y0192870D01*
X0353897Y0196997D01*
X0353097Y0196997D01*
X0353097Y0192870D01*
X0352435Y0192975D01*
X0351756Y0193195D01*
X0351121Y0193519D01*
X0350543Y0193939D01*
X0350039Y0194443D01*
X0349619Y0195021D01*
X0349295Y0195656D01*
X0349075Y0196335D01*
X0348970Y0196997D01*
X0353097Y0196997D01*
X0353097Y0197797D01*
X0353897Y0197797D01*
X0353897Y0201924D01*
X0353897Y0200892D02*
X0353097Y0200892D01*
X0353097Y0200093D02*
X0353897Y0200093D01*
X0353897Y0199295D02*
X0353097Y0199295D01*
X0353097Y0198496D02*
X0353897Y0198496D01*
X0353897Y0197698D02*
X0361397Y0197698D01*
X0361397Y0198496D02*
X0357907Y0198496D01*
X0357618Y0199295D02*
X0361397Y0199295D01*
X0361397Y0200093D02*
X0357142Y0200093D01*
X0356400Y0200892D02*
X0361397Y0200892D01*
X0361397Y0201690D02*
X0354955Y0201690D01*
X0353097Y0197698D02*
X0275355Y0197698D01*
X0275291Y0196899D02*
X0348985Y0196899D01*
X0349151Y0196101D02*
X0274961Y0196101D01*
X0274348Y0195302D02*
X0349476Y0195302D01*
X0349995Y0194504D02*
X0274590Y0194504D01*
X0275388Y0193705D02*
X0350865Y0193705D01*
X0352865Y0192907D02*
X0276187Y0192907D01*
X0276985Y0192108D02*
X0361397Y0192108D01*
X0361397Y0191310D02*
X0277784Y0191310D01*
X0278582Y0190511D02*
X0361397Y0190511D01*
X0361397Y0189712D02*
X0279381Y0189712D01*
X0280179Y0188914D02*
X0361397Y0188914D01*
X0361397Y0188115D02*
X0280978Y0188115D01*
X0281776Y0187317D02*
X0361397Y0187317D01*
X0361397Y0186518D02*
X0282575Y0186518D01*
X0283373Y0185720D02*
X0361397Y0185720D01*
X0361397Y0184921D02*
X0284172Y0184921D01*
X0284970Y0184123D02*
X0361397Y0184123D01*
X0361397Y0183324D02*
X0312760Y0183324D01*
X0312878Y0183245D02*
X0312446Y0183534D01*
X0311966Y0183733D01*
X0311457Y0183834D01*
X0311197Y0183834D01*
X0311197Y0181197D01*
X0313834Y0181197D01*
X0313834Y0181457D01*
X0313733Y0181966D01*
X0313534Y0182446D01*
X0313245Y0182878D01*
X0312878Y0183245D01*
X0313481Y0182526D02*
X0351935Y0182526D01*
X0351948Y0182534D02*
X0351516Y0182245D01*
X0351148Y0181878D01*
X0350860Y0181446D01*
X0350661Y0180966D01*
X0350559Y0180457D01*
X0350559Y0180197D01*
X0353197Y0180197D01*
X0355834Y0180197D01*
X0355834Y0180457D01*
X0355733Y0180966D01*
X0355534Y0181446D01*
X0355245Y0181878D01*
X0354878Y0182245D01*
X0354446Y0182534D01*
X0353966Y0182733D01*
X0353457Y0182834D01*
X0353197Y0182834D01*
X0353197Y0180197D01*
X0353197Y0180197D01*
X0353197Y0180197D01*
X0355834Y0180197D01*
X0355834Y0179937D01*
X0355733Y0179428D01*
X0355534Y0178948D01*
X0355245Y0178516D01*
X0354878Y0178148D01*
X0354446Y0177860D01*
X0353966Y0177661D01*
X0353457Y0177559D01*
X0353197Y0177559D01*
X0353197Y0180197D01*
X0353197Y0182834D01*
X0352937Y0182834D01*
X0352428Y0182733D01*
X0351948Y0182534D01*
X0351048Y0181727D02*
X0313780Y0181727D01*
X0313834Y0181197D02*
X0311197Y0181197D01*
X0311197Y0181197D01*
X0311197Y0181197D01*
X0311197Y0183834D01*
X0310937Y0183834D01*
X0310428Y0183733D01*
X0309948Y0183534D01*
X0309516Y0183245D01*
X0309148Y0182878D01*
X0308860Y0182446D01*
X0308661Y0181966D01*
X0308559Y0181457D01*
X0308559Y0181197D01*
X0311197Y0181197D01*
X0311197Y0178559D01*
X0311457Y0178559D01*
X0311966Y0178661D01*
X0312446Y0178860D01*
X0312878Y0179148D01*
X0313245Y0179516D01*
X0313534Y0179948D01*
X0313733Y0180428D01*
X0313834Y0180937D01*
X0313834Y0181197D01*
X0313833Y0180929D02*
X0350653Y0180929D01*
X0350559Y0180197D02*
X0350559Y0179937D01*
X0350661Y0179428D01*
X0350860Y0178948D01*
X0351148Y0178516D01*
X0351516Y0178148D01*
X0351948Y0177860D01*
X0352428Y0177661D01*
X0352937Y0177559D01*
X0353197Y0177559D01*
X0353197Y0180197D01*
X0353197Y0180197D01*
X0353197Y0180197D01*
X0350559Y0180197D01*
X0350559Y0180130D02*
X0313610Y0180130D01*
X0313062Y0179332D02*
X0350700Y0179332D01*
X0351136Y0178533D02*
X0290560Y0178533D01*
X0291359Y0177735D02*
X0352249Y0177735D01*
X0353197Y0177735D02*
X0353197Y0177735D01*
X0353197Y0178533D02*
X0353197Y0178533D01*
X0353197Y0179332D02*
X0353197Y0179332D01*
X0353197Y0180130D02*
X0353197Y0180130D01*
X0353197Y0180929D02*
X0353197Y0180929D01*
X0353197Y0181727D02*
X0353197Y0181727D01*
X0353197Y0182526D02*
X0353197Y0182526D01*
X0354458Y0182526D02*
X0361397Y0182526D01*
X0361397Y0181727D02*
X0355346Y0181727D01*
X0355740Y0180929D02*
X0361397Y0180929D01*
X0361397Y0180130D02*
X0355834Y0180130D01*
X0355693Y0179332D02*
X0361397Y0179332D01*
X0361397Y0178533D02*
X0355257Y0178533D01*
X0354145Y0177735D02*
X0361397Y0177735D01*
X0361397Y0176936D02*
X0292157Y0176936D01*
X0292956Y0176138D02*
X0361397Y0176138D01*
X0361397Y0175339D02*
X0293754Y0175339D01*
X0294553Y0174541D02*
X0361397Y0174541D01*
X0361397Y0173742D02*
X0295351Y0173742D01*
X0296150Y0172944D02*
X0361397Y0172944D01*
X0361397Y0172145D02*
X0296948Y0172145D01*
X0297747Y0171347D02*
X0361397Y0171347D01*
X0361397Y0170548D02*
X0298545Y0170548D01*
X0299344Y0169750D02*
X0361397Y0169750D01*
X0361397Y0168951D02*
X0300142Y0168951D01*
X0300941Y0168153D02*
X0361397Y0168153D01*
X0361397Y0167354D02*
X0301739Y0167354D01*
X0302538Y0166556D02*
X0361397Y0166556D01*
X0361397Y0165757D02*
X0303336Y0165757D01*
X0304135Y0164959D02*
X0361397Y0164959D01*
X0361397Y0164160D02*
X0304933Y0164160D01*
X0305732Y0163362D02*
X0361397Y0163362D01*
X0361397Y0162563D02*
X0306530Y0162563D01*
X0307329Y0161765D02*
X0361397Y0161765D01*
X0361397Y0160966D02*
X0308127Y0160966D01*
X0308926Y0160168D02*
X0361397Y0160168D01*
X0361397Y0159369D02*
X0309724Y0159369D01*
X0310523Y0158571D02*
X0361397Y0158571D01*
X0361397Y0157772D02*
X0311321Y0157772D01*
X0312120Y0156974D02*
X0361397Y0156974D01*
X0361397Y0156175D02*
X0312918Y0156175D01*
X0313717Y0155377D02*
X0361397Y0155377D01*
X0361397Y0154578D02*
X0314515Y0154578D01*
X0315314Y0153779D02*
X0361397Y0153779D01*
X0361397Y0152981D02*
X0316112Y0152981D01*
X0316911Y0152182D02*
X0361397Y0152182D01*
X0361397Y0151384D02*
X0317709Y0151384D01*
X0318508Y0150585D02*
X0361397Y0150585D01*
X0361397Y0149787D02*
X0319306Y0149787D01*
X0320105Y0148988D02*
X0361397Y0148988D01*
X0361397Y0148190D02*
X0320903Y0148190D01*
X0321702Y0147391D02*
X0361397Y0147391D01*
X0361397Y0146593D02*
X0355163Y0146593D01*
X0355192Y0146578D02*
X0354604Y0146877D01*
X0353977Y0147081D01*
X0353326Y0147184D01*
X0350397Y0147184D01*
X0350397Y0143397D01*
X0349597Y0143397D01*
X0349597Y0147184D01*
X0346667Y0147184D01*
X0346016Y0147081D01*
X0345389Y0146877D01*
X0344802Y0146578D01*
X0344269Y0146191D01*
X0343803Y0145725D01*
X0343415Y0145192D01*
X0343116Y0144604D01*
X0342913Y0143977D01*
X0342821Y0143397D01*
X0349597Y0143397D01*
X0349597Y0142597D01*
X0350397Y0142597D01*
X0350397Y0143397D01*
X0357173Y0143397D01*
X0357081Y0143977D01*
X0356877Y0144604D01*
X0356578Y0145192D01*
X0356191Y0145725D01*
X0355725Y0146191D01*
X0355192Y0146578D01*
X0356121Y0145794D02*
X0361397Y0145794D01*
X0361397Y0144996D02*
X0356678Y0144996D01*
X0357010Y0144197D02*
X0361397Y0144197D01*
X0361397Y0143399D02*
X0357173Y0143399D01*
X0357173Y0142597D02*
X0350397Y0142597D01*
X0350397Y0138809D01*
X0353326Y0138809D01*
X0353977Y0138913D01*
X0354604Y0139116D01*
X0355192Y0139415D01*
X0355725Y0139803D01*
X0356191Y0140269D01*
X0356578Y0140802D01*
X0356877Y0141389D01*
X0357081Y0142016D01*
X0357173Y0142597D01*
X0357011Y0141802D02*
X0361397Y0141802D01*
X0361397Y0142600D02*
X0350397Y0142600D01*
X0350397Y0141802D02*
X0349597Y0141802D01*
X0349597Y0142597D02*
X0349597Y0138809D01*
X0346667Y0138809D01*
X0346016Y0138913D01*
X0345389Y0139116D01*
X0344802Y0139415D01*
X0344269Y0139803D01*
X0343803Y0140269D01*
X0343415Y0140802D01*
X0343116Y0141389D01*
X0342913Y0142016D01*
X0342821Y0142597D01*
X0349597Y0142597D01*
X0349597Y0142600D02*
X0326493Y0142600D01*
X0327292Y0141802D02*
X0342982Y0141802D01*
X0343313Y0141003D02*
X0328090Y0141003D01*
X0328889Y0140205D02*
X0343867Y0140205D01*
X0344820Y0139406D02*
X0329687Y0139406D01*
X0330486Y0138608D02*
X0361397Y0138608D01*
X0361397Y0139406D02*
X0355174Y0139406D01*
X0356127Y0140205D02*
X0361397Y0140205D01*
X0361397Y0141003D02*
X0356681Y0141003D01*
X0354444Y0137809D02*
X0361397Y0137809D01*
X0361397Y0137011D02*
X0356054Y0137011D01*
X0356852Y0136212D02*
X0361397Y0136212D01*
X0361397Y0135414D02*
X0357408Y0135414D01*
X0357738Y0134615D02*
X0361397Y0134615D01*
X0361397Y0133817D02*
X0357997Y0133817D01*
X0357997Y0133018D02*
X0361397Y0133018D01*
X0361397Y0132220D02*
X0357997Y0132220D01*
X0357756Y0131421D02*
X0361397Y0131421D01*
X0361397Y0130623D02*
X0357425Y0130623D01*
X0356895Y0129824D02*
X0361397Y0129824D01*
X0361397Y0129026D02*
X0356097Y0129026D01*
X0354547Y0128227D02*
X0361397Y0128227D01*
X0361397Y0127429D02*
X0355363Y0127429D01*
X0356435Y0126630D02*
X0361397Y0126630D01*
X0361397Y0125832D02*
X0357233Y0125832D01*
X0357565Y0125033D02*
X0361397Y0125033D01*
X0361397Y0124235D02*
X0357896Y0124235D01*
X0357997Y0123436D02*
X0361397Y0123436D01*
X0361397Y0122638D02*
X0357997Y0122638D01*
X0357929Y0121839D02*
X0361397Y0121839D01*
X0361397Y0121041D02*
X0357598Y0121041D01*
X0357268Y0120242D02*
X0361397Y0120242D01*
X0361397Y0119444D02*
X0356515Y0119444D01*
X0357150Y0118645D02*
X0361397Y0118645D01*
X0361397Y0117846D02*
X0357948Y0117846D01*
X0358747Y0117048D02*
X0361397Y0117048D01*
X0361397Y0116249D02*
X0359470Y0116249D01*
X0359797Y0115451D02*
X0361397Y0115451D01*
X0361397Y0114652D02*
X0359797Y0114652D01*
X0359797Y0113854D02*
X0361397Y0113854D01*
X0361397Y0113055D02*
X0359797Y0113055D01*
X0359797Y0112257D02*
X0361397Y0112257D01*
X0361397Y0111458D02*
X0359797Y0111458D01*
X0359797Y0110660D02*
X0361397Y0110660D01*
X0361397Y0109861D02*
X0359797Y0109861D01*
X0359797Y0109063D02*
X0361397Y0109063D01*
X0361397Y0108264D02*
X0359797Y0108264D01*
X0359797Y0107466D02*
X0361397Y0107466D01*
X0361397Y0106667D02*
X0359797Y0106667D01*
X0359797Y0105869D02*
X0361397Y0105869D01*
X0361397Y0105070D02*
X0359797Y0105070D01*
X0359797Y0104272D02*
X0361397Y0104272D01*
X0361397Y0103473D02*
X0359797Y0103473D01*
X0359797Y0102675D02*
X0361397Y0102675D01*
X0361397Y0101876D02*
X0359539Y0101876D01*
X0358914Y0101078D02*
X0361397Y0101078D01*
X0361397Y0100279D02*
X0357283Y0100279D01*
X0356552Y0099481D02*
X0361397Y0099481D01*
X0361397Y0098682D02*
X0355646Y0098682D01*
X0354265Y0097884D02*
X0361397Y0097884D01*
X0361397Y0097085D02*
X0355980Y0097085D01*
X0356778Y0096287D02*
X0361397Y0096287D01*
X0361397Y0095488D02*
X0357377Y0095488D01*
X0357708Y0094690D02*
X0361397Y0094690D01*
X0361397Y0093891D02*
X0357997Y0093891D01*
X0357997Y0093093D02*
X0361397Y0093093D01*
X0361397Y0092294D02*
X0357997Y0092294D01*
X0357787Y0091496D02*
X0361397Y0091496D01*
X0361397Y0090697D02*
X0357456Y0090697D01*
X0356970Y0089899D02*
X0361397Y0089899D01*
X0361397Y0089100D02*
X0356171Y0089100D01*
X0354727Y0088302D02*
X0361397Y0088302D01*
X0354797Y0107663D02*
X0353991Y0107997D01*
X0354797Y0108331D01*
X0354797Y0107663D01*
X0354797Y0108264D02*
X0354637Y0108264D01*
X0343559Y0126630D02*
X0342463Y0126630D01*
X0341665Y0127429D02*
X0344630Y0127429D01*
X0345446Y0128227D02*
X0340866Y0128227D01*
X0340068Y0129026D02*
X0343897Y0129026D01*
X0343098Y0129824D02*
X0339269Y0129824D01*
X0338471Y0130623D02*
X0342568Y0130623D01*
X0342238Y0131421D02*
X0337672Y0131421D01*
X0336874Y0132220D02*
X0341997Y0132220D01*
X0341997Y0133018D02*
X0336075Y0133018D01*
X0335277Y0133817D02*
X0341997Y0133817D01*
X0342255Y0134615D02*
X0334478Y0134615D01*
X0333680Y0135414D02*
X0342586Y0135414D01*
X0343141Y0136212D02*
X0332881Y0136212D01*
X0332083Y0137011D02*
X0343940Y0137011D01*
X0345549Y0137809D02*
X0331284Y0137809D01*
X0325695Y0143399D02*
X0342821Y0143399D01*
X0342984Y0144197D02*
X0324896Y0144197D01*
X0324098Y0144996D02*
X0343316Y0144996D01*
X0343873Y0145794D02*
X0323299Y0145794D01*
X0322500Y0146593D02*
X0344831Y0146593D01*
X0349597Y0146593D02*
X0350397Y0146593D01*
X0350397Y0145794D02*
X0349597Y0145794D01*
X0349597Y0144996D02*
X0350397Y0144996D01*
X0350397Y0144197D02*
X0349597Y0144197D01*
X0349597Y0143399D02*
X0350397Y0143399D01*
X0350397Y0141003D02*
X0349597Y0141003D01*
X0349597Y0140205D02*
X0350397Y0140205D01*
X0350397Y0139406D02*
X0349597Y0139406D01*
X0311197Y0178559D02*
X0311197Y0181197D01*
X0311197Y0181197D01*
X0311197Y0181197D01*
X0308559Y0181197D01*
X0308559Y0180937D01*
X0308661Y0180428D01*
X0308860Y0179948D01*
X0309148Y0179516D01*
X0309516Y0179148D01*
X0309948Y0178860D01*
X0310428Y0178661D01*
X0310937Y0178559D01*
X0311197Y0178559D01*
X0311197Y0179332D02*
X0311197Y0179332D01*
X0311197Y0180130D02*
X0311197Y0180130D01*
X0311197Y0180929D02*
X0311197Y0180929D01*
X0311197Y0181727D02*
X0311197Y0181727D01*
X0311197Y0182526D02*
X0311197Y0182526D01*
X0311197Y0183324D02*
X0311197Y0183324D01*
X0309634Y0183324D02*
X0285769Y0183324D01*
X0286567Y0182526D02*
X0308913Y0182526D01*
X0308613Y0181727D02*
X0287366Y0181727D01*
X0288164Y0180929D02*
X0308561Y0180929D01*
X0308784Y0180130D02*
X0288963Y0180130D01*
X0289762Y0179332D02*
X0309332Y0179332D01*
X0275463Y0198496D02*
X0349087Y0198496D01*
X0349375Y0199295D02*
X0275463Y0199295D01*
X0275463Y0202489D02*
X0345682Y0202489D01*
X0349594Y0202489D02*
X0361397Y0202489D01*
X0361397Y0203287D02*
X0350393Y0203287D01*
X0350823Y0204086D02*
X0361397Y0204086D01*
X0361397Y0204884D02*
X0351088Y0204884D01*
X0351088Y0205683D02*
X0361397Y0205683D01*
X0361397Y0206481D02*
X0350929Y0206481D01*
X0350599Y0207280D02*
X0361397Y0207280D01*
X0361397Y0208078D02*
X0349851Y0208078D01*
X0345426Y0208078D02*
X0275463Y0208078D01*
X0275463Y0208877D02*
X0361397Y0208877D01*
X0361397Y0209675D02*
X0275463Y0209675D01*
X0275463Y0210474D02*
X0361397Y0210474D01*
X0361397Y0211272D02*
X0275463Y0211272D01*
X0275463Y0212071D02*
X0361397Y0212071D01*
X0361397Y0212869D02*
X0275463Y0212869D01*
X0275463Y0213668D02*
X0361397Y0213668D01*
X0361397Y0214466D02*
X0275463Y0214466D01*
X0275463Y0215265D02*
X0361397Y0215265D01*
X0361397Y0216063D02*
X0275463Y0216063D01*
X0275463Y0216862D02*
X0361397Y0216862D01*
X0361397Y0217660D02*
X0275463Y0217660D01*
X0275463Y0218459D02*
X0361397Y0218459D01*
X0361397Y0219257D02*
X0275463Y0219257D01*
X0275463Y0220056D02*
X0361397Y0220056D01*
X0361397Y0220854D02*
X0275463Y0220854D01*
X0275463Y0221653D02*
X0361397Y0221653D01*
X0361397Y0222451D02*
X0275463Y0222451D01*
X0275463Y0223250D02*
X0361397Y0223250D01*
X0361397Y0224048D02*
X0275463Y0224048D01*
X0275463Y0224847D02*
X0361397Y0224847D01*
X0361397Y0225646D02*
X0323889Y0225646D01*
X0323966Y0225661D02*
X0324446Y0225860D01*
X0324878Y0226148D01*
X0325245Y0226516D01*
X0325534Y0226948D01*
X0325733Y0227428D01*
X0325834Y0227937D01*
X0325834Y0228197D01*
X0325834Y0228457D01*
X0325733Y0228966D01*
X0325534Y0229446D01*
X0325245Y0229878D01*
X0324878Y0230245D01*
X0324446Y0230534D01*
X0323966Y0230733D01*
X0323457Y0230834D01*
X0323197Y0230834D01*
X0323197Y0228197D01*
X0325834Y0228197D01*
X0323197Y0228197D01*
X0323197Y0228197D01*
X0323197Y0228197D01*
X0323197Y0230834D01*
X0322937Y0230834D01*
X0322428Y0230733D01*
X0321948Y0230534D01*
X0321516Y0230245D01*
X0321148Y0229878D01*
X0320860Y0229446D01*
X0320661Y0228966D01*
X0320559Y0228457D01*
X0320559Y0228197D01*
X0323197Y0228197D01*
X0323197Y0225559D01*
X0323457Y0225559D01*
X0323966Y0225661D01*
X0323197Y0225646D02*
X0323197Y0225646D01*
X0323197Y0225559D02*
X0323197Y0228197D01*
X0323197Y0228197D01*
X0323197Y0228197D01*
X0320559Y0228197D01*
X0320559Y0227937D01*
X0320661Y0227428D01*
X0320860Y0226948D01*
X0321148Y0226516D01*
X0321516Y0226148D01*
X0321948Y0225860D01*
X0322428Y0225661D01*
X0322937Y0225559D01*
X0323197Y0225559D01*
X0322504Y0225646D02*
X0275463Y0225646D01*
X0275463Y0226444D02*
X0321220Y0226444D01*
X0320737Y0227243D02*
X0275463Y0227243D01*
X0275463Y0228041D02*
X0320559Y0228041D01*
X0320636Y0228840D02*
X0275463Y0228840D01*
X0275463Y0229638D02*
X0320988Y0229638D01*
X0321802Y0230437D02*
X0275463Y0230437D01*
X0275463Y0231235D02*
X0361397Y0231235D01*
X0361397Y0230437D02*
X0324592Y0230437D01*
X0325406Y0229638D02*
X0361397Y0229638D01*
X0361397Y0228840D02*
X0325758Y0228840D01*
X0325834Y0228041D02*
X0361397Y0228041D01*
X0361397Y0227243D02*
X0325656Y0227243D01*
X0325174Y0226444D02*
X0361397Y0226444D01*
X0361397Y0232034D02*
X0275463Y0232034D01*
X0275463Y0232832D02*
X0349014Y0232832D01*
X0348948Y0232860D02*
X0349428Y0232661D01*
X0349937Y0232559D01*
X0350197Y0232559D01*
X0350457Y0232559D01*
X0350966Y0232661D01*
X0351446Y0232860D01*
X0351878Y0233148D01*
X0352245Y0233516D01*
X0352534Y0233948D01*
X0352733Y0234428D01*
X0352834Y0234937D01*
X0352834Y0235197D01*
X0352834Y0235457D01*
X0352733Y0235966D01*
X0352534Y0236446D01*
X0352245Y0236878D01*
X0351878Y0237245D01*
X0351446Y0237534D01*
X0350966Y0237733D01*
X0350457Y0237834D01*
X0350197Y0237834D01*
X0350197Y0235197D01*
X0352834Y0235197D01*
X0350197Y0235197D01*
X0350197Y0235197D01*
X0350197Y0235197D01*
X0350197Y0237834D01*
X0349937Y0237834D01*
X0349428Y0237733D01*
X0348948Y0237534D01*
X0348516Y0237245D01*
X0348148Y0236878D01*
X0347860Y0236446D01*
X0347661Y0235966D01*
X0347559Y0235457D01*
X0347559Y0235197D01*
X0350197Y0235197D01*
X0350197Y0232559D01*
X0350197Y0235197D01*
X0350197Y0235197D01*
X0350197Y0235197D01*
X0347559Y0235197D01*
X0347559Y0234937D01*
X0347661Y0234428D01*
X0347860Y0233948D01*
X0348148Y0233516D01*
X0348516Y0233148D01*
X0348948Y0232860D01*
X0348071Y0233631D02*
X0275463Y0233631D01*
X0275463Y0234429D02*
X0347660Y0234429D01*
X0347559Y0235228D02*
X0275463Y0235228D01*
X0275463Y0236026D02*
X0347686Y0236026D01*
X0348113Y0236825D02*
X0275463Y0236825D01*
X0275463Y0237623D02*
X0349163Y0237623D01*
X0350197Y0237623D02*
X0350197Y0237623D01*
X0350197Y0236825D02*
X0350197Y0236825D01*
X0350197Y0236026D02*
X0350197Y0236026D01*
X0350197Y0235228D02*
X0350197Y0235228D01*
X0350197Y0234429D02*
X0350197Y0234429D01*
X0350197Y0233631D02*
X0350197Y0233631D01*
X0350197Y0232832D02*
X0350197Y0232832D01*
X0351380Y0232832D02*
X0361397Y0232832D01*
X0361397Y0233631D02*
X0352322Y0233631D01*
X0352733Y0234429D02*
X0361397Y0234429D01*
X0361397Y0235228D02*
X0352834Y0235228D01*
X0352708Y0236026D02*
X0361397Y0236026D01*
X0361397Y0236825D02*
X0352281Y0236825D01*
X0351231Y0237623D02*
X0361397Y0237623D01*
X0361397Y0238422D02*
X0275463Y0238422D01*
X0275463Y0239220D02*
X0361397Y0239220D01*
X0361397Y0240019D02*
X0275463Y0240019D01*
X0275463Y0240817D02*
X0361397Y0240817D01*
X0361397Y0241616D02*
X0275463Y0241616D01*
X0275463Y0242414D02*
X0361397Y0242414D01*
X0361397Y0243213D02*
X0275463Y0243213D01*
X0275463Y0244011D02*
X0361397Y0244011D01*
X0361397Y0244810D02*
X0275463Y0244810D01*
X0275463Y0245608D02*
X0361397Y0245608D01*
X0361397Y0246407D02*
X0275463Y0246407D01*
X0275463Y0247205D02*
X0361397Y0247205D01*
X0361397Y0248004D02*
X0275463Y0248004D01*
X0275463Y0248802D02*
X0361397Y0248802D01*
X0361397Y0249601D02*
X0275463Y0249601D01*
X0275463Y0250399D02*
X0361397Y0250399D01*
X0361397Y0251198D02*
X0275463Y0251198D01*
X0275463Y0251996D02*
X0361397Y0251996D01*
X0361397Y0252795D02*
X0275463Y0252795D01*
X0275463Y0253593D02*
X0361397Y0253593D01*
X0361397Y0254392D02*
X0275463Y0254392D01*
X0275463Y0255190D02*
X0361397Y0255190D01*
X0361397Y0255989D02*
X0275463Y0255989D01*
X0275463Y0256787D02*
X0361397Y0256787D01*
X0361397Y0257586D02*
X0354148Y0257586D01*
X0355756Y0258384D02*
X0361397Y0258384D01*
X0361397Y0259183D02*
X0356554Y0259183D01*
X0357108Y0259981D02*
X0361397Y0259981D01*
X0361397Y0260780D02*
X0357439Y0260780D01*
X0357697Y0261579D02*
X0361397Y0261579D01*
X0361397Y0262377D02*
X0357697Y0262377D01*
X0357697Y0263176D02*
X0361397Y0263176D01*
X0361397Y0263974D02*
X0357455Y0263974D01*
X0357125Y0264773D02*
X0361397Y0264773D01*
X0361397Y0265571D02*
X0356594Y0265571D01*
X0355795Y0266370D02*
X0361397Y0266370D01*
X0361397Y0267168D02*
X0354244Y0267168D01*
X0353691Y0267397D02*
X0345702Y0267397D01*
X0343865Y0268158D01*
X0342458Y0269565D01*
X0342320Y0269897D01*
X0341899Y0269897D01*
X0340980Y0270277D01*
X0340277Y0270981D01*
X0339896Y0271900D01*
X0339896Y0320309D01*
X0331978Y0328228D01*
X0331409Y0328593D01*
X0331409Y0328593D01*
X0330091Y0330115D01*
X0311034Y0349172D01*
X0311034Y0343865D01*
X0310273Y0342028D01*
X0308866Y0340621D01*
X0307028Y0339860D01*
X0305039Y0339860D01*
X0303202Y0340621D01*
X0301795Y0342028D01*
X0301034Y0343865D01*
X0301034Y0351854D01*
X0301795Y0353692D01*
X0302881Y0354778D01*
X0301347Y0356312D01*
X0288263Y0356312D01*
X0288534Y0355658D01*
X0288534Y0355236D01*
X0288866Y0355099D01*
X0290273Y0353692D01*
X0291034Y0351854D01*
X0291034Y0343865D01*
X0290273Y0342028D01*
X0288866Y0340621D01*
X0287028Y0339860D01*
X0285039Y0339860D01*
X0283534Y0340483D01*
X0283534Y0324795D01*
X0342779Y0265550D01*
X0343865Y0266636D01*
X0345702Y0267397D01*
X0353691Y0267397D01*
X0355067Y0267967D02*
X0361397Y0267967D01*
X0361397Y0268765D02*
X0356136Y0268765D01*
X0356935Y0269564D02*
X0361397Y0269564D01*
X0361397Y0270362D02*
X0357266Y0270362D01*
X0357597Y0271161D02*
X0361397Y0271161D01*
X0361397Y0271959D02*
X0357697Y0271959D01*
X0357697Y0272758D02*
X0361397Y0272758D01*
X0361397Y0273556D02*
X0357629Y0273556D01*
X0357298Y0274355D02*
X0361397Y0274355D01*
X0361397Y0275153D02*
X0356967Y0275153D01*
X0356213Y0275952D02*
X0361397Y0275952D01*
X0361397Y0276750D02*
X0355252Y0276750D01*
X0354058Y0277549D02*
X0361397Y0277549D01*
X0361397Y0278347D02*
X0355718Y0278347D01*
X0356517Y0279146D02*
X0361397Y0279146D01*
X0361397Y0279944D02*
X0357093Y0279944D01*
X0357424Y0280743D02*
X0361397Y0280743D01*
X0361397Y0281541D02*
X0357697Y0281541D01*
X0357697Y0282340D02*
X0361397Y0282340D01*
X0361397Y0283138D02*
X0357697Y0283138D01*
X0357471Y0283937D02*
X0361397Y0283937D01*
X0361397Y0284735D02*
X0357140Y0284735D01*
X0356631Y0285534D02*
X0361397Y0285534D01*
X0361397Y0286332D02*
X0355832Y0286332D01*
X0354333Y0287131D02*
X0361397Y0287131D01*
X0361397Y0287929D02*
X0354977Y0287929D01*
X0356099Y0288728D02*
X0361397Y0288728D01*
X0361397Y0289526D02*
X0356897Y0289526D01*
X0357251Y0290325D02*
X0361397Y0290325D01*
X0361397Y0291123D02*
X0357581Y0291123D01*
X0357697Y0291922D02*
X0361397Y0291922D01*
X0361397Y0292720D02*
X0357697Y0292720D01*
X0357644Y0293519D02*
X0361397Y0293519D01*
X0361397Y0294317D02*
X0357313Y0294317D01*
X0356982Y0295116D02*
X0361397Y0295116D01*
X0361397Y0295915D02*
X0356250Y0295915D01*
X0355342Y0296713D02*
X0361397Y0296713D01*
X0361397Y0297512D02*
X0353968Y0297512D01*
X0353691Y0297397D02*
X0345702Y0297397D01*
X0344896Y0297731D01*
X0344896Y0297063D01*
X0345702Y0297397D01*
X0353691Y0297397D01*
X0355681Y0298310D02*
X0361397Y0298310D01*
X0361397Y0299109D02*
X0356480Y0299109D01*
X0357077Y0299907D02*
X0361397Y0299907D01*
X0361397Y0300706D02*
X0357408Y0300706D01*
X0357697Y0301504D02*
X0361397Y0301504D01*
X0361397Y0302303D02*
X0357697Y0302303D01*
X0357697Y0303101D02*
X0361397Y0303101D01*
X0361397Y0303900D02*
X0357486Y0303900D01*
X0357156Y0304698D02*
X0361397Y0304698D01*
X0361397Y0305497D02*
X0356668Y0305497D01*
X0355870Y0306295D02*
X0361397Y0306295D01*
X0361397Y0307094D02*
X0354423Y0307094D01*
X0354304Y0308516D02*
X0354892Y0308815D01*
X0355425Y0309203D01*
X0355891Y0309669D01*
X0356278Y0310202D01*
X0356577Y0310789D01*
X0356781Y0311416D01*
X0356873Y0311997D01*
X0350097Y0311997D01*
X0350097Y0308209D01*
X0353026Y0308209D01*
X0353677Y0308313D01*
X0354304Y0308516D01*
X0354647Y0308691D02*
X0361397Y0308691D01*
X0361397Y0309489D02*
X0355711Y0309489D01*
X0356322Y0310288D02*
X0361397Y0310288D01*
X0361397Y0311086D02*
X0356674Y0311086D01*
X0356855Y0311885D02*
X0361397Y0311885D01*
X0361397Y0312683D02*
X0350097Y0312683D01*
X0350097Y0312797D02*
X0356873Y0312797D01*
X0356781Y0313377D01*
X0356577Y0314004D01*
X0356278Y0314592D01*
X0355891Y0315125D01*
X0355425Y0315591D01*
X0354892Y0315978D01*
X0354304Y0316277D01*
X0353677Y0316481D01*
X0353026Y0316584D01*
X0350097Y0316584D01*
X0350097Y0312797D01*
X0350097Y0313482D02*
X0349297Y0313482D01*
X0349297Y0314280D02*
X0350097Y0314280D01*
X0350097Y0315079D02*
X0349297Y0315079D01*
X0349297Y0315877D02*
X0350097Y0315877D01*
X0350097Y0311885D02*
X0349297Y0311885D01*
X0349297Y0311086D02*
X0350097Y0311086D01*
X0350097Y0310288D02*
X0349297Y0310288D01*
X0349297Y0309489D02*
X0350097Y0309489D01*
X0350097Y0308691D02*
X0349297Y0308691D01*
X0344896Y0307892D02*
X0361397Y0307892D01*
X0361397Y0313482D02*
X0356747Y0313482D01*
X0356437Y0314280D02*
X0361397Y0314280D01*
X0361397Y0315079D02*
X0355924Y0315079D01*
X0355030Y0315877D02*
X0361397Y0315877D01*
X0361397Y0316676D02*
X0344896Y0316676D01*
X0344896Y0317474D02*
X0361397Y0317474D01*
X0361397Y0318273D02*
X0344896Y0318273D01*
X0344896Y0319071D02*
X0361397Y0319071D01*
X0361397Y0319870D02*
X0344896Y0319870D01*
X0344896Y0320668D02*
X0361397Y0320668D01*
X0361397Y0321467D02*
X0344896Y0321467D01*
X0344721Y0322265D02*
X0361397Y0322265D01*
X0361397Y0323064D02*
X0344213Y0323064D01*
X0343414Y0323862D02*
X0361397Y0323862D01*
X0361397Y0324661D02*
X0346715Y0324661D01*
X0349434Y0325459D02*
X0361397Y0325459D01*
X0361397Y0326258D02*
X0351350Y0326258D01*
X0352593Y0327056D02*
X0361397Y0327056D01*
X0361397Y0327855D02*
X0353835Y0327855D01*
X0354984Y0328593D02*
X0354984Y0328593D01*
X0355036Y0328653D02*
X0361397Y0328653D01*
X0361397Y0329452D02*
X0355728Y0329452D01*
X0356420Y0330250D02*
X0361397Y0330250D01*
X0361397Y0331049D02*
X0357112Y0331049D01*
X0357804Y0331848D02*
X0361397Y0331848D01*
X0361397Y0332646D02*
X0358422Y0332646D01*
X0358339Y0332465D02*
X0358339Y0332465D01*
X0358787Y0333445D02*
X0361397Y0333445D01*
X0361397Y0334243D02*
X0359151Y0334243D01*
X0359516Y0335042D02*
X0361397Y0335042D01*
X0361397Y0335840D02*
X0359881Y0335840D01*
X0360245Y0336639D02*
X0361397Y0336639D01*
X0361397Y0337437D02*
X0360512Y0337437D01*
X0360468Y0337126D02*
X0360468Y0337126D01*
X0360627Y0338236D02*
X0361397Y0338236D01*
X0361397Y0339034D02*
X0360742Y0339034D01*
X0360857Y0339833D02*
X0361397Y0339833D01*
X0361397Y0340631D02*
X0360972Y0340631D01*
X0361087Y0341430D02*
X0361397Y0341430D01*
X0361397Y0342228D02*
X0361192Y0342228D01*
X0361078Y0343027D02*
X0361397Y0343027D01*
X0361397Y0343825D02*
X0360963Y0343825D01*
X0360848Y0344624D02*
X0361397Y0344624D01*
X0361397Y0345422D02*
X0360733Y0345422D01*
X0360618Y0346221D02*
X0361397Y0346221D01*
X0361397Y0347019D02*
X0360503Y0347019D01*
X0360468Y0347268D02*
X0360468Y0347268D01*
X0360217Y0347818D02*
X0361397Y0347818D01*
X0361397Y0348616D02*
X0359852Y0348616D01*
X0359487Y0349415D02*
X0361397Y0349415D01*
X0361397Y0350213D02*
X0359123Y0350213D01*
X0358758Y0351012D02*
X0361397Y0351012D01*
X0361397Y0351810D02*
X0358393Y0351810D01*
X0358339Y0351928D02*
X0358339Y0351928D01*
X0357750Y0352609D02*
X0361397Y0352609D01*
X0361397Y0353407D02*
X0357058Y0353407D01*
X0356366Y0354206D02*
X0361397Y0354206D01*
X0361397Y0355004D02*
X0355674Y0355004D01*
X0354984Y0355800D02*
X0354984Y0355800D01*
X0354980Y0355803D02*
X0361397Y0355803D01*
X0361397Y0356601D02*
X0353738Y0356601D01*
X0352495Y0357400D02*
X0361397Y0357400D01*
X0361397Y0358198D02*
X0351253Y0358198D01*
X0350674Y0358570D02*
X0350674Y0358570D01*
X0349221Y0358997D02*
X0361397Y0358997D01*
X0332351Y0327855D02*
X0283534Y0327855D01*
X0283534Y0328653D02*
X0331357Y0328653D01*
X0330665Y0329452D02*
X0283534Y0329452D01*
X0283534Y0330250D02*
X0329955Y0330250D01*
X0329157Y0331049D02*
X0283534Y0331049D01*
X0283534Y0331848D02*
X0328358Y0331848D01*
X0327560Y0332646D02*
X0283534Y0332646D01*
X0283534Y0333445D02*
X0326761Y0333445D01*
X0325963Y0334243D02*
X0283534Y0334243D01*
X0283534Y0335042D02*
X0325164Y0335042D01*
X0324366Y0335840D02*
X0283534Y0335840D01*
X0283534Y0336639D02*
X0323567Y0336639D01*
X0322769Y0337437D02*
X0283534Y0337437D01*
X0283534Y0338236D02*
X0321970Y0338236D01*
X0321172Y0339034D02*
X0283534Y0339034D01*
X0283534Y0339833D02*
X0320373Y0339833D01*
X0319575Y0340631D02*
X0308876Y0340631D01*
X0309675Y0341430D02*
X0318776Y0341430D01*
X0317978Y0342228D02*
X0310356Y0342228D01*
X0310686Y0343027D02*
X0317179Y0343027D01*
X0316381Y0343825D02*
X0311017Y0343825D01*
X0311034Y0344624D02*
X0315582Y0344624D01*
X0314784Y0345422D02*
X0311034Y0345422D01*
X0311034Y0346221D02*
X0313985Y0346221D01*
X0313187Y0347019D02*
X0311034Y0347019D01*
X0311034Y0347818D02*
X0312388Y0347818D01*
X0311590Y0348616D02*
X0311034Y0348616D01*
X0302309Y0354206D02*
X0298552Y0354206D01*
X0298762Y0354054D02*
X0298229Y0354441D01*
X0297641Y0354740D01*
X0297014Y0354944D01*
X0296434Y0355036D01*
X0296434Y0348260D01*
X0295634Y0348260D01*
X0295634Y0355036D01*
X0295053Y0354944D01*
X0294426Y0354740D01*
X0293839Y0354441D01*
X0293306Y0354054D01*
X0292840Y0353588D01*
X0292452Y0353055D01*
X0292153Y0352467D01*
X0291950Y0351840D01*
X0291846Y0351189D01*
X0291846Y0348260D01*
X0295634Y0348260D01*
X0295634Y0347460D01*
X0291846Y0347460D01*
X0291846Y0344530D01*
X0291950Y0343879D01*
X0292153Y0343252D01*
X0292452Y0342665D01*
X0292840Y0342132D01*
X0293306Y0341666D01*
X0293839Y0341278D01*
X0294426Y0340979D01*
X0295053Y0340776D01*
X0295634Y0340684D01*
X0295634Y0347460D01*
X0296434Y0347460D01*
X0296434Y0348260D01*
X0300221Y0348260D01*
X0300221Y0351189D01*
X0300118Y0351840D01*
X0299914Y0352467D01*
X0299615Y0353055D01*
X0299228Y0353588D01*
X0298762Y0354054D01*
X0299359Y0353407D02*
X0301677Y0353407D01*
X0301346Y0352609D02*
X0299842Y0352609D01*
X0300123Y0351810D02*
X0301034Y0351810D01*
X0301034Y0351012D02*
X0300221Y0351012D01*
X0300221Y0350213D02*
X0301034Y0350213D01*
X0301034Y0349415D02*
X0300221Y0349415D01*
X0300221Y0348616D02*
X0301034Y0348616D01*
X0301034Y0347818D02*
X0296434Y0347818D01*
X0296434Y0347460D02*
X0300221Y0347460D01*
X0300221Y0344530D01*
X0300118Y0343879D01*
X0299914Y0343252D01*
X0299615Y0342665D01*
X0299228Y0342132D01*
X0298762Y0341666D01*
X0298229Y0341278D01*
X0297641Y0340979D01*
X0297014Y0340776D01*
X0296434Y0340684D01*
X0296434Y0347460D01*
X0296434Y0347019D02*
X0295634Y0347019D01*
X0295634Y0346221D02*
X0296434Y0346221D01*
X0296434Y0345422D02*
X0295634Y0345422D01*
X0295634Y0344624D02*
X0296434Y0344624D01*
X0296434Y0343825D02*
X0295634Y0343825D01*
X0295634Y0343027D02*
X0296434Y0343027D01*
X0296434Y0342228D02*
X0295634Y0342228D01*
X0295634Y0341430D02*
X0296434Y0341430D01*
X0298437Y0341430D02*
X0302393Y0341430D01*
X0301712Y0342228D02*
X0299298Y0342228D01*
X0299799Y0343027D02*
X0301381Y0343027D01*
X0301050Y0343825D02*
X0300101Y0343825D01*
X0300221Y0344624D02*
X0301034Y0344624D01*
X0301034Y0345422D02*
X0300221Y0345422D01*
X0300221Y0346221D02*
X0301034Y0346221D01*
X0301034Y0347019D02*
X0300221Y0347019D01*
X0296434Y0348616D02*
X0295634Y0348616D01*
X0295634Y0347818D02*
X0291034Y0347818D01*
X0291034Y0348616D02*
X0291846Y0348616D01*
X0291846Y0349415D02*
X0291034Y0349415D01*
X0291034Y0350213D02*
X0291846Y0350213D01*
X0291846Y0351012D02*
X0291034Y0351012D01*
X0291034Y0351810D02*
X0291945Y0351810D01*
X0292225Y0352609D02*
X0290721Y0352609D01*
X0290391Y0353407D02*
X0292709Y0353407D01*
X0293515Y0354206D02*
X0289759Y0354206D01*
X0288960Y0355004D02*
X0295434Y0355004D01*
X0295634Y0355004D02*
X0296434Y0355004D01*
X0296634Y0355004D02*
X0302654Y0355004D01*
X0301856Y0355803D02*
X0288474Y0355803D01*
X0295634Y0354206D02*
X0296434Y0354206D01*
X0296434Y0353407D02*
X0295634Y0353407D01*
X0295634Y0352609D02*
X0296434Y0352609D01*
X0296434Y0351810D02*
X0295634Y0351810D01*
X0295634Y0351012D02*
X0296434Y0351012D01*
X0296434Y0350213D02*
X0295634Y0350213D01*
X0295634Y0349415D02*
X0296434Y0349415D01*
X0291846Y0347019D02*
X0291034Y0347019D01*
X0291034Y0346221D02*
X0291846Y0346221D01*
X0291846Y0345422D02*
X0291034Y0345422D01*
X0291034Y0344624D02*
X0291846Y0344624D01*
X0291967Y0343825D02*
X0291017Y0343825D01*
X0290686Y0343027D02*
X0292268Y0343027D01*
X0292770Y0342228D02*
X0290356Y0342228D01*
X0289675Y0341430D02*
X0293631Y0341430D01*
X0288876Y0340631D02*
X0303191Y0340631D01*
X0283534Y0327056D02*
X0333149Y0327056D01*
X0333948Y0326258D02*
X0283534Y0326258D01*
X0283534Y0325459D02*
X0334746Y0325459D01*
X0335545Y0324661D02*
X0283668Y0324661D01*
X0284466Y0323862D02*
X0336343Y0323862D01*
X0337142Y0323064D02*
X0285265Y0323064D01*
X0286063Y0322265D02*
X0337940Y0322265D01*
X0338739Y0321467D02*
X0286862Y0321467D01*
X0287660Y0320668D02*
X0339537Y0320668D01*
X0339896Y0319870D02*
X0288459Y0319870D01*
X0289257Y0319071D02*
X0339896Y0319071D01*
X0339896Y0318273D02*
X0290056Y0318273D01*
X0290854Y0317474D02*
X0339896Y0317474D01*
X0339896Y0316676D02*
X0291653Y0316676D01*
X0292452Y0315877D02*
X0339896Y0315877D01*
X0339896Y0315079D02*
X0293250Y0315079D01*
X0294049Y0314280D02*
X0339896Y0314280D01*
X0339896Y0313482D02*
X0294847Y0313482D01*
X0295646Y0312683D02*
X0339896Y0312683D01*
X0339896Y0311885D02*
X0296444Y0311885D01*
X0297243Y0311086D02*
X0339896Y0311086D01*
X0339896Y0310288D02*
X0298041Y0310288D01*
X0298840Y0309489D02*
X0339896Y0309489D01*
X0339896Y0308691D02*
X0299638Y0308691D01*
X0300437Y0307892D02*
X0339896Y0307892D01*
X0339896Y0307094D02*
X0301235Y0307094D01*
X0302034Y0306295D02*
X0339896Y0306295D01*
X0339896Y0305497D02*
X0302832Y0305497D01*
X0303631Y0304698D02*
X0339896Y0304698D01*
X0339896Y0303900D02*
X0304429Y0303900D01*
X0305228Y0303101D02*
X0339896Y0303101D01*
X0339896Y0302303D02*
X0306026Y0302303D01*
X0306825Y0301504D02*
X0339896Y0301504D01*
X0339896Y0300706D02*
X0307623Y0300706D01*
X0308422Y0299907D02*
X0339896Y0299907D01*
X0339896Y0299109D02*
X0309220Y0299109D01*
X0310019Y0298310D02*
X0339896Y0298310D01*
X0339896Y0297512D02*
X0310817Y0297512D01*
X0311616Y0296713D02*
X0339896Y0296713D01*
X0339896Y0295915D02*
X0312414Y0295915D01*
X0313213Y0295116D02*
X0339896Y0295116D01*
X0339896Y0294317D02*
X0314011Y0294317D01*
X0314810Y0293519D02*
X0339896Y0293519D01*
X0339896Y0292720D02*
X0315608Y0292720D01*
X0316407Y0291922D02*
X0339896Y0291922D01*
X0339896Y0291123D02*
X0317205Y0291123D01*
X0318004Y0290325D02*
X0339896Y0290325D01*
X0339896Y0289526D02*
X0318802Y0289526D01*
X0319601Y0288728D02*
X0339896Y0288728D01*
X0339896Y0287929D02*
X0320399Y0287929D01*
X0321198Y0287131D02*
X0339896Y0287131D01*
X0339896Y0286332D02*
X0321996Y0286332D01*
X0322795Y0285534D02*
X0339896Y0285534D01*
X0339896Y0284735D02*
X0323593Y0284735D01*
X0324392Y0283937D02*
X0339896Y0283937D01*
X0339896Y0283138D02*
X0325190Y0283138D01*
X0325989Y0282340D02*
X0339896Y0282340D01*
X0339896Y0281541D02*
X0326788Y0281541D01*
X0327586Y0280743D02*
X0339896Y0280743D01*
X0339896Y0279944D02*
X0328385Y0279944D01*
X0329183Y0279146D02*
X0339896Y0279146D01*
X0339896Y0278347D02*
X0329982Y0278347D01*
X0330780Y0277549D02*
X0339896Y0277549D01*
X0339896Y0276750D02*
X0331579Y0276750D01*
X0332377Y0275952D02*
X0339896Y0275952D01*
X0339896Y0275153D02*
X0333176Y0275153D01*
X0333974Y0274355D02*
X0339896Y0274355D01*
X0339896Y0273556D02*
X0334773Y0273556D01*
X0335571Y0272758D02*
X0339896Y0272758D01*
X0339896Y0271959D02*
X0336370Y0271959D01*
X0337168Y0271161D02*
X0340202Y0271161D01*
X0340896Y0270362D02*
X0337967Y0270362D01*
X0338765Y0269564D02*
X0342459Y0269564D01*
X0343257Y0268765D02*
X0339564Y0268765D01*
X0340362Y0267967D02*
X0344327Y0267967D01*
X0345150Y0267168D02*
X0341161Y0267168D01*
X0341959Y0266370D02*
X0343599Y0266370D01*
X0342800Y0265571D02*
X0342758Y0265571D01*
X0338881Y0262377D02*
X0275463Y0262377D01*
X0275463Y0261579D02*
X0339679Y0261579D01*
X0340478Y0260780D02*
X0275463Y0260780D01*
X0275463Y0259981D02*
X0341695Y0259981D01*
X0342840Y0259183D02*
X0275463Y0259183D01*
X0275463Y0258384D02*
X0343638Y0258384D01*
X0345246Y0257586D02*
X0275463Y0257586D01*
X0270463Y0257586D02*
X0226677Y0257586D01*
X0226677Y0258384D02*
X0270463Y0258384D01*
X0270463Y0259183D02*
X0226677Y0259183D01*
X0226677Y0259981D02*
X0270463Y0259981D01*
X0270463Y0260780D02*
X0226677Y0260780D01*
X0226677Y0261579D02*
X0270463Y0261579D01*
X0270463Y0262377D02*
X0226677Y0262377D01*
X0226677Y0263176D02*
X0270463Y0263176D01*
X0270463Y0263974D02*
X0226677Y0263974D01*
X0226677Y0264773D02*
X0270463Y0264773D01*
X0270463Y0265571D02*
X0226677Y0265571D01*
X0226677Y0266370D02*
X0270463Y0266370D01*
X0270463Y0267168D02*
X0226677Y0267168D01*
X0226677Y0267967D02*
X0270463Y0267967D01*
X0270463Y0268765D02*
X0226677Y0268765D01*
X0226677Y0269564D02*
X0270463Y0269564D01*
X0270463Y0270362D02*
X0226677Y0270362D01*
X0226677Y0271161D02*
X0270463Y0271161D01*
X0270463Y0271959D02*
X0226677Y0271959D01*
X0226677Y0272758D02*
X0270463Y0272758D01*
X0270463Y0273556D02*
X0226677Y0273556D01*
X0226677Y0274355D02*
X0270463Y0274355D01*
X0270463Y0275153D02*
X0226677Y0275153D01*
X0226677Y0275952D02*
X0270463Y0275952D01*
X0270463Y0276750D02*
X0253182Y0276750D01*
X0252966Y0276661D02*
X0253446Y0276860D01*
X0253878Y0277148D01*
X0254245Y0277516D01*
X0254534Y0277948D01*
X0254733Y0278428D01*
X0254834Y0278937D01*
X0254834Y0279197D01*
X0254834Y0279457D01*
X0254733Y0279966D01*
X0254534Y0280446D01*
X0254245Y0280878D01*
X0253878Y0281245D01*
X0253446Y0281534D01*
X0252966Y0281733D01*
X0252457Y0281834D01*
X0252197Y0281834D01*
X0252197Y0279197D01*
X0254834Y0279197D01*
X0252197Y0279197D01*
X0252197Y0279197D01*
X0252197Y0279197D01*
X0252197Y0281834D01*
X0251937Y0281834D01*
X0251428Y0281733D01*
X0250948Y0281534D01*
X0250516Y0281245D01*
X0250148Y0280878D01*
X0249860Y0280446D01*
X0249661Y0279966D01*
X0249559Y0279457D01*
X0249559Y0279197D01*
X0252197Y0279197D01*
X0252197Y0276559D01*
X0252457Y0276559D01*
X0252966Y0276661D01*
X0252197Y0276750D02*
X0252197Y0276750D01*
X0252197Y0276559D02*
X0252197Y0279197D01*
X0252197Y0279197D01*
X0252197Y0279197D01*
X0249559Y0279197D01*
X0249559Y0278937D01*
X0249661Y0278428D01*
X0249860Y0277948D01*
X0250148Y0277516D01*
X0250516Y0277148D01*
X0250948Y0276860D01*
X0251428Y0276661D01*
X0251937Y0276559D01*
X0252197Y0276559D01*
X0252197Y0277549D02*
X0252197Y0277549D01*
X0252197Y0278347D02*
X0252197Y0278347D01*
X0252197Y0279146D02*
X0252197Y0279146D01*
X0252197Y0279944D02*
X0252197Y0279944D01*
X0252197Y0280743D02*
X0252197Y0280743D01*
X0252197Y0281541D02*
X0252197Y0281541D01*
X0253429Y0281541D02*
X0270463Y0281541D01*
X0270463Y0280743D02*
X0254336Y0280743D01*
X0254737Y0279944D02*
X0270463Y0279944D01*
X0270463Y0279146D02*
X0254834Y0279146D01*
X0254700Y0278347D02*
X0270463Y0278347D01*
X0270463Y0277549D02*
X0254268Y0277549D01*
X0251212Y0276750D02*
X0226677Y0276750D01*
X0226677Y0277549D02*
X0250126Y0277549D01*
X0249694Y0278347D02*
X0226677Y0278347D01*
X0226677Y0279146D02*
X0249559Y0279146D01*
X0249656Y0279944D02*
X0226677Y0279944D01*
X0226677Y0280743D02*
X0250058Y0280743D01*
X0250965Y0281541D02*
X0226677Y0281541D01*
X0226677Y0282340D02*
X0270463Y0282340D01*
X0270463Y0283138D02*
X0226677Y0283138D01*
X0226677Y0283937D02*
X0270463Y0283937D01*
X0270463Y0284735D02*
X0226677Y0284735D01*
X0226677Y0285534D02*
X0270463Y0285534D01*
X0270463Y0286332D02*
X0226677Y0286332D01*
X0226677Y0287131D02*
X0270463Y0287131D01*
X0270463Y0287929D02*
X0226677Y0287929D01*
X0226677Y0288728D02*
X0270463Y0288728D01*
X0270463Y0289526D02*
X0226677Y0289526D01*
X0226677Y0290325D02*
X0270463Y0290325D01*
X0270463Y0291123D02*
X0226677Y0291123D01*
X0226677Y0291922D02*
X0270463Y0291922D01*
X0270463Y0292720D02*
X0226677Y0292720D01*
X0226677Y0293519D02*
X0270463Y0293519D01*
X0270463Y0294317D02*
X0226677Y0294317D01*
X0226677Y0295116D02*
X0270463Y0295116D01*
X0270463Y0295915D02*
X0226677Y0295915D01*
X0226677Y0296713D02*
X0270463Y0296713D01*
X0270463Y0297512D02*
X0226677Y0297512D01*
X0226677Y0298310D02*
X0270463Y0298310D01*
X0270463Y0299109D02*
X0226677Y0299109D01*
X0226677Y0299907D02*
X0270463Y0299907D01*
X0269886Y0300706D02*
X0226677Y0300706D01*
X0226677Y0301504D02*
X0269087Y0301504D01*
X0268289Y0302303D02*
X0227436Y0302303D01*
X0228234Y0303101D02*
X0267490Y0303101D01*
X0266692Y0303900D02*
X0229033Y0303900D01*
X0229831Y0304698D02*
X0265893Y0304698D01*
X0265095Y0305497D02*
X0230630Y0305497D01*
X0231428Y0306295D02*
X0264296Y0306295D01*
X0263498Y0307094D02*
X0232227Y0307094D01*
X0233025Y0307892D02*
X0262699Y0307892D01*
X0261901Y0308691D02*
X0233824Y0308691D01*
X0234622Y0309489D02*
X0261102Y0309489D01*
X0260303Y0310288D02*
X0235421Y0310288D01*
X0236219Y0311086D02*
X0259505Y0311086D01*
X0258706Y0311885D02*
X0237018Y0311885D01*
X0237816Y0312683D02*
X0257908Y0312683D01*
X0257109Y0313482D02*
X0238615Y0313482D01*
X0239413Y0314280D02*
X0256311Y0314280D01*
X0255512Y0315079D02*
X0240212Y0315079D01*
X0241010Y0315877D02*
X0254714Y0315877D01*
X0253915Y0316676D02*
X0241809Y0316676D01*
X0242607Y0317474D02*
X0253117Y0317474D01*
X0252318Y0318273D02*
X0243406Y0318273D01*
X0244204Y0319071D02*
X0251520Y0319071D01*
X0250721Y0319870D02*
X0245003Y0319870D01*
X0245802Y0320668D02*
X0249923Y0320668D01*
X0247781Y0321467D02*
X0246600Y0321467D01*
X0253297Y0324661D02*
X0278534Y0324661D01*
X0278534Y0325459D02*
X0253093Y0325459D01*
X0252748Y0326258D02*
X0278534Y0326258D01*
X0278534Y0327056D02*
X0252190Y0327056D01*
X0252988Y0327855D02*
X0278534Y0327855D01*
X0278534Y0328653D02*
X0253787Y0328653D01*
X0254585Y0329452D02*
X0278534Y0329452D01*
X0278534Y0330250D02*
X0255384Y0330250D01*
X0256182Y0331049D02*
X0278534Y0331049D01*
X0278534Y0331848D02*
X0256981Y0331848D01*
X0257779Y0332646D02*
X0278534Y0332646D01*
X0278534Y0333445D02*
X0258578Y0333445D01*
X0259376Y0334243D02*
X0278534Y0334243D01*
X0278534Y0335042D02*
X0260175Y0335042D01*
X0260973Y0335840D02*
X0278534Y0335840D01*
X0278534Y0336639D02*
X0261772Y0336639D01*
X0262570Y0337437D02*
X0278534Y0337437D01*
X0278534Y0338236D02*
X0276956Y0338236D01*
X0278044Y0339034D02*
X0278534Y0339034D01*
X0278534Y0339833D02*
X0278439Y0339833D01*
X0278534Y0323862D02*
X0253800Y0323862D01*
X0254598Y0323064D02*
X0278616Y0323064D01*
X0278992Y0322265D02*
X0255397Y0322265D01*
X0256195Y0321467D02*
X0279791Y0321467D01*
X0280589Y0320668D02*
X0256994Y0320668D01*
X0257792Y0319870D02*
X0281388Y0319870D01*
X0282186Y0319071D02*
X0258591Y0319071D01*
X0259389Y0318273D02*
X0282985Y0318273D01*
X0283783Y0317474D02*
X0260188Y0317474D01*
X0260986Y0316676D02*
X0284582Y0316676D01*
X0285380Y0315877D02*
X0261785Y0315877D01*
X0262583Y0315079D02*
X0286179Y0315079D01*
X0286977Y0314280D02*
X0263382Y0314280D01*
X0264181Y0313482D02*
X0287776Y0313482D01*
X0288574Y0312683D02*
X0264979Y0312683D01*
X0265778Y0311885D02*
X0289373Y0311885D01*
X0290172Y0311086D02*
X0266576Y0311086D01*
X0267375Y0310288D02*
X0290970Y0310288D01*
X0291769Y0309489D02*
X0268173Y0309489D01*
X0268972Y0308691D02*
X0292567Y0308691D01*
X0293366Y0307892D02*
X0269770Y0307892D01*
X0270569Y0307094D02*
X0294164Y0307094D01*
X0294963Y0306295D02*
X0271367Y0306295D01*
X0272166Y0305497D02*
X0295761Y0305497D01*
X0296560Y0304698D02*
X0272964Y0304698D01*
X0273763Y0303900D02*
X0297358Y0303900D01*
X0298157Y0303101D02*
X0274561Y0303101D01*
X0275197Y0302303D02*
X0298955Y0302303D01*
X0299754Y0301504D02*
X0275463Y0301504D01*
X0275463Y0300706D02*
X0300552Y0300706D01*
X0301351Y0299907D02*
X0275463Y0299907D01*
X0275463Y0299109D02*
X0302149Y0299109D01*
X0302948Y0298310D02*
X0275463Y0298310D01*
X0275463Y0297512D02*
X0303746Y0297512D01*
X0304545Y0296713D02*
X0275463Y0296713D01*
X0275463Y0295915D02*
X0305343Y0295915D01*
X0306142Y0295116D02*
X0275463Y0295116D01*
X0275463Y0294317D02*
X0306940Y0294317D01*
X0307739Y0293519D02*
X0275463Y0293519D01*
X0275463Y0292720D02*
X0308537Y0292720D01*
X0309336Y0291922D02*
X0275463Y0291922D01*
X0275463Y0291123D02*
X0310134Y0291123D01*
X0310933Y0290325D02*
X0275463Y0290325D01*
X0275463Y0289526D02*
X0311731Y0289526D01*
X0312530Y0288728D02*
X0275463Y0288728D01*
X0275463Y0287929D02*
X0313328Y0287929D01*
X0314127Y0287131D02*
X0275463Y0287131D01*
X0275463Y0286332D02*
X0314925Y0286332D01*
X0315724Y0285534D02*
X0275463Y0285534D01*
X0275463Y0284735D02*
X0316522Y0284735D01*
X0317321Y0283937D02*
X0275463Y0283937D01*
X0275463Y0283138D02*
X0318119Y0283138D01*
X0318918Y0282340D02*
X0275463Y0282340D01*
X0275463Y0281541D02*
X0319716Y0281541D01*
X0320515Y0280743D02*
X0275463Y0280743D01*
X0275463Y0279944D02*
X0321313Y0279944D01*
X0322112Y0279146D02*
X0275463Y0279146D01*
X0275463Y0278347D02*
X0322910Y0278347D01*
X0323709Y0277549D02*
X0275463Y0277549D01*
X0275463Y0276750D02*
X0324508Y0276750D01*
X0325306Y0275952D02*
X0275463Y0275952D01*
X0275463Y0275153D02*
X0326105Y0275153D01*
X0326903Y0274355D02*
X0275463Y0274355D01*
X0275463Y0273556D02*
X0327702Y0273556D01*
X0328500Y0272758D02*
X0275463Y0272758D01*
X0275463Y0271959D02*
X0329299Y0271959D01*
X0330097Y0271161D02*
X0275463Y0271161D01*
X0275463Y0270362D02*
X0330896Y0270362D01*
X0331694Y0269564D02*
X0275463Y0269564D01*
X0275463Y0268765D02*
X0332493Y0268765D01*
X0333291Y0267967D02*
X0275463Y0267967D01*
X0275463Y0267168D02*
X0334090Y0267168D01*
X0334888Y0266370D02*
X0275463Y0266370D01*
X0275463Y0265571D02*
X0335687Y0265571D01*
X0336485Y0264773D02*
X0275463Y0264773D01*
X0275463Y0263974D02*
X0337284Y0263974D01*
X0338082Y0263176D02*
X0275463Y0263176D01*
X0270463Y0256787D02*
X0226677Y0256787D01*
X0226677Y0255989D02*
X0270463Y0255989D01*
X0270463Y0255190D02*
X0226677Y0255190D01*
X0226677Y0254392D02*
X0270463Y0254392D01*
X0270463Y0253593D02*
X0226677Y0253593D01*
X0226677Y0252795D02*
X0270463Y0252795D01*
X0270463Y0251996D02*
X0226677Y0251996D01*
X0226677Y0251198D02*
X0270463Y0251198D01*
X0270463Y0250399D02*
X0226677Y0250399D01*
X0226677Y0249601D02*
X0270463Y0249601D01*
X0270463Y0248802D02*
X0226677Y0248802D01*
X0226677Y0248004D02*
X0270463Y0248004D01*
X0270463Y0247205D02*
X0226677Y0247205D01*
X0226677Y0246407D02*
X0270463Y0246407D01*
X0270463Y0245608D02*
X0226677Y0245608D01*
X0226677Y0244810D02*
X0270463Y0244810D01*
X0270463Y0244011D02*
X0226677Y0244011D01*
X0226677Y0243213D02*
X0270463Y0243213D01*
X0270463Y0242414D02*
X0226677Y0242414D01*
X0226677Y0241616D02*
X0270463Y0241616D01*
X0270463Y0240817D02*
X0226677Y0240817D01*
X0226677Y0240019D02*
X0270463Y0240019D01*
X0270463Y0239220D02*
X0226677Y0239220D01*
X0226677Y0238422D02*
X0229762Y0238422D01*
X0228963Y0237623D02*
X0226677Y0237623D01*
X0226677Y0236825D02*
X0228165Y0236825D01*
X0227366Y0236026D02*
X0226677Y0236026D01*
X0237839Y0238422D02*
X0270463Y0238422D01*
X0270463Y0237623D02*
X0238638Y0237623D01*
X0239436Y0236825D02*
X0270463Y0236825D01*
X0270463Y0236026D02*
X0240235Y0236026D01*
X0241033Y0235228D02*
X0270463Y0235228D01*
X0270463Y0234429D02*
X0241832Y0234429D01*
X0242630Y0233631D02*
X0270463Y0233631D01*
X0270463Y0232832D02*
X0243429Y0232832D01*
X0244227Y0232034D02*
X0270463Y0232034D01*
X0270463Y0231235D02*
X0245026Y0231235D01*
X0245402Y0230437D02*
X0270463Y0230437D01*
X0270463Y0229638D02*
X0245483Y0229638D01*
X0245483Y0228840D02*
X0270463Y0228840D01*
X0270463Y0228041D02*
X0245483Y0228041D01*
X0245483Y0227243D02*
X0270463Y0227243D01*
X0270463Y0226444D02*
X0245483Y0226444D01*
X0245483Y0225646D02*
X0270463Y0225646D01*
X0270463Y0224847D02*
X0245483Y0224847D01*
X0200411Y0245608D02*
X0200043Y0245608D01*
X0200411Y0246407D02*
X0157473Y0246407D01*
X0156675Y0247205D02*
X0200411Y0247205D01*
X0200411Y0248004D02*
X0155876Y0248004D01*
X0155078Y0248802D02*
X0200411Y0248802D01*
X0200411Y0249601D02*
X0154279Y0249601D01*
X0153481Y0250399D02*
X0200411Y0250399D01*
X0200411Y0251198D02*
X0152682Y0251198D01*
X0151884Y0251996D02*
X0178969Y0251996D01*
X0178777Y0252076D02*
X0179257Y0251877D01*
X0179767Y0251776D01*
X0180026Y0251776D01*
X0180026Y0254413D01*
X0180026Y0254413D01*
X0177389Y0254413D01*
X0177389Y0254673D01*
X0177490Y0255182D01*
X0177689Y0255662D01*
X0177978Y0256094D01*
X0178345Y0256462D01*
X0178777Y0256750D01*
X0179257Y0256949D01*
X0179767Y0257050D01*
X0180026Y0257050D01*
X0180026Y0254413D01*
X0177389Y0254413D01*
X0177389Y0254153D01*
X0177490Y0253644D01*
X0177689Y0253164D01*
X0177978Y0252732D01*
X0178345Y0252364D01*
X0178777Y0252076D01*
X0177936Y0252795D02*
X0151085Y0252795D01*
X0151064Y0252816D02*
X0150145Y0253197D01*
X0065300Y0253197D01*
X0064876Y0253622D01*
X0063607Y0254147D01*
X0062235Y0254147D01*
X0060967Y0253622D01*
X0059996Y0252651D01*
X0059471Y0251383D01*
X0059471Y0250011D01*
X0059996Y0248743D01*
X0060967Y0247772D01*
X0061051Y0247737D01*
X0058918Y0247737D01*
X0058494Y0248162D01*
X0057226Y0248687D01*
X0055853Y0248687D01*
X0054585Y0248162D01*
X0053615Y0247192D01*
X0053089Y0245924D01*
X0053089Y0244551D01*
X0053615Y0243283D01*
X0054585Y0242313D01*
X0055853Y0241787D01*
X0057226Y0241787D01*
X0058494Y0242313D01*
X0058918Y0242737D01*
X0060083Y0242737D01*
X0059996Y0242651D01*
X0059471Y0241383D01*
X0059471Y0240011D01*
X0059996Y0238743D01*
X0060967Y0237772D01*
X0062235Y0237247D01*
X0063607Y0237247D01*
X0064876Y0237772D01*
X0065300Y0238197D01*
X0151587Y0238197D01*
X0156865Y0232919D01*
X0156865Y0232318D01*
X0157390Y0231050D01*
X0158361Y0230080D01*
X0159629Y0229555D01*
X0159847Y0229555D01*
X0160235Y0228617D01*
X0161206Y0227646D01*
X0162474Y0227121D01*
X0163846Y0227121D01*
X0165114Y0227646D01*
X0166085Y0228617D01*
X0166509Y0229641D01*
X0166886Y0229641D01*
X0168154Y0230166D01*
X0169124Y0231136D01*
X0169650Y0232404D01*
X0169650Y0233777D01*
X0169124Y0235045D01*
X0168154Y0236015D01*
X0167660Y0236220D01*
X0151767Y0252113D01*
X0151064Y0252816D01*
X0158272Y0245608D02*
X0195893Y0245608D01*
X0192221Y0244810D02*
X0159070Y0244810D01*
X0159869Y0244011D02*
X0191422Y0244011D01*
X0190624Y0243213D02*
X0160667Y0243213D01*
X0161466Y0242414D02*
X0189825Y0242414D01*
X0189027Y0241616D02*
X0162264Y0241616D01*
X0163063Y0240817D02*
X0188228Y0240817D01*
X0187430Y0240019D02*
X0163861Y0240019D01*
X0164660Y0239220D02*
X0186631Y0239220D01*
X0185833Y0238422D02*
X0165458Y0238422D01*
X0166257Y0237623D02*
X0185034Y0237623D01*
X0184236Y0236825D02*
X0167055Y0236825D01*
X0168128Y0236026D02*
X0183437Y0236026D01*
X0182639Y0235228D02*
X0168941Y0235228D01*
X0169379Y0234429D02*
X0181840Y0234429D01*
X0181042Y0233631D02*
X0169650Y0233631D01*
X0169650Y0232832D02*
X0180243Y0232832D01*
X0179445Y0232034D02*
X0169496Y0232034D01*
X0169165Y0231235D02*
X0178646Y0231235D01*
X0177848Y0230437D02*
X0168425Y0230437D01*
X0166508Y0229638D02*
X0177049Y0229638D01*
X0176250Y0228840D02*
X0166177Y0228840D01*
X0165509Y0228041D02*
X0175452Y0228041D01*
X0174653Y0227243D02*
X0164139Y0227243D01*
X0162181Y0227243D02*
X0146707Y0227243D01*
X0146707Y0228041D02*
X0160811Y0228041D01*
X0160143Y0228840D02*
X0146707Y0228840D01*
X0146707Y0229638D02*
X0159427Y0229638D01*
X0158004Y0230437D02*
X0146979Y0230437D01*
X0147132Y0230589D02*
X0147657Y0231857D01*
X0147657Y0233230D01*
X0147132Y0234498D01*
X0146161Y0235468D01*
X0144893Y0235993D01*
X0143521Y0235993D01*
X0142253Y0235468D01*
X0141282Y0234498D01*
X0140757Y0233230D01*
X0140757Y0231857D01*
X0141282Y0230589D01*
X0141707Y0230164D01*
X0141707Y0219033D01*
X0141707Y0218038D01*
X0142088Y0217119D01*
X0148291Y0210916D01*
X0148291Y0210315D01*
X0148817Y0209047D01*
X0149787Y0208076D01*
X0151055Y0207551D01*
X0152428Y0207551D01*
X0153696Y0208076D01*
X0154666Y0209047D01*
X0155191Y0210315D01*
X0155191Y0211687D01*
X0154666Y0212955D01*
X0153696Y0213926D01*
X0152428Y0214451D01*
X0151827Y0214451D01*
X0146707Y0219571D01*
X0146707Y0230164D01*
X0147132Y0230589D01*
X0147399Y0231235D02*
X0157314Y0231235D01*
X0156983Y0232034D02*
X0147657Y0232034D01*
X0147657Y0232832D02*
X0156865Y0232832D01*
X0156153Y0233631D02*
X0147491Y0233631D01*
X0147160Y0234429D02*
X0155355Y0234429D01*
X0154556Y0235228D02*
X0146402Y0235228D01*
X0142012Y0235228D02*
X0035997Y0235228D01*
X0035997Y0236026D02*
X0153758Y0236026D01*
X0152959Y0236825D02*
X0035997Y0236825D01*
X0035997Y0237623D02*
X0061326Y0237623D01*
X0060317Y0238422D02*
X0035997Y0238422D01*
X0035997Y0239220D02*
X0059799Y0239220D01*
X0059471Y0240019D02*
X0035997Y0240019D01*
X0035997Y0240817D02*
X0059471Y0240817D01*
X0059568Y0241616D02*
X0035997Y0241616D01*
X0035997Y0242414D02*
X0054483Y0242414D01*
X0053685Y0243213D02*
X0035997Y0243213D01*
X0035997Y0244011D02*
X0053313Y0244011D01*
X0053089Y0244810D02*
X0035997Y0244810D01*
X0035997Y0245608D02*
X0053089Y0245608D01*
X0053290Y0246407D02*
X0035997Y0246407D01*
X0035997Y0247205D02*
X0053628Y0247205D01*
X0054427Y0248004D02*
X0035997Y0248004D01*
X0035997Y0248802D02*
X0059972Y0248802D01*
X0059641Y0249601D02*
X0035997Y0249601D01*
X0035997Y0250399D02*
X0059471Y0250399D01*
X0059471Y0251198D02*
X0035997Y0251198D01*
X0035997Y0251996D02*
X0059725Y0251996D01*
X0060140Y0252795D02*
X0035997Y0252795D01*
X0035997Y0253593D02*
X0060939Y0253593D01*
X0064904Y0253593D02*
X0177511Y0253593D01*
X0177389Y0254392D02*
X0035997Y0254392D01*
X0035997Y0255190D02*
X0177494Y0255190D01*
X0177907Y0255989D02*
X0035997Y0255989D01*
X0035997Y0256787D02*
X0178867Y0256787D01*
X0180026Y0256787D02*
X0180026Y0256787D01*
X0180026Y0257050D02*
X0180286Y0257050D01*
X0180796Y0256949D01*
X0181276Y0256750D01*
X0181708Y0256462D01*
X0182075Y0256094D01*
X0182364Y0255662D01*
X0182562Y0255182D01*
X0182664Y0254673D01*
X0182664Y0254413D01*
X0180026Y0254413D01*
X0180026Y0254413D01*
X0180026Y0254413D01*
X0180026Y0257050D01*
X0180026Y0255989D02*
X0180026Y0255989D01*
X0180026Y0255190D02*
X0180026Y0255190D01*
X0180026Y0254413D02*
X0180026Y0254413D01*
X0180026Y0251776D01*
X0180286Y0251776D01*
X0180796Y0251877D01*
X0181276Y0252076D01*
X0181708Y0252364D01*
X0182075Y0252732D01*
X0182364Y0253164D01*
X0182562Y0253644D01*
X0182664Y0254153D01*
X0182664Y0254413D01*
X0180026Y0254413D01*
X0180026Y0254392D02*
X0180026Y0254392D01*
X0180026Y0253593D02*
X0180026Y0253593D01*
X0180026Y0252795D02*
X0180026Y0252795D01*
X0180026Y0251996D02*
X0180026Y0251996D01*
X0181084Y0251996D02*
X0200411Y0251996D01*
X0200411Y0252795D02*
X0182117Y0252795D01*
X0182542Y0253593D02*
X0200411Y0253593D01*
X0200411Y0254392D02*
X0182664Y0254392D01*
X0182559Y0255190D02*
X0200411Y0255190D01*
X0200411Y0255989D02*
X0182145Y0255989D01*
X0181186Y0256787D02*
X0200411Y0256787D01*
X0200411Y0257586D02*
X0127590Y0257586D01*
X0127457Y0257559D02*
X0127966Y0257661D01*
X0128446Y0257860D01*
X0128878Y0258148D01*
X0129245Y0258516D01*
X0129534Y0258948D01*
X0129733Y0259428D01*
X0129834Y0259937D01*
X0129834Y0260197D01*
X0129834Y0260457D01*
X0129733Y0260966D01*
X0129534Y0261446D01*
X0129245Y0261878D01*
X0128878Y0262245D01*
X0128446Y0262534D01*
X0127966Y0262733D01*
X0127457Y0262834D01*
X0127197Y0262834D01*
X0127197Y0260197D01*
X0129834Y0260197D01*
X0127197Y0260197D01*
X0127197Y0260197D01*
X0127197Y0260197D01*
X0127197Y0262834D01*
X0126937Y0262834D01*
X0126428Y0262733D01*
X0125948Y0262534D01*
X0125516Y0262245D01*
X0125148Y0261878D01*
X0124860Y0261446D01*
X0124661Y0260966D01*
X0124559Y0260457D01*
X0124559Y0260197D01*
X0127197Y0260197D01*
X0127197Y0257559D01*
X0127457Y0257559D01*
X0127197Y0257559D02*
X0127197Y0260197D01*
X0127197Y0260197D01*
X0127197Y0260197D01*
X0124559Y0260197D01*
X0124559Y0259937D01*
X0124661Y0259428D01*
X0124860Y0258948D01*
X0125148Y0258516D01*
X0125516Y0258148D01*
X0125948Y0257860D01*
X0126428Y0257661D01*
X0126937Y0257559D01*
X0127197Y0257559D01*
X0127197Y0257586D02*
X0127197Y0257586D01*
X0126804Y0257586D02*
X0035997Y0257586D01*
X0035997Y0258384D02*
X0125279Y0258384D01*
X0124762Y0259183D02*
X0035997Y0259183D01*
X0035997Y0259981D02*
X0124559Y0259981D01*
X0124624Y0260780D02*
X0035997Y0260780D01*
X0035997Y0261579D02*
X0124948Y0261579D01*
X0125713Y0262377D02*
X0035997Y0262377D01*
X0035997Y0263176D02*
X0200411Y0263176D01*
X0200411Y0263974D02*
X0035997Y0263974D01*
X0035997Y0264773D02*
X0200411Y0264773D01*
X0200411Y0265571D02*
X0035997Y0265571D01*
X0035997Y0266370D02*
X0200411Y0266370D01*
X0200411Y0267168D02*
X0035997Y0267168D01*
X0035997Y0267967D02*
X0200411Y0267967D01*
X0200411Y0268765D02*
X0035997Y0268765D01*
X0035997Y0269564D02*
X0200411Y0269564D01*
X0200411Y0270362D02*
X0035997Y0270362D01*
X0035997Y0271161D02*
X0200411Y0271161D01*
X0200411Y0271959D02*
X0035997Y0271959D01*
X0035997Y0272758D02*
X0200411Y0272758D01*
X0200411Y0273556D02*
X0035997Y0273556D01*
X0035997Y0274355D02*
X0081309Y0274355D01*
X0081148Y0274516D02*
X0081516Y0274148D01*
X0081948Y0273860D01*
X0082428Y0273661D01*
X0082937Y0273559D01*
X0083197Y0273559D01*
X0083457Y0273559D01*
X0083966Y0273661D01*
X0084446Y0273860D01*
X0084878Y0274148D01*
X0085245Y0274516D01*
X0085534Y0274948D01*
X0085733Y0275428D01*
X0085834Y0275937D01*
X0085834Y0276197D01*
X0085834Y0276457D01*
X0085733Y0276966D01*
X0085534Y0277446D01*
X0085245Y0277878D01*
X0084878Y0278245D01*
X0084446Y0278534D01*
X0083966Y0278733D01*
X0083457Y0278834D01*
X0083197Y0278834D01*
X0083197Y0276197D01*
X0085834Y0276197D01*
X0083197Y0276197D01*
X0083197Y0276197D01*
X0083197Y0276197D01*
X0083197Y0278834D01*
X0082937Y0278834D01*
X0082428Y0278733D01*
X0081948Y0278534D01*
X0081516Y0278245D01*
X0081148Y0277878D01*
X0080860Y0277446D01*
X0080661Y0276966D01*
X0080559Y0276457D01*
X0080559Y0276197D01*
X0083197Y0276197D01*
X0083197Y0273559D01*
X0083197Y0276197D01*
X0083197Y0276197D01*
X0083197Y0276197D01*
X0080559Y0276197D01*
X0080559Y0275937D01*
X0080661Y0275428D01*
X0080860Y0274948D01*
X0081148Y0274516D01*
X0080774Y0275153D02*
X0035997Y0275153D01*
X0035997Y0275952D02*
X0080559Y0275952D01*
X0080618Y0276750D02*
X0035997Y0276750D01*
X0035997Y0277549D02*
X0080928Y0277549D01*
X0081668Y0278347D02*
X0035997Y0278347D01*
X0035997Y0279146D02*
X0200411Y0279146D01*
X0200411Y0279944D02*
X0035997Y0279944D01*
X0035997Y0280743D02*
X0200411Y0280743D01*
X0200411Y0281541D02*
X0035997Y0281541D01*
X0035997Y0282340D02*
X0200411Y0282340D01*
X0200411Y0283138D02*
X0035997Y0283138D01*
X0035997Y0283937D02*
X0200411Y0283937D01*
X0200411Y0284735D02*
X0035997Y0284735D01*
X0035997Y0285534D02*
X0200411Y0285534D01*
X0200411Y0286332D02*
X0035997Y0286332D01*
X0035997Y0287131D02*
X0200411Y0287131D01*
X0200411Y0287929D02*
X0045551Y0287929D01*
X0045446Y0287860D02*
X0045878Y0288148D01*
X0046245Y0288516D01*
X0046534Y0288948D01*
X0046733Y0289428D01*
X0046834Y0289937D01*
X0046834Y0290197D01*
X0046834Y0290457D01*
X0046733Y0290966D01*
X0046534Y0291446D01*
X0046245Y0291878D01*
X0045878Y0292245D01*
X0045446Y0292534D01*
X0044966Y0292733D01*
X0044457Y0292834D01*
X0044197Y0292834D01*
X0044197Y0290197D01*
X0046834Y0290197D01*
X0044197Y0290197D01*
X0044197Y0290197D01*
X0044197Y0290197D01*
X0044197Y0292834D01*
X0043937Y0292834D01*
X0043428Y0292733D01*
X0042948Y0292534D01*
X0042516Y0292245D01*
X0042148Y0291878D01*
X0041860Y0291446D01*
X0041661Y0290966D01*
X0041559Y0290457D01*
X0041559Y0290197D01*
X0044197Y0290197D01*
X0044197Y0287559D01*
X0044457Y0287559D01*
X0044966Y0287661D01*
X0045446Y0287860D01*
X0044197Y0287929D02*
X0044197Y0287929D01*
X0044197Y0287559D02*
X0044197Y0290197D01*
X0044197Y0290197D01*
X0044197Y0290197D01*
X0041559Y0290197D01*
X0041559Y0289937D01*
X0041661Y0289428D01*
X0041860Y0288948D01*
X0042148Y0288516D01*
X0042516Y0288148D01*
X0042948Y0287860D01*
X0043428Y0287661D01*
X0043937Y0287559D01*
X0044197Y0287559D01*
X0044197Y0288728D02*
X0044197Y0288728D01*
X0044197Y0289526D02*
X0044197Y0289526D01*
X0044197Y0290325D02*
X0044197Y0290325D01*
X0044197Y0291123D02*
X0044197Y0291123D01*
X0044197Y0291922D02*
X0044197Y0291922D01*
X0044197Y0292720D02*
X0044197Y0292720D01*
X0044996Y0292720D02*
X0200411Y0292720D01*
X0200411Y0291922D02*
X0046202Y0291922D01*
X0046668Y0291123D02*
X0200411Y0291123D01*
X0200411Y0290325D02*
X0046834Y0290325D01*
X0046753Y0289526D02*
X0200411Y0289526D01*
X0200411Y0288728D02*
X0046387Y0288728D01*
X0042843Y0287929D02*
X0035997Y0287929D01*
X0035997Y0288728D02*
X0042006Y0288728D01*
X0041641Y0289526D02*
X0035997Y0289526D01*
X0035997Y0290325D02*
X0041559Y0290325D01*
X0041726Y0291123D02*
X0035997Y0291123D01*
X0035997Y0291922D02*
X0042192Y0291922D01*
X0043398Y0292720D02*
X0035997Y0292720D01*
X0035997Y0293519D02*
X0200411Y0293519D01*
X0200411Y0294317D02*
X0035997Y0294317D01*
X0035997Y0295116D02*
X0200411Y0295116D01*
X0200411Y0295915D02*
X0035997Y0295915D01*
X0035997Y0296713D02*
X0200411Y0296713D01*
X0200411Y0297512D02*
X0035997Y0297512D01*
X0035997Y0298310D02*
X0200411Y0298310D01*
X0200411Y0299109D02*
X0035997Y0299109D01*
X0035997Y0299907D02*
X0111877Y0299907D01*
X0111948Y0299860D02*
X0112428Y0299661D01*
X0112937Y0299559D01*
X0113197Y0299559D01*
X0113457Y0299559D01*
X0113966Y0299661D01*
X0114446Y0299860D01*
X0114878Y0300148D01*
X0115245Y0300516D01*
X0115534Y0300948D01*
X0115733Y0301428D01*
X0115834Y0301937D01*
X0115834Y0302197D01*
X0115834Y0302457D01*
X0115733Y0302966D01*
X0115534Y0303446D01*
X0115245Y0303878D01*
X0114878Y0304245D01*
X0114446Y0304534D01*
X0113966Y0304733D01*
X0113457Y0304834D01*
X0113197Y0304834D01*
X0113197Y0302197D01*
X0115834Y0302197D01*
X0113197Y0302197D01*
X0113197Y0302197D01*
X0113197Y0302197D01*
X0113197Y0304834D01*
X0112937Y0304834D01*
X0112428Y0304733D01*
X0111948Y0304534D01*
X0111516Y0304245D01*
X0111148Y0303878D01*
X0110860Y0303446D01*
X0110661Y0302966D01*
X0110559Y0302457D01*
X0110559Y0302197D01*
X0113197Y0302197D01*
X0113197Y0299559D01*
X0113197Y0302197D01*
X0113197Y0302197D01*
X0113197Y0302197D01*
X0110559Y0302197D01*
X0110559Y0301937D01*
X0110661Y0301428D01*
X0110860Y0300948D01*
X0111148Y0300516D01*
X0111516Y0300148D01*
X0111948Y0299860D01*
X0113197Y0299907D02*
X0113197Y0299907D01*
X0113197Y0300706D02*
X0113197Y0300706D01*
X0113197Y0301504D02*
X0113197Y0301504D01*
X0113197Y0302303D02*
X0113197Y0302303D01*
X0113197Y0303101D02*
X0113197Y0303101D01*
X0113197Y0303900D02*
X0113197Y0303900D01*
X0113197Y0304698D02*
X0113197Y0304698D01*
X0114050Y0304698D02*
X0200411Y0304698D01*
X0200411Y0303900D02*
X0115224Y0303900D01*
X0115677Y0303101D02*
X0200411Y0303101D01*
X0200411Y0302303D02*
X0115834Y0302303D01*
X0115748Y0301504D02*
X0200411Y0301504D01*
X0200411Y0300706D02*
X0115372Y0300706D01*
X0114517Y0299907D02*
X0200411Y0299907D01*
X0200411Y0305497D02*
X0035997Y0305497D01*
X0035997Y0306295D02*
X0200411Y0306295D01*
X0200411Y0307094D02*
X0035997Y0307094D01*
X0035997Y0307892D02*
X0200411Y0307892D01*
X0200411Y0308691D02*
X0035997Y0308691D01*
X0035997Y0309489D02*
X0200411Y0309489D01*
X0200411Y0310288D02*
X0035997Y0310288D01*
X0035997Y0311086D02*
X0200411Y0311086D01*
X0200411Y0311885D02*
X0035997Y0311885D01*
X0035997Y0312683D02*
X0049603Y0312683D01*
X0046883Y0313482D02*
X0035997Y0313482D01*
X0035997Y0314280D02*
X0045009Y0314280D01*
X0043766Y0315079D02*
X0035997Y0315079D01*
X0035997Y0315877D02*
X0042524Y0315877D01*
X0041338Y0316676D02*
X0035997Y0316676D01*
X0035997Y0317474D02*
X0040646Y0317474D01*
X0039954Y0318273D02*
X0035997Y0318273D01*
X0035997Y0319071D02*
X0039262Y0319071D01*
X0038570Y0319870D02*
X0035997Y0319870D01*
X0035997Y0320668D02*
X0037962Y0320668D01*
X0037597Y0321467D02*
X0035997Y0321467D01*
X0035997Y0322265D02*
X0037232Y0322265D01*
X0036868Y0323064D02*
X0035997Y0323064D01*
X0035997Y0323862D02*
X0036503Y0323862D01*
X0036138Y0324661D02*
X0035997Y0324661D01*
X0035997Y0335840D02*
X0036187Y0335840D01*
X0035997Y0336639D02*
X0036552Y0336639D01*
X0036917Y0337437D02*
X0035997Y0337437D01*
X0035997Y0338236D02*
X0037281Y0338236D01*
X0037646Y0339034D02*
X0035997Y0339034D01*
X0035997Y0339833D02*
X0038011Y0339833D01*
X0038663Y0340631D02*
X0035997Y0340631D01*
X0035997Y0341430D02*
X0039355Y0341430D01*
X0040047Y0342228D02*
X0035997Y0342228D01*
X0035997Y0343027D02*
X0040739Y0343027D01*
X0041448Y0343825D02*
X0035997Y0343825D01*
X0035997Y0344624D02*
X0042691Y0344624D01*
X0043933Y0345422D02*
X0035997Y0345422D01*
X0035997Y0346221D02*
X0045176Y0346221D01*
X0047249Y0347019D02*
X0035997Y0347019D01*
X0035997Y0347818D02*
X0049968Y0347818D01*
X0056426Y0347818D02*
X0073597Y0347818D01*
X0073597Y0348616D02*
X0035997Y0348616D01*
X0035997Y0349415D02*
X0073597Y0349415D01*
X0073597Y0350213D02*
X0035997Y0350213D01*
X0035997Y0351012D02*
X0073854Y0351012D01*
X0073597Y0350391D02*
X0074358Y0352229D01*
X0075765Y0353636D01*
X0077602Y0354397D01*
X0079591Y0354397D01*
X0081429Y0353636D01*
X0082836Y0352229D01*
X0083597Y0350391D01*
X0083597Y0342402D01*
X0082836Y0340565D01*
X0081429Y0339158D01*
X0079591Y0338397D01*
X0077602Y0338397D01*
X0075765Y0339158D01*
X0074358Y0340565D01*
X0073597Y0342402D01*
X0073597Y0350391D01*
X0074185Y0351810D02*
X0035997Y0351810D01*
X0035997Y0352609D02*
X0074738Y0352609D01*
X0075536Y0353407D02*
X0035997Y0353407D01*
X0035997Y0354206D02*
X0077141Y0354206D01*
X0080053Y0354206D02*
X0087141Y0354206D01*
X0085536Y0353407D02*
X0081657Y0353407D01*
X0082456Y0352609D02*
X0084738Y0352609D01*
X0084185Y0351810D02*
X0083009Y0351810D01*
X0083340Y0351012D02*
X0083854Y0351012D01*
X0083597Y0350213D02*
X0083597Y0350213D01*
X0083597Y0349415D02*
X0083597Y0349415D01*
X0083597Y0348616D02*
X0083597Y0348616D01*
X0083597Y0347818D02*
X0083597Y0347818D01*
X0083597Y0347019D02*
X0083597Y0347019D01*
X0083597Y0346221D02*
X0083597Y0346221D01*
X0083597Y0345422D02*
X0083597Y0345422D01*
X0083597Y0344624D02*
X0083597Y0344624D01*
X0083597Y0343825D02*
X0083597Y0343825D01*
X0083597Y0343027D02*
X0083597Y0343027D01*
X0083525Y0342228D02*
X0083669Y0342228D01*
X0084000Y0341430D02*
X0083194Y0341430D01*
X0082863Y0340631D02*
X0084330Y0340631D01*
X0085090Y0339833D02*
X0082104Y0339833D01*
X0081130Y0339034D02*
X0086064Y0339034D01*
X0091130Y0339034D02*
X0096064Y0339034D01*
X0095090Y0339833D02*
X0092104Y0339833D01*
X0092863Y0340631D02*
X0094330Y0340631D01*
X0094000Y0341430D02*
X0093194Y0341430D01*
X0093525Y0342228D02*
X0093669Y0342228D01*
X0093597Y0343027D02*
X0093597Y0343027D01*
X0093597Y0343825D02*
X0093597Y0343825D01*
X0093597Y0344624D02*
X0093597Y0344624D01*
X0093597Y0345422D02*
X0093597Y0345422D01*
X0093597Y0346221D02*
X0093597Y0346221D01*
X0093597Y0347019D02*
X0093597Y0347019D01*
X0093597Y0347818D02*
X0093597Y0347818D01*
X0093597Y0348616D02*
X0093597Y0348616D01*
X0093597Y0349415D02*
X0093597Y0349415D01*
X0093597Y0350213D02*
X0093597Y0350213D01*
X0093340Y0351012D02*
X0093854Y0351012D01*
X0094185Y0351810D02*
X0093009Y0351810D01*
X0092456Y0352609D02*
X0094738Y0352609D01*
X0095536Y0353407D02*
X0091657Y0353407D01*
X0090053Y0354206D02*
X0096102Y0354206D01*
X0096432Y0355004D02*
X0035997Y0355004D01*
X0035997Y0355803D02*
X0097167Y0355803D01*
X0097965Y0356601D02*
X0035997Y0356601D01*
X0035997Y0357400D02*
X0098764Y0357400D01*
X0099562Y0358198D02*
X0035997Y0358198D01*
X0035997Y0358997D02*
X0100361Y0358997D01*
X0104238Y0355803D02*
X0107167Y0355803D01*
X0106432Y0355004D02*
X0103439Y0355004D01*
X0102641Y0354206D02*
X0106102Y0354206D01*
X0105536Y0353407D02*
X0101842Y0353407D01*
X0102456Y0352609D02*
X0104738Y0352609D01*
X0104185Y0351810D02*
X0103009Y0351810D01*
X0103340Y0351012D02*
X0103854Y0351012D01*
X0103597Y0350213D02*
X0103597Y0350213D01*
X0103597Y0349415D02*
X0103597Y0349415D01*
X0103597Y0348616D02*
X0103597Y0348616D01*
X0103597Y0347818D02*
X0103597Y0347818D01*
X0103597Y0347019D02*
X0103597Y0347019D01*
X0103597Y0346221D02*
X0103597Y0346221D01*
X0103597Y0345422D02*
X0103597Y0345422D01*
X0103597Y0344624D02*
X0103597Y0344624D01*
X0103597Y0343825D02*
X0103597Y0343825D01*
X0103597Y0343027D02*
X0103597Y0343027D01*
X0103525Y0342228D02*
X0103669Y0342228D01*
X0104000Y0341430D02*
X0103194Y0341430D01*
X0102863Y0340631D02*
X0104330Y0340631D01*
X0105090Y0339833D02*
X0102104Y0339833D01*
X0101130Y0339034D02*
X0106064Y0339034D01*
X0111130Y0339034D02*
X0116064Y0339034D01*
X0115090Y0339833D02*
X0112104Y0339833D01*
X0112863Y0340631D02*
X0114330Y0340631D01*
X0114000Y0341430D02*
X0113194Y0341430D01*
X0113525Y0342228D02*
X0113669Y0342228D01*
X0113597Y0343027D02*
X0113597Y0343027D01*
X0113597Y0343825D02*
X0113597Y0343825D01*
X0113597Y0344624D02*
X0113597Y0344624D01*
X0113597Y0345422D02*
X0113597Y0345422D01*
X0113597Y0346221D02*
X0113597Y0346221D01*
X0113597Y0347019D02*
X0113597Y0347019D01*
X0113597Y0347818D02*
X0113597Y0347818D01*
X0113597Y0348616D02*
X0113597Y0348616D01*
X0113597Y0349415D02*
X0113597Y0349415D01*
X0113597Y0350213D02*
X0113597Y0350213D01*
X0113340Y0351012D02*
X0113854Y0351012D01*
X0114185Y0351810D02*
X0113009Y0351810D01*
X0112456Y0352609D02*
X0114738Y0352609D01*
X0115536Y0353407D02*
X0111842Y0353407D01*
X0112641Y0354206D02*
X0116102Y0354206D01*
X0116432Y0355004D02*
X0113439Y0355004D01*
X0114238Y0355803D02*
X0117167Y0355803D01*
X0121842Y0353407D02*
X0127389Y0353407D01*
X0127616Y0353481D02*
X0126989Y0353277D01*
X0126402Y0352978D01*
X0125869Y0352591D01*
X0125403Y0352125D01*
X0125015Y0351592D01*
X0124716Y0351004D01*
X0124513Y0350377D01*
X0124409Y0349726D01*
X0124409Y0346797D01*
X0128197Y0346797D01*
X0128197Y0353573D01*
X0127616Y0353481D01*
X0128197Y0353407D02*
X0128997Y0353407D01*
X0128997Y0353573D02*
X0128997Y0346797D01*
X0132784Y0346797D01*
X0132784Y0349726D01*
X0132681Y0350377D01*
X0132477Y0351004D01*
X0132178Y0351592D01*
X0131791Y0352125D01*
X0131325Y0352591D01*
X0130792Y0352978D01*
X0130204Y0353277D01*
X0129577Y0353481D01*
X0128997Y0353573D01*
X0129805Y0353407D02*
X0193855Y0353407D01*
X0193688Y0352609D02*
X0131300Y0352609D01*
X0132019Y0351810D02*
X0197797Y0351810D01*
X0197797Y0351012D02*
X0198597Y0351012D01*
X0198597Y0350213D02*
X0197797Y0350213D01*
X0197797Y0349415D02*
X0198597Y0349415D01*
X0198597Y0348616D02*
X0197797Y0348616D01*
X0197797Y0347818D02*
X0198597Y0347818D01*
X0199699Y0347818D02*
X0200411Y0347818D01*
X0200411Y0347019D02*
X0132784Y0347019D01*
X0132784Y0347818D02*
X0196695Y0347818D01*
X0195274Y0348616D02*
X0132784Y0348616D01*
X0132784Y0349415D02*
X0194541Y0349415D01*
X0194068Y0350213D02*
X0132707Y0350213D01*
X0132474Y0351012D02*
X0193782Y0351012D01*
X0194183Y0354206D02*
X0122641Y0354206D01*
X0122456Y0352609D02*
X0125894Y0352609D01*
X0125174Y0351810D02*
X0123009Y0351810D01*
X0123340Y0351012D02*
X0124720Y0351012D01*
X0124487Y0350213D02*
X0123597Y0350213D01*
X0123597Y0349415D02*
X0124409Y0349415D01*
X0124409Y0348616D02*
X0123597Y0348616D01*
X0123597Y0347818D02*
X0124409Y0347818D01*
X0124409Y0347019D02*
X0123597Y0347019D01*
X0123597Y0346221D02*
X0128197Y0346221D01*
X0128197Y0345997D02*
X0124409Y0345997D01*
X0124409Y0343067D01*
X0124513Y0342416D01*
X0124716Y0341789D01*
X0125015Y0341202D01*
X0125403Y0340669D01*
X0125869Y0340203D01*
X0126402Y0339815D01*
X0126989Y0339516D01*
X0127616Y0339313D01*
X0128197Y0339221D01*
X0128197Y0345997D01*
X0128997Y0345997D01*
X0128997Y0346797D01*
X0128197Y0346797D01*
X0128197Y0345997D01*
X0128197Y0345422D02*
X0128997Y0345422D01*
X0128997Y0345997D02*
X0128997Y0339221D01*
X0129577Y0339313D01*
X0130204Y0339516D01*
X0130792Y0339815D01*
X0131325Y0340203D01*
X0131791Y0340669D01*
X0132178Y0341202D01*
X0132477Y0341789D01*
X0132681Y0342416D01*
X0132784Y0343067D01*
X0132784Y0345997D01*
X0128997Y0345997D01*
X0128997Y0346221D02*
X0200411Y0346221D01*
X0200411Y0345422D02*
X0132784Y0345422D01*
X0132784Y0344624D02*
X0200411Y0344624D01*
X0200411Y0343825D02*
X0132784Y0343825D01*
X0132778Y0343027D02*
X0200411Y0343027D01*
X0200411Y0342228D02*
X0132620Y0342228D01*
X0132294Y0341430D02*
X0200411Y0341430D01*
X0200411Y0340631D02*
X0131753Y0340631D01*
X0130815Y0339833D02*
X0200411Y0339833D01*
X0200411Y0339034D02*
X0121130Y0339034D01*
X0122104Y0339833D02*
X0126379Y0339833D01*
X0125441Y0340631D02*
X0122863Y0340631D01*
X0123194Y0341430D02*
X0124900Y0341430D01*
X0124574Y0342228D02*
X0123525Y0342228D01*
X0123597Y0343027D02*
X0124416Y0343027D01*
X0124409Y0343825D02*
X0123597Y0343825D01*
X0123597Y0344624D02*
X0124409Y0344624D01*
X0124409Y0345422D02*
X0123597Y0345422D01*
X0128197Y0344624D02*
X0128997Y0344624D01*
X0128997Y0343825D02*
X0128197Y0343825D01*
X0128197Y0343027D02*
X0128997Y0343027D01*
X0128997Y0342228D02*
X0128197Y0342228D01*
X0128197Y0341430D02*
X0128997Y0341430D01*
X0128997Y0340631D02*
X0128197Y0340631D01*
X0128197Y0339833D02*
X0128997Y0339833D01*
X0128997Y0347019D02*
X0128197Y0347019D01*
X0128197Y0347818D02*
X0128997Y0347818D01*
X0128997Y0348616D02*
X0128197Y0348616D01*
X0128197Y0349415D02*
X0128997Y0349415D01*
X0128997Y0350213D02*
X0128197Y0350213D01*
X0128197Y0351012D02*
X0128997Y0351012D01*
X0128997Y0351810D02*
X0128197Y0351810D01*
X0128197Y0352609D02*
X0128997Y0352609D01*
X0108764Y0357400D02*
X0105835Y0357400D01*
X0105036Y0356601D02*
X0107965Y0356601D01*
X0076064Y0339034D02*
X0068748Y0339034D01*
X0069112Y0338236D02*
X0200411Y0338236D01*
X0200411Y0337437D02*
X0069477Y0337437D01*
X0069842Y0336639D02*
X0200411Y0336639D01*
X0200411Y0335840D02*
X0070206Y0335840D01*
X0070500Y0335042D02*
X0200411Y0335042D01*
X0200411Y0334243D02*
X0070615Y0334243D01*
X0070730Y0333445D02*
X0200411Y0333445D01*
X0200411Y0332646D02*
X0070845Y0332646D01*
X0070959Y0331848D02*
X0200411Y0331848D01*
X0200411Y0331049D02*
X0071074Y0331049D01*
X0071189Y0330250D02*
X0200411Y0330250D01*
X0200411Y0329452D02*
X0071090Y0329452D01*
X0070975Y0328653D02*
X0200411Y0328653D01*
X0200411Y0327855D02*
X0070860Y0327855D01*
X0070745Y0327056D02*
X0200411Y0327056D01*
X0200411Y0326258D02*
X0070630Y0326258D01*
X0070516Y0325459D02*
X0200411Y0325459D01*
X0200411Y0324661D02*
X0070255Y0324661D01*
X0069891Y0323862D02*
X0200411Y0323862D01*
X0200411Y0323064D02*
X0069526Y0323064D01*
X0069161Y0322265D02*
X0200411Y0322265D01*
X0200411Y0321467D02*
X0068797Y0321467D01*
X0068432Y0320668D02*
X0200411Y0320668D01*
X0200411Y0319870D02*
X0067823Y0319870D01*
X0067132Y0319071D02*
X0200411Y0319071D01*
X0200411Y0318273D02*
X0066440Y0318273D01*
X0065748Y0317474D02*
X0200411Y0317474D01*
X0200411Y0316676D02*
X0065056Y0316676D01*
X0064984Y0316593D02*
X0064984Y0316593D01*
X0063870Y0315877D02*
X0200411Y0315877D01*
X0200411Y0315079D02*
X0062628Y0315079D01*
X0061385Y0314280D02*
X0200411Y0314280D01*
X0200411Y0313482D02*
X0059511Y0313482D01*
X0056791Y0312683D02*
X0200411Y0312683D01*
X0200411Y0278347D02*
X0084726Y0278347D01*
X0085465Y0277549D02*
X0200411Y0277549D01*
X0200411Y0276750D02*
X0085776Y0276750D01*
X0085834Y0275952D02*
X0200411Y0275952D01*
X0200411Y0275153D02*
X0085619Y0275153D01*
X0085085Y0274355D02*
X0200411Y0274355D01*
X0200411Y0262377D02*
X0128681Y0262377D01*
X0129446Y0261579D02*
X0200411Y0261579D01*
X0200411Y0260780D02*
X0129770Y0260780D01*
X0129834Y0259981D02*
X0200411Y0259981D01*
X0200411Y0259183D02*
X0129632Y0259183D01*
X0129114Y0258384D02*
X0200411Y0258384D01*
X0173855Y0226444D02*
X0146707Y0226444D01*
X0146707Y0225646D02*
X0173056Y0225646D01*
X0172258Y0224847D02*
X0146707Y0224847D01*
X0146707Y0224048D02*
X0171459Y0224048D01*
X0170661Y0223250D02*
X0146707Y0223250D01*
X0146707Y0222451D02*
X0169862Y0222451D01*
X0169064Y0221653D02*
X0146707Y0221653D01*
X0146707Y0220854D02*
X0168265Y0220854D01*
X0167467Y0220056D02*
X0146707Y0220056D01*
X0147021Y0219257D02*
X0166668Y0219257D01*
X0165870Y0218459D02*
X0147819Y0218459D01*
X0148618Y0217660D02*
X0165071Y0217660D01*
X0164273Y0216862D02*
X0149416Y0216862D01*
X0150215Y0216063D02*
X0163474Y0216063D01*
X0162676Y0215265D02*
X0151013Y0215265D01*
X0151812Y0214466D02*
X0161877Y0214466D01*
X0161079Y0213668D02*
X0153954Y0213668D01*
X0154702Y0212869D02*
X0160280Y0212869D01*
X0159482Y0212071D02*
X0155033Y0212071D01*
X0155191Y0211272D02*
X0158683Y0211272D01*
X0157885Y0210474D02*
X0155191Y0210474D01*
X0154926Y0209675D02*
X0157086Y0209675D01*
X0156288Y0208877D02*
X0154496Y0208877D01*
X0153697Y0208078D02*
X0155489Y0208078D01*
X0154691Y0207280D02*
X0035997Y0207280D01*
X0035997Y0208078D02*
X0149785Y0208078D01*
X0148987Y0208877D02*
X0035997Y0208877D01*
X0035997Y0209675D02*
X0148556Y0209675D01*
X0148291Y0210474D02*
X0035997Y0210474D01*
X0035997Y0211272D02*
X0147935Y0211272D01*
X0147136Y0212071D02*
X0035997Y0212071D01*
X0035997Y0212869D02*
X0146338Y0212869D01*
X0145539Y0213668D02*
X0035997Y0213668D01*
X0035997Y0214466D02*
X0144741Y0214466D01*
X0143942Y0215265D02*
X0035997Y0215265D01*
X0035997Y0216063D02*
X0143144Y0216063D01*
X0142345Y0216862D02*
X0035997Y0216862D01*
X0035997Y0217660D02*
X0141864Y0217660D01*
X0141707Y0218459D02*
X0035997Y0218459D01*
X0035997Y0219257D02*
X0141707Y0219257D01*
X0141707Y0220056D02*
X0035997Y0220056D01*
X0035997Y0220854D02*
X0141707Y0220854D01*
X0141707Y0221653D02*
X0058927Y0221653D01*
X0058966Y0221661D02*
X0059446Y0221860D01*
X0059878Y0222148D01*
X0060245Y0222516D01*
X0060534Y0222948D01*
X0060733Y0223428D01*
X0060834Y0223937D01*
X0060834Y0224197D01*
X0060834Y0224457D01*
X0060733Y0224966D01*
X0060534Y0225446D01*
X0060245Y0225878D01*
X0059878Y0226245D01*
X0059446Y0226534D01*
X0058966Y0226733D01*
X0058457Y0226834D01*
X0058197Y0226834D01*
X0058197Y0224197D01*
X0060834Y0224197D01*
X0058197Y0224197D01*
X0058197Y0224197D01*
X0058197Y0224197D01*
X0058197Y0226834D01*
X0057937Y0226834D01*
X0057428Y0226733D01*
X0056948Y0226534D01*
X0056516Y0226245D01*
X0056148Y0225878D01*
X0055860Y0225446D01*
X0055661Y0224966D01*
X0055559Y0224457D01*
X0055559Y0224197D01*
X0058197Y0224197D01*
X0058197Y0221559D01*
X0058457Y0221559D01*
X0058966Y0221661D01*
X0058197Y0221653D02*
X0058197Y0221653D01*
X0058197Y0221559D02*
X0058197Y0224197D01*
X0058197Y0224197D01*
X0058197Y0224197D01*
X0055559Y0224197D01*
X0055559Y0223937D01*
X0055661Y0223428D01*
X0055860Y0222948D01*
X0056148Y0222516D01*
X0056516Y0222148D01*
X0056948Y0221860D01*
X0057428Y0221661D01*
X0057937Y0221559D01*
X0058197Y0221559D01*
X0057467Y0221653D02*
X0035997Y0221653D01*
X0035997Y0222451D02*
X0056212Y0222451D01*
X0055734Y0223250D02*
X0035997Y0223250D01*
X0035997Y0224048D02*
X0055559Y0224048D01*
X0055637Y0224847D02*
X0035997Y0224847D01*
X0035997Y0225646D02*
X0055993Y0225646D01*
X0056813Y0226444D02*
X0035997Y0226444D01*
X0035997Y0227243D02*
X0141707Y0227243D01*
X0141707Y0228041D02*
X0035997Y0228041D01*
X0035997Y0228840D02*
X0141707Y0228840D01*
X0141707Y0229638D02*
X0035997Y0229638D01*
X0035997Y0230437D02*
X0122209Y0230437D01*
X0122278Y0230368D02*
X0122710Y0230079D01*
X0123190Y0229880D01*
X0123700Y0229779D01*
X0123959Y0229779D01*
X0123959Y0232416D01*
X0121322Y0232416D01*
X0121322Y0232156D01*
X0121423Y0231647D01*
X0121622Y0231167D01*
X0121911Y0230735D01*
X0122278Y0230368D01*
X0121594Y0231235D02*
X0035997Y0231235D01*
X0035997Y0232034D02*
X0121346Y0232034D01*
X0121322Y0232416D02*
X0123959Y0232416D01*
X0123959Y0232416D01*
X0123959Y0232416D01*
X0123959Y0235054D01*
X0123700Y0235054D01*
X0123190Y0234952D01*
X0122710Y0234753D01*
X0122278Y0234465D01*
X0121911Y0234097D01*
X0121622Y0233665D01*
X0121423Y0233185D01*
X0121322Y0232676D01*
X0121322Y0232416D01*
X0121353Y0232832D02*
X0035997Y0232832D01*
X0035997Y0233631D02*
X0121608Y0233631D01*
X0122243Y0234429D02*
X0035997Y0234429D01*
X0058197Y0226444D02*
X0058197Y0226444D01*
X0058197Y0225646D02*
X0058197Y0225646D01*
X0058197Y0224847D02*
X0058197Y0224847D01*
X0058197Y0224048D02*
X0058197Y0224048D01*
X0058197Y0223250D02*
X0058197Y0223250D01*
X0058197Y0222451D02*
X0058197Y0222451D01*
X0060181Y0222451D02*
X0141707Y0222451D01*
X0141707Y0223250D02*
X0060659Y0223250D01*
X0060834Y0224048D02*
X0141707Y0224048D01*
X0141707Y0224847D02*
X0060757Y0224847D01*
X0060401Y0225646D02*
X0141707Y0225646D01*
X0141707Y0226444D02*
X0059581Y0226444D01*
X0064516Y0237623D02*
X0152161Y0237623D01*
X0141254Y0234429D02*
X0125676Y0234429D01*
X0125641Y0234465D02*
X0125209Y0234753D01*
X0124729Y0234952D01*
X0124219Y0235054D01*
X0123959Y0235054D01*
X0123959Y0232416D01*
X0123959Y0232416D01*
X0123959Y0229779D01*
X0124219Y0229779D01*
X0124729Y0229880D01*
X0125209Y0230079D01*
X0125641Y0230368D01*
X0126008Y0230735D01*
X0126297Y0231167D01*
X0126495Y0231647D01*
X0126597Y0232156D01*
X0126597Y0232416D01*
X0123960Y0232416D01*
X0123960Y0232416D01*
X0126597Y0232416D01*
X0126597Y0232676D01*
X0126495Y0233185D01*
X0126297Y0233665D01*
X0126008Y0234097D01*
X0125641Y0234465D01*
X0126311Y0233631D02*
X0140923Y0233631D01*
X0140757Y0232832D02*
X0126566Y0232832D01*
X0126572Y0232034D02*
X0140757Y0232034D01*
X0141015Y0231235D02*
X0126325Y0231235D01*
X0125710Y0230437D02*
X0141435Y0230437D01*
X0123959Y0230437D02*
X0123959Y0230437D01*
X0123959Y0231235D02*
X0123959Y0231235D01*
X0123959Y0232034D02*
X0123959Y0232034D01*
X0123959Y0232832D02*
X0123959Y0232832D01*
X0123959Y0233631D02*
X0123959Y0233631D01*
X0123959Y0234429D02*
X0123959Y0234429D01*
X0127197Y0258384D02*
X0127197Y0258384D01*
X0127197Y0259183D02*
X0127197Y0259183D01*
X0127197Y0259981D02*
X0127197Y0259981D01*
X0127197Y0260780D02*
X0127197Y0260780D01*
X0127197Y0261579D02*
X0127197Y0261579D01*
X0127197Y0262377D02*
X0127197Y0262377D01*
X0111021Y0300706D02*
X0035997Y0300706D01*
X0035997Y0301504D02*
X0110646Y0301504D01*
X0110559Y0302303D02*
X0035997Y0302303D01*
X0035997Y0303101D02*
X0110717Y0303101D01*
X0111170Y0303900D02*
X0035997Y0303900D01*
X0035997Y0304698D02*
X0112344Y0304698D01*
X0083197Y0278347D02*
X0083197Y0278347D01*
X0083197Y0277549D02*
X0083197Y0277549D01*
X0083197Y0276750D02*
X0083197Y0276750D01*
X0083197Y0275952D02*
X0083197Y0275952D01*
X0083197Y0275153D02*
X0083197Y0275153D01*
X0083197Y0274355D02*
X0083197Y0274355D01*
X0060735Y0248004D02*
X0058652Y0248004D01*
X0058595Y0242414D02*
X0059898Y0242414D01*
X0035997Y0206481D02*
X0153892Y0206481D01*
X0153094Y0205683D02*
X0035997Y0205683D01*
X0035997Y0204884D02*
X0152295Y0204884D01*
X0151497Y0204086D02*
X0088038Y0204086D01*
X0087878Y0204245D02*
X0087446Y0204534D01*
X0086966Y0204733D01*
X0086457Y0204834D01*
X0086197Y0204834D01*
X0086197Y0202197D01*
X0088834Y0202197D01*
X0088834Y0202457D01*
X0088733Y0202966D01*
X0088534Y0203446D01*
X0088245Y0203878D01*
X0087878Y0204245D01*
X0088600Y0203287D02*
X0150698Y0203287D01*
X0149900Y0202489D02*
X0088828Y0202489D01*
X0088834Y0202197D02*
X0086197Y0202197D01*
X0086197Y0202197D01*
X0086197Y0202197D01*
X0086197Y0204834D01*
X0085937Y0204834D01*
X0085428Y0204733D01*
X0084948Y0204534D01*
X0084516Y0204245D01*
X0084148Y0203878D01*
X0083860Y0203446D01*
X0083661Y0202966D01*
X0083559Y0202457D01*
X0083559Y0202197D01*
X0086197Y0202197D01*
X0086197Y0199559D01*
X0086457Y0199559D01*
X0086966Y0199661D01*
X0087446Y0199860D01*
X0087878Y0200148D01*
X0088245Y0200516D01*
X0088534Y0200948D01*
X0088733Y0201428D01*
X0088834Y0201937D01*
X0088834Y0202197D01*
X0088785Y0201690D02*
X0149101Y0201690D01*
X0148303Y0200892D02*
X0088497Y0200892D01*
X0087796Y0200093D02*
X0147504Y0200093D01*
X0146706Y0199295D02*
X0046516Y0199295D01*
X0046375Y0199573D02*
X0045955Y0200150D01*
X0045450Y0200655D01*
X0044873Y0201075D01*
X0044237Y0201399D01*
X0043559Y0201619D01*
X0042897Y0201724D01*
X0042897Y0197597D01*
X0047024Y0197597D01*
X0046919Y0198259D01*
X0046699Y0198937D01*
X0046375Y0199573D01*
X0045997Y0200093D02*
X0084598Y0200093D01*
X0084516Y0200148D02*
X0084948Y0199860D01*
X0085428Y0199661D01*
X0085937Y0199559D01*
X0086197Y0199559D01*
X0086197Y0202197D01*
X0086197Y0202197D01*
X0086197Y0202197D01*
X0083559Y0202197D01*
X0083559Y0201937D01*
X0083661Y0201428D01*
X0083860Y0200948D01*
X0084148Y0200516D01*
X0084516Y0200148D01*
X0083897Y0200892D02*
X0045125Y0200892D01*
X0043109Y0201690D02*
X0083609Y0201690D01*
X0083566Y0202489D02*
X0035997Y0202489D01*
X0035997Y0203287D02*
X0083794Y0203287D01*
X0084356Y0204086D02*
X0035997Y0204086D01*
X0035997Y0201690D02*
X0041884Y0201690D01*
X0042097Y0201690D02*
X0042897Y0201690D01*
X0042897Y0200892D02*
X0042097Y0200892D01*
X0042097Y0200093D02*
X0042897Y0200093D01*
X0042897Y0199295D02*
X0042097Y0199295D01*
X0042097Y0198496D02*
X0042897Y0198496D01*
X0042897Y0197698D02*
X0042097Y0197698D01*
X0042097Y0197597D02*
X0042097Y0201724D01*
X0041435Y0201619D01*
X0040756Y0201399D01*
X0040121Y0201075D01*
X0039543Y0200655D01*
X0039039Y0200150D01*
X0038619Y0199573D01*
X0038295Y0198937D01*
X0038075Y0198259D01*
X0037970Y0197597D01*
X0042097Y0197597D01*
X0042897Y0197597D01*
X0042897Y0196797D01*
X0047024Y0196797D01*
X0046919Y0196135D01*
X0046699Y0195456D01*
X0046375Y0194821D01*
X0045955Y0194243D01*
X0045450Y0193739D01*
X0044873Y0193319D01*
X0044237Y0192995D01*
X0043559Y0192775D01*
X0042897Y0192670D01*
X0042897Y0196797D01*
X0042097Y0196797D01*
X0042097Y0192670D01*
X0041435Y0192775D01*
X0040756Y0192995D01*
X0040121Y0193319D01*
X0039543Y0193739D01*
X0039039Y0194243D01*
X0038619Y0194821D01*
X0038295Y0195456D01*
X0038075Y0196135D01*
X0037970Y0196797D01*
X0042097Y0196797D01*
X0042097Y0197597D01*
X0042097Y0196899D02*
X0035997Y0196899D01*
X0035997Y0196101D02*
X0038086Y0196101D01*
X0038374Y0195302D02*
X0035997Y0195302D01*
X0035997Y0194504D02*
X0038849Y0194504D01*
X0039589Y0193705D02*
X0035997Y0193705D01*
X0035997Y0192907D02*
X0041029Y0192907D01*
X0042097Y0192907D02*
X0042897Y0192907D01*
X0042897Y0193705D02*
X0042097Y0193705D01*
X0042097Y0194504D02*
X0042897Y0194504D01*
X0042897Y0195302D02*
X0042097Y0195302D01*
X0042097Y0196101D02*
X0042897Y0196101D01*
X0042897Y0196899D02*
X0144310Y0196899D01*
X0143512Y0196101D02*
X0046908Y0196101D01*
X0046620Y0195302D02*
X0142713Y0195302D01*
X0141914Y0194504D02*
X0046144Y0194504D01*
X0045404Y0193705D02*
X0055804Y0193705D01*
X0057353Y0193705D02*
X0141116Y0193705D01*
X0140317Y0192907D02*
X0058843Y0192907D01*
X0059561Y0192108D02*
X0139519Y0192108D01*
X0138720Y0191310D02*
X0059891Y0191310D01*
X0060029Y0190511D02*
X0137922Y0190511D01*
X0137123Y0189712D02*
X0060029Y0189712D01*
X0059742Y0188914D02*
X0136325Y0188914D01*
X0135526Y0188115D02*
X0059282Y0188115D01*
X0059079Y0187317D02*
X0134728Y0187317D01*
X0133929Y0186518D02*
X0059079Y0186518D01*
X0059079Y0185720D02*
X0133131Y0185720D01*
X0132332Y0184921D02*
X0059079Y0184921D01*
X0059079Y0184123D02*
X0131534Y0184123D01*
X0130735Y0183324D02*
X0059079Y0183324D01*
X0059079Y0182526D02*
X0129937Y0182526D01*
X0129138Y0181727D02*
X0059079Y0181727D01*
X0059079Y0180929D02*
X0128340Y0180929D01*
X0127541Y0180130D02*
X0059079Y0180130D01*
X0059079Y0179332D02*
X0126743Y0179332D01*
X0125944Y0178533D02*
X0059079Y0178533D01*
X0059079Y0177735D02*
X0125146Y0177735D01*
X0124347Y0176936D02*
X0059079Y0176936D01*
X0059079Y0176138D02*
X0123549Y0176138D01*
X0122750Y0175339D02*
X0059079Y0175339D01*
X0059079Y0174541D02*
X0121952Y0174541D01*
X0121518Y0173742D02*
X0059079Y0173742D01*
X0059079Y0172944D02*
X0121396Y0172944D01*
X0121396Y0172145D02*
X0059079Y0172145D01*
X0059079Y0171347D02*
X0121396Y0171347D01*
X0121396Y0170548D02*
X0059079Y0170548D01*
X0059079Y0169750D02*
X0121396Y0169750D01*
X0121396Y0168951D02*
X0059079Y0168951D01*
X0059079Y0168153D02*
X0121396Y0168153D01*
X0121396Y0167354D02*
X0059079Y0167354D01*
X0059079Y0166556D02*
X0121396Y0166556D01*
X0121396Y0165757D02*
X0059079Y0165757D01*
X0059079Y0164959D02*
X0121396Y0164959D01*
X0121396Y0164160D02*
X0059079Y0164160D01*
X0059079Y0163362D02*
X0121396Y0163362D01*
X0121396Y0162563D02*
X0059079Y0162563D01*
X0059079Y0161765D02*
X0121396Y0161765D01*
X0121396Y0160966D02*
X0059079Y0160966D01*
X0059079Y0160168D02*
X0121396Y0160168D01*
X0121396Y0159369D02*
X0059079Y0159369D01*
X0059079Y0158571D02*
X0121396Y0158571D01*
X0121396Y0157772D02*
X0059079Y0157772D01*
X0059079Y0156974D02*
X0121396Y0156974D01*
X0121396Y0156175D02*
X0059079Y0156175D01*
X0059079Y0155377D02*
X0121396Y0155377D01*
X0121396Y0154578D02*
X0059865Y0154578D01*
X0060663Y0153779D02*
X0121396Y0153779D01*
X0121396Y0152981D02*
X0061462Y0152981D01*
X0062260Y0152182D02*
X0121396Y0152182D01*
X0121396Y0151384D02*
X0063059Y0151384D01*
X0063857Y0150585D02*
X0121396Y0150585D01*
X0121396Y0149787D02*
X0064656Y0149787D01*
X0065454Y0148988D02*
X0121396Y0148988D01*
X0121396Y0148190D02*
X0066253Y0148190D01*
X0067051Y0147391D02*
X0121396Y0147391D01*
X0121396Y0146593D02*
X0067850Y0146593D01*
X0068648Y0145794D02*
X0121396Y0145794D01*
X0121396Y0144996D02*
X0069447Y0144996D01*
X0070245Y0144197D02*
X0121396Y0144197D01*
X0121396Y0143399D02*
X0071044Y0143399D01*
X0071842Y0142600D02*
X0121396Y0142600D01*
X0121396Y0141802D02*
X0072641Y0141802D01*
X0073439Y0141003D02*
X0121396Y0141003D01*
X0121396Y0140205D02*
X0074238Y0140205D01*
X0075036Y0139406D02*
X0121396Y0139406D01*
X0121396Y0138608D02*
X0075835Y0138608D01*
X0076633Y0137809D02*
X0121396Y0137809D01*
X0121396Y0137011D02*
X0077432Y0137011D01*
X0078230Y0136212D02*
X0121396Y0136212D01*
X0121396Y0135414D02*
X0079029Y0135414D01*
X0079827Y0134615D02*
X0092143Y0134615D01*
X0091948Y0134534D02*
X0091516Y0134245D01*
X0091148Y0133878D01*
X0090860Y0133446D01*
X0090661Y0132966D01*
X0090559Y0132457D01*
X0090559Y0132197D01*
X0093197Y0132197D01*
X0095834Y0132197D01*
X0095834Y0132457D01*
X0095733Y0132966D01*
X0095534Y0133446D01*
X0095245Y0133878D01*
X0094878Y0134245D01*
X0094446Y0134534D01*
X0093966Y0134733D01*
X0093457Y0134834D01*
X0093197Y0134834D01*
X0093197Y0132197D01*
X0093197Y0132197D01*
X0093197Y0132197D01*
X0095834Y0132197D01*
X0095834Y0131937D01*
X0095733Y0131428D01*
X0095534Y0130948D01*
X0095245Y0130516D01*
X0094878Y0130148D01*
X0094446Y0129860D01*
X0093966Y0129661D01*
X0093457Y0129559D01*
X0093197Y0129559D01*
X0093197Y0132197D01*
X0093197Y0134834D01*
X0092937Y0134834D01*
X0092428Y0134733D01*
X0091948Y0134534D01*
X0091107Y0133817D02*
X0080626Y0133817D01*
X0081424Y0133018D02*
X0090682Y0133018D01*
X0090559Y0132220D02*
X0082223Y0132220D01*
X0083021Y0131421D02*
X0090663Y0131421D01*
X0090661Y0131428D02*
X0090860Y0130948D01*
X0091148Y0130516D01*
X0091516Y0130148D01*
X0091948Y0129860D01*
X0092428Y0129661D01*
X0092937Y0129559D01*
X0093197Y0129559D01*
X0093197Y0132197D01*
X0093197Y0132197D01*
X0093197Y0132197D01*
X0090559Y0132197D01*
X0090559Y0131937D01*
X0090661Y0131428D01*
X0091077Y0130623D02*
X0083820Y0130623D01*
X0084618Y0129824D02*
X0092033Y0129824D01*
X0093197Y0129824D02*
X0093197Y0129824D01*
X0093197Y0130623D02*
X0093197Y0130623D01*
X0093197Y0131421D02*
X0093197Y0131421D01*
X0093197Y0132220D02*
X0093197Y0132220D01*
X0093197Y0133018D02*
X0093197Y0133018D01*
X0093197Y0133817D02*
X0093197Y0133817D01*
X0093197Y0134615D02*
X0093197Y0134615D01*
X0094250Y0134615D02*
X0121396Y0134615D01*
X0121396Y0133817D02*
X0095286Y0133817D01*
X0095711Y0133018D02*
X0121396Y0133018D01*
X0121396Y0132220D02*
X0095834Y0132220D01*
X0095730Y0131421D02*
X0121396Y0131421D01*
X0121396Y0130623D02*
X0095317Y0130623D01*
X0094361Y0129824D02*
X0121396Y0129824D01*
X0121396Y0129026D02*
X0085417Y0129026D01*
X0086215Y0128227D02*
X0121396Y0128227D01*
X0121396Y0127429D02*
X0087014Y0127429D01*
X0087812Y0126630D02*
X0121396Y0126630D01*
X0121396Y0125832D02*
X0088611Y0125832D01*
X0089409Y0125033D02*
X0121396Y0125033D01*
X0121396Y0124235D02*
X0090208Y0124235D01*
X0091007Y0123436D02*
X0121396Y0123436D01*
X0121396Y0122638D02*
X0091805Y0122638D01*
X0092604Y0121839D02*
X0121396Y0121839D01*
X0121396Y0121041D02*
X0093402Y0121041D01*
X0094201Y0120242D02*
X0121396Y0120242D01*
X0121396Y0119444D02*
X0094999Y0119444D01*
X0095798Y0118645D02*
X0121396Y0118645D01*
X0121396Y0117846D02*
X0096596Y0117846D01*
X0097395Y0117048D02*
X0121396Y0117048D01*
X0121396Y0116249D02*
X0098193Y0116249D01*
X0098992Y0115451D02*
X0104042Y0115451D01*
X0103029Y0114652D02*
X0099790Y0114652D01*
X0100589Y0113854D02*
X0102508Y0113854D01*
X0102179Y0113055D02*
X0101387Y0113055D01*
X0097510Y0109861D02*
X0035997Y0109861D01*
X0035997Y0109063D02*
X0098309Y0109063D01*
X0099107Y0108264D02*
X0035997Y0108264D01*
X0035997Y0107466D02*
X0099906Y0107466D01*
X0100704Y0106667D02*
X0035997Y0106667D01*
X0035997Y0105869D02*
X0101503Y0105869D01*
X0102301Y0105070D02*
X0035997Y0105070D01*
X0035997Y0104272D02*
X0103100Y0104272D01*
X0103898Y0103473D02*
X0035997Y0103473D01*
X0035997Y0102675D02*
X0104697Y0102675D01*
X0105495Y0101876D02*
X0035997Y0101876D01*
X0035997Y0101078D02*
X0106294Y0101078D01*
X0107092Y0100279D02*
X0035997Y0100279D01*
X0035997Y0099481D02*
X0107891Y0099481D01*
X0108689Y0098682D02*
X0035997Y0098682D01*
X0035997Y0097884D02*
X0109488Y0097884D01*
X0110286Y0097085D02*
X0035997Y0097085D01*
X0035997Y0096287D02*
X0111085Y0096287D01*
X0111883Y0095488D02*
X0035997Y0095488D01*
X0035997Y0094690D02*
X0164641Y0094690D01*
X0164641Y0093891D02*
X0035997Y0093891D01*
X0035997Y0093093D02*
X0164641Y0093093D01*
X0164641Y0092294D02*
X0035997Y0092294D01*
X0035997Y0091496D02*
X0085890Y0091496D01*
X0085948Y0091534D02*
X0085516Y0091245D01*
X0085148Y0090878D01*
X0084860Y0090446D01*
X0084661Y0089966D01*
X0084559Y0089457D01*
X0084559Y0089197D01*
X0087197Y0089197D01*
X0089834Y0089197D01*
X0089834Y0089457D01*
X0089733Y0089966D01*
X0089534Y0090446D01*
X0089245Y0090878D01*
X0088878Y0091245D01*
X0088446Y0091534D01*
X0087966Y0091733D01*
X0087457Y0091834D01*
X0087197Y0091834D01*
X0087197Y0089197D01*
X0087197Y0089197D01*
X0087197Y0089197D01*
X0089834Y0089197D01*
X0089834Y0088937D01*
X0089733Y0088428D01*
X0089534Y0087948D01*
X0089245Y0087516D01*
X0088878Y0087148D01*
X0088446Y0086860D01*
X0087966Y0086661D01*
X0087457Y0086559D01*
X0087197Y0086559D01*
X0087197Y0089197D01*
X0087197Y0091834D01*
X0086937Y0091834D01*
X0086428Y0091733D01*
X0085948Y0091534D01*
X0085027Y0090697D02*
X0035997Y0090697D01*
X0035997Y0089899D02*
X0084647Y0089899D01*
X0084559Y0089197D02*
X0084559Y0088937D01*
X0084661Y0088428D01*
X0084860Y0087948D01*
X0085148Y0087516D01*
X0085516Y0087148D01*
X0085948Y0086860D01*
X0086428Y0086661D01*
X0086937Y0086559D01*
X0087197Y0086559D01*
X0087197Y0089197D01*
X0087197Y0089197D01*
X0087197Y0089197D01*
X0084559Y0089197D01*
X0084559Y0089100D02*
X0035997Y0089100D01*
X0035997Y0088302D02*
X0084713Y0088302D01*
X0085161Y0087503D02*
X0035997Y0087503D01*
X0035997Y0086705D02*
X0086322Y0086705D01*
X0087197Y0086705D02*
X0087197Y0086705D01*
X0087197Y0087503D02*
X0087197Y0087503D01*
X0087197Y0088302D02*
X0087197Y0088302D01*
X0087197Y0089100D02*
X0087197Y0089100D01*
X0087197Y0089899D02*
X0087197Y0089899D01*
X0087197Y0090697D02*
X0087197Y0090697D01*
X0087197Y0091496D02*
X0087197Y0091496D01*
X0088504Y0091496D02*
X0164641Y0091496D01*
X0164641Y0090697D02*
X0089366Y0090697D01*
X0089746Y0089899D02*
X0164641Y0089899D01*
X0164641Y0089100D02*
X0089834Y0089100D01*
X0089681Y0088302D02*
X0164641Y0088302D01*
X0164641Y0087503D02*
X0089233Y0087503D01*
X0088072Y0086705D02*
X0164641Y0086705D01*
X0164641Y0085906D02*
X0035997Y0085906D01*
X0035997Y0085108D02*
X0164641Y0085108D01*
X0164641Y0084309D02*
X0035997Y0084309D01*
X0035997Y0083510D02*
X0164641Y0083510D01*
X0164641Y0082712D02*
X0035997Y0082712D01*
X0035997Y0081913D02*
X0164641Y0081913D01*
X0164641Y0081115D02*
X0035997Y0081115D01*
X0035997Y0080316D02*
X0164641Y0080316D01*
X0164641Y0079518D02*
X0057447Y0079518D01*
X0060166Y0078719D02*
X0164641Y0078719D01*
X0164641Y0077921D02*
X0061685Y0077921D01*
X0062927Y0077122D02*
X0164641Y0077122D01*
X0164641Y0076324D02*
X0064170Y0076324D01*
X0065223Y0075525D02*
X0164641Y0075525D01*
X0164641Y0074727D02*
X0065914Y0074727D01*
X0066606Y0073928D02*
X0164641Y0073928D01*
X0164641Y0073130D02*
X0067298Y0073130D01*
X0067990Y0072331D02*
X0164641Y0072331D01*
X0164645Y0071533D02*
X0068520Y0071533D01*
X0068885Y0070734D02*
X0164976Y0070734D01*
X0165709Y0069936D02*
X0069249Y0069936D01*
X0069614Y0069137D02*
X0166507Y0069137D01*
X0167306Y0068339D02*
X0069979Y0068339D01*
X0070343Y0067540D02*
X0168104Y0067540D01*
X0168903Y0066742D02*
X0070543Y0066742D01*
X0070658Y0065943D02*
X0169702Y0065943D01*
X0170500Y0065145D02*
X0070773Y0065145D01*
X0070888Y0064346D02*
X0171299Y0064346D01*
X0172097Y0063548D02*
X0071003Y0063548D01*
X0071117Y0062749D02*
X0172896Y0062749D01*
X0173694Y0061951D02*
X0071161Y0061951D01*
X0071047Y0061152D02*
X0174493Y0061152D01*
X0175291Y0060354D02*
X0070932Y0060354D01*
X0070817Y0059555D02*
X0176090Y0059555D01*
X0176888Y0058757D02*
X0070702Y0058757D01*
X0070587Y0057958D02*
X0177687Y0057958D01*
X0178485Y0057160D02*
X0070473Y0057160D01*
X0070119Y0056361D02*
X0179284Y0056361D01*
X0180082Y0055563D02*
X0069754Y0055563D01*
X0069389Y0054764D02*
X0180881Y0054764D01*
X0181679Y0053966D02*
X0069025Y0053966D01*
X0068660Y0053167D02*
X0182478Y0053167D01*
X0183276Y0052369D02*
X0068256Y0052369D01*
X0067564Y0051570D02*
X0184075Y0051570D01*
X0184873Y0050772D02*
X0066872Y0050772D01*
X0066180Y0049973D02*
X0185672Y0049973D01*
X0186470Y0049175D02*
X0065488Y0049175D01*
X0064984Y0048593D02*
X0064984Y0048593D01*
X0064646Y0048376D02*
X0187269Y0048376D01*
X0188067Y0047577D02*
X0063404Y0047577D01*
X0062161Y0046779D02*
X0196018Y0046779D01*
X0194769Y0045980D02*
X0060919Y0045980D01*
X0058489Y0045182D02*
X0194071Y0045182D01*
X0193303Y0041988D02*
X0035997Y0041988D01*
X0035997Y0041189D02*
X0193487Y0041189D01*
X0193832Y0040391D02*
X0035997Y0040391D01*
X0035997Y0067540D02*
X0036050Y0067540D01*
X0035997Y0068339D02*
X0036415Y0068339D01*
X0036780Y0069137D02*
X0035997Y0069137D01*
X0035997Y0069936D02*
X0037144Y0069936D01*
X0037509Y0070734D02*
X0035997Y0070734D01*
X0035997Y0071533D02*
X0037874Y0071533D01*
X0038403Y0072331D02*
X0035997Y0072331D01*
X0035997Y0073130D02*
X0039095Y0073130D01*
X0039787Y0073928D02*
X0035997Y0073928D01*
X0035997Y0074727D02*
X0040479Y0074727D01*
X0041171Y0075525D02*
X0035997Y0075525D01*
X0035997Y0076324D02*
X0042224Y0076324D01*
X0043467Y0077122D02*
X0035997Y0077122D01*
X0035997Y0077921D02*
X0044709Y0077921D01*
X0046228Y0078719D02*
X0035997Y0078719D01*
X0035997Y0079518D02*
X0048947Y0079518D01*
X0035997Y0110660D02*
X0096712Y0110660D01*
X0095913Y0111458D02*
X0035997Y0111458D01*
X0035997Y0112257D02*
X0095115Y0112257D01*
X0094316Y0113055D02*
X0035997Y0113055D01*
X0035997Y0113854D02*
X0093518Y0113854D01*
X0092719Y0114652D02*
X0035997Y0114652D01*
X0035997Y0115451D02*
X0091921Y0115451D01*
X0091122Y0116249D02*
X0035997Y0116249D01*
X0035997Y0117048D02*
X0090324Y0117048D01*
X0089525Y0117846D02*
X0035997Y0117846D01*
X0035997Y0118645D02*
X0088727Y0118645D01*
X0087928Y0119444D02*
X0035997Y0119444D01*
X0035997Y0120242D02*
X0087130Y0120242D01*
X0086331Y0121041D02*
X0035997Y0121041D01*
X0035997Y0121839D02*
X0085532Y0121839D01*
X0084734Y0122638D02*
X0071849Y0122638D01*
X0071966Y0122661D02*
X0072446Y0122860D01*
X0072878Y0123148D01*
X0073245Y0123516D01*
X0073534Y0123948D01*
X0073733Y0124428D01*
X0073834Y0124937D01*
X0073834Y0125197D01*
X0073834Y0125457D01*
X0073733Y0125966D01*
X0073534Y0126446D01*
X0073245Y0126878D01*
X0072878Y0127245D01*
X0072446Y0127534D01*
X0071966Y0127733D01*
X0071457Y0127834D01*
X0071197Y0127834D01*
X0071197Y0125197D01*
X0073834Y0125197D01*
X0071197Y0125197D01*
X0071197Y0125197D01*
X0071197Y0125197D01*
X0071197Y0127834D01*
X0070937Y0127834D01*
X0070428Y0127733D01*
X0069948Y0127534D01*
X0069516Y0127245D01*
X0069148Y0126878D01*
X0068860Y0126446D01*
X0068661Y0125966D01*
X0068559Y0125457D01*
X0068559Y0125197D01*
X0071197Y0125197D01*
X0071197Y0122559D01*
X0071457Y0122559D01*
X0071966Y0122661D01*
X0071197Y0122638D02*
X0071197Y0122638D01*
X0071197Y0122559D02*
X0071197Y0125197D01*
X0071197Y0125197D01*
X0071197Y0125197D01*
X0068559Y0125197D01*
X0068559Y0124937D01*
X0068661Y0124428D01*
X0068860Y0123948D01*
X0069148Y0123516D01*
X0069516Y0123148D01*
X0069948Y0122860D01*
X0070428Y0122661D01*
X0070937Y0122559D01*
X0071197Y0122559D01*
X0070544Y0122638D02*
X0035997Y0122638D01*
X0035997Y0123436D02*
X0069228Y0123436D01*
X0068741Y0124235D02*
X0035997Y0124235D01*
X0035997Y0125033D02*
X0068559Y0125033D01*
X0068634Y0125832D02*
X0035997Y0125832D01*
X0035997Y0126630D02*
X0068983Y0126630D01*
X0069790Y0127429D02*
X0035997Y0127429D01*
X0035997Y0128227D02*
X0079144Y0128227D01*
X0078346Y0129026D02*
X0035997Y0129026D01*
X0035997Y0129824D02*
X0077547Y0129824D01*
X0076749Y0130623D02*
X0035997Y0130623D01*
X0035997Y0131421D02*
X0075950Y0131421D01*
X0075152Y0132220D02*
X0035997Y0132220D01*
X0035997Y0133018D02*
X0074353Y0133018D01*
X0073555Y0133817D02*
X0035997Y0133817D01*
X0035997Y0134615D02*
X0072756Y0134615D01*
X0071958Y0135414D02*
X0035997Y0135414D01*
X0035997Y0136212D02*
X0071159Y0136212D01*
X0070361Y0137011D02*
X0035997Y0137011D01*
X0035997Y0137809D02*
X0069562Y0137809D01*
X0068764Y0138608D02*
X0035997Y0138608D01*
X0035997Y0139406D02*
X0067965Y0139406D01*
X0067167Y0140205D02*
X0035997Y0140205D01*
X0035997Y0141003D02*
X0066368Y0141003D01*
X0065570Y0141802D02*
X0035997Y0141802D01*
X0035997Y0142600D02*
X0064771Y0142600D01*
X0063973Y0143399D02*
X0035997Y0143399D01*
X0035997Y0144197D02*
X0063174Y0144197D01*
X0062376Y0144996D02*
X0035997Y0144996D01*
X0035997Y0145794D02*
X0061577Y0145794D01*
X0060779Y0146593D02*
X0035997Y0146593D01*
X0035997Y0147391D02*
X0059980Y0147391D01*
X0059182Y0148190D02*
X0035997Y0148190D01*
X0035997Y0148988D02*
X0058383Y0148988D01*
X0057585Y0149787D02*
X0035997Y0149787D01*
X0035997Y0150585D02*
X0056786Y0150585D01*
X0055988Y0151384D02*
X0035997Y0151384D01*
X0035997Y0152182D02*
X0055189Y0152182D01*
X0054431Y0152981D02*
X0035997Y0152981D01*
X0035997Y0153779D02*
X0054100Y0153779D01*
X0054079Y0154578D02*
X0035997Y0154578D01*
X0035997Y0155377D02*
X0054079Y0155377D01*
X0054079Y0156175D02*
X0035997Y0156175D01*
X0035997Y0156974D02*
X0054079Y0156974D01*
X0054079Y0157772D02*
X0035997Y0157772D01*
X0035997Y0158571D02*
X0054079Y0158571D01*
X0054079Y0159369D02*
X0035997Y0159369D01*
X0035997Y0160168D02*
X0054079Y0160168D01*
X0054079Y0160966D02*
X0035997Y0160966D01*
X0035997Y0161765D02*
X0054079Y0161765D01*
X0054079Y0162563D02*
X0035997Y0162563D01*
X0035997Y0163362D02*
X0054079Y0163362D01*
X0054079Y0164160D02*
X0035997Y0164160D01*
X0035997Y0164959D02*
X0054079Y0164959D01*
X0054079Y0165757D02*
X0035997Y0165757D01*
X0035997Y0166556D02*
X0054079Y0166556D01*
X0054079Y0167354D02*
X0035997Y0167354D01*
X0035997Y0168153D02*
X0054079Y0168153D01*
X0054079Y0168951D02*
X0035997Y0168951D01*
X0035997Y0169750D02*
X0054079Y0169750D01*
X0054079Y0170548D02*
X0035997Y0170548D01*
X0035997Y0171347D02*
X0054079Y0171347D01*
X0054079Y0172145D02*
X0040874Y0172145D01*
X0040878Y0172148D02*
X0041245Y0172516D01*
X0041534Y0172948D01*
X0041733Y0173428D01*
X0041834Y0173937D01*
X0041834Y0174197D01*
X0041834Y0174457D01*
X0041733Y0174966D01*
X0041534Y0175446D01*
X0041245Y0175878D01*
X0040878Y0176245D01*
X0040446Y0176534D01*
X0039966Y0176733D01*
X0039457Y0176834D01*
X0039197Y0176834D01*
X0039197Y0174197D01*
X0041834Y0174197D01*
X0039197Y0174197D01*
X0039197Y0174197D01*
X0039197Y0174197D01*
X0039197Y0176834D01*
X0038937Y0176834D01*
X0038428Y0176733D01*
X0037948Y0176534D01*
X0037516Y0176245D01*
X0037148Y0175878D01*
X0036860Y0175446D01*
X0036661Y0174966D01*
X0036559Y0174457D01*
X0036559Y0174197D01*
X0039197Y0174197D01*
X0039197Y0171559D01*
X0039457Y0171559D01*
X0039966Y0171661D01*
X0040446Y0171860D01*
X0040878Y0172148D01*
X0041532Y0172944D02*
X0054079Y0172944D01*
X0054079Y0173742D02*
X0041795Y0173742D01*
X0041817Y0174541D02*
X0054079Y0174541D01*
X0054079Y0175339D02*
X0041578Y0175339D01*
X0040986Y0176138D02*
X0054079Y0176138D01*
X0054079Y0176936D02*
X0035997Y0176936D01*
X0035997Y0176138D02*
X0037408Y0176138D01*
X0036815Y0175339D02*
X0035997Y0175339D01*
X0035997Y0174541D02*
X0036576Y0174541D01*
X0036559Y0174197D02*
X0036559Y0173937D01*
X0036661Y0173428D01*
X0036860Y0172948D01*
X0037148Y0172516D01*
X0037516Y0172148D01*
X0037948Y0171860D01*
X0038428Y0171661D01*
X0038937Y0171559D01*
X0039197Y0171559D01*
X0039197Y0174197D01*
X0039197Y0174197D01*
X0039197Y0174197D01*
X0036559Y0174197D01*
X0036598Y0173742D02*
X0035997Y0173742D01*
X0035997Y0172944D02*
X0036862Y0172944D01*
X0037520Y0172145D02*
X0035997Y0172145D01*
X0039197Y0172145D02*
X0039197Y0172145D01*
X0039197Y0172944D02*
X0039197Y0172944D01*
X0039197Y0173742D02*
X0039197Y0173742D01*
X0039197Y0174541D02*
X0039197Y0174541D01*
X0039197Y0175339D02*
X0039197Y0175339D01*
X0039197Y0176138D02*
X0039197Y0176138D01*
X0035997Y0177735D02*
X0054079Y0177735D01*
X0054079Y0178533D02*
X0035997Y0178533D01*
X0035997Y0179332D02*
X0054079Y0179332D01*
X0054079Y0180130D02*
X0035997Y0180130D01*
X0035997Y0180929D02*
X0054079Y0180929D01*
X0054079Y0181727D02*
X0035997Y0181727D01*
X0035997Y0182526D02*
X0054079Y0182526D01*
X0054079Y0183324D02*
X0035997Y0183324D01*
X0035997Y0184123D02*
X0054079Y0184123D01*
X0054079Y0184921D02*
X0035997Y0184921D01*
X0035997Y0185720D02*
X0054079Y0185720D01*
X0054079Y0186518D02*
X0035997Y0186518D01*
X0035997Y0187317D02*
X0054079Y0187317D01*
X0053876Y0188115D02*
X0035997Y0188115D01*
X0035997Y0188914D02*
X0053415Y0188914D01*
X0053129Y0189712D02*
X0035997Y0189712D01*
X0035997Y0190511D02*
X0053129Y0190511D01*
X0053266Y0191310D02*
X0035997Y0191310D01*
X0035997Y0192108D02*
X0053597Y0192108D01*
X0054315Y0192907D02*
X0043965Y0192907D01*
X0047008Y0197698D02*
X0145109Y0197698D01*
X0145907Y0198496D02*
X0046842Y0198496D01*
X0039869Y0200892D02*
X0035997Y0200892D01*
X0035997Y0200093D02*
X0038997Y0200093D01*
X0038477Y0199295D02*
X0035997Y0199295D01*
X0035997Y0198496D02*
X0038152Y0198496D01*
X0037986Y0197698D02*
X0035997Y0197698D01*
X0086197Y0200093D02*
X0086197Y0200093D01*
X0086197Y0200892D02*
X0086197Y0200892D01*
X0086197Y0201690D02*
X0086197Y0201690D01*
X0086197Y0202489D02*
X0086197Y0202489D01*
X0086197Y0203287D02*
X0086197Y0203287D01*
X0086197Y0204086D02*
X0086197Y0204086D01*
X0134360Y0173238D02*
X0140697Y0179575D01*
X0140697Y0116499D01*
X0140272Y0116074D01*
X0139747Y0114806D01*
X0139747Y0113434D01*
X0140272Y0112166D01*
X0141243Y0111195D01*
X0142511Y0110670D01*
X0143883Y0110670D01*
X0145151Y0111195D01*
X0146122Y0112166D01*
X0146647Y0113434D01*
X0146647Y0114806D01*
X0146122Y0116074D01*
X0145697Y0116499D01*
X0145697Y0180764D01*
X0168978Y0204045D01*
X0169107Y0203916D01*
X0169107Y0133566D01*
X0153111Y0117570D01*
X0152511Y0117570D01*
X0151243Y0117045D01*
X0150272Y0116074D01*
X0149747Y0114806D01*
X0149747Y0113434D01*
X0150272Y0112166D01*
X0151243Y0111195D01*
X0152511Y0110670D01*
X0153883Y0110670D01*
X0155151Y0111195D01*
X0156122Y0112166D01*
X0156647Y0113434D01*
X0156647Y0114035D01*
X0159644Y0117032D01*
X0159644Y0116498D01*
X0160170Y0115230D01*
X0161140Y0114260D01*
X0162408Y0113735D01*
X0163781Y0113735D01*
X0165049Y0114260D01*
X0166019Y0115230D01*
X0166544Y0116498D01*
X0166544Y0117099D01*
X0176060Y0126614D01*
X0176763Y0127318D01*
X0177144Y0128237D01*
X0177144Y0203278D01*
X0182125Y0208259D01*
X0182125Y0207962D01*
X0181162Y0206999D01*
X0180459Y0206296D01*
X0180078Y0205377D01*
X0180078Y0125522D01*
X0179654Y0125097D01*
X0179128Y0123829D01*
X0179128Y0122456D01*
X0179654Y0121188D01*
X0180316Y0120526D01*
X0163296Y0103505D01*
X0135310Y0103505D01*
X0135310Y0104570D01*
X0134785Y0105838D01*
X0134360Y0106263D01*
X0134360Y0142304D01*
X0134516Y0142148D01*
X0134948Y0141860D01*
X0135428Y0141661D01*
X0135937Y0141559D01*
X0136197Y0141559D01*
X0136457Y0141559D01*
X0136966Y0141661D01*
X0137446Y0141860D01*
X0137878Y0142148D01*
X0138245Y0142516D01*
X0138534Y0142948D01*
X0138733Y0143428D01*
X0138834Y0143937D01*
X0138834Y0144197D01*
X0138834Y0144457D01*
X0138733Y0144966D01*
X0138534Y0145446D01*
X0138245Y0145878D01*
X0137878Y0146245D01*
X0137446Y0146534D01*
X0136966Y0146733D01*
X0136457Y0146834D01*
X0136197Y0146834D01*
X0136197Y0144197D01*
X0136197Y0144197D01*
X0138834Y0144197D01*
X0136197Y0144197D01*
X0136197Y0144197D01*
X0136197Y0146834D01*
X0135937Y0146834D01*
X0135428Y0146733D01*
X0134948Y0146534D01*
X0134516Y0146245D01*
X0134360Y0146090D01*
X0134360Y0173238D01*
X0134360Y0172944D02*
X0140697Y0172944D01*
X0140697Y0173742D02*
X0134864Y0173742D01*
X0135663Y0174541D02*
X0140697Y0174541D01*
X0140697Y0175339D02*
X0136461Y0175339D01*
X0137260Y0176138D02*
X0140697Y0176138D01*
X0140697Y0176936D02*
X0138058Y0176936D01*
X0138857Y0177735D02*
X0140697Y0177735D01*
X0140697Y0178533D02*
X0139655Y0178533D01*
X0140454Y0179332D02*
X0140697Y0179332D01*
X0145697Y0179332D02*
X0169107Y0179332D01*
X0169107Y0180130D02*
X0145697Y0180130D01*
X0145861Y0180929D02*
X0169107Y0180929D01*
X0169107Y0181727D02*
X0146660Y0181727D01*
X0147458Y0182526D02*
X0169107Y0182526D01*
X0169107Y0183324D02*
X0148257Y0183324D01*
X0149055Y0184123D02*
X0169107Y0184123D01*
X0169107Y0184921D02*
X0149854Y0184921D01*
X0150652Y0185720D02*
X0169107Y0185720D01*
X0169107Y0186518D02*
X0151451Y0186518D01*
X0152249Y0187317D02*
X0169107Y0187317D01*
X0169107Y0188115D02*
X0153048Y0188115D01*
X0153846Y0188914D02*
X0169107Y0188914D01*
X0169107Y0189712D02*
X0154645Y0189712D01*
X0155443Y0190511D02*
X0169107Y0190511D01*
X0169107Y0191310D02*
X0156242Y0191310D01*
X0157040Y0192108D02*
X0169107Y0192108D01*
X0169107Y0192907D02*
X0157839Y0192907D01*
X0158637Y0193705D02*
X0169107Y0193705D01*
X0169107Y0194504D02*
X0159436Y0194504D01*
X0160234Y0195302D02*
X0169107Y0195302D01*
X0169107Y0196101D02*
X0161033Y0196101D01*
X0161831Y0196899D02*
X0169107Y0196899D01*
X0169107Y0197698D02*
X0162630Y0197698D01*
X0163428Y0198496D02*
X0169107Y0198496D01*
X0169107Y0199295D02*
X0164227Y0199295D01*
X0165026Y0200093D02*
X0169107Y0200093D01*
X0169107Y0200892D02*
X0165824Y0200892D01*
X0166623Y0201690D02*
X0169107Y0201690D01*
X0169107Y0202489D02*
X0167421Y0202489D01*
X0168220Y0203287D02*
X0169107Y0203287D01*
X0177153Y0203287D02*
X0180078Y0203287D01*
X0180078Y0202489D02*
X0177144Y0202489D01*
X0177144Y0201690D02*
X0180078Y0201690D01*
X0180078Y0200892D02*
X0177144Y0200892D01*
X0177144Y0200093D02*
X0180078Y0200093D01*
X0180078Y0199295D02*
X0177144Y0199295D01*
X0177144Y0198496D02*
X0180078Y0198496D01*
X0180078Y0197698D02*
X0177144Y0197698D01*
X0177144Y0196899D02*
X0180078Y0196899D01*
X0180078Y0196101D02*
X0177144Y0196101D01*
X0177144Y0195302D02*
X0180078Y0195302D01*
X0180078Y0194504D02*
X0177144Y0194504D01*
X0177144Y0193705D02*
X0180078Y0193705D01*
X0180078Y0192907D02*
X0177144Y0192907D01*
X0177144Y0192108D02*
X0180078Y0192108D01*
X0180078Y0191310D02*
X0177144Y0191310D01*
X0177144Y0190511D02*
X0180078Y0190511D01*
X0180078Y0189712D02*
X0177144Y0189712D01*
X0177144Y0188914D02*
X0180078Y0188914D01*
X0180078Y0188115D02*
X0177144Y0188115D01*
X0177144Y0187317D02*
X0180078Y0187317D01*
X0180078Y0186518D02*
X0177144Y0186518D01*
X0177144Y0185720D02*
X0180078Y0185720D01*
X0180078Y0184921D02*
X0177144Y0184921D01*
X0177144Y0184123D02*
X0180078Y0184123D01*
X0180078Y0183324D02*
X0177144Y0183324D01*
X0177144Y0182526D02*
X0180078Y0182526D01*
X0180078Y0181727D02*
X0177144Y0181727D01*
X0177144Y0180929D02*
X0180078Y0180929D01*
X0180078Y0180130D02*
X0177144Y0180130D01*
X0177144Y0179332D02*
X0180078Y0179332D01*
X0180078Y0178533D02*
X0177144Y0178533D01*
X0177144Y0177735D02*
X0180078Y0177735D01*
X0180078Y0176936D02*
X0177144Y0176936D01*
X0177144Y0176138D02*
X0180078Y0176138D01*
X0180078Y0175339D02*
X0177144Y0175339D01*
X0177144Y0174541D02*
X0180078Y0174541D01*
X0180078Y0173742D02*
X0177144Y0173742D01*
X0177144Y0172944D02*
X0180078Y0172944D01*
X0180078Y0172145D02*
X0177144Y0172145D01*
X0177144Y0171347D02*
X0180078Y0171347D01*
X0180078Y0170548D02*
X0177144Y0170548D01*
X0177144Y0169750D02*
X0180078Y0169750D01*
X0180078Y0168951D02*
X0177144Y0168951D01*
X0177144Y0168153D02*
X0180078Y0168153D01*
X0180078Y0167354D02*
X0177144Y0167354D01*
X0177144Y0166556D02*
X0180078Y0166556D01*
X0180078Y0165757D02*
X0177144Y0165757D01*
X0177144Y0164959D02*
X0180078Y0164959D01*
X0180078Y0164160D02*
X0177144Y0164160D01*
X0177144Y0163362D02*
X0180078Y0163362D01*
X0180078Y0162563D02*
X0177144Y0162563D01*
X0177144Y0161765D02*
X0180078Y0161765D01*
X0180078Y0160966D02*
X0177144Y0160966D01*
X0177144Y0160168D02*
X0180078Y0160168D01*
X0180078Y0159369D02*
X0177144Y0159369D01*
X0177144Y0158571D02*
X0180078Y0158571D01*
X0180078Y0157772D02*
X0177144Y0157772D01*
X0177144Y0156974D02*
X0180078Y0156974D01*
X0180078Y0156175D02*
X0177144Y0156175D01*
X0177144Y0155377D02*
X0180078Y0155377D01*
X0180078Y0154578D02*
X0177144Y0154578D01*
X0177144Y0153779D02*
X0180078Y0153779D01*
X0180078Y0152981D02*
X0177144Y0152981D01*
X0177144Y0152182D02*
X0180078Y0152182D01*
X0180078Y0151384D02*
X0177144Y0151384D01*
X0177144Y0150585D02*
X0180078Y0150585D01*
X0180078Y0149787D02*
X0177144Y0149787D01*
X0177144Y0148988D02*
X0180078Y0148988D01*
X0180078Y0148190D02*
X0177144Y0148190D01*
X0177144Y0147391D02*
X0180078Y0147391D01*
X0180078Y0146593D02*
X0177144Y0146593D01*
X0177144Y0145794D02*
X0180078Y0145794D01*
X0180078Y0144996D02*
X0177144Y0144996D01*
X0177144Y0144197D02*
X0180078Y0144197D01*
X0180078Y0143399D02*
X0177144Y0143399D01*
X0177144Y0142600D02*
X0180078Y0142600D01*
X0180078Y0141802D02*
X0177144Y0141802D01*
X0177144Y0141003D02*
X0180078Y0141003D01*
X0180078Y0140205D02*
X0177144Y0140205D01*
X0177144Y0139406D02*
X0180078Y0139406D01*
X0180078Y0138608D02*
X0177144Y0138608D01*
X0177144Y0137809D02*
X0180078Y0137809D01*
X0180078Y0137011D02*
X0177144Y0137011D01*
X0177144Y0136212D02*
X0180078Y0136212D01*
X0180078Y0135414D02*
X0177144Y0135414D01*
X0177144Y0134615D02*
X0180078Y0134615D01*
X0180078Y0133817D02*
X0177144Y0133817D01*
X0177144Y0133018D02*
X0180078Y0133018D01*
X0180078Y0132220D02*
X0177144Y0132220D01*
X0177144Y0131421D02*
X0180078Y0131421D01*
X0180078Y0130623D02*
X0177144Y0130623D01*
X0177144Y0129824D02*
X0180078Y0129824D01*
X0180078Y0129026D02*
X0177144Y0129026D01*
X0177140Y0128227D02*
X0180078Y0128227D01*
X0180078Y0127429D02*
X0176809Y0127429D01*
X0176075Y0126630D02*
X0180078Y0126630D01*
X0180078Y0125832D02*
X0175277Y0125832D01*
X0174478Y0125033D02*
X0179627Y0125033D01*
X0179296Y0124235D02*
X0173680Y0124235D01*
X0172881Y0123436D02*
X0179128Y0123436D01*
X0179128Y0122638D02*
X0172083Y0122638D01*
X0171284Y0121839D02*
X0179384Y0121839D01*
X0179801Y0121041D02*
X0170486Y0121041D01*
X0169687Y0120242D02*
X0180032Y0120242D01*
X0179234Y0119444D02*
X0168889Y0119444D01*
X0168090Y0118645D02*
X0178435Y0118645D01*
X0177637Y0117846D02*
X0167292Y0117846D01*
X0166544Y0117048D02*
X0176838Y0117048D01*
X0176040Y0116249D02*
X0166441Y0116249D01*
X0166111Y0115451D02*
X0175241Y0115451D01*
X0174443Y0114652D02*
X0165441Y0114652D01*
X0164069Y0113854D02*
X0173644Y0113854D01*
X0172846Y0113055D02*
X0156490Y0113055D01*
X0156647Y0113854D02*
X0162120Y0113854D01*
X0160748Y0114652D02*
X0157265Y0114652D01*
X0158063Y0115451D02*
X0160078Y0115451D01*
X0159748Y0116249D02*
X0158862Y0116249D01*
X0156159Y0112257D02*
X0172047Y0112257D01*
X0171249Y0111458D02*
X0155414Y0111458D01*
X0150979Y0111458D02*
X0145414Y0111458D01*
X0146159Y0112257D02*
X0150234Y0112257D01*
X0149904Y0113055D02*
X0146490Y0113055D01*
X0146647Y0113854D02*
X0149747Y0113854D01*
X0149747Y0114652D02*
X0146647Y0114652D01*
X0146380Y0115451D02*
X0150014Y0115451D01*
X0150447Y0116249D02*
X0145946Y0116249D01*
X0145697Y0117048D02*
X0151250Y0117048D01*
X0153388Y0117846D02*
X0145697Y0117846D01*
X0145697Y0118645D02*
X0154186Y0118645D01*
X0154985Y0119444D02*
X0145697Y0119444D01*
X0145697Y0120242D02*
X0155783Y0120242D01*
X0156582Y0121041D02*
X0145697Y0121041D01*
X0145697Y0121839D02*
X0157380Y0121839D01*
X0158179Y0122638D02*
X0145697Y0122638D01*
X0145697Y0123436D02*
X0158977Y0123436D01*
X0159776Y0124235D02*
X0145697Y0124235D01*
X0145697Y0125033D02*
X0160574Y0125033D01*
X0161373Y0125832D02*
X0145697Y0125832D01*
X0145697Y0126630D02*
X0162171Y0126630D01*
X0162970Y0127429D02*
X0145697Y0127429D01*
X0145697Y0128227D02*
X0163768Y0128227D01*
X0164567Y0129026D02*
X0145697Y0129026D01*
X0145697Y0129824D02*
X0165365Y0129824D01*
X0166164Y0130623D02*
X0145697Y0130623D01*
X0145697Y0131421D02*
X0166962Y0131421D01*
X0167761Y0132220D02*
X0145697Y0132220D01*
X0145697Y0133018D02*
X0168559Y0133018D01*
X0169107Y0133817D02*
X0145697Y0133817D01*
X0145697Y0134615D02*
X0169107Y0134615D01*
X0169107Y0135414D02*
X0145697Y0135414D01*
X0145697Y0136212D02*
X0169107Y0136212D01*
X0169107Y0137011D02*
X0145697Y0137011D01*
X0145697Y0137809D02*
X0169107Y0137809D01*
X0169107Y0138608D02*
X0145697Y0138608D01*
X0145697Y0139406D02*
X0169107Y0139406D01*
X0169107Y0140205D02*
X0145697Y0140205D01*
X0145697Y0141003D02*
X0169107Y0141003D01*
X0169107Y0141802D02*
X0145697Y0141802D01*
X0145697Y0142600D02*
X0169107Y0142600D01*
X0169107Y0143399D02*
X0145697Y0143399D01*
X0145697Y0144197D02*
X0169107Y0144197D01*
X0169107Y0144996D02*
X0160650Y0144996D01*
X0160446Y0144860D02*
X0160878Y0145148D01*
X0161245Y0145516D01*
X0161534Y0145948D01*
X0161733Y0146428D01*
X0161834Y0146937D01*
X0161834Y0147197D01*
X0161834Y0147457D01*
X0161733Y0147966D01*
X0161534Y0148446D01*
X0161245Y0148878D01*
X0160878Y0149245D01*
X0160446Y0149534D01*
X0159966Y0149733D01*
X0159457Y0149834D01*
X0159197Y0149834D01*
X0159197Y0147197D01*
X0161834Y0147197D01*
X0159197Y0147197D01*
X0159197Y0147197D01*
X0159197Y0147197D01*
X0159197Y0149834D01*
X0158937Y0149834D01*
X0158428Y0149733D01*
X0157948Y0149534D01*
X0157516Y0149245D01*
X0157148Y0148878D01*
X0156860Y0148446D01*
X0156661Y0147966D01*
X0156559Y0147457D01*
X0156559Y0147197D01*
X0159197Y0147197D01*
X0159197Y0144559D01*
X0159457Y0144559D01*
X0159966Y0144661D01*
X0160446Y0144860D01*
X0159197Y0144996D02*
X0159197Y0144996D01*
X0159197Y0144559D02*
X0159197Y0147197D01*
X0159197Y0147197D01*
X0159197Y0147197D01*
X0156559Y0147197D01*
X0156559Y0146937D01*
X0156661Y0146428D01*
X0156860Y0145948D01*
X0157148Y0145516D01*
X0157516Y0145148D01*
X0157948Y0144860D01*
X0158428Y0144661D01*
X0158937Y0144559D01*
X0159197Y0144559D01*
X0159197Y0145794D02*
X0159197Y0145794D01*
X0159197Y0146593D02*
X0159197Y0146593D01*
X0159197Y0147391D02*
X0159197Y0147391D01*
X0159197Y0148190D02*
X0159197Y0148190D01*
X0159197Y0148988D02*
X0159197Y0148988D01*
X0159197Y0149787D02*
X0159197Y0149787D01*
X0159694Y0149787D02*
X0169107Y0149787D01*
X0169107Y0150585D02*
X0145697Y0150585D01*
X0145697Y0149787D02*
X0158699Y0149787D01*
X0157259Y0148988D02*
X0145697Y0148988D01*
X0145697Y0148190D02*
X0156753Y0148190D01*
X0156559Y0147391D02*
X0145697Y0147391D01*
X0145697Y0146593D02*
X0156628Y0146593D01*
X0156962Y0145794D02*
X0145697Y0145794D01*
X0145697Y0144996D02*
X0157744Y0144996D01*
X0161432Y0145794D02*
X0169107Y0145794D01*
X0169107Y0146593D02*
X0161766Y0146593D01*
X0161834Y0147391D02*
X0169107Y0147391D01*
X0169107Y0148190D02*
X0161640Y0148190D01*
X0161135Y0148988D02*
X0169107Y0148988D01*
X0169107Y0151384D02*
X0145697Y0151384D01*
X0145697Y0152182D02*
X0169107Y0152182D01*
X0169107Y0152981D02*
X0145697Y0152981D01*
X0145697Y0153779D02*
X0169107Y0153779D01*
X0169107Y0154578D02*
X0145697Y0154578D01*
X0145697Y0155377D02*
X0169107Y0155377D01*
X0169107Y0156175D02*
X0145697Y0156175D01*
X0145697Y0156974D02*
X0169107Y0156974D01*
X0169107Y0157772D02*
X0145697Y0157772D01*
X0145697Y0158571D02*
X0169107Y0158571D01*
X0169107Y0159369D02*
X0145697Y0159369D01*
X0145697Y0160168D02*
X0169107Y0160168D01*
X0169107Y0160966D02*
X0145697Y0160966D01*
X0145697Y0161765D02*
X0169107Y0161765D01*
X0169107Y0162563D02*
X0145697Y0162563D01*
X0145697Y0163362D02*
X0169107Y0163362D01*
X0169107Y0164160D02*
X0145697Y0164160D01*
X0145697Y0164959D02*
X0169107Y0164959D01*
X0169107Y0165757D02*
X0145697Y0165757D01*
X0145697Y0166556D02*
X0169107Y0166556D01*
X0169107Y0167354D02*
X0145697Y0167354D01*
X0145697Y0168153D02*
X0169107Y0168153D01*
X0169107Y0168951D02*
X0145697Y0168951D01*
X0145697Y0169750D02*
X0169107Y0169750D01*
X0169107Y0170548D02*
X0145697Y0170548D01*
X0145697Y0171347D02*
X0169107Y0171347D01*
X0169107Y0172145D02*
X0145697Y0172145D01*
X0145697Y0172944D02*
X0169107Y0172944D01*
X0169107Y0173742D02*
X0145697Y0173742D01*
X0145697Y0174541D02*
X0169107Y0174541D01*
X0169107Y0175339D02*
X0145697Y0175339D01*
X0145697Y0176138D02*
X0169107Y0176138D01*
X0169107Y0176936D02*
X0145697Y0176936D01*
X0145697Y0177735D02*
X0169107Y0177735D01*
X0169107Y0178533D02*
X0145697Y0178533D01*
X0140697Y0172145D02*
X0134360Y0172145D01*
X0134360Y0171347D02*
X0140697Y0171347D01*
X0140697Y0170548D02*
X0134360Y0170548D01*
X0134360Y0169750D02*
X0140697Y0169750D01*
X0140697Y0168951D02*
X0134360Y0168951D01*
X0134360Y0168153D02*
X0140697Y0168153D01*
X0140697Y0167354D02*
X0134360Y0167354D01*
X0134360Y0166556D02*
X0140697Y0166556D01*
X0140697Y0165757D02*
X0134360Y0165757D01*
X0134360Y0164959D02*
X0140697Y0164959D01*
X0140697Y0164160D02*
X0134360Y0164160D01*
X0134360Y0163362D02*
X0140697Y0163362D01*
X0140697Y0162563D02*
X0134360Y0162563D01*
X0134360Y0161765D02*
X0140697Y0161765D01*
X0140697Y0160966D02*
X0134360Y0160966D01*
X0134360Y0160168D02*
X0140697Y0160168D01*
X0140697Y0159369D02*
X0134360Y0159369D01*
X0134360Y0158571D02*
X0140697Y0158571D01*
X0140697Y0157772D02*
X0134360Y0157772D01*
X0134360Y0156974D02*
X0140697Y0156974D01*
X0140697Y0156175D02*
X0134360Y0156175D01*
X0134360Y0155377D02*
X0140697Y0155377D01*
X0140697Y0154578D02*
X0134360Y0154578D01*
X0134360Y0153779D02*
X0140697Y0153779D01*
X0140697Y0152981D02*
X0134360Y0152981D01*
X0134360Y0152182D02*
X0140697Y0152182D01*
X0140697Y0151384D02*
X0134360Y0151384D01*
X0134360Y0150585D02*
X0140697Y0150585D01*
X0140697Y0149787D02*
X0134360Y0149787D01*
X0134360Y0148988D02*
X0140697Y0148988D01*
X0140697Y0148190D02*
X0134360Y0148190D01*
X0134360Y0147391D02*
X0140697Y0147391D01*
X0140697Y0146593D02*
X0137304Y0146593D01*
X0136197Y0146593D02*
X0136197Y0146593D01*
X0136197Y0145794D02*
X0136197Y0145794D01*
X0136197Y0144996D02*
X0136197Y0144996D01*
X0136197Y0144197D02*
X0136197Y0144197D01*
X0136197Y0141559D01*
X0136197Y0144197D01*
X0136197Y0144197D01*
X0136197Y0143399D02*
X0136197Y0143399D01*
X0136197Y0142600D02*
X0136197Y0142600D01*
X0136197Y0141802D02*
X0136197Y0141802D01*
X0137307Y0141802D02*
X0140697Y0141802D01*
X0140697Y0142600D02*
X0138302Y0142600D01*
X0138721Y0143399D02*
X0140697Y0143399D01*
X0140697Y0144197D02*
X0138834Y0144197D01*
X0138721Y0144996D02*
X0140697Y0144996D01*
X0140697Y0145794D02*
X0138301Y0145794D01*
X0135090Y0146593D02*
X0134360Y0146593D01*
X0134360Y0141802D02*
X0135087Y0141802D01*
X0134360Y0141003D02*
X0140697Y0141003D01*
X0140697Y0140205D02*
X0134360Y0140205D01*
X0134360Y0139406D02*
X0140697Y0139406D01*
X0140697Y0138608D02*
X0134360Y0138608D01*
X0134360Y0137809D02*
X0140697Y0137809D01*
X0140697Y0137011D02*
X0134360Y0137011D01*
X0134360Y0136212D02*
X0140697Y0136212D01*
X0140697Y0135414D02*
X0134360Y0135414D01*
X0134360Y0134615D02*
X0140697Y0134615D01*
X0140697Y0133817D02*
X0134360Y0133817D01*
X0134360Y0133018D02*
X0140697Y0133018D01*
X0140697Y0132220D02*
X0134360Y0132220D01*
X0134360Y0131421D02*
X0140697Y0131421D01*
X0140697Y0130623D02*
X0134360Y0130623D01*
X0134360Y0129824D02*
X0140697Y0129824D01*
X0140697Y0129026D02*
X0134360Y0129026D01*
X0134360Y0128227D02*
X0140697Y0128227D01*
X0140697Y0127429D02*
X0134360Y0127429D01*
X0134360Y0126630D02*
X0140697Y0126630D01*
X0140697Y0125832D02*
X0134360Y0125832D01*
X0134360Y0125033D02*
X0140697Y0125033D01*
X0140697Y0124235D02*
X0134360Y0124235D01*
X0134360Y0123436D02*
X0140697Y0123436D01*
X0140697Y0122638D02*
X0134360Y0122638D01*
X0134360Y0121839D02*
X0140697Y0121839D01*
X0140697Y0121041D02*
X0134360Y0121041D01*
X0134360Y0120242D02*
X0140697Y0120242D01*
X0140697Y0119444D02*
X0134360Y0119444D01*
X0134360Y0118645D02*
X0140697Y0118645D01*
X0140697Y0117846D02*
X0134360Y0117846D01*
X0134360Y0117048D02*
X0140697Y0117048D01*
X0140447Y0116249D02*
X0134360Y0116249D01*
X0134360Y0115451D02*
X0140014Y0115451D01*
X0139747Y0114652D02*
X0134360Y0114652D01*
X0134360Y0113854D02*
X0139747Y0113854D01*
X0139904Y0113055D02*
X0134360Y0113055D01*
X0134360Y0112257D02*
X0140234Y0112257D01*
X0140979Y0111458D02*
X0134360Y0111458D01*
X0134360Y0110660D02*
X0170450Y0110660D01*
X0169652Y0109861D02*
X0134360Y0109861D01*
X0134360Y0109063D02*
X0168853Y0109063D01*
X0168055Y0108264D02*
X0134360Y0108264D01*
X0134360Y0107466D02*
X0167256Y0107466D01*
X0166458Y0106667D02*
X0134360Y0106667D01*
X0134755Y0105869D02*
X0165659Y0105869D01*
X0164861Y0105070D02*
X0135103Y0105070D01*
X0135310Y0104272D02*
X0164062Y0104272D01*
X0171156Y0097884D02*
X0193823Y0097884D01*
X0193025Y0097085D02*
X0170357Y0097085D01*
X0169641Y0096369D02*
X0196979Y0123707D01*
X0197360Y0124626D01*
X0197360Y0180109D01*
X0200323Y0183072D01*
X0200439Y0182955D01*
X0200439Y0104499D01*
X0171257Y0075317D01*
X0170656Y0075317D01*
X0169641Y0074897D01*
X0169641Y0096369D01*
X0169641Y0096287D02*
X0192226Y0096287D01*
X0191428Y0095488D02*
X0169641Y0095488D01*
X0169641Y0094690D02*
X0190629Y0094690D01*
X0189831Y0093891D02*
X0169641Y0093891D01*
X0169641Y0093093D02*
X0189032Y0093093D01*
X0188234Y0092294D02*
X0169641Y0092294D01*
X0169641Y0091496D02*
X0187435Y0091496D01*
X0186637Y0090697D02*
X0169641Y0090697D01*
X0169641Y0089899D02*
X0185838Y0089899D01*
X0185040Y0089100D02*
X0169641Y0089100D01*
X0169641Y0088302D02*
X0184241Y0088302D01*
X0183443Y0087503D02*
X0169641Y0087503D01*
X0169641Y0086705D02*
X0182644Y0086705D01*
X0181846Y0085906D02*
X0169641Y0085906D01*
X0169641Y0085108D02*
X0181047Y0085108D01*
X0180249Y0084309D02*
X0169641Y0084309D01*
X0169641Y0083510D02*
X0179450Y0083510D01*
X0178652Y0082712D02*
X0169641Y0082712D01*
X0169641Y0081913D02*
X0177853Y0081913D01*
X0177055Y0081115D02*
X0169641Y0081115D01*
X0169641Y0080316D02*
X0176256Y0080316D01*
X0175458Y0079518D02*
X0169641Y0079518D01*
X0169641Y0078719D02*
X0174659Y0078719D01*
X0173861Y0077921D02*
X0169641Y0077921D01*
X0169641Y0077122D02*
X0173062Y0077122D01*
X0172264Y0076324D02*
X0169641Y0076324D01*
X0169641Y0075525D02*
X0171465Y0075525D01*
X0175342Y0072331D02*
X0258655Y0072331D01*
X0258655Y0071533D02*
X0174792Y0071533D01*
X0174607Y0070734D02*
X0258655Y0070734D01*
X0258655Y0069936D02*
X0174276Y0069936D01*
X0173579Y0069137D02*
X0258655Y0069137D01*
X0258655Y0068339D02*
X0174377Y0068339D01*
X0175176Y0067540D02*
X0258655Y0067540D01*
X0258655Y0066742D02*
X0175974Y0066742D01*
X0176773Y0065943D02*
X0258098Y0065943D01*
X0257767Y0065145D02*
X0177571Y0065145D01*
X0178370Y0064346D02*
X0257705Y0064346D01*
X0257735Y0063548D02*
X0179168Y0063548D01*
X0179967Y0062749D02*
X0258066Y0062749D01*
X0258632Y0061951D02*
X0180765Y0061951D01*
X0176141Y0073130D02*
X0258655Y0073130D01*
X0258655Y0073928D02*
X0220549Y0073928D01*
X0220446Y0073860D02*
X0220878Y0074148D01*
X0221245Y0074516D01*
X0221534Y0074948D01*
X0221733Y0075428D01*
X0221834Y0075937D01*
X0221834Y0076197D01*
X0221834Y0076457D01*
X0221733Y0076966D01*
X0221534Y0077446D01*
X0221245Y0077878D01*
X0220878Y0078245D01*
X0220446Y0078534D01*
X0219966Y0078733D01*
X0219457Y0078834D01*
X0219197Y0078834D01*
X0219197Y0076197D01*
X0221834Y0076197D01*
X0219197Y0076197D01*
X0219197Y0076197D01*
X0219197Y0076197D01*
X0219197Y0078834D01*
X0218937Y0078834D01*
X0218428Y0078733D01*
X0217948Y0078534D01*
X0217516Y0078245D01*
X0217148Y0077878D01*
X0216860Y0077446D01*
X0216661Y0076966D01*
X0216559Y0076457D01*
X0216559Y0076197D01*
X0219197Y0076197D01*
X0219197Y0073559D01*
X0219457Y0073559D01*
X0219966Y0073661D01*
X0220446Y0073860D01*
X0219197Y0073928D02*
X0219197Y0073928D01*
X0219197Y0073559D02*
X0219197Y0076197D01*
X0219197Y0076197D01*
X0219197Y0076197D01*
X0216559Y0076197D01*
X0216559Y0075937D01*
X0216661Y0075428D01*
X0216860Y0074948D01*
X0217148Y0074516D01*
X0217516Y0074148D01*
X0217948Y0073860D01*
X0218428Y0073661D01*
X0218937Y0073559D01*
X0219197Y0073559D01*
X0219197Y0074727D02*
X0219197Y0074727D01*
X0219197Y0075525D02*
X0219197Y0075525D01*
X0219197Y0076324D02*
X0219197Y0076324D01*
X0219197Y0077122D02*
X0219197Y0077122D01*
X0219197Y0077921D02*
X0219197Y0077921D01*
X0219197Y0078719D02*
X0219197Y0078719D01*
X0219999Y0078719D02*
X0252932Y0078719D01*
X0251225Y0079518D02*
X0201751Y0079518D01*
X0201733Y0079428D02*
X0201834Y0079937D01*
X0201834Y0080197D01*
X0201834Y0080457D01*
X0201733Y0080966D01*
X0201534Y0081446D01*
X0201245Y0081878D01*
X0200878Y0082245D01*
X0200446Y0082534D01*
X0199966Y0082733D01*
X0199457Y0082834D01*
X0199197Y0082834D01*
X0199197Y0080197D01*
X0201834Y0080197D01*
X0199197Y0080197D01*
X0199197Y0080197D01*
X0199197Y0080197D01*
X0199197Y0082834D01*
X0198937Y0082834D01*
X0198428Y0082733D01*
X0197948Y0082534D01*
X0197516Y0082245D01*
X0197148Y0081878D01*
X0196860Y0081446D01*
X0196661Y0080966D01*
X0196559Y0080457D01*
X0196559Y0080197D01*
X0199197Y0080197D01*
X0199197Y0077559D01*
X0199457Y0077559D01*
X0199966Y0077661D01*
X0200446Y0077860D01*
X0200878Y0078148D01*
X0201245Y0078516D01*
X0201534Y0078948D01*
X0201733Y0079428D01*
X0201382Y0078719D02*
X0218395Y0078719D01*
X0217191Y0077921D02*
X0200538Y0077921D01*
X0199197Y0077921D02*
X0199197Y0077921D01*
X0199197Y0077559D02*
X0199197Y0080197D01*
X0199197Y0080197D01*
X0199197Y0080197D01*
X0196559Y0080197D01*
X0196559Y0079937D01*
X0196661Y0079428D01*
X0196860Y0078948D01*
X0197148Y0078516D01*
X0197516Y0078148D01*
X0197948Y0077860D01*
X0198428Y0077661D01*
X0198937Y0077559D01*
X0199197Y0077559D01*
X0199197Y0078719D02*
X0199197Y0078719D01*
X0199197Y0079518D02*
X0199197Y0079518D01*
X0199197Y0080316D02*
X0199197Y0080316D01*
X0199197Y0081115D02*
X0199197Y0081115D01*
X0199197Y0081913D02*
X0199197Y0081913D01*
X0199197Y0082712D02*
X0199197Y0082712D01*
X0200017Y0082712D02*
X0247769Y0082712D01*
X0246971Y0083510D02*
X0186521Y0083510D01*
X0185723Y0082712D02*
X0198377Y0082712D01*
X0197184Y0081913D02*
X0184924Y0081913D01*
X0184126Y0081115D02*
X0196722Y0081115D01*
X0196559Y0080316D02*
X0183327Y0080316D01*
X0182529Y0079518D02*
X0196643Y0079518D01*
X0197012Y0078719D02*
X0181730Y0078719D01*
X0180932Y0077921D02*
X0197856Y0077921D01*
X0201834Y0080316D02*
X0250165Y0080316D01*
X0249366Y0081115D02*
X0201671Y0081115D01*
X0201210Y0081913D02*
X0248568Y0081913D01*
X0246172Y0084309D02*
X0187320Y0084309D01*
X0188118Y0085108D02*
X0245374Y0085108D01*
X0244575Y0085906D02*
X0188917Y0085906D01*
X0189715Y0086705D02*
X0243777Y0086705D01*
X0242978Y0087503D02*
X0190514Y0087503D01*
X0191312Y0088302D02*
X0242180Y0088302D01*
X0241381Y0089100D02*
X0192111Y0089100D01*
X0192909Y0089899D02*
X0240583Y0089899D01*
X0239784Y0090697D02*
X0193708Y0090697D01*
X0194506Y0091496D02*
X0238986Y0091496D01*
X0238187Y0092294D02*
X0195305Y0092294D01*
X0196103Y0093093D02*
X0237389Y0093093D01*
X0236590Y0093891D02*
X0196902Y0093891D01*
X0197700Y0094690D02*
X0235792Y0094690D01*
X0234993Y0095488D02*
X0198499Y0095488D01*
X0199297Y0096287D02*
X0234195Y0096287D01*
X0233396Y0097085D02*
X0200096Y0097085D01*
X0200894Y0097884D02*
X0232598Y0097884D01*
X0231799Y0098682D02*
X0201693Y0098682D01*
X0202491Y0099481D02*
X0231001Y0099481D01*
X0230202Y0100279D02*
X0203290Y0100279D01*
X0204088Y0101078D02*
X0229404Y0101078D01*
X0229042Y0101876D02*
X0204887Y0101876D01*
X0205318Y0102675D02*
X0228970Y0102675D01*
X0228970Y0103473D02*
X0205439Y0103473D01*
X0205439Y0104272D02*
X0228970Y0104272D01*
X0228970Y0105070D02*
X0205439Y0105070D01*
X0205439Y0105869D02*
X0228970Y0105869D01*
X0228970Y0106667D02*
X0205439Y0106667D01*
X0205439Y0107466D02*
X0228970Y0107466D01*
X0228970Y0108264D02*
X0205439Y0108264D01*
X0205439Y0109063D02*
X0228970Y0109063D01*
X0228970Y0109861D02*
X0205439Y0109861D01*
X0205439Y0110660D02*
X0228970Y0110660D01*
X0228970Y0111458D02*
X0205439Y0111458D01*
X0205439Y0112257D02*
X0228970Y0112257D01*
X0228970Y0113055D02*
X0205439Y0113055D01*
X0205439Y0113854D02*
X0228970Y0113854D01*
X0228970Y0114652D02*
X0205439Y0114652D01*
X0205439Y0115451D02*
X0228970Y0115451D01*
X0228970Y0116249D02*
X0205439Y0116249D01*
X0205439Y0117048D02*
X0228970Y0117048D01*
X0228970Y0117846D02*
X0205439Y0117846D01*
X0205439Y0118645D02*
X0228970Y0118645D01*
X0228970Y0119444D02*
X0205439Y0119444D01*
X0205439Y0120242D02*
X0228970Y0120242D01*
X0228970Y0121041D02*
X0205439Y0121041D01*
X0205439Y0121839D02*
X0228970Y0121839D01*
X0228970Y0122638D02*
X0205439Y0122638D01*
X0205439Y0123436D02*
X0228970Y0123436D01*
X0228970Y0124235D02*
X0205439Y0124235D01*
X0205439Y0125033D02*
X0228970Y0125033D01*
X0228970Y0125832D02*
X0205439Y0125832D01*
X0205439Y0126630D02*
X0228970Y0126630D01*
X0228970Y0127429D02*
X0205439Y0127429D01*
X0205439Y0128227D02*
X0228970Y0128227D01*
X0228970Y0129026D02*
X0205439Y0129026D01*
X0205439Y0129824D02*
X0228970Y0129824D01*
X0228970Y0130623D02*
X0205439Y0130623D01*
X0205439Y0131421D02*
X0228970Y0131421D01*
X0228970Y0132220D02*
X0205439Y0132220D01*
X0205439Y0133018D02*
X0228970Y0133018D01*
X0228970Y0133817D02*
X0205439Y0133817D01*
X0205439Y0134615D02*
X0228970Y0134615D01*
X0228970Y0135414D02*
X0205439Y0135414D01*
X0205439Y0136212D02*
X0228970Y0136212D01*
X0228970Y0137011D02*
X0205439Y0137011D01*
X0205439Y0137809D02*
X0228970Y0137809D01*
X0228970Y0138608D02*
X0205439Y0138608D01*
X0205439Y0139406D02*
X0228970Y0139406D01*
X0228970Y0140205D02*
X0205439Y0140205D01*
X0205439Y0141003D02*
X0228970Y0141003D01*
X0228970Y0141802D02*
X0205439Y0141802D01*
X0205439Y0142600D02*
X0228970Y0142600D01*
X0228970Y0143399D02*
X0205439Y0143399D01*
X0205439Y0144197D02*
X0228970Y0144197D01*
X0228970Y0144996D02*
X0205439Y0144996D01*
X0205439Y0145794D02*
X0228970Y0145794D01*
X0228970Y0146593D02*
X0205439Y0146593D01*
X0205439Y0147391D02*
X0228970Y0147391D01*
X0228970Y0148190D02*
X0205439Y0148190D01*
X0205439Y0148988D02*
X0228970Y0148988D01*
X0228970Y0149787D02*
X0205439Y0149787D01*
X0205439Y0150585D02*
X0228970Y0150585D01*
X0228970Y0151384D02*
X0205439Y0151384D01*
X0205439Y0152182D02*
X0228970Y0152182D01*
X0228970Y0152981D02*
X0205439Y0152981D01*
X0205439Y0153779D02*
X0228970Y0153779D01*
X0228970Y0154578D02*
X0205439Y0154578D01*
X0205439Y0155377D02*
X0228970Y0155377D01*
X0228970Y0156175D02*
X0205439Y0156175D01*
X0205439Y0156974D02*
X0228970Y0156974D01*
X0228970Y0157772D02*
X0205439Y0157772D01*
X0205439Y0158571D02*
X0228970Y0158571D01*
X0228970Y0159369D02*
X0205439Y0159369D01*
X0205439Y0160168D02*
X0228970Y0160168D01*
X0228970Y0160966D02*
X0205439Y0160966D01*
X0205439Y0161765D02*
X0228970Y0161765D01*
X0228970Y0162563D02*
X0205439Y0162563D01*
X0205439Y0163362D02*
X0228970Y0163362D01*
X0228970Y0164160D02*
X0205439Y0164160D01*
X0205439Y0164959D02*
X0228970Y0164959D01*
X0228970Y0165757D02*
X0205439Y0165757D01*
X0205439Y0166556D02*
X0228970Y0166556D01*
X0228970Y0167354D02*
X0205439Y0167354D01*
X0205439Y0168153D02*
X0226386Y0168153D01*
X0225282Y0168951D02*
X0205439Y0168951D01*
X0205439Y0169750D02*
X0224724Y0169750D01*
X0224393Y0170548D02*
X0205439Y0170548D01*
X0205439Y0171347D02*
X0224230Y0171347D01*
X0223431Y0172145D02*
X0205439Y0172145D01*
X0205439Y0172944D02*
X0222633Y0172944D01*
X0221834Y0173742D02*
X0205439Y0173742D01*
X0205439Y0174541D02*
X0221036Y0174541D01*
X0220237Y0175339D02*
X0205439Y0175339D01*
X0205439Y0176138D02*
X0219439Y0176138D01*
X0218640Y0176936D02*
X0205439Y0176936D01*
X0205439Y0177735D02*
X0217842Y0177735D01*
X0217043Y0178533D02*
X0205439Y0178533D01*
X0205439Y0179332D02*
X0216245Y0179332D01*
X0215446Y0180130D02*
X0205439Y0180130D01*
X0205439Y0180929D02*
X0214648Y0180929D01*
X0213849Y0181727D02*
X0205439Y0181727D01*
X0205439Y0182526D02*
X0213051Y0182526D01*
X0212252Y0183324D02*
X0205808Y0183324D01*
X0206171Y0184123D02*
X0211454Y0184123D01*
X0210655Y0184921D02*
X0206389Y0184921D01*
X0200439Y0182526D02*
X0199777Y0182526D01*
X0200439Y0181727D02*
X0198978Y0181727D01*
X0198180Y0180929D02*
X0200439Y0180929D01*
X0200439Y0180130D02*
X0197381Y0180130D01*
X0197360Y0179332D02*
X0200439Y0179332D01*
X0200439Y0178533D02*
X0197360Y0178533D01*
X0197360Y0177735D02*
X0200439Y0177735D01*
X0200439Y0176936D02*
X0197360Y0176936D01*
X0197360Y0176138D02*
X0200439Y0176138D01*
X0200439Y0175339D02*
X0197360Y0175339D01*
X0197360Y0174541D02*
X0200439Y0174541D01*
X0200439Y0173742D02*
X0197360Y0173742D01*
X0197360Y0172944D02*
X0200439Y0172944D01*
X0200439Y0172145D02*
X0197360Y0172145D01*
X0197360Y0171347D02*
X0200439Y0171347D01*
X0200439Y0170548D02*
X0197360Y0170548D01*
X0197360Y0169750D02*
X0200439Y0169750D01*
X0200439Y0168951D02*
X0197360Y0168951D01*
X0197360Y0168153D02*
X0200439Y0168153D01*
X0200439Y0167354D02*
X0197360Y0167354D01*
X0197360Y0166556D02*
X0200439Y0166556D01*
X0200439Y0165757D02*
X0197360Y0165757D01*
X0197360Y0164959D02*
X0200439Y0164959D01*
X0200439Y0164160D02*
X0197360Y0164160D01*
X0197360Y0163362D02*
X0200439Y0163362D01*
X0200439Y0162563D02*
X0197360Y0162563D01*
X0197360Y0161765D02*
X0200439Y0161765D01*
X0200439Y0160966D02*
X0197360Y0160966D01*
X0197360Y0160168D02*
X0200439Y0160168D01*
X0200439Y0159369D02*
X0197360Y0159369D01*
X0197360Y0158571D02*
X0200439Y0158571D01*
X0200439Y0157772D02*
X0197360Y0157772D01*
X0197360Y0156974D02*
X0200439Y0156974D01*
X0200439Y0156175D02*
X0197360Y0156175D01*
X0197360Y0155377D02*
X0200439Y0155377D01*
X0200439Y0154578D02*
X0197360Y0154578D01*
X0197360Y0153779D02*
X0200439Y0153779D01*
X0200439Y0152981D02*
X0197360Y0152981D01*
X0197360Y0152182D02*
X0200439Y0152182D01*
X0200439Y0151384D02*
X0197360Y0151384D01*
X0197360Y0150585D02*
X0200439Y0150585D01*
X0200439Y0149787D02*
X0197360Y0149787D01*
X0197360Y0148988D02*
X0200439Y0148988D01*
X0200439Y0148190D02*
X0197360Y0148190D01*
X0197360Y0147391D02*
X0200439Y0147391D01*
X0200439Y0146593D02*
X0197360Y0146593D01*
X0197360Y0145794D02*
X0200439Y0145794D01*
X0200439Y0144996D02*
X0197360Y0144996D01*
X0197360Y0144197D02*
X0200439Y0144197D01*
X0200439Y0143399D02*
X0197360Y0143399D01*
X0197360Y0142600D02*
X0200439Y0142600D01*
X0200439Y0141802D02*
X0197360Y0141802D01*
X0197360Y0141003D02*
X0200439Y0141003D01*
X0200439Y0140205D02*
X0197360Y0140205D01*
X0197360Y0139406D02*
X0200439Y0139406D01*
X0200439Y0138608D02*
X0197360Y0138608D01*
X0197360Y0137809D02*
X0200439Y0137809D01*
X0200439Y0137011D02*
X0197360Y0137011D01*
X0197360Y0136212D02*
X0200439Y0136212D01*
X0200439Y0135414D02*
X0197360Y0135414D01*
X0197360Y0134615D02*
X0200439Y0134615D01*
X0200439Y0133817D02*
X0197360Y0133817D01*
X0197360Y0133018D02*
X0200439Y0133018D01*
X0200439Y0132220D02*
X0197360Y0132220D01*
X0197360Y0131421D02*
X0200439Y0131421D01*
X0200439Y0130623D02*
X0197360Y0130623D01*
X0197360Y0129824D02*
X0200439Y0129824D01*
X0200439Y0129026D02*
X0197360Y0129026D01*
X0197360Y0128227D02*
X0200439Y0128227D01*
X0200439Y0127429D02*
X0197360Y0127429D01*
X0197360Y0126630D02*
X0200439Y0126630D01*
X0200439Y0125832D02*
X0197360Y0125832D01*
X0197360Y0125033D02*
X0200439Y0125033D01*
X0200439Y0124235D02*
X0197198Y0124235D01*
X0196708Y0123436D02*
X0200439Y0123436D01*
X0200439Y0122638D02*
X0195910Y0122638D01*
X0195111Y0121839D02*
X0200439Y0121839D01*
X0200439Y0121041D02*
X0194313Y0121041D01*
X0193514Y0120242D02*
X0200439Y0120242D01*
X0200439Y0119444D02*
X0192716Y0119444D01*
X0191917Y0118645D02*
X0200439Y0118645D01*
X0200439Y0117846D02*
X0191119Y0117846D01*
X0190320Y0117048D02*
X0200439Y0117048D01*
X0200439Y0116249D02*
X0189522Y0116249D01*
X0188723Y0115451D02*
X0200439Y0115451D01*
X0200439Y0114652D02*
X0187925Y0114652D01*
X0187126Y0113854D02*
X0200439Y0113854D01*
X0200439Y0113055D02*
X0186328Y0113055D01*
X0185529Y0112257D02*
X0200439Y0112257D01*
X0200439Y0111458D02*
X0184731Y0111458D01*
X0183932Y0110660D02*
X0200439Y0110660D01*
X0200439Y0109861D02*
X0183134Y0109861D01*
X0182335Y0109063D02*
X0200439Y0109063D01*
X0200439Y0108264D02*
X0181536Y0108264D01*
X0180738Y0107466D02*
X0200439Y0107466D01*
X0200439Y0106667D02*
X0191124Y0106667D01*
X0190966Y0106733D02*
X0190457Y0106834D01*
X0190197Y0106834D01*
X0190197Y0104197D01*
X0192834Y0104197D01*
X0192834Y0104457D01*
X0192733Y0104966D01*
X0192534Y0105446D01*
X0192245Y0105878D01*
X0191878Y0106245D01*
X0191446Y0106534D01*
X0190966Y0106733D01*
X0190197Y0106667D02*
X0190197Y0106667D01*
X0190197Y0106834D02*
X0189937Y0106834D01*
X0189428Y0106733D01*
X0188948Y0106534D01*
X0188516Y0106245D01*
X0188148Y0105878D01*
X0187860Y0105446D01*
X0187661Y0104966D01*
X0187559Y0104457D01*
X0187559Y0104197D01*
X0190197Y0104197D01*
X0190197Y0104197D01*
X0190197Y0104197D01*
X0192834Y0104197D01*
X0192834Y0103937D01*
X0192733Y0103428D01*
X0192534Y0102948D01*
X0192245Y0102516D01*
X0191878Y0102148D01*
X0191446Y0101860D01*
X0190966Y0101661D01*
X0190457Y0101559D01*
X0190197Y0101559D01*
X0190197Y0104197D01*
X0190197Y0106834D01*
X0189269Y0106667D02*
X0179939Y0106667D01*
X0179141Y0105869D02*
X0188142Y0105869D01*
X0187704Y0105070D02*
X0178342Y0105070D01*
X0177544Y0104272D02*
X0187559Y0104272D01*
X0187559Y0104197D02*
X0187559Y0103937D01*
X0187661Y0103428D01*
X0187860Y0102948D01*
X0188148Y0102516D01*
X0188516Y0102148D01*
X0188948Y0101860D01*
X0189428Y0101661D01*
X0189937Y0101559D01*
X0190197Y0101559D01*
X0190197Y0104197D01*
X0190197Y0104197D01*
X0190197Y0104197D01*
X0187559Y0104197D01*
X0187652Y0103473D02*
X0176745Y0103473D01*
X0175947Y0102675D02*
X0188042Y0102675D01*
X0188923Y0101876D02*
X0175148Y0101876D01*
X0174350Y0101078D02*
X0197017Y0101078D01*
X0196219Y0100279D02*
X0173551Y0100279D01*
X0172753Y0099481D02*
X0195420Y0099481D01*
X0194622Y0098682D02*
X0171954Y0098682D01*
X0190197Y0101876D02*
X0190197Y0101876D01*
X0190197Y0102675D02*
X0190197Y0102675D01*
X0190197Y0103473D02*
X0190197Y0103473D01*
X0190197Y0104272D02*
X0190197Y0104272D01*
X0190197Y0105070D02*
X0190197Y0105070D01*
X0190197Y0105869D02*
X0190197Y0105869D01*
X0192252Y0105869D02*
X0200439Y0105869D01*
X0200439Y0105070D02*
X0192690Y0105070D01*
X0192834Y0104272D02*
X0200211Y0104272D01*
X0199413Y0103473D02*
X0192742Y0103473D01*
X0192352Y0102675D02*
X0198614Y0102675D01*
X0197816Y0101876D02*
X0191471Y0101876D01*
X0180133Y0077122D02*
X0216726Y0077122D01*
X0216559Y0076324D02*
X0179335Y0076324D01*
X0178536Y0075525D02*
X0216641Y0075525D01*
X0217007Y0074727D02*
X0177738Y0074727D01*
X0176939Y0073928D02*
X0217845Y0073928D01*
X0221387Y0074727D02*
X0258655Y0074727D01*
X0258655Y0075525D02*
X0221752Y0075525D01*
X0221834Y0076324D02*
X0258655Y0076324D01*
X0258655Y0077122D02*
X0221668Y0077122D01*
X0221203Y0077921D02*
X0258655Y0077921D01*
X0256652Y0078719D02*
X0255980Y0078719D01*
X0263655Y0090697D02*
X0277704Y0090697D01*
X0276650Y0091496D02*
X0263655Y0091496D01*
X0263655Y0092294D02*
X0275852Y0092294D01*
X0275053Y0093093D02*
X0263655Y0093093D01*
X0263655Y0093891D02*
X0274255Y0093891D01*
X0273456Y0094690D02*
X0263655Y0094690D01*
X0263655Y0095488D02*
X0272658Y0095488D01*
X0271859Y0096287D02*
X0263655Y0096287D01*
X0263465Y0097085D02*
X0271061Y0097085D01*
X0270262Y0097884D02*
X0262936Y0097884D01*
X0262138Y0098682D02*
X0269464Y0098682D01*
X0268665Y0099481D02*
X0261339Y0099481D01*
X0261122Y0100279D02*
X0267867Y0100279D01*
X0267068Y0101078D02*
X0261769Y0101078D01*
X0262028Y0101876D02*
X0266270Y0101876D01*
X0265471Y0102675D02*
X0262043Y0102675D01*
X0261799Y0103473D02*
X0264673Y0103473D01*
X0263874Y0104272D02*
X0261196Y0104272D01*
X0259426Y0104272D02*
X0259426Y0104272D01*
X0259426Y0103473D02*
X0259426Y0103473D01*
X0259426Y0102675D02*
X0259426Y0102675D01*
X0257655Y0104272D02*
X0257365Y0104272D01*
X0257365Y0105070D02*
X0263076Y0105070D01*
X0262277Y0105869D02*
X0257365Y0105869D01*
X0257365Y0106667D02*
X0261479Y0106667D01*
X0260680Y0107466D02*
X0257365Y0107466D01*
X0257365Y0108264D02*
X0259882Y0108264D01*
X0259083Y0109063D02*
X0257365Y0109063D01*
X0257365Y0109861D02*
X0258285Y0109861D01*
X0262162Y0113055D02*
X0280066Y0113055D01*
X0280066Y0112257D02*
X0262960Y0112257D01*
X0263759Y0111458D02*
X0280066Y0111458D01*
X0280066Y0110660D02*
X0264557Y0110660D01*
X0265356Y0109861D02*
X0280066Y0109861D01*
X0280066Y0109063D02*
X0266154Y0109063D01*
X0266953Y0108264D02*
X0280066Y0108264D01*
X0280066Y0107466D02*
X0267751Y0107466D01*
X0268550Y0106667D02*
X0280066Y0106667D01*
X0279574Y0105869D02*
X0269348Y0105869D01*
X0270147Y0105070D02*
X0279243Y0105070D01*
X0279116Y0104272D02*
X0270945Y0104272D01*
X0271744Y0103473D02*
X0279116Y0103473D01*
X0279413Y0102675D02*
X0272542Y0102675D01*
X0273341Y0101876D02*
X0279888Y0101876D01*
X0280791Y0101078D02*
X0274139Y0101078D01*
X0280066Y0113854D02*
X0261363Y0113854D01*
X0261092Y0114652D02*
X0280066Y0114652D01*
X0280066Y0115451D02*
X0260791Y0115451D01*
X0260311Y0116249D02*
X0280066Y0116249D01*
X0280066Y0117048D02*
X0259394Y0117048D01*
X0257365Y0117846D02*
X0280066Y0117846D01*
X0280066Y0118645D02*
X0257365Y0118645D01*
X0257365Y0119444D02*
X0280066Y0119444D01*
X0280066Y0120242D02*
X0257365Y0120242D01*
X0257365Y0121041D02*
X0280066Y0121041D01*
X0280066Y0121839D02*
X0257365Y0121839D01*
X0257365Y0122638D02*
X0280066Y0122638D01*
X0280066Y0123436D02*
X0257365Y0123436D01*
X0257365Y0124235D02*
X0280066Y0124235D01*
X0280066Y0125033D02*
X0257365Y0125033D01*
X0257365Y0125832D02*
X0280066Y0125832D01*
X0280066Y0126630D02*
X0257365Y0126630D01*
X0257365Y0127429D02*
X0280066Y0127429D01*
X0280066Y0128227D02*
X0257365Y0128227D01*
X0257365Y0129026D02*
X0280066Y0129026D01*
X0280066Y0129824D02*
X0257365Y0129824D01*
X0257365Y0130623D02*
X0280066Y0130623D01*
X0280066Y0131421D02*
X0257365Y0131421D01*
X0257365Y0132220D02*
X0280066Y0132220D01*
X0279688Y0133018D02*
X0257365Y0133018D01*
X0257365Y0133817D02*
X0278889Y0133817D01*
X0278091Y0134615D02*
X0257365Y0134615D01*
X0257365Y0135414D02*
X0277292Y0135414D01*
X0276494Y0136212D02*
X0257365Y0136212D01*
X0257365Y0137011D02*
X0275695Y0137011D01*
X0274897Y0137809D02*
X0270299Y0137809D01*
X0271331Y0138608D02*
X0274098Y0138608D01*
X0273300Y0139406D02*
X0271859Y0139406D01*
X0272190Y0140205D02*
X0272501Y0140205D01*
X0267188Y0137809D02*
X0257365Y0137809D01*
X0257365Y0138608D02*
X0266156Y0138608D01*
X0265627Y0139406D02*
X0257365Y0139406D01*
X0257365Y0140205D02*
X0265297Y0140205D01*
X0265293Y0141003D02*
X0257365Y0141003D01*
X0257365Y0141802D02*
X0265383Y0141802D01*
X0265714Y0142600D02*
X0257365Y0142600D01*
X0257365Y0143399D02*
X0266243Y0143399D01*
X0265962Y0144197D02*
X0257365Y0144197D01*
X0257365Y0144996D02*
X0265163Y0144996D01*
X0264365Y0145794D02*
X0257365Y0145794D01*
X0257365Y0146593D02*
X0263566Y0146593D01*
X0262768Y0147391D02*
X0257365Y0147391D01*
X0257365Y0148190D02*
X0261969Y0148190D01*
X0261171Y0148988D02*
X0257365Y0148988D01*
X0257365Y0149787D02*
X0260372Y0149787D01*
X0259574Y0150585D02*
X0257365Y0150585D01*
X0257365Y0151384D02*
X0258775Y0151384D01*
X0257977Y0152182D02*
X0257365Y0152182D01*
X0267197Y0163362D02*
X0267197Y0163362D01*
X0267197Y0164160D02*
X0267197Y0164160D01*
X0267197Y0164959D02*
X0267197Y0164959D01*
X0267197Y0165757D02*
X0267197Y0165757D01*
X0267197Y0166556D02*
X0267197Y0166556D01*
X0267197Y0167354D02*
X0267197Y0167354D01*
X0323197Y0226444D02*
X0323197Y0226444D01*
X0323197Y0227243D02*
X0323197Y0227243D01*
X0323197Y0228041D02*
X0323197Y0228041D01*
X0323197Y0228840D02*
X0323197Y0228840D01*
X0323197Y0229638D02*
X0323197Y0229638D01*
X0323197Y0230437D02*
X0323197Y0230437D01*
X0353097Y0196899D02*
X0353897Y0196899D01*
X0353897Y0196101D02*
X0353097Y0196101D01*
X0353097Y0195302D02*
X0353897Y0195302D01*
X0353897Y0194504D02*
X0353097Y0194504D01*
X0353097Y0193705D02*
X0353897Y0193705D01*
X0353897Y0192907D02*
X0353097Y0192907D01*
X0354129Y0192907D02*
X0361397Y0192907D01*
X0361397Y0193705D02*
X0356129Y0193705D01*
X0356999Y0194504D02*
X0361397Y0194504D01*
X0361397Y0195302D02*
X0357518Y0195302D01*
X0357843Y0196101D02*
X0361397Y0196101D01*
X0361397Y0196899D02*
X0358008Y0196899D01*
X0353691Y0277397D02*
X0345702Y0277397D01*
X0353691Y0277397D01*
X0345702Y0277397D02*
X0344896Y0277731D01*
X0344896Y0277063D01*
X0345702Y0277397D01*
X0345336Y0277549D02*
X0344896Y0277549D01*
X0344896Y0287063D02*
X0344896Y0287731D01*
X0345702Y0287397D01*
X0353691Y0287397D01*
X0345702Y0287397D01*
X0344896Y0287063D01*
X0344896Y0287131D02*
X0345060Y0287131D01*
X0344896Y0297512D02*
X0345425Y0297512D01*
X0344970Y0307094D02*
X0344896Y0307094D01*
X0182125Y0208078D02*
X0181944Y0208078D01*
X0181443Y0207280D02*
X0181146Y0207280D01*
X0180644Y0206481D02*
X0180347Y0206481D01*
X0180205Y0205683D02*
X0179549Y0205683D01*
X0180078Y0204884D02*
X0178750Y0204884D01*
X0177952Y0204086D02*
X0180078Y0204086D01*
X0121396Y0115451D02*
X0107216Y0115451D01*
X0110741Y0114652D02*
X0121396Y0114652D01*
X0121064Y0113854D02*
X0111764Y0113854D01*
X0112563Y0113055D02*
X0120679Y0113055D01*
X0120446Y0112257D02*
X0113361Y0112257D01*
X0114160Y0111458D02*
X0120446Y0111458D01*
X0120637Y0110660D02*
X0114958Y0110660D01*
X0115757Y0109861D02*
X0120968Y0109861D01*
X0121732Y0109063D02*
X0116555Y0109063D01*
X0117354Y0108264D02*
X0120234Y0108264D01*
X0118791Y0107466D02*
X0118152Y0107466D01*
X0083935Y0123436D02*
X0073166Y0123436D01*
X0073653Y0124235D02*
X0083137Y0124235D01*
X0082338Y0125033D02*
X0073834Y0125033D01*
X0073760Y0125832D02*
X0081540Y0125832D01*
X0080741Y0126630D02*
X0073411Y0126630D01*
X0072604Y0127429D02*
X0079943Y0127429D01*
X0071197Y0127429D02*
X0071197Y0127429D01*
X0071197Y0126630D02*
X0071197Y0126630D01*
X0071197Y0125832D02*
X0071197Y0125832D01*
X0071197Y0125033D02*
X0071197Y0125033D01*
X0071197Y0124235D02*
X0071197Y0124235D01*
X0071197Y0123436D02*
X0071197Y0123436D01*
X0199576Y0046779D02*
X0202297Y0046779D01*
X0202474Y0045980D02*
X0200825Y0045980D01*
X0201523Y0045182D02*
X0202805Y0045182D01*
X0203578Y0044383D02*
X0201975Y0044383D01*
X0075090Y0339833D02*
X0068383Y0339833D01*
X0067730Y0340631D02*
X0074330Y0340631D01*
X0074000Y0341430D02*
X0067039Y0341430D01*
X0066347Y0342228D02*
X0073669Y0342228D01*
X0073597Y0343027D02*
X0065655Y0343027D01*
X0064946Y0343825D02*
X0073597Y0343825D01*
X0073597Y0344624D02*
X0063703Y0344624D01*
X0062461Y0345422D02*
X0073597Y0345422D01*
X0073597Y0346221D02*
X0061218Y0346221D01*
X0059145Y0347019D02*
X0073597Y0347019D01*
D14*
X0098597Y0346397D02*
X0098597Y0353697D01*
X0105380Y0360480D01*
X0201676Y0360480D01*
X0209606Y0352550D01*
X0217682Y0360626D01*
X0303115Y0360626D01*
X0342396Y0321345D01*
X0342396Y0272397D01*
X0349697Y0272397D01*
X0349697Y0262397D02*
X0342396Y0262397D01*
X0281034Y0323759D01*
X0281034Y0352091D01*
X0277915Y0355210D01*
X0273384Y0355210D01*
X0266034Y0347860D01*
X0261671Y0352726D02*
X0261671Y0342620D01*
X0222377Y0303326D01*
X0222377Y0222511D01*
X0222898Y0221991D01*
X0222898Y0207291D01*
X0218762Y0203155D01*
X0215305Y0202722D02*
X0222943Y0195085D01*
X0231397Y0195085D01*
X0232882Y0196570D01*
X0232882Y0217998D01*
X0225978Y0224902D01*
X0225978Y0231102D01*
X0231240Y0236365D01*
X0236361Y0236365D01*
X0242983Y0229742D01*
X0242983Y0222574D01*
X0342561Y0122997D01*
X0349997Y0122997D01*
X0353563Y0118696D02*
X0357297Y0114962D01*
X0357297Y0102997D01*
X0349997Y0102997D01*
X0349997Y0112997D02*
X0342696Y0112997D01*
X0228765Y0226928D01*
X0228765Y0229822D01*
X0235069Y0227907D02*
X0344280Y0118696D01*
X0353563Y0118696D01*
X0359261Y0137233D02*
X0353497Y0142997D01*
X0349997Y0142997D01*
X0353497Y0142997D02*
X0353497Y0197397D01*
X0356997Y0200897D01*
X0356997Y0312397D01*
X0349697Y0312397D01*
X0306034Y0347860D02*
X0306034Y0355160D01*
X0302382Y0358812D01*
X0257846Y0358812D01*
X0209263Y0310229D01*
X0209263Y0227963D01*
X0206512Y0226561D02*
X0211275Y0221799D01*
X0210032Y0219048D02*
X0204712Y0224368D01*
X0204712Y0354826D01*
X0200858Y0358680D01*
X0113580Y0358680D01*
X0108597Y0353697D01*
X0108597Y0346397D01*
X0118597Y0346397D02*
X0118597Y0353697D01*
X0121644Y0356744D01*
X0200247Y0356744D01*
X0202911Y0354080D01*
X0202911Y0223300D01*
X0210763Y0215448D01*
X0213720Y0215448D01*
X0219910Y0209257D01*
X0219910Y0213181D02*
X0214043Y0219048D01*
X0210032Y0219048D01*
X0209747Y0213647D02*
X0211887Y0213647D01*
X0215305Y0210229D01*
X0215305Y0202722D01*
X0211734Y0203748D02*
X0230635Y0184846D01*
X0231395Y0184846D01*
X0282566Y0133676D01*
X0282566Y0104077D01*
X0278685Y0092997D02*
X0257642Y0114040D01*
X0259426Y0102312D02*
X0298258Y0063480D01*
X0298258Y0062258D01*
X0298197Y0062197D01*
X0298258Y0063480D02*
X0309286Y0074507D01*
X0340710Y0074507D01*
X0359261Y0093058D01*
X0359261Y0137233D01*
X0349997Y0092997D02*
X0278685Y0092997D01*
X0261155Y0096130D02*
X0261155Y0064307D01*
X0258176Y0081822D02*
X0258176Y0095885D01*
X0235970Y0118090D01*
X0235970Y0172367D01*
X0230693Y0177645D01*
X0229718Y0177645D01*
X0198447Y0208917D01*
X0198447Y0218200D01*
X0195158Y0221489D01*
X0194312Y0221489D01*
X0191467Y0222533D02*
X0195430Y0226497D01*
X0195731Y0226497D01*
X0196794Y0229394D02*
X0200669Y0225519D01*
X0200669Y0222725D01*
X0209747Y0213647D01*
X0211734Y0209611D02*
X0211734Y0203748D01*
X0202998Y0209880D02*
X0230094Y0182783D01*
X0230912Y0182783D01*
X0268743Y0144952D01*
X0268743Y0140899D01*
X0254865Y0156018D02*
X0254865Y0102420D01*
X0261155Y0096130D01*
X0248200Y0089707D02*
X0234170Y0103737D01*
X0234170Y0103737D01*
X0234170Y0171378D01*
X0229704Y0175844D01*
X0228973Y0175844D01*
X0195062Y0209755D01*
X0195062Y0217695D01*
X0197918Y0222624D02*
X0200247Y0220295D01*
X0200247Y0209662D01*
X0230464Y0179445D01*
X0231438Y0179445D01*
X0254865Y0156018D01*
X0231470Y0171532D02*
X0231470Y0102547D01*
X0252194Y0081822D01*
X0254456Y0081822D01*
X0202939Y0103464D02*
X0171342Y0071867D01*
X0167141Y0072039D02*
X0189599Y0049581D01*
X0203259Y0049581D01*
X0205747Y0047093D01*
X0167141Y0072039D02*
X0167141Y0097405D01*
X0113502Y0097405D01*
X0056579Y0154328D01*
X0056579Y0190292D01*
X0042497Y0197197D02*
X0088740Y0197197D01*
X0123959Y0232416D01*
X0126893Y0235350D01*
X0145290Y0235350D01*
X0152891Y0227749D01*
X0164749Y0227749D01*
X0180026Y0243027D01*
X0180026Y0254413D01*
X0180026Y0333926D01*
X0133767Y0333926D01*
X0128597Y0339096D01*
X0128597Y0346397D01*
X0180026Y0333926D02*
X0198197Y0352097D01*
X0206512Y0349456D02*
X0206512Y0226561D01*
X0212033Y0225500D02*
X0212033Y0296559D01*
X0256034Y0340559D01*
X0256034Y0347860D01*
X0261671Y0352726D02*
X0265955Y0357011D01*
X0284183Y0357011D01*
X0286034Y0355160D01*
X0286034Y0347860D01*
X0276034Y0347860D02*
X0276034Y0340559D01*
X0262157Y0340559D01*
X0224177Y0302580D01*
X0224177Y0223257D01*
X0230120Y0217315D01*
X0230120Y0197861D01*
X0210919Y0188193D02*
X0227819Y0171293D01*
X0228227Y0174044D02*
X0228958Y0174044D01*
X0231470Y0171532D01*
X0228227Y0174044D02*
X0191467Y0210804D01*
X0191467Y0222533D01*
X0197918Y0222624D02*
X0197918Y0223287D01*
X0196794Y0229394D02*
X0188248Y0229394D01*
X0180684Y0221830D01*
X0180684Y0214305D01*
X0174987Y0208608D01*
X0171607Y0206295D02*
X0171607Y0132530D01*
X0153197Y0114120D01*
X0143197Y0114120D02*
X0143197Y0181800D01*
X0174162Y0212765D01*
X0174583Y0212765D01*
X0174508Y0216921D02*
X0131860Y0174274D01*
X0131860Y0103884D01*
X0127150Y0110945D02*
X0121088Y0104884D01*
X0121077Y0101005D02*
X0164331Y0101005D01*
X0186774Y0123448D01*
X0186774Y0194325D01*
X0195278Y0202830D01*
X0199720Y0196616D02*
X0188574Y0185470D01*
X0188574Y0122702D01*
X0165077Y0099205D01*
X0115591Y0099205D01*
X0110230Y0104567D01*
X0109709Y0112374D02*
X0105629Y0112374D01*
X0109709Y0112374D02*
X0121077Y0101005D01*
X0123896Y0111807D02*
X0123896Y0172950D01*
X0193750Y0242804D01*
X0197968Y0242804D01*
X0198473Y0239079D02*
X0192588Y0239079D01*
X0127150Y0173641D01*
X0127150Y0110945D01*
X0163094Y0117185D02*
X0174644Y0128734D01*
X0174644Y0204313D01*
X0185848Y0215517D01*
X0185848Y0223024D01*
X0185575Y0207876D02*
X0182578Y0204880D01*
X0182578Y0123143D01*
X0194860Y0125123D02*
X0167141Y0097405D01*
X0194860Y0125123D02*
X0194860Y0181144D01*
X0201908Y0188193D01*
X0203544Y0188193D01*
X0203544Y0194648D01*
X0203544Y0188193D02*
X0210919Y0188193D01*
X0202939Y0185334D02*
X0202939Y0103464D01*
X0271905Y0197738D02*
X0272963Y0198797D01*
X0272963Y0205412D01*
X0272963Y0301163D01*
X0249847Y0324280D01*
X0209606Y0352550D02*
X0206512Y0349456D01*
X0149648Y0250697D02*
X0062921Y0250697D01*
X0056539Y0245237D02*
X0152052Y0245237D01*
X0163160Y0234129D01*
X0163160Y0230571D01*
X0160315Y0233005D02*
X0152623Y0240697D01*
X0062921Y0240697D01*
X0144207Y0232543D02*
X0144207Y0218535D01*
X0151741Y0211001D01*
X0166200Y0233091D02*
X0166200Y0234145D01*
X0149648Y0250697D01*
X0202998Y0210801D02*
X0202998Y0209880D01*
X0235069Y0227907D02*
X0235069Y0233529D01*
X0272963Y0205412D02*
X0347638Y0205412D01*
D15*
X0347638Y0205412D03*
X0323197Y0228197D03*
X0350197Y0235197D03*
X0353197Y0180197D03*
X0311197Y0181197D03*
X0271905Y0197738D03*
X0267197Y0165197D03*
X0268743Y0140899D03*
X0257642Y0114040D03*
X0259426Y0102312D03*
X0248200Y0089707D03*
X0254456Y0081822D03*
X0258176Y0081822D03*
X0261155Y0064307D03*
X0219197Y0076197D03*
X0199197Y0080197D03*
X0190197Y0104197D03*
X0182578Y0123143D03*
X0163094Y0117185D03*
X0153197Y0114120D03*
X0143197Y0114120D03*
X0131860Y0103884D03*
X0123896Y0111807D03*
X0121088Y0104884D03*
X0110230Y0104567D03*
X0105629Y0112374D03*
X0093197Y0132197D03*
X0071197Y0125197D03*
X0087197Y0089197D03*
X0136197Y0144197D03*
X0159197Y0147197D03*
X0202939Y0185334D03*
X0203544Y0194648D03*
X0199720Y0196616D03*
X0195278Y0202830D03*
X0202998Y0210801D03*
X0211734Y0209611D03*
X0219910Y0209257D03*
X0219910Y0213181D03*
X0211275Y0221799D03*
X0212033Y0225500D03*
X0209263Y0227963D03*
X0197918Y0223287D03*
X0195731Y0226497D03*
X0194312Y0221489D03*
X0195062Y0217695D03*
X0185848Y0223024D03*
X0174508Y0216921D03*
X0174583Y0212765D03*
X0174987Y0208608D03*
X0171607Y0206295D03*
X0185575Y0207876D03*
X0163160Y0230571D03*
X0160315Y0233005D03*
X0166200Y0233091D03*
X0144207Y0232543D03*
X0123959Y0232416D03*
X0127197Y0260197D03*
X0113197Y0302197D03*
X0083197Y0276197D03*
X0062921Y0250697D03*
X0056539Y0245237D03*
X0062921Y0240697D03*
X0058197Y0224197D03*
X0086197Y0202197D03*
X0056579Y0190292D03*
X0039197Y0174197D03*
X0044197Y0290197D03*
X0151741Y0211001D03*
X0180026Y0254413D03*
X0197968Y0242804D03*
X0198473Y0239079D03*
X0228765Y0229822D03*
X0235069Y0233529D03*
X0218762Y0203155D03*
X0230120Y0197861D03*
X0227819Y0171293D03*
X0282566Y0104077D03*
X0205747Y0047093D03*
X0171342Y0071867D03*
X0252197Y0279197D03*
X0249847Y0324280D03*
M02*
