G75*
%MOIN*%
%OFA0B0*%
%FSLAX25Y25*%
%IPPOS*%
%LPD*%
%AMOC8*
5,1,8,0,0,1.08239X$1,22.5*
%
%ADD10C,0.00600*%
%ADD11C,0.01400*%
%ADD12C,0.01200*%
%ADD13R,0.49000X0.17000*%
%ADD14C,0.00098*%
%ADD15C,0.01500*%
%ADD16C,0.00500*%
%ADD17R,0.01500X0.03000*%
%ADD18C,0.00800*%
%ADD19C,0.00400*%
%ADD20C,0.02200*%
%ADD21R,0.03000X0.01500*%
%ADD22R,0.02953X0.05512*%
D10*
X0039697Y0062197D02*
X0039701Y0062528D01*
X0039713Y0062859D01*
X0039734Y0063190D01*
X0039762Y0063520D01*
X0039799Y0063850D01*
X0039843Y0064178D01*
X0039896Y0064505D01*
X0039956Y0064831D01*
X0040025Y0065155D01*
X0040102Y0065477D01*
X0040186Y0065798D01*
X0040278Y0066116D01*
X0040378Y0066432D01*
X0040486Y0066745D01*
X0040602Y0067056D01*
X0040725Y0067363D01*
X0040855Y0067668D01*
X0040993Y0067969D01*
X0041138Y0068267D01*
X0041291Y0068561D01*
X0041451Y0068851D01*
X0041618Y0069137D01*
X0041791Y0069419D01*
X0041972Y0069697D01*
X0042160Y0069970D01*
X0042354Y0070239D01*
X0042554Y0070503D01*
X0042761Y0070761D01*
X0042975Y0071015D01*
X0043194Y0071263D01*
X0043420Y0071506D01*
X0043651Y0071743D01*
X0043888Y0071974D01*
X0044131Y0072200D01*
X0044379Y0072419D01*
X0044633Y0072633D01*
X0044891Y0072840D01*
X0045155Y0073040D01*
X0045424Y0073234D01*
X0045697Y0073422D01*
X0045975Y0073603D01*
X0046257Y0073776D01*
X0046543Y0073943D01*
X0046833Y0074103D01*
X0047127Y0074256D01*
X0047425Y0074401D01*
X0047726Y0074539D01*
X0048031Y0074669D01*
X0048338Y0074792D01*
X0048649Y0074908D01*
X0048962Y0075016D01*
X0049278Y0075116D01*
X0049596Y0075208D01*
X0049917Y0075292D01*
X0050239Y0075369D01*
X0050563Y0075438D01*
X0050889Y0075498D01*
X0051216Y0075551D01*
X0051544Y0075595D01*
X0051874Y0075632D01*
X0052204Y0075660D01*
X0052535Y0075681D01*
X0052866Y0075693D01*
X0053197Y0075697D01*
X0053528Y0075693D01*
X0053859Y0075681D01*
X0054190Y0075660D01*
X0054520Y0075632D01*
X0054850Y0075595D01*
X0055178Y0075551D01*
X0055505Y0075498D01*
X0055831Y0075438D01*
X0056155Y0075369D01*
X0056477Y0075292D01*
X0056798Y0075208D01*
X0057116Y0075116D01*
X0057432Y0075016D01*
X0057745Y0074908D01*
X0058056Y0074792D01*
X0058363Y0074669D01*
X0058668Y0074539D01*
X0058969Y0074401D01*
X0059267Y0074256D01*
X0059561Y0074103D01*
X0059851Y0073943D01*
X0060137Y0073776D01*
X0060419Y0073603D01*
X0060697Y0073422D01*
X0060970Y0073234D01*
X0061239Y0073040D01*
X0061503Y0072840D01*
X0061761Y0072633D01*
X0062015Y0072419D01*
X0062263Y0072200D01*
X0062506Y0071974D01*
X0062743Y0071743D01*
X0062974Y0071506D01*
X0063200Y0071263D01*
X0063419Y0071015D01*
X0063633Y0070761D01*
X0063840Y0070503D01*
X0064040Y0070239D01*
X0064234Y0069970D01*
X0064422Y0069697D01*
X0064603Y0069419D01*
X0064776Y0069137D01*
X0064943Y0068851D01*
X0065103Y0068561D01*
X0065256Y0068267D01*
X0065401Y0067969D01*
X0065539Y0067668D01*
X0065669Y0067363D01*
X0065792Y0067056D01*
X0065908Y0066745D01*
X0066016Y0066432D01*
X0066116Y0066116D01*
X0066208Y0065798D01*
X0066292Y0065477D01*
X0066369Y0065155D01*
X0066438Y0064831D01*
X0066498Y0064505D01*
X0066551Y0064178D01*
X0066595Y0063850D01*
X0066632Y0063520D01*
X0066660Y0063190D01*
X0066681Y0062859D01*
X0066693Y0062528D01*
X0066697Y0062197D01*
X0066693Y0061866D01*
X0066681Y0061535D01*
X0066660Y0061204D01*
X0066632Y0060874D01*
X0066595Y0060544D01*
X0066551Y0060216D01*
X0066498Y0059889D01*
X0066438Y0059563D01*
X0066369Y0059239D01*
X0066292Y0058917D01*
X0066208Y0058596D01*
X0066116Y0058278D01*
X0066016Y0057962D01*
X0065908Y0057649D01*
X0065792Y0057338D01*
X0065669Y0057031D01*
X0065539Y0056726D01*
X0065401Y0056425D01*
X0065256Y0056127D01*
X0065103Y0055833D01*
X0064943Y0055543D01*
X0064776Y0055257D01*
X0064603Y0054975D01*
X0064422Y0054697D01*
X0064234Y0054424D01*
X0064040Y0054155D01*
X0063840Y0053891D01*
X0063633Y0053633D01*
X0063419Y0053379D01*
X0063200Y0053131D01*
X0062974Y0052888D01*
X0062743Y0052651D01*
X0062506Y0052420D01*
X0062263Y0052194D01*
X0062015Y0051975D01*
X0061761Y0051761D01*
X0061503Y0051554D01*
X0061239Y0051354D01*
X0060970Y0051160D01*
X0060697Y0050972D01*
X0060419Y0050791D01*
X0060137Y0050618D01*
X0059851Y0050451D01*
X0059561Y0050291D01*
X0059267Y0050138D01*
X0058969Y0049993D01*
X0058668Y0049855D01*
X0058363Y0049725D01*
X0058056Y0049602D01*
X0057745Y0049486D01*
X0057432Y0049378D01*
X0057116Y0049278D01*
X0056798Y0049186D01*
X0056477Y0049102D01*
X0056155Y0049025D01*
X0055831Y0048956D01*
X0055505Y0048896D01*
X0055178Y0048843D01*
X0054850Y0048799D01*
X0054520Y0048762D01*
X0054190Y0048734D01*
X0053859Y0048713D01*
X0053528Y0048701D01*
X0053197Y0048697D01*
X0052866Y0048701D01*
X0052535Y0048713D01*
X0052204Y0048734D01*
X0051874Y0048762D01*
X0051544Y0048799D01*
X0051216Y0048843D01*
X0050889Y0048896D01*
X0050563Y0048956D01*
X0050239Y0049025D01*
X0049917Y0049102D01*
X0049596Y0049186D01*
X0049278Y0049278D01*
X0048962Y0049378D01*
X0048649Y0049486D01*
X0048338Y0049602D01*
X0048031Y0049725D01*
X0047726Y0049855D01*
X0047425Y0049993D01*
X0047127Y0050138D01*
X0046833Y0050291D01*
X0046543Y0050451D01*
X0046257Y0050618D01*
X0045975Y0050791D01*
X0045697Y0050972D01*
X0045424Y0051160D01*
X0045155Y0051354D01*
X0044891Y0051554D01*
X0044633Y0051761D01*
X0044379Y0051975D01*
X0044131Y0052194D01*
X0043888Y0052420D01*
X0043651Y0052651D01*
X0043420Y0052888D01*
X0043194Y0053131D01*
X0042975Y0053379D01*
X0042761Y0053633D01*
X0042554Y0053891D01*
X0042354Y0054155D01*
X0042160Y0054424D01*
X0041972Y0054697D01*
X0041791Y0054975D01*
X0041618Y0055257D01*
X0041451Y0055543D01*
X0041291Y0055833D01*
X0041138Y0056127D01*
X0040993Y0056425D01*
X0040855Y0056726D01*
X0040725Y0057031D01*
X0040602Y0057338D01*
X0040486Y0057649D01*
X0040378Y0057962D01*
X0040278Y0058278D01*
X0040186Y0058596D01*
X0040102Y0058917D01*
X0040025Y0059239D01*
X0039956Y0059563D01*
X0039896Y0059889D01*
X0039843Y0060216D01*
X0039799Y0060544D01*
X0039762Y0060874D01*
X0039734Y0061204D01*
X0039713Y0061535D01*
X0039701Y0061866D01*
X0039697Y0062197D01*
X0039744Y0079997D02*
X0039744Y0081698D01*
X0040311Y0082265D01*
X0042580Y0082265D01*
X0043147Y0081698D01*
X0043147Y0079997D01*
X0039744Y0079997D01*
X0039744Y0083680D02*
X0041445Y0083680D01*
X0040878Y0084814D01*
X0040878Y0085381D01*
X0041445Y0085949D01*
X0042580Y0085949D01*
X0043147Y0085381D01*
X0043147Y0084247D01*
X0042580Y0083680D01*
X0039744Y0083680D02*
X0039744Y0085949D01*
X0045744Y0085381D02*
X0045744Y0084247D01*
X0046311Y0083680D01*
X0046311Y0082265D02*
X0045744Y0081698D01*
X0045744Y0079997D01*
X0049147Y0079997D01*
X0049147Y0081698D01*
X0048580Y0082265D01*
X0046311Y0082265D01*
X0045744Y0085381D02*
X0046311Y0085949D01*
X0046878Y0085949D01*
X0049147Y0083680D01*
X0049147Y0085949D01*
X0052744Y0084814D02*
X0056147Y0084814D01*
X0056147Y0083680D02*
X0056147Y0085949D01*
X0053878Y0083680D02*
X0052744Y0084814D01*
X0053311Y0082265D02*
X0052744Y0081698D01*
X0052744Y0079997D01*
X0056147Y0079997D01*
X0056147Y0081698D01*
X0055580Y0082265D01*
X0053311Y0082265D01*
X0059494Y0081698D02*
X0060061Y0082265D01*
X0061195Y0082265D01*
X0061763Y0081698D01*
X0061763Y0079997D01*
X0062897Y0079997D02*
X0059494Y0079997D01*
X0059494Y0081698D01*
X0059494Y0083680D02*
X0061195Y0083680D01*
X0060628Y0084814D01*
X0060628Y0085381D01*
X0061195Y0085949D01*
X0062330Y0085949D01*
X0062897Y0085381D01*
X0062897Y0084247D01*
X0062330Y0083680D01*
X0062897Y0082265D02*
X0061763Y0081131D01*
X0059494Y0083680D02*
X0059494Y0085949D01*
X0066494Y0085381D02*
X0068195Y0083680D01*
X0068195Y0085949D01*
X0066494Y0085381D02*
X0069897Y0085381D01*
X0069897Y0082265D02*
X0068763Y0081131D01*
X0068763Y0081698D02*
X0068763Y0079997D01*
X0069897Y0079997D02*
X0066494Y0079997D01*
X0066494Y0081698D01*
X0067061Y0082265D01*
X0068195Y0082265D01*
X0068763Y0081698D01*
X0073494Y0081698D02*
X0074061Y0082265D01*
X0075195Y0082265D01*
X0075763Y0081698D01*
X0075763Y0079997D01*
X0076897Y0079997D02*
X0073494Y0079997D01*
X0073494Y0081698D01*
X0074061Y0083680D02*
X0073494Y0084247D01*
X0073494Y0085381D01*
X0074061Y0085949D01*
X0074628Y0085949D01*
X0075195Y0085381D01*
X0075763Y0085949D01*
X0076330Y0085949D01*
X0076897Y0085381D01*
X0076897Y0084247D01*
X0076330Y0083680D01*
X0076897Y0082265D02*
X0075763Y0081131D01*
X0075195Y0084814D02*
X0075195Y0085381D01*
X0058765Y0096064D02*
X0058198Y0095497D01*
X0056497Y0095497D01*
X0056497Y0098900D01*
X0058198Y0098900D01*
X0058765Y0098333D01*
X0058765Y0097765D01*
X0058198Y0097198D01*
X0056497Y0097198D01*
X0058198Y0097198D02*
X0058765Y0096631D01*
X0058765Y0096064D01*
X0058198Y0105497D02*
X0058765Y0106064D01*
X0058765Y0107198D01*
X0057631Y0107198D01*
X0056497Y0106064D02*
X0056497Y0108333D01*
X0057064Y0108900D01*
X0058198Y0108900D01*
X0058765Y0108333D01*
X0058198Y0105497D02*
X0057064Y0105497D01*
X0056497Y0106064D01*
X0056497Y0115497D02*
X0056497Y0118900D01*
X0058198Y0118900D01*
X0058765Y0118333D01*
X0058765Y0117198D01*
X0058198Y0116631D01*
X0056497Y0116631D01*
X0057631Y0116631D02*
X0058765Y0115497D01*
X0097997Y0116064D02*
X0098564Y0115497D01*
X0099698Y0115497D01*
X0100265Y0116064D01*
X0101680Y0116064D02*
X0102247Y0115497D01*
X0103381Y0115497D01*
X0103949Y0116064D01*
X0103949Y0118333D01*
X0103381Y0118900D01*
X0102247Y0118900D01*
X0101680Y0118333D01*
X0101680Y0117765D01*
X0102247Y0117198D01*
X0103949Y0117198D01*
X0100265Y0118333D02*
X0099698Y0118900D01*
X0098564Y0118900D01*
X0097997Y0118333D01*
X0097997Y0116064D01*
X0109997Y0125497D02*
X0109997Y0128900D01*
X0111698Y0128900D01*
X0112265Y0128333D01*
X0112265Y0127198D01*
X0111698Y0126631D01*
X0109997Y0126631D01*
X0111131Y0126631D02*
X0112265Y0125497D01*
X0113680Y0125497D02*
X0115949Y0125497D01*
X0114814Y0125497D02*
X0114814Y0128900D01*
X0113680Y0127765D01*
X0113065Y0134497D02*
X0111930Y0134497D01*
X0111363Y0135064D01*
X0111363Y0136198D02*
X0112497Y0136765D01*
X0113065Y0136765D01*
X0113632Y0136198D01*
X0113632Y0135064D01*
X0113065Y0134497D01*
X0111363Y0136198D02*
X0111363Y0137900D01*
X0113632Y0137900D01*
X0108814Y0137900D02*
X0108814Y0134497D01*
X0107680Y0134497D02*
X0109949Y0134497D01*
X0107680Y0136765D02*
X0108814Y0137900D01*
X0106265Y0137333D02*
X0105698Y0137900D01*
X0104564Y0137900D01*
X0103997Y0137333D01*
X0103997Y0135064D01*
X0104564Y0134497D01*
X0105698Y0134497D01*
X0106265Y0135064D01*
X0105698Y0143497D02*
X0106265Y0144064D01*
X0105698Y0143497D02*
X0104564Y0143497D01*
X0103997Y0144064D01*
X0103997Y0146333D01*
X0104564Y0146900D01*
X0105698Y0146900D01*
X0106265Y0146333D01*
X0107680Y0145765D02*
X0108814Y0146900D01*
X0108814Y0143497D01*
X0107680Y0143497D02*
X0109949Y0143497D01*
X0111363Y0144064D02*
X0111930Y0143497D01*
X0113065Y0143497D01*
X0113632Y0144064D01*
X0113632Y0144631D01*
X0113065Y0145198D01*
X0111363Y0145198D01*
X0111363Y0144064D01*
X0111363Y0145198D02*
X0112497Y0146333D01*
X0113632Y0146900D01*
X0127997Y0130900D02*
X0129698Y0130900D01*
X0130265Y0130333D01*
X0130265Y0129198D01*
X0129698Y0128631D01*
X0127997Y0128631D01*
X0129131Y0128631D02*
X0130265Y0127497D01*
X0131680Y0127497D02*
X0133949Y0129765D01*
X0133949Y0130333D01*
X0133381Y0130900D01*
X0132247Y0130900D01*
X0131680Y0130333D01*
X0131680Y0127497D02*
X0133949Y0127497D01*
X0136997Y0126631D02*
X0138698Y0126631D01*
X0139265Y0127198D01*
X0139265Y0128333D01*
X0138698Y0128900D01*
X0136997Y0128900D01*
X0136997Y0125497D01*
X0138131Y0126631D02*
X0139265Y0125497D01*
X0140680Y0126064D02*
X0141247Y0125497D01*
X0142381Y0125497D01*
X0142949Y0126064D01*
X0142949Y0126631D01*
X0142381Y0127198D01*
X0140680Y0127198D01*
X0140680Y0126064D01*
X0140680Y0127198D02*
X0141814Y0128333D01*
X0142949Y0128900D01*
X0147997Y0128900D02*
X0147997Y0125497D01*
X0147997Y0126631D02*
X0149698Y0126631D01*
X0150265Y0127198D01*
X0150265Y0128333D01*
X0149698Y0128900D01*
X0147997Y0128900D01*
X0149131Y0126631D02*
X0150265Y0125497D01*
X0151680Y0125497D02*
X0151680Y0126064D01*
X0153949Y0128333D01*
X0153949Y0128900D01*
X0151680Y0128900D01*
X0158997Y0128900D02*
X0158997Y0125497D01*
X0158997Y0126631D02*
X0160698Y0126631D01*
X0161265Y0127198D01*
X0161265Y0128333D01*
X0160698Y0128900D01*
X0158997Y0128900D01*
X0160131Y0126631D02*
X0161265Y0125497D01*
X0162680Y0126064D02*
X0162680Y0126631D01*
X0163247Y0127198D01*
X0164381Y0127198D01*
X0164949Y0126631D01*
X0164949Y0126064D01*
X0164381Y0125497D01*
X0163247Y0125497D01*
X0162680Y0126064D01*
X0163247Y0127198D02*
X0162680Y0127765D01*
X0162680Y0128333D01*
X0163247Y0128900D01*
X0164381Y0128900D01*
X0164949Y0128333D01*
X0164949Y0127765D01*
X0164381Y0127198D01*
X0180554Y0143581D02*
X0181121Y0143014D01*
X0182256Y0143014D01*
X0182823Y0143581D01*
X0182823Y0145850D01*
X0182256Y0146417D01*
X0181121Y0146417D01*
X0180554Y0145850D01*
X0180554Y0143581D01*
X0181688Y0144148D02*
X0182823Y0143014D01*
X0184237Y0143014D02*
X0186506Y0143014D01*
X0185372Y0143014D02*
X0185372Y0146417D01*
X0184237Y0145283D01*
X0173949Y0161497D02*
X0171680Y0161497D01*
X0173949Y0163765D01*
X0173949Y0164333D01*
X0173381Y0164900D01*
X0172247Y0164900D01*
X0171680Y0164333D01*
X0170265Y0164333D02*
X0169698Y0164900D01*
X0168564Y0164900D01*
X0167997Y0164333D01*
X0167997Y0162064D01*
X0168564Y0161497D01*
X0169698Y0161497D01*
X0170265Y0162064D01*
X0196997Y0162064D02*
X0197564Y0161497D01*
X0198698Y0161497D01*
X0199265Y0162064D01*
X0200680Y0161497D02*
X0202949Y0161497D01*
X0201814Y0161497D02*
X0201814Y0164900D01*
X0200680Y0163765D01*
X0199265Y0164333D02*
X0198698Y0164900D01*
X0197564Y0164900D01*
X0196997Y0164333D01*
X0196997Y0162064D01*
X0203997Y0157333D02*
X0203997Y0155064D01*
X0204564Y0154497D01*
X0205698Y0154497D01*
X0206265Y0155064D01*
X0207680Y0156198D02*
X0209949Y0156198D01*
X0209381Y0154497D02*
X0209381Y0157900D01*
X0207680Y0156198D01*
X0206265Y0157333D02*
X0205698Y0157900D01*
X0204564Y0157900D01*
X0203997Y0157333D01*
X0219741Y0161796D02*
X0222010Y0165199D01*
X0223424Y0164632D02*
X0223991Y0165199D01*
X0225126Y0165199D01*
X0225693Y0164632D01*
X0225693Y0164065D01*
X0223424Y0161796D01*
X0225693Y0161796D01*
X0222010Y0161796D02*
X0219741Y0165199D01*
X0226564Y0177497D02*
X0227698Y0177497D01*
X0228265Y0178064D01*
X0229680Y0178064D02*
X0230247Y0177497D01*
X0231381Y0177497D01*
X0231949Y0178064D01*
X0231949Y0179198D01*
X0231381Y0179765D01*
X0230814Y0179765D01*
X0229680Y0179198D01*
X0229680Y0180900D01*
X0231949Y0180900D01*
X0228265Y0180333D02*
X0227698Y0180900D01*
X0226564Y0180900D01*
X0225997Y0180333D01*
X0225997Y0178064D01*
X0226564Y0177497D01*
X0201819Y0216024D02*
X0199550Y0216024D01*
X0201819Y0218293D01*
X0201819Y0218860D01*
X0201252Y0219427D01*
X0200117Y0219427D01*
X0199550Y0218860D01*
X0198136Y0219427D02*
X0198136Y0216592D01*
X0197568Y0216024D01*
X0196434Y0216024D01*
X0195867Y0216592D01*
X0195867Y0219427D01*
X0171632Y0226497D02*
X0169363Y0226497D01*
X0171632Y0228765D01*
X0171632Y0229333D01*
X0171065Y0229900D01*
X0169930Y0229900D01*
X0169363Y0229333D01*
X0166814Y0229900D02*
X0166814Y0226497D01*
X0165680Y0226497D02*
X0167949Y0226497D01*
X0165680Y0228765D02*
X0166814Y0229900D01*
X0164265Y0229333D02*
X0164265Y0228198D01*
X0163698Y0227631D01*
X0161997Y0227631D01*
X0163131Y0227631D02*
X0164265Y0226497D01*
X0161997Y0226497D02*
X0161997Y0229900D01*
X0163698Y0229900D01*
X0164265Y0229333D01*
X0163198Y0233997D02*
X0162064Y0233997D01*
X0161497Y0234564D01*
X0161497Y0236833D01*
X0162064Y0237400D01*
X0163198Y0237400D01*
X0163765Y0236833D01*
X0165180Y0236833D02*
X0165747Y0237400D01*
X0166881Y0237400D01*
X0167449Y0236833D01*
X0167449Y0236265D01*
X0166881Y0235698D01*
X0167449Y0235131D01*
X0167449Y0234564D01*
X0166881Y0233997D01*
X0165747Y0233997D01*
X0165180Y0234564D01*
X0163765Y0234564D02*
X0163198Y0233997D01*
X0166314Y0235698D02*
X0166881Y0235698D01*
X0166814Y0243497D02*
X0166814Y0246900D01*
X0165680Y0245765D01*
X0164265Y0245198D02*
X0163698Y0244631D01*
X0161997Y0244631D01*
X0163131Y0244631D02*
X0164265Y0243497D01*
X0165680Y0243497D02*
X0167949Y0243497D01*
X0169363Y0243497D02*
X0171632Y0243497D01*
X0170497Y0243497D02*
X0170497Y0246900D01*
X0169363Y0245765D01*
X0172997Y0248064D02*
X0172997Y0250333D01*
X0173564Y0250900D01*
X0174698Y0250900D01*
X0175265Y0250333D01*
X0176680Y0249765D02*
X0177814Y0250900D01*
X0177814Y0247497D01*
X0176680Y0247497D02*
X0178949Y0247497D01*
X0180363Y0247497D02*
X0180363Y0248064D01*
X0182632Y0250333D01*
X0182632Y0250900D01*
X0180363Y0250900D01*
X0175265Y0248064D02*
X0174698Y0247497D01*
X0173564Y0247497D01*
X0172997Y0248064D01*
X0164265Y0246333D02*
X0164265Y0245198D01*
X0164265Y0246333D02*
X0163698Y0246900D01*
X0161997Y0246900D01*
X0161997Y0243497D01*
X0139364Y0249497D02*
X0139364Y0252900D01*
X0140498Y0252900D02*
X0138229Y0252900D01*
X0136815Y0252900D02*
X0134546Y0252900D01*
X0134546Y0249497D01*
X0136815Y0249497D01*
X0135681Y0251198D02*
X0134546Y0251198D01*
X0133132Y0250631D02*
X0133132Y0250064D01*
X0132565Y0249497D01*
X0131430Y0249497D01*
X0130863Y0250064D01*
X0131430Y0251198D02*
X0132565Y0251198D01*
X0133132Y0250631D01*
X0133132Y0252333D02*
X0132565Y0252900D01*
X0131430Y0252900D01*
X0130863Y0252333D01*
X0130863Y0251765D01*
X0131430Y0251198D01*
X0129449Y0249497D02*
X0127180Y0249497D01*
X0127180Y0252900D01*
X0129449Y0252900D01*
X0128314Y0251198D02*
X0127180Y0251198D01*
X0125765Y0251198D02*
X0125198Y0250631D01*
X0123497Y0250631D01*
X0124631Y0250631D02*
X0125765Y0249497D01*
X0125765Y0251198D02*
X0125765Y0252333D01*
X0125198Y0252900D01*
X0123497Y0252900D01*
X0123497Y0249497D01*
X0114762Y0241459D02*
X0114195Y0242026D01*
X0113060Y0242026D01*
X0112493Y0241459D01*
X0111079Y0241459D02*
X0110511Y0242026D01*
X0109377Y0242026D01*
X0108810Y0241459D01*
X0108810Y0240891D01*
X0109377Y0240324D01*
X0110511Y0240324D01*
X0111079Y0239757D01*
X0111079Y0239190D01*
X0110511Y0238623D01*
X0109377Y0238623D01*
X0108810Y0239190D01*
X0107395Y0239190D02*
X0107395Y0242026D01*
X0105127Y0242026D02*
X0105127Y0239190D01*
X0105694Y0238623D01*
X0106828Y0238623D01*
X0107395Y0239190D01*
X0109944Y0238056D02*
X0109944Y0242593D01*
X0112493Y0238623D02*
X0114762Y0240891D01*
X0114762Y0241459D01*
X0114762Y0238623D02*
X0112493Y0238623D01*
X0111698Y0226400D02*
X0110564Y0226400D01*
X0109997Y0225833D01*
X0109997Y0225265D01*
X0110564Y0224698D01*
X0111698Y0224698D01*
X0112265Y0224131D01*
X0112265Y0223564D01*
X0111698Y0222997D01*
X0110564Y0222997D01*
X0109997Y0223564D01*
X0112265Y0225833D02*
X0111698Y0226400D01*
X0114814Y0226400D02*
X0115949Y0226400D01*
X0115381Y0226400D02*
X0115381Y0223564D01*
X0114814Y0222997D01*
X0114247Y0222997D01*
X0113680Y0223564D01*
X0117363Y0222997D02*
X0119632Y0222997D01*
X0118497Y0222997D02*
X0118497Y0226400D01*
X0117363Y0225265D01*
X0124697Y0223197D02*
X0124697Y0229197D01*
X0124699Y0229257D01*
X0124704Y0229318D01*
X0124713Y0229377D01*
X0124726Y0229436D01*
X0124742Y0229495D01*
X0124762Y0229552D01*
X0124785Y0229607D01*
X0124812Y0229662D01*
X0124841Y0229714D01*
X0124874Y0229765D01*
X0124910Y0229814D01*
X0124948Y0229860D01*
X0124990Y0229904D01*
X0125034Y0229946D01*
X0125080Y0229984D01*
X0125129Y0230020D01*
X0125180Y0230053D01*
X0125232Y0230082D01*
X0125287Y0230109D01*
X0125342Y0230132D01*
X0125399Y0230152D01*
X0125458Y0230168D01*
X0125517Y0230181D01*
X0125576Y0230190D01*
X0125637Y0230195D01*
X0125697Y0230197D01*
X0136697Y0230197D01*
X0136757Y0230195D01*
X0136818Y0230190D01*
X0136877Y0230181D01*
X0136936Y0230168D01*
X0136995Y0230152D01*
X0137052Y0230132D01*
X0137107Y0230109D01*
X0137162Y0230082D01*
X0137214Y0230053D01*
X0137265Y0230020D01*
X0137314Y0229984D01*
X0137360Y0229946D01*
X0137404Y0229904D01*
X0137446Y0229860D01*
X0137484Y0229814D01*
X0137520Y0229765D01*
X0137553Y0229714D01*
X0137582Y0229662D01*
X0137609Y0229607D01*
X0137632Y0229552D01*
X0137652Y0229495D01*
X0137668Y0229436D01*
X0137681Y0229377D01*
X0137690Y0229318D01*
X0137695Y0229257D01*
X0137697Y0229197D01*
X0137697Y0223197D01*
X0137695Y0223137D01*
X0137690Y0223076D01*
X0137681Y0223017D01*
X0137668Y0222958D01*
X0137652Y0222899D01*
X0137632Y0222842D01*
X0137609Y0222787D01*
X0137582Y0222732D01*
X0137553Y0222680D01*
X0137520Y0222629D01*
X0137484Y0222580D01*
X0137446Y0222534D01*
X0137404Y0222490D01*
X0137360Y0222448D01*
X0137314Y0222410D01*
X0137265Y0222374D01*
X0137214Y0222341D01*
X0137162Y0222312D01*
X0137107Y0222285D01*
X0137052Y0222262D01*
X0136995Y0222242D01*
X0136936Y0222226D01*
X0136877Y0222213D01*
X0136818Y0222204D01*
X0136757Y0222199D01*
X0136697Y0222197D01*
X0125697Y0222197D01*
X0125637Y0222199D01*
X0125576Y0222204D01*
X0125517Y0222213D01*
X0125458Y0222226D01*
X0125399Y0222242D01*
X0125342Y0222262D01*
X0125287Y0222285D01*
X0125232Y0222312D01*
X0125180Y0222341D01*
X0125129Y0222374D01*
X0125080Y0222410D01*
X0125034Y0222448D01*
X0124990Y0222490D01*
X0124948Y0222534D01*
X0124910Y0222580D01*
X0124874Y0222629D01*
X0124841Y0222680D01*
X0124812Y0222732D01*
X0124785Y0222787D01*
X0124762Y0222842D01*
X0124742Y0222899D01*
X0124726Y0222958D01*
X0124713Y0223017D01*
X0124704Y0223076D01*
X0124699Y0223137D01*
X0124697Y0223197D01*
X0068382Y0207900D02*
X0066113Y0207900D01*
X0066113Y0206198D01*
X0067247Y0206765D01*
X0067815Y0206765D01*
X0068382Y0206198D01*
X0068382Y0205064D01*
X0067815Y0204497D01*
X0066680Y0204497D01*
X0066113Y0205064D01*
X0064131Y0205064D02*
X0064131Y0207900D01*
X0063564Y0207900D02*
X0064699Y0207900D01*
X0064131Y0205064D02*
X0063564Y0204497D01*
X0062997Y0204497D01*
X0062430Y0205064D01*
X0061015Y0205064D02*
X0060448Y0204497D01*
X0059314Y0204497D01*
X0058747Y0205064D01*
X0059314Y0206198D02*
X0060448Y0206198D01*
X0061015Y0205631D01*
X0061015Y0205064D01*
X0059314Y0206198D02*
X0058747Y0206765D01*
X0058747Y0207333D01*
X0059314Y0207900D01*
X0060448Y0207900D01*
X0061015Y0207333D01*
X0054297Y0203297D02*
X0038297Y0203297D01*
X0038297Y0198297D01*
X0038297Y0196097D02*
X0038297Y0191097D01*
X0054297Y0191097D01*
X0054297Y0203297D01*
X0052887Y0204897D02*
X0050619Y0204897D01*
X0052887Y0207165D01*
X0052887Y0207733D01*
X0052320Y0208300D01*
X0051186Y0208300D01*
X0050619Y0207733D01*
X0049204Y0207733D02*
X0048637Y0208300D01*
X0047503Y0208300D01*
X0046935Y0207733D01*
X0046935Y0205464D01*
X0047503Y0204897D01*
X0048637Y0204897D01*
X0049204Y0205464D01*
X0045614Y0204897D02*
X0044480Y0204897D01*
X0045047Y0204897D02*
X0045047Y0208300D01*
X0044480Y0208300D02*
X0045614Y0208300D01*
X0043065Y0208300D02*
X0043065Y0204897D01*
X0040797Y0204897D02*
X0040797Y0208300D01*
X0041931Y0207165D01*
X0043065Y0208300D01*
X0043564Y0179900D02*
X0042997Y0179333D01*
X0042997Y0177064D01*
X0043564Y0176497D01*
X0044698Y0176497D01*
X0045265Y0177064D01*
X0046680Y0176497D02*
X0048949Y0176497D01*
X0047814Y0176497D02*
X0047814Y0179900D01*
X0046680Y0178765D01*
X0045265Y0179333D02*
X0044698Y0179900D01*
X0043564Y0179900D01*
X0050363Y0179333D02*
X0050363Y0178765D01*
X0050930Y0178198D01*
X0052065Y0178198D01*
X0052632Y0177631D01*
X0052632Y0177064D01*
X0052065Y0176497D01*
X0050930Y0176497D01*
X0050363Y0177064D01*
X0050363Y0177631D01*
X0050930Y0178198D01*
X0052065Y0178198D02*
X0052632Y0178765D01*
X0052632Y0179333D01*
X0052065Y0179900D01*
X0050930Y0179900D01*
X0050363Y0179333D01*
X0127997Y0130900D02*
X0127997Y0127497D01*
X0182314Y0063900D02*
X0181747Y0063333D01*
X0181747Y0062765D01*
X0182314Y0062198D01*
X0183448Y0062198D01*
X0184015Y0061631D01*
X0184015Y0061064D01*
X0183448Y0060497D01*
X0182314Y0060497D01*
X0181747Y0061064D01*
X0182314Y0063900D02*
X0183448Y0063900D01*
X0184015Y0063333D01*
X0186564Y0063900D02*
X0187699Y0063900D01*
X0187131Y0063900D02*
X0187131Y0061064D01*
X0186564Y0060497D01*
X0185997Y0060497D01*
X0185430Y0061064D01*
X0189113Y0061064D02*
X0189113Y0061631D01*
X0189680Y0062198D01*
X0190815Y0062198D01*
X0191382Y0061631D01*
X0191382Y0061064D01*
X0190815Y0060497D01*
X0189680Y0060497D01*
X0189113Y0061064D01*
X0189680Y0062198D02*
X0189113Y0062765D01*
X0189113Y0063333D01*
X0189680Y0063900D01*
X0190815Y0063900D01*
X0191382Y0063333D01*
X0191382Y0062765D01*
X0190815Y0062198D01*
X0191697Y0054397D02*
X0191697Y0038397D01*
X0196697Y0038397D01*
X0198897Y0038397D02*
X0203897Y0038397D01*
X0203897Y0054397D01*
X0191697Y0054397D01*
X0188420Y0046700D02*
X0188987Y0046133D01*
X0188987Y0045565D01*
X0188420Y0044998D01*
X0188987Y0044431D01*
X0188987Y0043864D01*
X0188420Y0043297D01*
X0187286Y0043297D01*
X0186719Y0043864D01*
X0185304Y0043864D02*
X0184737Y0043297D01*
X0183603Y0043297D01*
X0183035Y0043864D01*
X0183035Y0046133D01*
X0183603Y0046700D01*
X0184737Y0046700D01*
X0185304Y0046133D01*
X0186719Y0046133D02*
X0187286Y0046700D01*
X0188420Y0046700D01*
X0188420Y0044998D02*
X0187853Y0044998D01*
X0181714Y0043297D02*
X0180580Y0043297D01*
X0181147Y0043297D02*
X0181147Y0046700D01*
X0180580Y0046700D02*
X0181714Y0046700D01*
X0179165Y0046700D02*
X0179165Y0043297D01*
X0176897Y0043297D02*
X0176897Y0046700D01*
X0178031Y0045565D01*
X0179165Y0046700D01*
X0214997Y0049064D02*
X0215564Y0048497D01*
X0216698Y0048497D01*
X0217265Y0049064D01*
X0218680Y0048497D02*
X0220949Y0050765D01*
X0220949Y0051333D01*
X0220381Y0051900D01*
X0219247Y0051900D01*
X0218680Y0051333D01*
X0217265Y0051333D02*
X0216698Y0051900D01*
X0215564Y0051900D01*
X0214997Y0051333D01*
X0214997Y0049064D01*
X0218680Y0048497D02*
X0220949Y0048497D01*
X0222363Y0049064D02*
X0224632Y0051333D01*
X0224632Y0049064D01*
X0224065Y0048497D01*
X0222930Y0048497D01*
X0222363Y0049064D01*
X0222363Y0051333D01*
X0222930Y0051900D01*
X0224065Y0051900D01*
X0224632Y0051333D01*
X0227867Y0047577D02*
X0229002Y0047577D01*
X0228435Y0047577D02*
X0228435Y0044741D01*
X0227867Y0044174D01*
X0227300Y0044174D01*
X0226733Y0044741D01*
X0230416Y0044174D02*
X0232685Y0044174D01*
X0231551Y0044174D02*
X0231551Y0047577D01*
X0230416Y0046443D01*
X0241997Y0072497D02*
X0241997Y0075900D01*
X0243698Y0075900D01*
X0244265Y0075333D01*
X0244265Y0074198D01*
X0243698Y0073631D01*
X0241997Y0073631D01*
X0243131Y0073631D02*
X0244265Y0072497D01*
X0245680Y0072497D02*
X0247949Y0072497D01*
X0246814Y0072497D02*
X0246814Y0075900D01*
X0245680Y0074765D01*
X0249363Y0075333D02*
X0249930Y0075900D01*
X0251065Y0075900D01*
X0251632Y0075333D01*
X0249363Y0073064D01*
X0249930Y0072497D01*
X0251065Y0072497D01*
X0251632Y0073064D01*
X0251632Y0075333D01*
X0249363Y0075333D02*
X0249363Y0073064D01*
X0265997Y0073631D02*
X0267698Y0073631D01*
X0268265Y0074198D01*
X0268265Y0075333D01*
X0267698Y0075900D01*
X0265997Y0075900D01*
X0265997Y0072497D01*
X0267131Y0073631D02*
X0268265Y0072497D01*
X0269680Y0073064D02*
X0270247Y0072497D01*
X0271381Y0072497D01*
X0271949Y0073064D01*
X0271949Y0075333D01*
X0271381Y0075900D01*
X0270247Y0075900D01*
X0269680Y0075333D01*
X0269680Y0074765D01*
X0270247Y0074198D01*
X0271949Y0074198D01*
X0280997Y0078497D02*
X0280997Y0081900D01*
X0282698Y0081900D01*
X0283265Y0081333D01*
X0283265Y0079064D01*
X0282698Y0078497D01*
X0280997Y0078497D01*
X0284680Y0080198D02*
X0286949Y0080198D01*
X0286381Y0078497D02*
X0286381Y0081900D01*
X0284680Y0080198D01*
X0278065Y0089497D02*
X0276930Y0089497D01*
X0276363Y0090064D01*
X0276363Y0090631D01*
X0276930Y0091198D01*
X0278065Y0091198D01*
X0278632Y0090631D01*
X0278632Y0090064D01*
X0278065Y0089497D01*
X0278065Y0091198D02*
X0278632Y0091765D01*
X0278632Y0092333D01*
X0278065Y0092900D01*
X0276930Y0092900D01*
X0276363Y0092333D01*
X0276363Y0091765D01*
X0276930Y0091198D01*
X0274949Y0089497D02*
X0272680Y0089497D01*
X0273814Y0089497D02*
X0273814Y0092900D01*
X0272680Y0091765D01*
X0271265Y0091198D02*
X0270698Y0090631D01*
X0268997Y0090631D01*
X0270131Y0090631D02*
X0271265Y0089497D01*
X0271265Y0091198D02*
X0271265Y0092333D01*
X0270698Y0092900D01*
X0268997Y0092900D01*
X0268997Y0089497D01*
X0252065Y0101497D02*
X0252065Y0104900D01*
X0250363Y0103198D01*
X0252632Y0103198D01*
X0248949Y0101497D02*
X0246680Y0101497D01*
X0247814Y0101497D02*
X0247814Y0104900D01*
X0246680Y0103765D01*
X0245265Y0103198D02*
X0244698Y0102631D01*
X0242997Y0102631D01*
X0244131Y0102631D02*
X0245265Y0101497D01*
X0245265Y0103198D02*
X0245265Y0104333D01*
X0244698Y0104900D01*
X0242997Y0104900D01*
X0242997Y0101497D01*
X0242199Y0110997D02*
X0239931Y0110997D01*
X0241065Y0110997D02*
X0241065Y0114400D01*
X0239931Y0113265D01*
X0238516Y0113833D02*
X0237949Y0114400D01*
X0236815Y0114400D01*
X0236247Y0113833D01*
X0236247Y0111564D01*
X0236815Y0110997D01*
X0237949Y0110997D01*
X0238516Y0111564D01*
X0243614Y0111564D02*
X0245882Y0113833D01*
X0245882Y0111564D01*
X0245315Y0110997D01*
X0244181Y0110997D01*
X0243614Y0111564D01*
X0243614Y0113833D01*
X0244181Y0114400D01*
X0245315Y0114400D01*
X0245882Y0113833D01*
X0236618Y0126652D02*
X0234349Y0126652D01*
X0236618Y0128921D01*
X0236618Y0129488D01*
X0236051Y0130055D01*
X0234916Y0130055D01*
X0234349Y0129488D01*
X0231800Y0130055D02*
X0231800Y0126652D01*
X0230666Y0126652D02*
X0232935Y0126652D01*
X0230666Y0128921D02*
X0231800Y0130055D01*
X0229251Y0129488D02*
X0228684Y0130055D01*
X0227550Y0130055D01*
X0226983Y0129488D01*
X0226983Y0127219D01*
X0227550Y0126652D01*
X0228684Y0126652D01*
X0229251Y0127219D01*
X0246771Y0134386D02*
X0247338Y0133819D01*
X0248472Y0133819D01*
X0249039Y0134386D01*
X0250454Y0133819D02*
X0252723Y0133819D01*
X0251588Y0133819D02*
X0251588Y0137222D01*
X0250454Y0136087D01*
X0249039Y0136655D02*
X0248472Y0137222D01*
X0247338Y0137222D01*
X0246771Y0136655D01*
X0246771Y0134386D01*
X0254137Y0133819D02*
X0256406Y0133819D01*
X0255271Y0133819D02*
X0255271Y0137222D01*
X0254137Y0136087D01*
X0261947Y0141064D02*
X0261947Y0143333D01*
X0262515Y0143900D01*
X0263649Y0143900D01*
X0264216Y0143333D01*
X0265631Y0142765D02*
X0266765Y0143900D01*
X0266765Y0140497D01*
X0265631Y0140497D02*
X0267899Y0140497D01*
X0269314Y0141064D02*
X0269881Y0140497D01*
X0271015Y0140497D01*
X0271582Y0141064D01*
X0271582Y0141631D01*
X0271015Y0142198D01*
X0270448Y0142198D01*
X0271015Y0142198D02*
X0271582Y0142765D01*
X0271582Y0143333D01*
X0271015Y0143900D01*
X0269881Y0143900D01*
X0269314Y0143333D01*
X0264216Y0141064D02*
X0263649Y0140497D01*
X0262515Y0140497D01*
X0261947Y0141064D01*
X0277909Y0141199D02*
X0279043Y0141199D01*
X0278476Y0141199D02*
X0278476Y0137796D01*
X0277909Y0137796D02*
X0279043Y0137796D01*
X0279997Y0137000D02*
X0279997Y0133597D01*
X0282265Y0133597D01*
X0283680Y0133597D02*
X0285949Y0133597D01*
X0284814Y0133597D02*
X0284814Y0137000D01*
X0283680Y0135865D01*
X0284047Y0137796D02*
X0286316Y0140065D01*
X0286316Y0140632D01*
X0285749Y0141199D01*
X0284614Y0141199D01*
X0284047Y0140632D01*
X0282633Y0140632D02*
X0282066Y0141199D01*
X0280931Y0141199D01*
X0280364Y0140632D01*
X0280364Y0138363D01*
X0280931Y0137796D01*
X0282066Y0137796D01*
X0282633Y0138363D01*
X0284047Y0137796D02*
X0286316Y0137796D01*
X0291697Y0137233D02*
X0291697Y0134964D01*
X0292264Y0134397D01*
X0293398Y0134397D01*
X0293965Y0134964D01*
X0295380Y0134397D02*
X0297649Y0134397D01*
X0296514Y0134397D02*
X0296514Y0137800D01*
X0295380Y0136665D01*
X0293965Y0137233D02*
X0293398Y0137800D01*
X0292264Y0137800D01*
X0291697Y0137233D01*
X0299063Y0136098D02*
X0301332Y0136098D01*
X0300765Y0134397D02*
X0300765Y0137800D01*
X0299063Y0136098D01*
X0285015Y0110900D02*
X0285582Y0110333D01*
X0285582Y0109765D01*
X0285015Y0109198D01*
X0285582Y0108631D01*
X0285582Y0108064D01*
X0285015Y0107497D01*
X0283881Y0107497D01*
X0283314Y0108064D01*
X0281899Y0107497D02*
X0279631Y0107497D01*
X0280765Y0107497D02*
X0280765Y0110900D01*
X0279631Y0109765D01*
X0278216Y0109198D02*
X0277649Y0108631D01*
X0275947Y0108631D01*
X0275947Y0107497D02*
X0275947Y0110900D01*
X0277649Y0110900D01*
X0278216Y0110333D01*
X0278216Y0109198D01*
X0277082Y0108631D02*
X0278216Y0107497D01*
X0283314Y0110333D02*
X0283881Y0110900D01*
X0285015Y0110900D01*
X0285015Y0109198D02*
X0284448Y0109198D01*
X0300997Y0093900D02*
X0302698Y0093900D01*
X0303265Y0093333D01*
X0303265Y0092198D01*
X0302698Y0091631D01*
X0300997Y0091631D01*
X0302131Y0091631D02*
X0303265Y0090497D01*
X0304680Y0090497D02*
X0306949Y0090497D01*
X0305814Y0090497D02*
X0305814Y0093900D01*
X0304680Y0092765D01*
X0308363Y0093900D02*
X0310632Y0093900D01*
X0310632Y0093333D01*
X0308363Y0091064D01*
X0308363Y0090497D01*
X0300997Y0090497D02*
X0300997Y0093900D01*
X0305997Y0081900D02*
X0307698Y0081900D01*
X0308265Y0081333D01*
X0308265Y0079064D01*
X0307698Y0078497D01*
X0305997Y0078497D01*
X0305997Y0081900D01*
X0309680Y0081333D02*
X0310247Y0081900D01*
X0311381Y0081900D01*
X0311949Y0081333D01*
X0311949Y0080765D01*
X0311381Y0080198D01*
X0311949Y0079631D01*
X0311949Y0079064D01*
X0311381Y0078497D01*
X0310247Y0078497D01*
X0309680Y0079064D01*
X0310814Y0080198D02*
X0311381Y0080198D01*
X0292381Y0059400D02*
X0292949Y0058833D01*
X0292949Y0058265D01*
X0292381Y0057698D01*
X0292949Y0057131D01*
X0292949Y0056564D01*
X0292381Y0055997D01*
X0291247Y0055997D01*
X0290680Y0056564D01*
X0289265Y0055997D02*
X0286997Y0055997D01*
X0286997Y0059400D01*
X0290680Y0058833D02*
X0291247Y0059400D01*
X0292381Y0059400D01*
X0292381Y0057698D02*
X0291814Y0057698D01*
X0323497Y0044812D02*
X0324064Y0044245D01*
X0324631Y0044245D01*
X0325198Y0044812D01*
X0325198Y0047648D01*
X0324631Y0047648D02*
X0325765Y0047648D01*
X0327180Y0047648D02*
X0328881Y0047648D01*
X0329449Y0047081D01*
X0329449Y0045946D01*
X0328881Y0045379D01*
X0327180Y0045379D01*
X0327180Y0044245D02*
X0327180Y0047648D01*
X0330863Y0046513D02*
X0331997Y0047648D01*
X0331997Y0044245D01*
X0330863Y0044245D02*
X0333132Y0044245D01*
X0329697Y0057197D02*
X0329701Y0057528D01*
X0329713Y0057859D01*
X0329734Y0058190D01*
X0329762Y0058520D01*
X0329799Y0058850D01*
X0329843Y0059178D01*
X0329896Y0059505D01*
X0329956Y0059831D01*
X0330025Y0060155D01*
X0330102Y0060477D01*
X0330186Y0060798D01*
X0330278Y0061116D01*
X0330378Y0061432D01*
X0330486Y0061745D01*
X0330602Y0062056D01*
X0330725Y0062363D01*
X0330855Y0062668D01*
X0330993Y0062969D01*
X0331138Y0063267D01*
X0331291Y0063561D01*
X0331451Y0063851D01*
X0331618Y0064137D01*
X0331791Y0064419D01*
X0331972Y0064697D01*
X0332160Y0064970D01*
X0332354Y0065239D01*
X0332554Y0065503D01*
X0332761Y0065761D01*
X0332975Y0066015D01*
X0333194Y0066263D01*
X0333420Y0066506D01*
X0333651Y0066743D01*
X0333888Y0066974D01*
X0334131Y0067200D01*
X0334379Y0067419D01*
X0334633Y0067633D01*
X0334891Y0067840D01*
X0335155Y0068040D01*
X0335424Y0068234D01*
X0335697Y0068422D01*
X0335975Y0068603D01*
X0336257Y0068776D01*
X0336543Y0068943D01*
X0336833Y0069103D01*
X0337127Y0069256D01*
X0337425Y0069401D01*
X0337726Y0069539D01*
X0338031Y0069669D01*
X0338338Y0069792D01*
X0338649Y0069908D01*
X0338962Y0070016D01*
X0339278Y0070116D01*
X0339596Y0070208D01*
X0339917Y0070292D01*
X0340239Y0070369D01*
X0340563Y0070438D01*
X0340889Y0070498D01*
X0341216Y0070551D01*
X0341544Y0070595D01*
X0341874Y0070632D01*
X0342204Y0070660D01*
X0342535Y0070681D01*
X0342866Y0070693D01*
X0343197Y0070697D01*
X0343528Y0070693D01*
X0343859Y0070681D01*
X0344190Y0070660D01*
X0344520Y0070632D01*
X0344850Y0070595D01*
X0345178Y0070551D01*
X0345505Y0070498D01*
X0345831Y0070438D01*
X0346155Y0070369D01*
X0346477Y0070292D01*
X0346798Y0070208D01*
X0347116Y0070116D01*
X0347432Y0070016D01*
X0347745Y0069908D01*
X0348056Y0069792D01*
X0348363Y0069669D01*
X0348668Y0069539D01*
X0348969Y0069401D01*
X0349267Y0069256D01*
X0349561Y0069103D01*
X0349851Y0068943D01*
X0350137Y0068776D01*
X0350419Y0068603D01*
X0350697Y0068422D01*
X0350970Y0068234D01*
X0351239Y0068040D01*
X0351503Y0067840D01*
X0351761Y0067633D01*
X0352015Y0067419D01*
X0352263Y0067200D01*
X0352506Y0066974D01*
X0352743Y0066743D01*
X0352974Y0066506D01*
X0353200Y0066263D01*
X0353419Y0066015D01*
X0353633Y0065761D01*
X0353840Y0065503D01*
X0354040Y0065239D01*
X0354234Y0064970D01*
X0354422Y0064697D01*
X0354603Y0064419D01*
X0354776Y0064137D01*
X0354943Y0063851D01*
X0355103Y0063561D01*
X0355256Y0063267D01*
X0355401Y0062969D01*
X0355539Y0062668D01*
X0355669Y0062363D01*
X0355792Y0062056D01*
X0355908Y0061745D01*
X0356016Y0061432D01*
X0356116Y0061116D01*
X0356208Y0060798D01*
X0356292Y0060477D01*
X0356369Y0060155D01*
X0356438Y0059831D01*
X0356498Y0059505D01*
X0356551Y0059178D01*
X0356595Y0058850D01*
X0356632Y0058520D01*
X0356660Y0058190D01*
X0356681Y0057859D01*
X0356693Y0057528D01*
X0356697Y0057197D01*
X0356693Y0056866D01*
X0356681Y0056535D01*
X0356660Y0056204D01*
X0356632Y0055874D01*
X0356595Y0055544D01*
X0356551Y0055216D01*
X0356498Y0054889D01*
X0356438Y0054563D01*
X0356369Y0054239D01*
X0356292Y0053917D01*
X0356208Y0053596D01*
X0356116Y0053278D01*
X0356016Y0052962D01*
X0355908Y0052649D01*
X0355792Y0052338D01*
X0355669Y0052031D01*
X0355539Y0051726D01*
X0355401Y0051425D01*
X0355256Y0051127D01*
X0355103Y0050833D01*
X0354943Y0050543D01*
X0354776Y0050257D01*
X0354603Y0049975D01*
X0354422Y0049697D01*
X0354234Y0049424D01*
X0354040Y0049155D01*
X0353840Y0048891D01*
X0353633Y0048633D01*
X0353419Y0048379D01*
X0353200Y0048131D01*
X0352974Y0047888D01*
X0352743Y0047651D01*
X0352506Y0047420D01*
X0352263Y0047194D01*
X0352015Y0046975D01*
X0351761Y0046761D01*
X0351503Y0046554D01*
X0351239Y0046354D01*
X0350970Y0046160D01*
X0350697Y0045972D01*
X0350419Y0045791D01*
X0350137Y0045618D01*
X0349851Y0045451D01*
X0349561Y0045291D01*
X0349267Y0045138D01*
X0348969Y0044993D01*
X0348668Y0044855D01*
X0348363Y0044725D01*
X0348056Y0044602D01*
X0347745Y0044486D01*
X0347432Y0044378D01*
X0347116Y0044278D01*
X0346798Y0044186D01*
X0346477Y0044102D01*
X0346155Y0044025D01*
X0345831Y0043956D01*
X0345505Y0043896D01*
X0345178Y0043843D01*
X0344850Y0043799D01*
X0344520Y0043762D01*
X0344190Y0043734D01*
X0343859Y0043713D01*
X0343528Y0043701D01*
X0343197Y0043697D01*
X0342866Y0043701D01*
X0342535Y0043713D01*
X0342204Y0043734D01*
X0341874Y0043762D01*
X0341544Y0043799D01*
X0341216Y0043843D01*
X0340889Y0043896D01*
X0340563Y0043956D01*
X0340239Y0044025D01*
X0339917Y0044102D01*
X0339596Y0044186D01*
X0339278Y0044278D01*
X0338962Y0044378D01*
X0338649Y0044486D01*
X0338338Y0044602D01*
X0338031Y0044725D01*
X0337726Y0044855D01*
X0337425Y0044993D01*
X0337127Y0045138D01*
X0336833Y0045291D01*
X0336543Y0045451D01*
X0336257Y0045618D01*
X0335975Y0045791D01*
X0335697Y0045972D01*
X0335424Y0046160D01*
X0335155Y0046354D01*
X0334891Y0046554D01*
X0334633Y0046761D01*
X0334379Y0046975D01*
X0334131Y0047194D01*
X0333888Y0047420D01*
X0333651Y0047651D01*
X0333420Y0047888D01*
X0333194Y0048131D01*
X0332975Y0048379D01*
X0332761Y0048633D01*
X0332554Y0048891D01*
X0332354Y0049155D01*
X0332160Y0049424D01*
X0331972Y0049697D01*
X0331791Y0049975D01*
X0331618Y0050257D01*
X0331451Y0050543D01*
X0331291Y0050833D01*
X0331138Y0051127D01*
X0330993Y0051425D01*
X0330855Y0051726D01*
X0330725Y0052031D01*
X0330602Y0052338D01*
X0330486Y0052649D01*
X0330378Y0052962D01*
X0330278Y0053278D01*
X0330186Y0053596D01*
X0330102Y0053917D01*
X0330025Y0054239D01*
X0329956Y0054563D01*
X0329896Y0054889D01*
X0329843Y0055216D01*
X0329799Y0055544D01*
X0329762Y0055874D01*
X0329734Y0056204D01*
X0329713Y0056535D01*
X0329701Y0056866D01*
X0329697Y0057197D01*
X0340361Y0088297D02*
X0340928Y0088297D01*
X0341495Y0088864D01*
X0341495Y0089998D01*
X0342063Y0090565D01*
X0342630Y0090565D01*
X0343197Y0089998D01*
X0343197Y0088864D01*
X0342630Y0088297D01*
X0340361Y0088297D02*
X0339794Y0088864D01*
X0339794Y0089998D01*
X0340361Y0090565D01*
X0339794Y0091980D02*
X0342063Y0091980D01*
X0343197Y0093114D01*
X0342063Y0094249D01*
X0339794Y0094249D01*
X0340361Y0095663D02*
X0339794Y0096230D01*
X0339794Y0097365D01*
X0340361Y0097932D01*
X0340928Y0097932D01*
X0343197Y0095663D01*
X0343197Y0097932D01*
X0344997Y0095497D02*
X0347497Y0097997D01*
X0344997Y0100497D01*
X0344997Y0105497D01*
X0347497Y0107997D01*
X0344997Y0110497D01*
X0344997Y0115497D01*
X0347497Y0117997D01*
X0344997Y0120497D01*
X0344997Y0125497D01*
X0347497Y0127997D01*
X0344997Y0130497D01*
X0344997Y0135497D01*
X0347497Y0137997D01*
X0344997Y0140497D01*
X0344997Y0145497D01*
X0347497Y0147997D01*
X0352497Y0147997D01*
X0354997Y0145497D01*
X0354997Y0140497D01*
X0352497Y0137997D01*
X0354997Y0135497D01*
X0354997Y0130497D01*
X0352497Y0127997D01*
X0354997Y0125497D01*
X0354997Y0120497D01*
X0352497Y0117997D01*
X0354997Y0115497D01*
X0354997Y0110497D01*
X0352497Y0107997D01*
X0354997Y0105497D01*
X0354997Y0100497D01*
X0352497Y0097997D01*
X0354997Y0095497D01*
X0354997Y0090497D01*
X0352497Y0087997D01*
X0347497Y0087997D01*
X0344997Y0090497D01*
X0344997Y0095497D01*
X0337915Y0115397D02*
X0336781Y0115397D01*
X0336214Y0115964D01*
X0336781Y0117098D02*
X0338482Y0117098D01*
X0338482Y0115964D02*
X0338482Y0118233D01*
X0337915Y0118800D01*
X0336781Y0118800D01*
X0336214Y0118233D01*
X0336214Y0117665D01*
X0336781Y0117098D01*
X0337915Y0115397D02*
X0338482Y0115964D01*
X0334799Y0115397D02*
X0332531Y0115397D01*
X0333665Y0115397D02*
X0333665Y0118800D01*
X0332531Y0117665D01*
X0331116Y0117098D02*
X0330549Y0116531D01*
X0328847Y0116531D01*
X0328847Y0115397D02*
X0328847Y0118800D01*
X0330549Y0118800D01*
X0331116Y0118233D01*
X0331116Y0117098D01*
X0329982Y0116531D02*
X0331116Y0115397D01*
X0332216Y0134497D02*
X0331082Y0135631D01*
X0331649Y0135631D02*
X0329947Y0135631D01*
X0329947Y0134497D02*
X0329947Y0137900D01*
X0331649Y0137900D01*
X0332216Y0137333D01*
X0332216Y0136198D01*
X0331649Y0135631D01*
X0333631Y0134497D02*
X0335899Y0136765D01*
X0335899Y0137333D01*
X0335332Y0137900D01*
X0334198Y0137900D01*
X0333631Y0137333D01*
X0333631Y0134497D02*
X0335899Y0134497D01*
X0337314Y0135064D02*
X0339582Y0137333D01*
X0339582Y0135064D01*
X0339015Y0134497D01*
X0337881Y0134497D01*
X0337314Y0135064D01*
X0337314Y0137333D01*
X0337881Y0137900D01*
X0339015Y0137900D01*
X0339582Y0137333D01*
X0344197Y0185697D02*
X0344197Y0189100D01*
X0345331Y0187965D01*
X0346465Y0189100D01*
X0346465Y0185697D01*
X0347880Y0185697D02*
X0349014Y0185697D01*
X0348447Y0185697D02*
X0348447Y0189100D01*
X0347880Y0189100D02*
X0349014Y0189100D01*
X0350335Y0188533D02*
X0350335Y0186264D01*
X0350903Y0185697D01*
X0352037Y0185697D01*
X0352604Y0186264D01*
X0354019Y0187398D02*
X0356287Y0187398D01*
X0355720Y0185697D02*
X0355720Y0189100D01*
X0354019Y0187398D01*
X0352604Y0188533D02*
X0352037Y0189100D01*
X0350903Y0189100D01*
X0350335Y0188533D01*
X0357697Y0191297D02*
X0357697Y0196297D01*
X0357697Y0198497D02*
X0357697Y0203497D01*
X0341697Y0203497D01*
X0341697Y0191297D01*
X0357697Y0191297D01*
X0337065Y0205064D02*
X0336498Y0204497D01*
X0335363Y0204497D01*
X0334796Y0205064D01*
X0337065Y0207333D01*
X0337065Y0205064D01*
X0337065Y0207333D02*
X0336498Y0207900D01*
X0335363Y0207900D01*
X0334796Y0207333D01*
X0334796Y0205064D01*
X0333382Y0204497D02*
X0331113Y0204497D01*
X0332247Y0204497D02*
X0332247Y0207900D01*
X0331113Y0206765D01*
X0329699Y0207900D02*
X0328564Y0207900D01*
X0329131Y0207900D02*
X0329131Y0205064D01*
X0328564Y0204497D01*
X0327997Y0204497D01*
X0327430Y0205064D01*
X0326015Y0205064D02*
X0325448Y0204497D01*
X0324314Y0204497D01*
X0323747Y0205064D01*
X0324314Y0206198D02*
X0325448Y0206198D01*
X0326015Y0205631D01*
X0326015Y0205064D01*
X0324314Y0206198D02*
X0323747Y0206765D01*
X0323747Y0207333D01*
X0324314Y0207900D01*
X0325448Y0207900D01*
X0326015Y0207333D01*
X0346997Y0215064D02*
X0347564Y0214497D01*
X0348698Y0214497D01*
X0349265Y0215064D01*
X0350680Y0214497D02*
X0352949Y0216765D01*
X0352949Y0217333D01*
X0352381Y0217900D01*
X0351247Y0217900D01*
X0350680Y0217333D01*
X0349265Y0217333D02*
X0348698Y0217900D01*
X0347564Y0217900D01*
X0346997Y0217333D01*
X0346997Y0215064D01*
X0350680Y0214497D02*
X0352949Y0214497D01*
X0354363Y0214497D02*
X0356632Y0216765D01*
X0356632Y0217333D01*
X0356065Y0217900D01*
X0354930Y0217900D01*
X0354363Y0217333D01*
X0354363Y0214497D02*
X0356632Y0214497D01*
X0352197Y0257397D02*
X0347197Y0257397D01*
X0344697Y0259897D01*
X0344697Y0264897D01*
X0347197Y0267397D01*
X0344697Y0269897D01*
X0344697Y0274897D01*
X0347197Y0277397D01*
X0344697Y0279897D01*
X0344697Y0284897D01*
X0347197Y0287397D01*
X0344697Y0289897D01*
X0344697Y0294897D01*
X0347197Y0297397D01*
X0344697Y0299897D01*
X0344697Y0304897D01*
X0347197Y0307397D01*
X0344697Y0309897D01*
X0344697Y0314897D01*
X0347197Y0317397D01*
X0352197Y0317397D01*
X0354697Y0314897D01*
X0354697Y0309897D01*
X0352197Y0307397D01*
X0354697Y0304897D01*
X0354697Y0299897D01*
X0352197Y0297397D01*
X0354697Y0294897D01*
X0354697Y0289897D01*
X0352197Y0287397D01*
X0354697Y0284897D01*
X0354697Y0279897D01*
X0352197Y0277397D01*
X0354697Y0274897D01*
X0354697Y0269897D01*
X0352197Y0267397D01*
X0354697Y0264897D01*
X0354697Y0259897D01*
X0352197Y0257397D01*
X0339315Y0287497D02*
X0339315Y0290900D01*
X0337614Y0289198D01*
X0339882Y0289198D01*
X0336199Y0288631D02*
X0335065Y0287497D01*
X0333931Y0288631D01*
X0333931Y0290900D01*
X0332516Y0290333D02*
X0331949Y0290900D01*
X0330815Y0290900D01*
X0330247Y0290333D01*
X0330247Y0289765D01*
X0330815Y0289198D01*
X0331949Y0289198D01*
X0332516Y0288631D01*
X0332516Y0288064D01*
X0331949Y0287497D01*
X0330815Y0287497D01*
X0330247Y0288064D01*
X0336199Y0288631D02*
X0336199Y0290900D01*
X0294919Y0335660D02*
X0292651Y0335660D01*
X0293785Y0335660D02*
X0293785Y0339063D01*
X0292651Y0337928D01*
X0291236Y0336794D02*
X0291236Y0339063D01*
X0288968Y0339063D02*
X0288968Y0336794D01*
X0290102Y0335660D01*
X0291236Y0336794D01*
X0287553Y0336794D02*
X0287553Y0336227D01*
X0286986Y0335660D01*
X0285852Y0335660D01*
X0285284Y0336227D01*
X0285852Y0337361D02*
X0285284Y0337928D01*
X0285284Y0338496D01*
X0285852Y0339063D01*
X0286986Y0339063D01*
X0287553Y0338496D01*
X0286986Y0337361D02*
X0287553Y0336794D01*
X0286986Y0337361D02*
X0285852Y0337361D01*
X0283534Y0342860D02*
X0281034Y0345360D01*
X0278534Y0342860D01*
X0273534Y0342860D01*
X0271034Y0345360D01*
X0268534Y0342860D01*
X0263534Y0342860D01*
X0261034Y0345360D01*
X0258534Y0342860D01*
X0253534Y0342860D01*
X0251034Y0345360D01*
X0251034Y0350360D01*
X0253534Y0352860D01*
X0258534Y0352860D01*
X0261034Y0350360D01*
X0263534Y0352860D01*
X0268534Y0352860D01*
X0271034Y0350360D01*
X0273534Y0352860D01*
X0278534Y0352860D01*
X0281034Y0350360D01*
X0283534Y0352860D01*
X0288534Y0352860D01*
X0291034Y0350360D01*
X0293534Y0352860D01*
X0298534Y0352860D01*
X0301034Y0350360D01*
X0303534Y0352860D01*
X0308534Y0352860D01*
X0311034Y0350360D01*
X0311034Y0345360D01*
X0308534Y0342860D01*
X0303534Y0342860D01*
X0301034Y0345360D01*
X0298534Y0342860D01*
X0293534Y0342860D01*
X0291034Y0345360D01*
X0288534Y0342860D01*
X0283534Y0342860D01*
X0260549Y0334700D02*
X0260549Y0334133D01*
X0258280Y0331864D01*
X0258280Y0331297D01*
X0256865Y0331864D02*
X0256298Y0331297D01*
X0255164Y0331297D01*
X0254597Y0331864D01*
X0254597Y0334133D01*
X0255164Y0334700D01*
X0256298Y0334700D01*
X0256865Y0334133D01*
X0258280Y0334700D02*
X0260549Y0334700D01*
X0259649Y0328800D02*
X0258514Y0328233D01*
X0257380Y0327098D01*
X0259081Y0327098D01*
X0259649Y0326531D01*
X0259649Y0325964D01*
X0259081Y0325397D01*
X0257947Y0325397D01*
X0257380Y0325964D01*
X0257380Y0327098D01*
X0255965Y0325964D02*
X0255398Y0325397D01*
X0254264Y0325397D01*
X0253697Y0325964D01*
X0253697Y0328233D01*
X0254264Y0328800D01*
X0255398Y0328800D01*
X0255965Y0328233D01*
X0220687Y0353897D02*
X0218419Y0353897D01*
X0219553Y0353897D02*
X0219553Y0357300D01*
X0218419Y0356165D01*
X0217004Y0356733D02*
X0216437Y0357300D01*
X0215303Y0357300D01*
X0214735Y0356733D01*
X0214735Y0354464D01*
X0215303Y0353897D01*
X0216437Y0353897D01*
X0217004Y0354464D01*
X0213414Y0353897D02*
X0212280Y0353897D01*
X0212847Y0353897D02*
X0212847Y0357300D01*
X0212280Y0357300D02*
X0213414Y0357300D01*
X0210865Y0357300D02*
X0210865Y0353897D01*
X0208597Y0353897D02*
X0208597Y0357300D01*
X0209731Y0356165D01*
X0210865Y0357300D01*
X0204297Y0356297D02*
X0199297Y0356297D01*
X0197097Y0356297D02*
X0192097Y0356297D01*
X0192097Y0340297D01*
X0204297Y0340297D01*
X0204297Y0356297D01*
X0205314Y0334900D02*
X0204747Y0334333D01*
X0204747Y0333765D01*
X0205314Y0333198D01*
X0206448Y0333198D01*
X0207015Y0332631D01*
X0207015Y0332064D01*
X0206448Y0331497D01*
X0205314Y0331497D01*
X0204747Y0332064D01*
X0205314Y0334900D02*
X0206448Y0334900D01*
X0207015Y0334333D01*
X0209564Y0334900D02*
X0210699Y0334900D01*
X0210131Y0334900D02*
X0210131Y0332064D01*
X0209564Y0331497D01*
X0208997Y0331497D01*
X0208430Y0332064D01*
X0212113Y0332064D02*
X0212680Y0331497D01*
X0213815Y0331497D01*
X0214382Y0332064D01*
X0214382Y0332631D01*
X0213815Y0333198D01*
X0213247Y0333198D01*
X0213815Y0333198D02*
X0214382Y0333765D01*
X0214382Y0334333D01*
X0213815Y0334900D01*
X0212680Y0334900D01*
X0212113Y0334333D01*
X0179949Y0341064D02*
X0179381Y0340497D01*
X0178247Y0340497D01*
X0177680Y0341064D01*
X0177680Y0341631D01*
X0178247Y0342198D01*
X0179381Y0342198D01*
X0179949Y0341631D01*
X0179949Y0341064D01*
X0179381Y0342198D02*
X0179949Y0342765D01*
X0179949Y0343333D01*
X0179381Y0343900D01*
X0178247Y0343900D01*
X0177680Y0343333D01*
X0177680Y0342765D01*
X0178247Y0342198D01*
X0176265Y0341064D02*
X0175698Y0340497D01*
X0174564Y0340497D01*
X0173997Y0341064D01*
X0173997Y0343333D01*
X0174564Y0343900D01*
X0175698Y0343900D01*
X0176265Y0343333D01*
X0133597Y0343897D02*
X0131097Y0341397D01*
X0126097Y0341397D01*
X0123597Y0343897D01*
X0121097Y0341397D01*
X0116097Y0341397D01*
X0113597Y0343897D01*
X0111097Y0341397D01*
X0106097Y0341397D01*
X0103597Y0343897D01*
X0101097Y0341397D01*
X0096097Y0341397D01*
X0093597Y0343897D01*
X0091097Y0341397D01*
X0086097Y0341397D01*
X0083597Y0343897D01*
X0081097Y0341397D01*
X0076097Y0341397D01*
X0073597Y0343897D01*
X0073597Y0348897D01*
X0076097Y0351397D01*
X0081097Y0351397D01*
X0083597Y0348897D01*
X0086097Y0351397D01*
X0091097Y0351397D01*
X0093597Y0348897D01*
X0096097Y0351397D01*
X0101097Y0351397D01*
X0103597Y0348897D01*
X0106097Y0351397D01*
X0111097Y0351397D01*
X0113597Y0348897D01*
X0116097Y0351397D01*
X0121097Y0351397D01*
X0123597Y0348897D01*
X0126097Y0351397D01*
X0131097Y0351397D01*
X0133597Y0348897D01*
X0133597Y0343897D01*
X0111532Y0336033D02*
X0111532Y0335465D01*
X0110965Y0334898D01*
X0111532Y0334331D01*
X0111532Y0333764D01*
X0110965Y0333197D01*
X0109830Y0333197D01*
X0109263Y0333764D01*
X0107849Y0334331D02*
X0107849Y0336600D01*
X0109263Y0336033D02*
X0109830Y0336600D01*
X0110965Y0336600D01*
X0111532Y0336033D01*
X0110965Y0334898D02*
X0110397Y0334898D01*
X0107849Y0334331D02*
X0106714Y0333197D01*
X0105580Y0334331D01*
X0105580Y0336600D01*
X0104165Y0336033D02*
X0103598Y0336600D01*
X0102464Y0336600D01*
X0101897Y0336033D01*
X0101897Y0335465D01*
X0102464Y0334898D01*
X0103598Y0334898D01*
X0104165Y0334331D01*
X0104165Y0333764D01*
X0103598Y0333197D01*
X0102464Y0333197D01*
X0101897Y0333764D01*
X0090582Y0330198D02*
X0088314Y0330198D01*
X0090015Y0331900D01*
X0090015Y0328497D01*
X0086899Y0328497D02*
X0084631Y0328497D01*
X0086899Y0330765D01*
X0086899Y0331333D01*
X0086332Y0331900D01*
X0085198Y0331900D01*
X0084631Y0331333D01*
X0083216Y0331333D02*
X0082649Y0331900D01*
X0081515Y0331900D01*
X0080947Y0331333D01*
X0080947Y0329064D01*
X0081515Y0328497D01*
X0082649Y0328497D01*
X0083216Y0329064D01*
X0039697Y0330197D02*
X0039701Y0330528D01*
X0039713Y0330859D01*
X0039734Y0331190D01*
X0039762Y0331520D01*
X0039799Y0331850D01*
X0039843Y0332178D01*
X0039896Y0332505D01*
X0039956Y0332831D01*
X0040025Y0333155D01*
X0040102Y0333477D01*
X0040186Y0333798D01*
X0040278Y0334116D01*
X0040378Y0334432D01*
X0040486Y0334745D01*
X0040602Y0335056D01*
X0040725Y0335363D01*
X0040855Y0335668D01*
X0040993Y0335969D01*
X0041138Y0336267D01*
X0041291Y0336561D01*
X0041451Y0336851D01*
X0041618Y0337137D01*
X0041791Y0337419D01*
X0041972Y0337697D01*
X0042160Y0337970D01*
X0042354Y0338239D01*
X0042554Y0338503D01*
X0042761Y0338761D01*
X0042975Y0339015D01*
X0043194Y0339263D01*
X0043420Y0339506D01*
X0043651Y0339743D01*
X0043888Y0339974D01*
X0044131Y0340200D01*
X0044379Y0340419D01*
X0044633Y0340633D01*
X0044891Y0340840D01*
X0045155Y0341040D01*
X0045424Y0341234D01*
X0045697Y0341422D01*
X0045975Y0341603D01*
X0046257Y0341776D01*
X0046543Y0341943D01*
X0046833Y0342103D01*
X0047127Y0342256D01*
X0047425Y0342401D01*
X0047726Y0342539D01*
X0048031Y0342669D01*
X0048338Y0342792D01*
X0048649Y0342908D01*
X0048962Y0343016D01*
X0049278Y0343116D01*
X0049596Y0343208D01*
X0049917Y0343292D01*
X0050239Y0343369D01*
X0050563Y0343438D01*
X0050889Y0343498D01*
X0051216Y0343551D01*
X0051544Y0343595D01*
X0051874Y0343632D01*
X0052204Y0343660D01*
X0052535Y0343681D01*
X0052866Y0343693D01*
X0053197Y0343697D01*
X0053528Y0343693D01*
X0053859Y0343681D01*
X0054190Y0343660D01*
X0054520Y0343632D01*
X0054850Y0343595D01*
X0055178Y0343551D01*
X0055505Y0343498D01*
X0055831Y0343438D01*
X0056155Y0343369D01*
X0056477Y0343292D01*
X0056798Y0343208D01*
X0057116Y0343116D01*
X0057432Y0343016D01*
X0057745Y0342908D01*
X0058056Y0342792D01*
X0058363Y0342669D01*
X0058668Y0342539D01*
X0058969Y0342401D01*
X0059267Y0342256D01*
X0059561Y0342103D01*
X0059851Y0341943D01*
X0060137Y0341776D01*
X0060419Y0341603D01*
X0060697Y0341422D01*
X0060970Y0341234D01*
X0061239Y0341040D01*
X0061503Y0340840D01*
X0061761Y0340633D01*
X0062015Y0340419D01*
X0062263Y0340200D01*
X0062506Y0339974D01*
X0062743Y0339743D01*
X0062974Y0339506D01*
X0063200Y0339263D01*
X0063419Y0339015D01*
X0063633Y0338761D01*
X0063840Y0338503D01*
X0064040Y0338239D01*
X0064234Y0337970D01*
X0064422Y0337697D01*
X0064603Y0337419D01*
X0064776Y0337137D01*
X0064943Y0336851D01*
X0065103Y0336561D01*
X0065256Y0336267D01*
X0065401Y0335969D01*
X0065539Y0335668D01*
X0065669Y0335363D01*
X0065792Y0335056D01*
X0065908Y0334745D01*
X0066016Y0334432D01*
X0066116Y0334116D01*
X0066208Y0333798D01*
X0066292Y0333477D01*
X0066369Y0333155D01*
X0066438Y0332831D01*
X0066498Y0332505D01*
X0066551Y0332178D01*
X0066595Y0331850D01*
X0066632Y0331520D01*
X0066660Y0331190D01*
X0066681Y0330859D01*
X0066693Y0330528D01*
X0066697Y0330197D01*
X0066693Y0329866D01*
X0066681Y0329535D01*
X0066660Y0329204D01*
X0066632Y0328874D01*
X0066595Y0328544D01*
X0066551Y0328216D01*
X0066498Y0327889D01*
X0066438Y0327563D01*
X0066369Y0327239D01*
X0066292Y0326917D01*
X0066208Y0326596D01*
X0066116Y0326278D01*
X0066016Y0325962D01*
X0065908Y0325649D01*
X0065792Y0325338D01*
X0065669Y0325031D01*
X0065539Y0324726D01*
X0065401Y0324425D01*
X0065256Y0324127D01*
X0065103Y0323833D01*
X0064943Y0323543D01*
X0064776Y0323257D01*
X0064603Y0322975D01*
X0064422Y0322697D01*
X0064234Y0322424D01*
X0064040Y0322155D01*
X0063840Y0321891D01*
X0063633Y0321633D01*
X0063419Y0321379D01*
X0063200Y0321131D01*
X0062974Y0320888D01*
X0062743Y0320651D01*
X0062506Y0320420D01*
X0062263Y0320194D01*
X0062015Y0319975D01*
X0061761Y0319761D01*
X0061503Y0319554D01*
X0061239Y0319354D01*
X0060970Y0319160D01*
X0060697Y0318972D01*
X0060419Y0318791D01*
X0060137Y0318618D01*
X0059851Y0318451D01*
X0059561Y0318291D01*
X0059267Y0318138D01*
X0058969Y0317993D01*
X0058668Y0317855D01*
X0058363Y0317725D01*
X0058056Y0317602D01*
X0057745Y0317486D01*
X0057432Y0317378D01*
X0057116Y0317278D01*
X0056798Y0317186D01*
X0056477Y0317102D01*
X0056155Y0317025D01*
X0055831Y0316956D01*
X0055505Y0316896D01*
X0055178Y0316843D01*
X0054850Y0316799D01*
X0054520Y0316762D01*
X0054190Y0316734D01*
X0053859Y0316713D01*
X0053528Y0316701D01*
X0053197Y0316697D01*
X0052866Y0316701D01*
X0052535Y0316713D01*
X0052204Y0316734D01*
X0051874Y0316762D01*
X0051544Y0316799D01*
X0051216Y0316843D01*
X0050889Y0316896D01*
X0050563Y0316956D01*
X0050239Y0317025D01*
X0049917Y0317102D01*
X0049596Y0317186D01*
X0049278Y0317278D01*
X0048962Y0317378D01*
X0048649Y0317486D01*
X0048338Y0317602D01*
X0048031Y0317725D01*
X0047726Y0317855D01*
X0047425Y0317993D01*
X0047127Y0318138D01*
X0046833Y0318291D01*
X0046543Y0318451D01*
X0046257Y0318618D01*
X0045975Y0318791D01*
X0045697Y0318972D01*
X0045424Y0319160D01*
X0045155Y0319354D01*
X0044891Y0319554D01*
X0044633Y0319761D01*
X0044379Y0319975D01*
X0044131Y0320194D01*
X0043888Y0320420D01*
X0043651Y0320651D01*
X0043420Y0320888D01*
X0043194Y0321131D01*
X0042975Y0321379D01*
X0042761Y0321633D01*
X0042554Y0321891D01*
X0042354Y0322155D01*
X0042160Y0322424D01*
X0041972Y0322697D01*
X0041791Y0322975D01*
X0041618Y0323257D01*
X0041451Y0323543D01*
X0041291Y0323833D01*
X0041138Y0324127D01*
X0040993Y0324425D01*
X0040855Y0324726D01*
X0040725Y0325031D01*
X0040602Y0325338D01*
X0040486Y0325649D01*
X0040378Y0325962D01*
X0040278Y0326278D01*
X0040186Y0326596D01*
X0040102Y0326917D01*
X0040025Y0327239D01*
X0039956Y0327563D01*
X0039896Y0327889D01*
X0039843Y0328216D01*
X0039799Y0328544D01*
X0039762Y0328874D01*
X0039734Y0329204D01*
X0039713Y0329535D01*
X0039701Y0329866D01*
X0039697Y0330197D01*
X0040064Y0301900D02*
X0039497Y0301333D01*
X0039497Y0299064D01*
X0041765Y0301333D01*
X0041765Y0299064D01*
X0041198Y0298497D01*
X0040064Y0298497D01*
X0039497Y0299064D01*
X0040064Y0301900D02*
X0041198Y0301900D01*
X0041765Y0301333D01*
X0043180Y0301900D02*
X0045449Y0301900D01*
X0045449Y0301333D01*
X0043180Y0299064D01*
X0043180Y0298497D01*
X0046863Y0299064D02*
X0046863Y0301333D01*
X0047430Y0301900D01*
X0048565Y0301900D01*
X0049132Y0301333D01*
X0046863Y0299064D01*
X0047430Y0298497D01*
X0048565Y0298497D01*
X0049132Y0299064D01*
X0049132Y0301333D01*
X0050546Y0301333D02*
X0051113Y0301900D01*
X0052248Y0301900D01*
X0052815Y0301333D01*
X0052815Y0300765D01*
X0050546Y0298497D01*
X0052815Y0298497D01*
X0054229Y0298497D02*
X0056498Y0300765D01*
X0056498Y0301333D01*
X0055931Y0301900D01*
X0054797Y0301900D01*
X0054229Y0301333D01*
X0054229Y0298497D02*
X0056498Y0298497D01*
X0057913Y0299064D02*
X0060181Y0301333D01*
X0060181Y0299064D01*
X0059614Y0298497D01*
X0058480Y0298497D01*
X0057913Y0299064D01*
X0057913Y0301333D01*
X0058480Y0301900D01*
X0059614Y0301900D01*
X0060181Y0301333D01*
X0061596Y0300765D02*
X0062730Y0301900D01*
X0062730Y0298497D01*
X0061596Y0298497D02*
X0063864Y0298497D01*
X0065279Y0298497D02*
X0065279Y0299064D01*
X0067547Y0301333D01*
X0067547Y0301900D01*
X0065279Y0301900D01*
X0060132Y0275900D02*
X0058997Y0274765D01*
X0057863Y0275900D01*
X0057863Y0272497D01*
X0056449Y0272497D02*
X0055314Y0273631D01*
X0055881Y0273631D02*
X0054180Y0273631D01*
X0054180Y0272497D02*
X0054180Y0275900D01*
X0055881Y0275900D01*
X0056449Y0275333D01*
X0056449Y0274198D01*
X0055881Y0273631D01*
X0052765Y0274198D02*
X0050497Y0274198D01*
X0050497Y0274765D02*
X0051631Y0275900D01*
X0052765Y0274765D01*
X0052765Y0272497D01*
X0050497Y0272497D02*
X0050497Y0274765D01*
X0051064Y0269900D02*
X0050497Y0269333D01*
X0050497Y0268765D01*
X0051064Y0268198D01*
X0052198Y0268198D01*
X0052765Y0267631D01*
X0052765Y0267064D01*
X0052198Y0266497D01*
X0051064Y0266497D01*
X0050497Y0267064D01*
X0051064Y0269900D02*
X0052198Y0269900D01*
X0052765Y0269333D01*
X0054180Y0269900D02*
X0054180Y0266497D01*
X0055314Y0267631D01*
X0056449Y0266497D01*
X0056449Y0269900D01*
X0057863Y0269900D02*
X0059565Y0269900D01*
X0060132Y0269333D01*
X0060132Y0267064D01*
X0059565Y0266497D01*
X0057863Y0266497D01*
X0057863Y0269900D01*
X0060132Y0272497D02*
X0060132Y0275900D01*
X0198997Y0252333D02*
X0198997Y0250064D01*
X0199564Y0249497D01*
X0200698Y0249497D01*
X0201265Y0250064D01*
X0202680Y0249497D02*
X0204949Y0249497D01*
X0203814Y0249497D02*
X0203814Y0252900D01*
X0202680Y0251765D01*
X0201265Y0252333D02*
X0200698Y0252900D01*
X0199564Y0252900D01*
X0198997Y0252333D01*
X0206363Y0252333D02*
X0206363Y0251765D01*
X0206930Y0251198D01*
X0208632Y0251198D01*
X0208632Y0250064D02*
X0208632Y0252333D01*
X0208065Y0252900D01*
X0206930Y0252900D01*
X0206363Y0252333D01*
X0206363Y0250064D02*
X0206930Y0249497D01*
X0208065Y0249497D01*
X0208632Y0250064D01*
X0248997Y0230333D02*
X0248997Y0228064D01*
X0249564Y0227497D01*
X0250698Y0227497D01*
X0251265Y0228064D01*
X0252680Y0227497D02*
X0254949Y0229765D01*
X0254949Y0230333D01*
X0254381Y0230900D01*
X0253247Y0230900D01*
X0252680Y0230333D01*
X0251265Y0230333D02*
X0250698Y0230900D01*
X0249564Y0230900D01*
X0248997Y0230333D01*
X0252680Y0227497D02*
X0254949Y0227497D01*
X0256363Y0228064D02*
X0256930Y0227497D01*
X0258065Y0227497D01*
X0258632Y0228064D01*
X0258632Y0228631D01*
X0258065Y0229198D01*
X0257497Y0229198D01*
X0258065Y0229198D02*
X0258632Y0229765D01*
X0258632Y0230333D01*
X0258065Y0230900D01*
X0256930Y0230900D01*
X0256363Y0230333D01*
X0257497Y0224900D02*
X0257497Y0221497D01*
X0256363Y0221497D02*
X0258632Y0221497D01*
X0256363Y0223765D02*
X0257497Y0224900D01*
X0254949Y0224333D02*
X0254381Y0224900D01*
X0253247Y0224900D01*
X0252680Y0224333D01*
X0251265Y0224333D02*
X0250698Y0224900D01*
X0249564Y0224900D01*
X0248997Y0224333D01*
X0248997Y0222064D01*
X0249564Y0221497D01*
X0250698Y0221497D01*
X0251265Y0222064D01*
X0252680Y0221497D02*
X0254949Y0223765D01*
X0254949Y0224333D01*
X0254949Y0221497D02*
X0252680Y0221497D01*
X0329697Y0342197D02*
X0329701Y0342528D01*
X0329713Y0342859D01*
X0329734Y0343190D01*
X0329762Y0343520D01*
X0329799Y0343850D01*
X0329843Y0344178D01*
X0329896Y0344505D01*
X0329956Y0344831D01*
X0330025Y0345155D01*
X0330102Y0345477D01*
X0330186Y0345798D01*
X0330278Y0346116D01*
X0330378Y0346432D01*
X0330486Y0346745D01*
X0330602Y0347056D01*
X0330725Y0347363D01*
X0330855Y0347668D01*
X0330993Y0347969D01*
X0331138Y0348267D01*
X0331291Y0348561D01*
X0331451Y0348851D01*
X0331618Y0349137D01*
X0331791Y0349419D01*
X0331972Y0349697D01*
X0332160Y0349970D01*
X0332354Y0350239D01*
X0332554Y0350503D01*
X0332761Y0350761D01*
X0332975Y0351015D01*
X0333194Y0351263D01*
X0333420Y0351506D01*
X0333651Y0351743D01*
X0333888Y0351974D01*
X0334131Y0352200D01*
X0334379Y0352419D01*
X0334633Y0352633D01*
X0334891Y0352840D01*
X0335155Y0353040D01*
X0335424Y0353234D01*
X0335697Y0353422D01*
X0335975Y0353603D01*
X0336257Y0353776D01*
X0336543Y0353943D01*
X0336833Y0354103D01*
X0337127Y0354256D01*
X0337425Y0354401D01*
X0337726Y0354539D01*
X0338031Y0354669D01*
X0338338Y0354792D01*
X0338649Y0354908D01*
X0338962Y0355016D01*
X0339278Y0355116D01*
X0339596Y0355208D01*
X0339917Y0355292D01*
X0340239Y0355369D01*
X0340563Y0355438D01*
X0340889Y0355498D01*
X0341216Y0355551D01*
X0341544Y0355595D01*
X0341874Y0355632D01*
X0342204Y0355660D01*
X0342535Y0355681D01*
X0342866Y0355693D01*
X0343197Y0355697D01*
X0343528Y0355693D01*
X0343859Y0355681D01*
X0344190Y0355660D01*
X0344520Y0355632D01*
X0344850Y0355595D01*
X0345178Y0355551D01*
X0345505Y0355498D01*
X0345831Y0355438D01*
X0346155Y0355369D01*
X0346477Y0355292D01*
X0346798Y0355208D01*
X0347116Y0355116D01*
X0347432Y0355016D01*
X0347745Y0354908D01*
X0348056Y0354792D01*
X0348363Y0354669D01*
X0348668Y0354539D01*
X0348969Y0354401D01*
X0349267Y0354256D01*
X0349561Y0354103D01*
X0349851Y0353943D01*
X0350137Y0353776D01*
X0350419Y0353603D01*
X0350697Y0353422D01*
X0350970Y0353234D01*
X0351239Y0353040D01*
X0351503Y0352840D01*
X0351761Y0352633D01*
X0352015Y0352419D01*
X0352263Y0352200D01*
X0352506Y0351974D01*
X0352743Y0351743D01*
X0352974Y0351506D01*
X0353200Y0351263D01*
X0353419Y0351015D01*
X0353633Y0350761D01*
X0353840Y0350503D01*
X0354040Y0350239D01*
X0354234Y0349970D01*
X0354422Y0349697D01*
X0354603Y0349419D01*
X0354776Y0349137D01*
X0354943Y0348851D01*
X0355103Y0348561D01*
X0355256Y0348267D01*
X0355401Y0347969D01*
X0355539Y0347668D01*
X0355669Y0347363D01*
X0355792Y0347056D01*
X0355908Y0346745D01*
X0356016Y0346432D01*
X0356116Y0346116D01*
X0356208Y0345798D01*
X0356292Y0345477D01*
X0356369Y0345155D01*
X0356438Y0344831D01*
X0356498Y0344505D01*
X0356551Y0344178D01*
X0356595Y0343850D01*
X0356632Y0343520D01*
X0356660Y0343190D01*
X0356681Y0342859D01*
X0356693Y0342528D01*
X0356697Y0342197D01*
X0356693Y0341866D01*
X0356681Y0341535D01*
X0356660Y0341204D01*
X0356632Y0340874D01*
X0356595Y0340544D01*
X0356551Y0340216D01*
X0356498Y0339889D01*
X0356438Y0339563D01*
X0356369Y0339239D01*
X0356292Y0338917D01*
X0356208Y0338596D01*
X0356116Y0338278D01*
X0356016Y0337962D01*
X0355908Y0337649D01*
X0355792Y0337338D01*
X0355669Y0337031D01*
X0355539Y0336726D01*
X0355401Y0336425D01*
X0355256Y0336127D01*
X0355103Y0335833D01*
X0354943Y0335543D01*
X0354776Y0335257D01*
X0354603Y0334975D01*
X0354422Y0334697D01*
X0354234Y0334424D01*
X0354040Y0334155D01*
X0353840Y0333891D01*
X0353633Y0333633D01*
X0353419Y0333379D01*
X0353200Y0333131D01*
X0352974Y0332888D01*
X0352743Y0332651D01*
X0352506Y0332420D01*
X0352263Y0332194D01*
X0352015Y0331975D01*
X0351761Y0331761D01*
X0351503Y0331554D01*
X0351239Y0331354D01*
X0350970Y0331160D01*
X0350697Y0330972D01*
X0350419Y0330791D01*
X0350137Y0330618D01*
X0349851Y0330451D01*
X0349561Y0330291D01*
X0349267Y0330138D01*
X0348969Y0329993D01*
X0348668Y0329855D01*
X0348363Y0329725D01*
X0348056Y0329602D01*
X0347745Y0329486D01*
X0347432Y0329378D01*
X0347116Y0329278D01*
X0346798Y0329186D01*
X0346477Y0329102D01*
X0346155Y0329025D01*
X0345831Y0328956D01*
X0345505Y0328896D01*
X0345178Y0328843D01*
X0344850Y0328799D01*
X0344520Y0328762D01*
X0344190Y0328734D01*
X0343859Y0328713D01*
X0343528Y0328701D01*
X0343197Y0328697D01*
X0342866Y0328701D01*
X0342535Y0328713D01*
X0342204Y0328734D01*
X0341874Y0328762D01*
X0341544Y0328799D01*
X0341216Y0328843D01*
X0340889Y0328896D01*
X0340563Y0328956D01*
X0340239Y0329025D01*
X0339917Y0329102D01*
X0339596Y0329186D01*
X0339278Y0329278D01*
X0338962Y0329378D01*
X0338649Y0329486D01*
X0338338Y0329602D01*
X0338031Y0329725D01*
X0337726Y0329855D01*
X0337425Y0329993D01*
X0337127Y0330138D01*
X0336833Y0330291D01*
X0336543Y0330451D01*
X0336257Y0330618D01*
X0335975Y0330791D01*
X0335697Y0330972D01*
X0335424Y0331160D01*
X0335155Y0331354D01*
X0334891Y0331554D01*
X0334633Y0331761D01*
X0334379Y0331975D01*
X0334131Y0332194D01*
X0333888Y0332420D01*
X0333651Y0332651D01*
X0333420Y0332888D01*
X0333194Y0333131D01*
X0332975Y0333379D01*
X0332761Y0333633D01*
X0332554Y0333891D01*
X0332354Y0334155D01*
X0332160Y0334424D01*
X0331972Y0334697D01*
X0331791Y0334975D01*
X0331618Y0335257D01*
X0331451Y0335543D01*
X0331291Y0335833D01*
X0331138Y0336127D01*
X0330993Y0336425D01*
X0330855Y0336726D01*
X0330725Y0337031D01*
X0330602Y0337338D01*
X0330486Y0337649D01*
X0330378Y0337962D01*
X0330278Y0338278D01*
X0330186Y0338596D01*
X0330102Y0338917D01*
X0330025Y0339239D01*
X0329956Y0339563D01*
X0329896Y0339889D01*
X0329843Y0340216D01*
X0329799Y0340544D01*
X0329762Y0340874D01*
X0329734Y0341204D01*
X0329713Y0341535D01*
X0329701Y0341866D01*
X0329697Y0342197D01*
D11*
X0086295Y0167701D02*
X0086295Y0162897D01*
X0086295Y0166500D02*
X0081491Y0166500D01*
X0081491Y0167701D02*
X0083893Y0170103D01*
X0086295Y0167701D01*
X0081491Y0167701D02*
X0081491Y0162897D01*
X0078376Y0164098D02*
X0077175Y0162897D01*
X0073572Y0162897D01*
X0073572Y0170103D01*
X0077175Y0170103D01*
X0078376Y0168902D01*
X0078376Y0167701D01*
X0077175Y0166500D01*
X0073572Y0166500D01*
X0077175Y0166500D02*
X0078376Y0165299D01*
X0078376Y0164098D01*
X0070457Y0162897D02*
X0070457Y0170103D01*
X0068055Y0167701D01*
X0065653Y0170103D01*
X0065653Y0162897D01*
X0062538Y0164098D02*
X0062538Y0170103D01*
X0057734Y0170103D02*
X0057734Y0164098D01*
X0058935Y0162897D01*
X0061337Y0162897D01*
X0062538Y0164098D01*
X0061337Y0159103D02*
X0058935Y0159103D01*
X0057734Y0157902D01*
X0057734Y0156701D01*
X0058935Y0155500D01*
X0061337Y0155500D01*
X0062538Y0154299D01*
X0062538Y0153098D01*
X0061337Y0151897D01*
X0058935Y0151897D01*
X0057734Y0153098D01*
X0054620Y0151897D02*
X0054620Y0156701D01*
X0052218Y0159103D01*
X0049816Y0156701D01*
X0049816Y0151897D01*
X0046701Y0153098D02*
X0046701Y0154299D01*
X0045500Y0155500D01*
X0041897Y0155500D01*
X0045500Y0155500D02*
X0046701Y0156701D01*
X0046701Y0157902D01*
X0045500Y0159103D01*
X0041897Y0159103D01*
X0041897Y0151897D01*
X0045500Y0151897D01*
X0046701Y0153098D01*
X0049816Y0155500D02*
X0054620Y0155500D01*
X0054620Y0162897D02*
X0054620Y0170103D01*
X0054620Y0166500D02*
X0049816Y0166500D01*
X0046701Y0165299D02*
X0046701Y0164098D01*
X0045500Y0162897D01*
X0043098Y0162897D01*
X0041897Y0164098D01*
X0043098Y0166500D02*
X0045500Y0166500D01*
X0046701Y0165299D01*
X0046701Y0168902D02*
X0045500Y0170103D01*
X0043098Y0170103D01*
X0041897Y0168902D01*
X0041897Y0167701D01*
X0043098Y0166500D01*
X0049816Y0162897D02*
X0049816Y0170103D01*
X0061337Y0159103D02*
X0062538Y0157902D01*
X0065653Y0159103D02*
X0065653Y0151897D01*
X0070457Y0151897D01*
X0068055Y0155500D02*
X0065653Y0155500D01*
X0065653Y0159103D02*
X0070457Y0159103D01*
D12*
X0070856Y0151270D02*
X0070856Y0150202D01*
X0070856Y0148067D02*
X0070856Y0143797D01*
X0069789Y0143797D02*
X0071924Y0143797D01*
X0074454Y0144864D02*
X0075522Y0145932D01*
X0078724Y0145932D01*
X0078724Y0147000D02*
X0078724Y0143797D01*
X0075522Y0143797D01*
X0074454Y0144864D01*
X0075522Y0148067D02*
X0077657Y0148067D01*
X0078724Y0147000D01*
X0070856Y0148067D02*
X0069789Y0148067D01*
X0067061Y0148067D02*
X0063858Y0148067D01*
X0062791Y0147000D01*
X0062791Y0144864D01*
X0063858Y0143797D01*
X0067061Y0143797D01*
X0060063Y0143797D02*
X0060063Y0147000D01*
X0058996Y0148067D01*
X0056860Y0148067D01*
X0056860Y0145932D02*
X0060063Y0145932D01*
X0060063Y0143797D02*
X0056860Y0143797D01*
X0055793Y0144864D01*
X0056860Y0145932D01*
X0053065Y0143797D02*
X0049862Y0143797D01*
X0048795Y0144864D01*
X0048795Y0147000D01*
X0049862Y0148067D01*
X0053065Y0148067D01*
X0046067Y0147000D02*
X0046067Y0143797D01*
X0042864Y0143797D01*
X0041797Y0144864D01*
X0042864Y0145932D01*
X0046067Y0145932D01*
X0046067Y0147000D02*
X0045000Y0148067D01*
X0042864Y0148067D01*
D13*
X0062697Y0313697D03*
D14*
X0036931Y0140855D02*
X0036883Y0139947D01*
X0036923Y0139652D01*
X0036962Y0139365D01*
D15*
X0152197Y0236087D02*
X0152197Y0236307D01*
X0170087Y0173197D02*
X0170307Y0173197D01*
X0199087Y0173197D02*
X0199307Y0173197D01*
X0211197Y0167307D02*
X0211197Y0167087D01*
X0222087Y0176197D02*
X0222307Y0176197D01*
D16*
X0211984Y0177197D02*
X0210409Y0177197D01*
X0211197Y0180740D02*
X0211197Y0173654D01*
X0223276Y0192118D02*
X0183118Y0192118D01*
X0183118Y0232276D01*
X0223276Y0232276D01*
X0223276Y0192118D01*
X0187842Y0194480D02*
X0187844Y0194519D01*
X0187850Y0194558D01*
X0187860Y0194596D01*
X0187873Y0194633D01*
X0187890Y0194668D01*
X0187910Y0194702D01*
X0187934Y0194733D01*
X0187961Y0194762D01*
X0187990Y0194788D01*
X0188022Y0194811D01*
X0188056Y0194831D01*
X0188092Y0194847D01*
X0188129Y0194859D01*
X0188168Y0194868D01*
X0188207Y0194873D01*
X0188246Y0194874D01*
X0188285Y0194871D01*
X0188324Y0194864D01*
X0188361Y0194853D01*
X0188398Y0194839D01*
X0188433Y0194821D01*
X0188466Y0194800D01*
X0188497Y0194775D01*
X0188525Y0194748D01*
X0188550Y0194718D01*
X0188572Y0194685D01*
X0188591Y0194651D01*
X0188606Y0194615D01*
X0188618Y0194577D01*
X0188626Y0194539D01*
X0188630Y0194500D01*
X0188630Y0194460D01*
X0188626Y0194421D01*
X0188618Y0194383D01*
X0188606Y0194345D01*
X0188591Y0194309D01*
X0188572Y0194275D01*
X0188550Y0194242D01*
X0188525Y0194212D01*
X0188497Y0194185D01*
X0188466Y0194160D01*
X0188433Y0194139D01*
X0188398Y0194121D01*
X0188361Y0194107D01*
X0188324Y0194096D01*
X0188285Y0194089D01*
X0188246Y0194086D01*
X0188207Y0194087D01*
X0188168Y0194092D01*
X0188129Y0194101D01*
X0188092Y0194113D01*
X0188056Y0194129D01*
X0188022Y0194149D01*
X0187990Y0194172D01*
X0187961Y0194198D01*
X0187934Y0194227D01*
X0187910Y0194258D01*
X0187890Y0194292D01*
X0187873Y0194327D01*
X0187860Y0194364D01*
X0187850Y0194402D01*
X0187844Y0194441D01*
X0187842Y0194480D01*
X0138661Y0233701D02*
X0138661Y0246693D01*
X0121732Y0246693D01*
X0121732Y0233701D01*
X0138661Y0233701D01*
X0079349Y0335147D02*
X0076347Y0335147D01*
X0077848Y0335147D02*
X0077848Y0339651D01*
X0076347Y0338149D01*
X0126347Y0353897D02*
X0127097Y0353147D01*
X0128599Y0353147D01*
X0129349Y0353897D01*
X0129349Y0354648D01*
X0128599Y0355399D01*
X0126347Y0355399D01*
X0126347Y0353897D01*
X0126347Y0355399D02*
X0127848Y0356900D01*
X0129349Y0357651D01*
X0254180Y0338862D02*
X0256432Y0338862D01*
X0257182Y0338111D01*
X0257182Y0337360D01*
X0256432Y0336610D01*
X0254931Y0336610D01*
X0254180Y0337360D01*
X0254180Y0338862D01*
X0255681Y0340363D01*
X0257182Y0341114D01*
X0304180Y0354610D02*
X0307182Y0354610D01*
X0305681Y0354610D02*
X0305681Y0359114D01*
X0304180Y0357612D01*
X0338443Y0313149D02*
X0339194Y0311648D01*
X0340695Y0310147D01*
X0340695Y0312399D01*
X0341446Y0313149D01*
X0342196Y0313149D01*
X0342947Y0312399D01*
X0342947Y0310897D01*
X0342196Y0310147D01*
X0340695Y0310147D01*
X0356443Y0261648D02*
X0360947Y0261648D01*
X0360947Y0260147D02*
X0360947Y0263149D01*
X0357944Y0260147D02*
X0356443Y0261648D01*
X0342496Y0143749D02*
X0341746Y0143749D01*
X0340995Y0142999D01*
X0340995Y0140747D01*
X0342496Y0140747D01*
X0343247Y0141497D01*
X0343247Y0142999D01*
X0342496Y0143749D01*
X0339494Y0142248D02*
X0340995Y0140747D01*
X0339494Y0142248D02*
X0338743Y0143749D01*
X0356743Y0092248D02*
X0361247Y0092248D01*
X0361247Y0090747D02*
X0361247Y0093749D01*
X0358244Y0090747D02*
X0356743Y0092248D01*
X0328197Y0072197D02*
X0288197Y0072197D01*
X0288197Y0052197D01*
X0328197Y0052197D01*
X0328197Y0072197D01*
X0156976Y0088457D02*
X0156976Y0097315D01*
X0112094Y0097315D01*
X0112094Y0090031D01*
X0134929Y0063850D02*
X0134929Y0063457D01*
D17*
X0067197Y0093197D03*
X0067197Y0103197D03*
X0067197Y0113197D03*
X0152197Y0228197D03*
X0152197Y0244197D03*
X0267197Y0109197D03*
X0267197Y0103197D03*
X0334097Y0123097D03*
X0334197Y0131197D03*
D18*
X0046898Y0062197D02*
X0046900Y0062355D01*
X0046906Y0062513D01*
X0046916Y0062671D01*
X0046930Y0062829D01*
X0046948Y0062986D01*
X0046969Y0063143D01*
X0046995Y0063299D01*
X0047025Y0063455D01*
X0047058Y0063610D01*
X0047096Y0063763D01*
X0047137Y0063916D01*
X0047182Y0064068D01*
X0047231Y0064219D01*
X0047284Y0064368D01*
X0047340Y0064516D01*
X0047400Y0064662D01*
X0047464Y0064807D01*
X0047532Y0064950D01*
X0047603Y0065092D01*
X0047677Y0065232D01*
X0047755Y0065369D01*
X0047837Y0065505D01*
X0047921Y0065639D01*
X0048010Y0065770D01*
X0048101Y0065899D01*
X0048196Y0066026D01*
X0048293Y0066151D01*
X0048394Y0066273D01*
X0048498Y0066392D01*
X0048605Y0066509D01*
X0048715Y0066623D01*
X0048828Y0066734D01*
X0048943Y0066843D01*
X0049061Y0066948D01*
X0049182Y0067050D01*
X0049305Y0067150D01*
X0049431Y0067246D01*
X0049559Y0067339D01*
X0049689Y0067429D01*
X0049822Y0067515D01*
X0049957Y0067599D01*
X0050093Y0067678D01*
X0050232Y0067755D01*
X0050373Y0067827D01*
X0050515Y0067897D01*
X0050659Y0067962D01*
X0050805Y0068024D01*
X0050952Y0068082D01*
X0051101Y0068137D01*
X0051251Y0068188D01*
X0051402Y0068235D01*
X0051554Y0068278D01*
X0051707Y0068317D01*
X0051862Y0068353D01*
X0052017Y0068384D01*
X0052173Y0068412D01*
X0052329Y0068436D01*
X0052486Y0068456D01*
X0052644Y0068472D01*
X0052801Y0068484D01*
X0052960Y0068492D01*
X0053118Y0068496D01*
X0053276Y0068496D01*
X0053434Y0068492D01*
X0053593Y0068484D01*
X0053750Y0068472D01*
X0053908Y0068456D01*
X0054065Y0068436D01*
X0054221Y0068412D01*
X0054377Y0068384D01*
X0054532Y0068353D01*
X0054687Y0068317D01*
X0054840Y0068278D01*
X0054992Y0068235D01*
X0055143Y0068188D01*
X0055293Y0068137D01*
X0055442Y0068082D01*
X0055589Y0068024D01*
X0055735Y0067962D01*
X0055879Y0067897D01*
X0056021Y0067827D01*
X0056162Y0067755D01*
X0056301Y0067678D01*
X0056437Y0067599D01*
X0056572Y0067515D01*
X0056705Y0067429D01*
X0056835Y0067339D01*
X0056963Y0067246D01*
X0057089Y0067150D01*
X0057212Y0067050D01*
X0057333Y0066948D01*
X0057451Y0066843D01*
X0057566Y0066734D01*
X0057679Y0066623D01*
X0057789Y0066509D01*
X0057896Y0066392D01*
X0058000Y0066273D01*
X0058101Y0066151D01*
X0058198Y0066026D01*
X0058293Y0065899D01*
X0058384Y0065770D01*
X0058473Y0065639D01*
X0058557Y0065505D01*
X0058639Y0065369D01*
X0058717Y0065232D01*
X0058791Y0065092D01*
X0058862Y0064950D01*
X0058930Y0064807D01*
X0058994Y0064662D01*
X0059054Y0064516D01*
X0059110Y0064368D01*
X0059163Y0064219D01*
X0059212Y0064068D01*
X0059257Y0063916D01*
X0059298Y0063763D01*
X0059336Y0063610D01*
X0059369Y0063455D01*
X0059399Y0063299D01*
X0059425Y0063143D01*
X0059446Y0062986D01*
X0059464Y0062829D01*
X0059478Y0062671D01*
X0059488Y0062513D01*
X0059494Y0062355D01*
X0059496Y0062197D01*
X0059494Y0062039D01*
X0059488Y0061881D01*
X0059478Y0061723D01*
X0059464Y0061565D01*
X0059446Y0061408D01*
X0059425Y0061251D01*
X0059399Y0061095D01*
X0059369Y0060939D01*
X0059336Y0060784D01*
X0059298Y0060631D01*
X0059257Y0060478D01*
X0059212Y0060326D01*
X0059163Y0060175D01*
X0059110Y0060026D01*
X0059054Y0059878D01*
X0058994Y0059732D01*
X0058930Y0059587D01*
X0058862Y0059444D01*
X0058791Y0059302D01*
X0058717Y0059162D01*
X0058639Y0059025D01*
X0058557Y0058889D01*
X0058473Y0058755D01*
X0058384Y0058624D01*
X0058293Y0058495D01*
X0058198Y0058368D01*
X0058101Y0058243D01*
X0058000Y0058121D01*
X0057896Y0058002D01*
X0057789Y0057885D01*
X0057679Y0057771D01*
X0057566Y0057660D01*
X0057451Y0057551D01*
X0057333Y0057446D01*
X0057212Y0057344D01*
X0057089Y0057244D01*
X0056963Y0057148D01*
X0056835Y0057055D01*
X0056705Y0056965D01*
X0056572Y0056879D01*
X0056437Y0056795D01*
X0056301Y0056716D01*
X0056162Y0056639D01*
X0056021Y0056567D01*
X0055879Y0056497D01*
X0055735Y0056432D01*
X0055589Y0056370D01*
X0055442Y0056312D01*
X0055293Y0056257D01*
X0055143Y0056206D01*
X0054992Y0056159D01*
X0054840Y0056116D01*
X0054687Y0056077D01*
X0054532Y0056041D01*
X0054377Y0056010D01*
X0054221Y0055982D01*
X0054065Y0055958D01*
X0053908Y0055938D01*
X0053750Y0055922D01*
X0053593Y0055910D01*
X0053434Y0055902D01*
X0053276Y0055898D01*
X0053118Y0055898D01*
X0052960Y0055902D01*
X0052801Y0055910D01*
X0052644Y0055922D01*
X0052486Y0055938D01*
X0052329Y0055958D01*
X0052173Y0055982D01*
X0052017Y0056010D01*
X0051862Y0056041D01*
X0051707Y0056077D01*
X0051554Y0056116D01*
X0051402Y0056159D01*
X0051251Y0056206D01*
X0051101Y0056257D01*
X0050952Y0056312D01*
X0050805Y0056370D01*
X0050659Y0056432D01*
X0050515Y0056497D01*
X0050373Y0056567D01*
X0050232Y0056639D01*
X0050093Y0056716D01*
X0049957Y0056795D01*
X0049822Y0056879D01*
X0049689Y0056965D01*
X0049559Y0057055D01*
X0049431Y0057148D01*
X0049305Y0057244D01*
X0049182Y0057344D01*
X0049061Y0057446D01*
X0048943Y0057551D01*
X0048828Y0057660D01*
X0048715Y0057771D01*
X0048605Y0057885D01*
X0048498Y0058002D01*
X0048394Y0058121D01*
X0048293Y0058243D01*
X0048196Y0058368D01*
X0048101Y0058495D01*
X0048010Y0058624D01*
X0047921Y0058755D01*
X0047837Y0058889D01*
X0047755Y0059025D01*
X0047677Y0059162D01*
X0047603Y0059302D01*
X0047532Y0059444D01*
X0047464Y0059587D01*
X0047400Y0059732D01*
X0047340Y0059878D01*
X0047284Y0060026D01*
X0047231Y0060175D01*
X0047182Y0060326D01*
X0047137Y0060478D01*
X0047096Y0060631D01*
X0047058Y0060784D01*
X0047025Y0060939D01*
X0046995Y0061095D01*
X0046969Y0061251D01*
X0046948Y0061408D01*
X0046930Y0061565D01*
X0046916Y0061723D01*
X0046906Y0061881D01*
X0046900Y0062039D01*
X0046898Y0062197D01*
X0047866Y0091386D02*
X0047866Y0093197D01*
X0046646Y0092276D01*
X0047866Y0093197D02*
X0047866Y0095008D01*
X0046646Y0094057D02*
X0047805Y0093297D01*
X0047866Y0101386D02*
X0047866Y0103197D01*
X0046646Y0102276D01*
X0047866Y0103197D02*
X0047866Y0105008D01*
X0046646Y0104057D02*
X0047805Y0103297D01*
X0047866Y0111386D02*
X0047866Y0113197D01*
X0046646Y0112276D01*
X0047866Y0113197D02*
X0047866Y0115008D01*
X0046646Y0114057D02*
X0047805Y0113297D01*
X0057947Y0193197D02*
X0064447Y0193197D01*
X0064507Y0193199D01*
X0064568Y0193204D01*
X0064627Y0193213D01*
X0064686Y0193226D01*
X0064745Y0193242D01*
X0064802Y0193262D01*
X0064857Y0193285D01*
X0064912Y0193312D01*
X0064964Y0193341D01*
X0065015Y0193374D01*
X0065064Y0193410D01*
X0065110Y0193448D01*
X0065154Y0193490D01*
X0065196Y0193534D01*
X0065234Y0193580D01*
X0065270Y0193629D01*
X0065303Y0193680D01*
X0065332Y0193732D01*
X0065359Y0193787D01*
X0065382Y0193842D01*
X0065402Y0193899D01*
X0065418Y0193958D01*
X0065431Y0194017D01*
X0065440Y0194076D01*
X0065445Y0194137D01*
X0065447Y0194197D01*
X0065447Y0200197D02*
X0065445Y0200257D01*
X0065440Y0200318D01*
X0065431Y0200377D01*
X0065418Y0200436D01*
X0065402Y0200495D01*
X0065382Y0200552D01*
X0065359Y0200607D01*
X0065332Y0200662D01*
X0065303Y0200714D01*
X0065270Y0200765D01*
X0065234Y0200814D01*
X0065196Y0200860D01*
X0065154Y0200904D01*
X0065110Y0200946D01*
X0065064Y0200984D01*
X0065015Y0201020D01*
X0064964Y0201053D01*
X0064912Y0201082D01*
X0064857Y0201109D01*
X0064802Y0201132D01*
X0064745Y0201152D01*
X0064686Y0201168D01*
X0064627Y0201181D01*
X0064568Y0201190D01*
X0064507Y0201195D01*
X0064447Y0201197D01*
X0057947Y0201197D01*
X0057887Y0201195D01*
X0057826Y0201190D01*
X0057767Y0201181D01*
X0057708Y0201168D01*
X0057649Y0201152D01*
X0057592Y0201132D01*
X0057537Y0201109D01*
X0057482Y0201082D01*
X0057430Y0201053D01*
X0057379Y0201020D01*
X0057330Y0200984D01*
X0057284Y0200946D01*
X0057240Y0200904D01*
X0057198Y0200860D01*
X0057160Y0200814D01*
X0057124Y0200765D01*
X0057091Y0200714D01*
X0057062Y0200662D01*
X0057035Y0200607D01*
X0057012Y0200552D01*
X0056992Y0200495D01*
X0056976Y0200436D01*
X0056963Y0200377D01*
X0056954Y0200318D01*
X0056949Y0200257D01*
X0056947Y0200197D01*
X0056947Y0194197D02*
X0056949Y0194137D01*
X0056954Y0194076D01*
X0056963Y0194017D01*
X0056976Y0193958D01*
X0056992Y0193899D01*
X0057012Y0193842D01*
X0057035Y0193787D01*
X0057062Y0193732D01*
X0057091Y0193680D01*
X0057124Y0193629D01*
X0057160Y0193580D01*
X0057198Y0193534D01*
X0057240Y0193490D01*
X0057284Y0193448D01*
X0057330Y0193410D01*
X0057379Y0193374D01*
X0057430Y0193341D01*
X0057482Y0193312D01*
X0057537Y0193285D01*
X0057592Y0193262D01*
X0057649Y0193242D01*
X0057708Y0193226D01*
X0057767Y0193213D01*
X0057826Y0193204D01*
X0057887Y0193199D01*
X0057947Y0193197D01*
X0052080Y0238591D02*
X0064914Y0238591D01*
X0064914Y0262783D01*
X0052080Y0262783D01*
X0052080Y0238591D01*
X0046898Y0330197D02*
X0046900Y0330355D01*
X0046906Y0330513D01*
X0046916Y0330671D01*
X0046930Y0330829D01*
X0046948Y0330986D01*
X0046969Y0331143D01*
X0046995Y0331299D01*
X0047025Y0331455D01*
X0047058Y0331610D01*
X0047096Y0331763D01*
X0047137Y0331916D01*
X0047182Y0332068D01*
X0047231Y0332219D01*
X0047284Y0332368D01*
X0047340Y0332516D01*
X0047400Y0332662D01*
X0047464Y0332807D01*
X0047532Y0332950D01*
X0047603Y0333092D01*
X0047677Y0333232D01*
X0047755Y0333369D01*
X0047837Y0333505D01*
X0047921Y0333639D01*
X0048010Y0333770D01*
X0048101Y0333899D01*
X0048196Y0334026D01*
X0048293Y0334151D01*
X0048394Y0334273D01*
X0048498Y0334392D01*
X0048605Y0334509D01*
X0048715Y0334623D01*
X0048828Y0334734D01*
X0048943Y0334843D01*
X0049061Y0334948D01*
X0049182Y0335050D01*
X0049305Y0335150D01*
X0049431Y0335246D01*
X0049559Y0335339D01*
X0049689Y0335429D01*
X0049822Y0335515D01*
X0049957Y0335599D01*
X0050093Y0335678D01*
X0050232Y0335755D01*
X0050373Y0335827D01*
X0050515Y0335897D01*
X0050659Y0335962D01*
X0050805Y0336024D01*
X0050952Y0336082D01*
X0051101Y0336137D01*
X0051251Y0336188D01*
X0051402Y0336235D01*
X0051554Y0336278D01*
X0051707Y0336317D01*
X0051862Y0336353D01*
X0052017Y0336384D01*
X0052173Y0336412D01*
X0052329Y0336436D01*
X0052486Y0336456D01*
X0052644Y0336472D01*
X0052801Y0336484D01*
X0052960Y0336492D01*
X0053118Y0336496D01*
X0053276Y0336496D01*
X0053434Y0336492D01*
X0053593Y0336484D01*
X0053750Y0336472D01*
X0053908Y0336456D01*
X0054065Y0336436D01*
X0054221Y0336412D01*
X0054377Y0336384D01*
X0054532Y0336353D01*
X0054687Y0336317D01*
X0054840Y0336278D01*
X0054992Y0336235D01*
X0055143Y0336188D01*
X0055293Y0336137D01*
X0055442Y0336082D01*
X0055589Y0336024D01*
X0055735Y0335962D01*
X0055879Y0335897D01*
X0056021Y0335827D01*
X0056162Y0335755D01*
X0056301Y0335678D01*
X0056437Y0335599D01*
X0056572Y0335515D01*
X0056705Y0335429D01*
X0056835Y0335339D01*
X0056963Y0335246D01*
X0057089Y0335150D01*
X0057212Y0335050D01*
X0057333Y0334948D01*
X0057451Y0334843D01*
X0057566Y0334734D01*
X0057679Y0334623D01*
X0057789Y0334509D01*
X0057896Y0334392D01*
X0058000Y0334273D01*
X0058101Y0334151D01*
X0058198Y0334026D01*
X0058293Y0333899D01*
X0058384Y0333770D01*
X0058473Y0333639D01*
X0058557Y0333505D01*
X0058639Y0333369D01*
X0058717Y0333232D01*
X0058791Y0333092D01*
X0058862Y0332950D01*
X0058930Y0332807D01*
X0058994Y0332662D01*
X0059054Y0332516D01*
X0059110Y0332368D01*
X0059163Y0332219D01*
X0059212Y0332068D01*
X0059257Y0331916D01*
X0059298Y0331763D01*
X0059336Y0331610D01*
X0059369Y0331455D01*
X0059399Y0331299D01*
X0059425Y0331143D01*
X0059446Y0330986D01*
X0059464Y0330829D01*
X0059478Y0330671D01*
X0059488Y0330513D01*
X0059494Y0330355D01*
X0059496Y0330197D01*
X0059494Y0330039D01*
X0059488Y0329881D01*
X0059478Y0329723D01*
X0059464Y0329565D01*
X0059446Y0329408D01*
X0059425Y0329251D01*
X0059399Y0329095D01*
X0059369Y0328939D01*
X0059336Y0328784D01*
X0059298Y0328631D01*
X0059257Y0328478D01*
X0059212Y0328326D01*
X0059163Y0328175D01*
X0059110Y0328026D01*
X0059054Y0327878D01*
X0058994Y0327732D01*
X0058930Y0327587D01*
X0058862Y0327444D01*
X0058791Y0327302D01*
X0058717Y0327162D01*
X0058639Y0327025D01*
X0058557Y0326889D01*
X0058473Y0326755D01*
X0058384Y0326624D01*
X0058293Y0326495D01*
X0058198Y0326368D01*
X0058101Y0326243D01*
X0058000Y0326121D01*
X0057896Y0326002D01*
X0057789Y0325885D01*
X0057679Y0325771D01*
X0057566Y0325660D01*
X0057451Y0325551D01*
X0057333Y0325446D01*
X0057212Y0325344D01*
X0057089Y0325244D01*
X0056963Y0325148D01*
X0056835Y0325055D01*
X0056705Y0324965D01*
X0056572Y0324879D01*
X0056437Y0324795D01*
X0056301Y0324716D01*
X0056162Y0324639D01*
X0056021Y0324567D01*
X0055879Y0324497D01*
X0055735Y0324432D01*
X0055589Y0324370D01*
X0055442Y0324312D01*
X0055293Y0324257D01*
X0055143Y0324206D01*
X0054992Y0324159D01*
X0054840Y0324116D01*
X0054687Y0324077D01*
X0054532Y0324041D01*
X0054377Y0324010D01*
X0054221Y0323982D01*
X0054065Y0323958D01*
X0053908Y0323938D01*
X0053750Y0323922D01*
X0053593Y0323910D01*
X0053434Y0323902D01*
X0053276Y0323898D01*
X0053118Y0323898D01*
X0052960Y0323902D01*
X0052801Y0323910D01*
X0052644Y0323922D01*
X0052486Y0323938D01*
X0052329Y0323958D01*
X0052173Y0323982D01*
X0052017Y0324010D01*
X0051862Y0324041D01*
X0051707Y0324077D01*
X0051554Y0324116D01*
X0051402Y0324159D01*
X0051251Y0324206D01*
X0051101Y0324257D01*
X0050952Y0324312D01*
X0050805Y0324370D01*
X0050659Y0324432D01*
X0050515Y0324497D01*
X0050373Y0324567D01*
X0050232Y0324639D01*
X0050093Y0324716D01*
X0049957Y0324795D01*
X0049822Y0324879D01*
X0049689Y0324965D01*
X0049559Y0325055D01*
X0049431Y0325148D01*
X0049305Y0325244D01*
X0049182Y0325344D01*
X0049061Y0325446D01*
X0048943Y0325551D01*
X0048828Y0325660D01*
X0048715Y0325771D01*
X0048605Y0325885D01*
X0048498Y0326002D01*
X0048394Y0326121D01*
X0048293Y0326243D01*
X0048196Y0326368D01*
X0048101Y0326495D01*
X0048010Y0326624D01*
X0047921Y0326755D01*
X0047837Y0326889D01*
X0047755Y0327025D01*
X0047677Y0327162D01*
X0047603Y0327302D01*
X0047532Y0327444D01*
X0047464Y0327587D01*
X0047400Y0327732D01*
X0047340Y0327878D01*
X0047284Y0328026D01*
X0047231Y0328175D01*
X0047182Y0328326D01*
X0047137Y0328478D01*
X0047096Y0328631D01*
X0047058Y0328784D01*
X0047025Y0328939D01*
X0046995Y0329095D01*
X0046969Y0329251D01*
X0046948Y0329408D01*
X0046930Y0329565D01*
X0046916Y0329723D01*
X0046906Y0329881D01*
X0046900Y0330039D01*
X0046898Y0330197D01*
X0194197Y0329947D02*
X0194197Y0336447D01*
X0194199Y0336507D01*
X0194204Y0336568D01*
X0194213Y0336627D01*
X0194226Y0336686D01*
X0194242Y0336745D01*
X0194262Y0336802D01*
X0194285Y0336857D01*
X0194312Y0336912D01*
X0194341Y0336964D01*
X0194374Y0337015D01*
X0194410Y0337064D01*
X0194448Y0337110D01*
X0194490Y0337154D01*
X0194534Y0337196D01*
X0194580Y0337234D01*
X0194629Y0337270D01*
X0194680Y0337303D01*
X0194732Y0337332D01*
X0194787Y0337359D01*
X0194842Y0337382D01*
X0194899Y0337402D01*
X0194958Y0337418D01*
X0195017Y0337431D01*
X0195076Y0337440D01*
X0195137Y0337445D01*
X0195197Y0337447D01*
X0201197Y0337447D02*
X0201257Y0337445D01*
X0201318Y0337440D01*
X0201377Y0337431D01*
X0201436Y0337418D01*
X0201495Y0337402D01*
X0201552Y0337382D01*
X0201607Y0337359D01*
X0201662Y0337332D01*
X0201714Y0337303D01*
X0201765Y0337270D01*
X0201814Y0337234D01*
X0201860Y0337196D01*
X0201904Y0337154D01*
X0201946Y0337110D01*
X0201984Y0337064D01*
X0202020Y0337015D01*
X0202053Y0336964D01*
X0202082Y0336912D01*
X0202109Y0336857D01*
X0202132Y0336802D01*
X0202152Y0336745D01*
X0202168Y0336686D01*
X0202181Y0336627D01*
X0202190Y0336568D01*
X0202195Y0336507D01*
X0202197Y0336447D01*
X0202197Y0329947D01*
X0202195Y0329887D01*
X0202190Y0329826D01*
X0202181Y0329767D01*
X0202168Y0329708D01*
X0202152Y0329649D01*
X0202132Y0329592D01*
X0202109Y0329537D01*
X0202082Y0329482D01*
X0202053Y0329430D01*
X0202020Y0329379D01*
X0201984Y0329330D01*
X0201946Y0329284D01*
X0201904Y0329240D01*
X0201860Y0329198D01*
X0201814Y0329160D01*
X0201765Y0329124D01*
X0201714Y0329091D01*
X0201662Y0329062D01*
X0201607Y0329035D01*
X0201552Y0329012D01*
X0201495Y0328992D01*
X0201436Y0328976D01*
X0201377Y0328963D01*
X0201318Y0328954D01*
X0201257Y0328949D01*
X0201197Y0328947D01*
X0195197Y0328947D02*
X0195137Y0328949D01*
X0195076Y0328954D01*
X0195017Y0328963D01*
X0194958Y0328976D01*
X0194899Y0328992D01*
X0194842Y0329012D01*
X0194787Y0329035D01*
X0194732Y0329062D01*
X0194680Y0329091D01*
X0194629Y0329124D01*
X0194580Y0329160D01*
X0194534Y0329198D01*
X0194490Y0329240D01*
X0194448Y0329284D01*
X0194410Y0329330D01*
X0194374Y0329379D01*
X0194341Y0329430D01*
X0194312Y0329482D01*
X0194285Y0329537D01*
X0194262Y0329592D01*
X0194242Y0329649D01*
X0194226Y0329708D01*
X0194213Y0329767D01*
X0194204Y0329826D01*
X0194199Y0329887D01*
X0194197Y0329947D01*
X0331947Y0201197D02*
X0338447Y0201197D01*
X0338507Y0201195D01*
X0338568Y0201190D01*
X0338627Y0201181D01*
X0338686Y0201168D01*
X0338745Y0201152D01*
X0338802Y0201132D01*
X0338857Y0201109D01*
X0338912Y0201082D01*
X0338964Y0201053D01*
X0339015Y0201020D01*
X0339064Y0200984D01*
X0339110Y0200946D01*
X0339154Y0200904D01*
X0339196Y0200860D01*
X0339234Y0200814D01*
X0339270Y0200765D01*
X0339303Y0200714D01*
X0339332Y0200662D01*
X0339359Y0200607D01*
X0339382Y0200552D01*
X0339402Y0200495D01*
X0339418Y0200436D01*
X0339431Y0200377D01*
X0339440Y0200318D01*
X0339445Y0200257D01*
X0339447Y0200197D01*
X0339447Y0194197D02*
X0339445Y0194137D01*
X0339440Y0194076D01*
X0339431Y0194017D01*
X0339418Y0193958D01*
X0339402Y0193899D01*
X0339382Y0193842D01*
X0339359Y0193787D01*
X0339332Y0193732D01*
X0339303Y0193680D01*
X0339270Y0193629D01*
X0339234Y0193580D01*
X0339196Y0193534D01*
X0339154Y0193490D01*
X0339110Y0193448D01*
X0339064Y0193410D01*
X0339015Y0193374D01*
X0338964Y0193341D01*
X0338912Y0193312D01*
X0338857Y0193285D01*
X0338802Y0193262D01*
X0338745Y0193242D01*
X0338686Y0193226D01*
X0338627Y0193213D01*
X0338568Y0193204D01*
X0338507Y0193199D01*
X0338447Y0193197D01*
X0331947Y0193197D01*
X0331887Y0193199D01*
X0331826Y0193204D01*
X0331767Y0193213D01*
X0331708Y0193226D01*
X0331649Y0193242D01*
X0331592Y0193262D01*
X0331537Y0193285D01*
X0331482Y0193312D01*
X0331430Y0193341D01*
X0331379Y0193374D01*
X0331330Y0193410D01*
X0331284Y0193448D01*
X0331240Y0193490D01*
X0331198Y0193534D01*
X0331160Y0193580D01*
X0331124Y0193629D01*
X0331091Y0193680D01*
X0331062Y0193732D01*
X0331035Y0193787D01*
X0331012Y0193842D01*
X0330992Y0193899D01*
X0330976Y0193958D01*
X0330963Y0194017D01*
X0330954Y0194076D01*
X0330949Y0194137D01*
X0330947Y0194197D01*
X0330947Y0200197D02*
X0330949Y0200257D01*
X0330954Y0200318D01*
X0330963Y0200377D01*
X0330976Y0200436D01*
X0330992Y0200495D01*
X0331012Y0200552D01*
X0331035Y0200607D01*
X0331062Y0200662D01*
X0331091Y0200714D01*
X0331124Y0200765D01*
X0331160Y0200814D01*
X0331198Y0200860D01*
X0331240Y0200904D01*
X0331284Y0200946D01*
X0331330Y0200984D01*
X0331379Y0201020D01*
X0331430Y0201053D01*
X0331482Y0201082D01*
X0331537Y0201109D01*
X0331592Y0201132D01*
X0331649Y0201152D01*
X0331708Y0201168D01*
X0331767Y0201181D01*
X0331826Y0201190D01*
X0331887Y0201195D01*
X0331947Y0201197D01*
X0270648Y0128709D02*
X0264546Y0128709D01*
X0264546Y0117685D01*
X0270648Y0117685D01*
X0270648Y0128709D01*
X0289638Y0083740D02*
X0289638Y0082165D01*
X0294756Y0082165D01*
X0294756Y0076654D01*
X0297638Y0076654D02*
X0297638Y0082165D01*
X0302756Y0082165D01*
X0302756Y0076654D01*
X0302756Y0082165D02*
X0302756Y0083740D01*
X0297638Y0083740D02*
X0297638Y0082165D01*
X0294756Y0082165D02*
X0294756Y0083740D01*
X0289638Y0082165D02*
X0289638Y0076654D01*
X0336898Y0057197D02*
X0336900Y0057355D01*
X0336906Y0057513D01*
X0336916Y0057671D01*
X0336930Y0057829D01*
X0336948Y0057986D01*
X0336969Y0058143D01*
X0336995Y0058299D01*
X0337025Y0058455D01*
X0337058Y0058610D01*
X0337096Y0058763D01*
X0337137Y0058916D01*
X0337182Y0059068D01*
X0337231Y0059219D01*
X0337284Y0059368D01*
X0337340Y0059516D01*
X0337400Y0059662D01*
X0337464Y0059807D01*
X0337532Y0059950D01*
X0337603Y0060092D01*
X0337677Y0060232D01*
X0337755Y0060369D01*
X0337837Y0060505D01*
X0337921Y0060639D01*
X0338010Y0060770D01*
X0338101Y0060899D01*
X0338196Y0061026D01*
X0338293Y0061151D01*
X0338394Y0061273D01*
X0338498Y0061392D01*
X0338605Y0061509D01*
X0338715Y0061623D01*
X0338828Y0061734D01*
X0338943Y0061843D01*
X0339061Y0061948D01*
X0339182Y0062050D01*
X0339305Y0062150D01*
X0339431Y0062246D01*
X0339559Y0062339D01*
X0339689Y0062429D01*
X0339822Y0062515D01*
X0339957Y0062599D01*
X0340093Y0062678D01*
X0340232Y0062755D01*
X0340373Y0062827D01*
X0340515Y0062897D01*
X0340659Y0062962D01*
X0340805Y0063024D01*
X0340952Y0063082D01*
X0341101Y0063137D01*
X0341251Y0063188D01*
X0341402Y0063235D01*
X0341554Y0063278D01*
X0341707Y0063317D01*
X0341862Y0063353D01*
X0342017Y0063384D01*
X0342173Y0063412D01*
X0342329Y0063436D01*
X0342486Y0063456D01*
X0342644Y0063472D01*
X0342801Y0063484D01*
X0342960Y0063492D01*
X0343118Y0063496D01*
X0343276Y0063496D01*
X0343434Y0063492D01*
X0343593Y0063484D01*
X0343750Y0063472D01*
X0343908Y0063456D01*
X0344065Y0063436D01*
X0344221Y0063412D01*
X0344377Y0063384D01*
X0344532Y0063353D01*
X0344687Y0063317D01*
X0344840Y0063278D01*
X0344992Y0063235D01*
X0345143Y0063188D01*
X0345293Y0063137D01*
X0345442Y0063082D01*
X0345589Y0063024D01*
X0345735Y0062962D01*
X0345879Y0062897D01*
X0346021Y0062827D01*
X0346162Y0062755D01*
X0346301Y0062678D01*
X0346437Y0062599D01*
X0346572Y0062515D01*
X0346705Y0062429D01*
X0346835Y0062339D01*
X0346963Y0062246D01*
X0347089Y0062150D01*
X0347212Y0062050D01*
X0347333Y0061948D01*
X0347451Y0061843D01*
X0347566Y0061734D01*
X0347679Y0061623D01*
X0347789Y0061509D01*
X0347896Y0061392D01*
X0348000Y0061273D01*
X0348101Y0061151D01*
X0348198Y0061026D01*
X0348293Y0060899D01*
X0348384Y0060770D01*
X0348473Y0060639D01*
X0348557Y0060505D01*
X0348639Y0060369D01*
X0348717Y0060232D01*
X0348791Y0060092D01*
X0348862Y0059950D01*
X0348930Y0059807D01*
X0348994Y0059662D01*
X0349054Y0059516D01*
X0349110Y0059368D01*
X0349163Y0059219D01*
X0349212Y0059068D01*
X0349257Y0058916D01*
X0349298Y0058763D01*
X0349336Y0058610D01*
X0349369Y0058455D01*
X0349399Y0058299D01*
X0349425Y0058143D01*
X0349446Y0057986D01*
X0349464Y0057829D01*
X0349478Y0057671D01*
X0349488Y0057513D01*
X0349494Y0057355D01*
X0349496Y0057197D01*
X0349494Y0057039D01*
X0349488Y0056881D01*
X0349478Y0056723D01*
X0349464Y0056565D01*
X0349446Y0056408D01*
X0349425Y0056251D01*
X0349399Y0056095D01*
X0349369Y0055939D01*
X0349336Y0055784D01*
X0349298Y0055631D01*
X0349257Y0055478D01*
X0349212Y0055326D01*
X0349163Y0055175D01*
X0349110Y0055026D01*
X0349054Y0054878D01*
X0348994Y0054732D01*
X0348930Y0054587D01*
X0348862Y0054444D01*
X0348791Y0054302D01*
X0348717Y0054162D01*
X0348639Y0054025D01*
X0348557Y0053889D01*
X0348473Y0053755D01*
X0348384Y0053624D01*
X0348293Y0053495D01*
X0348198Y0053368D01*
X0348101Y0053243D01*
X0348000Y0053121D01*
X0347896Y0053002D01*
X0347789Y0052885D01*
X0347679Y0052771D01*
X0347566Y0052660D01*
X0347451Y0052551D01*
X0347333Y0052446D01*
X0347212Y0052344D01*
X0347089Y0052244D01*
X0346963Y0052148D01*
X0346835Y0052055D01*
X0346705Y0051965D01*
X0346572Y0051879D01*
X0346437Y0051795D01*
X0346301Y0051716D01*
X0346162Y0051639D01*
X0346021Y0051567D01*
X0345879Y0051497D01*
X0345735Y0051432D01*
X0345589Y0051370D01*
X0345442Y0051312D01*
X0345293Y0051257D01*
X0345143Y0051206D01*
X0344992Y0051159D01*
X0344840Y0051116D01*
X0344687Y0051077D01*
X0344532Y0051041D01*
X0344377Y0051010D01*
X0344221Y0050982D01*
X0344065Y0050958D01*
X0343908Y0050938D01*
X0343750Y0050922D01*
X0343593Y0050910D01*
X0343434Y0050902D01*
X0343276Y0050898D01*
X0343118Y0050898D01*
X0342960Y0050902D01*
X0342801Y0050910D01*
X0342644Y0050922D01*
X0342486Y0050938D01*
X0342329Y0050958D01*
X0342173Y0050982D01*
X0342017Y0051010D01*
X0341862Y0051041D01*
X0341707Y0051077D01*
X0341554Y0051116D01*
X0341402Y0051159D01*
X0341251Y0051206D01*
X0341101Y0051257D01*
X0340952Y0051312D01*
X0340805Y0051370D01*
X0340659Y0051432D01*
X0340515Y0051497D01*
X0340373Y0051567D01*
X0340232Y0051639D01*
X0340093Y0051716D01*
X0339957Y0051795D01*
X0339822Y0051879D01*
X0339689Y0051965D01*
X0339559Y0052055D01*
X0339431Y0052148D01*
X0339305Y0052244D01*
X0339182Y0052344D01*
X0339061Y0052446D01*
X0338943Y0052551D01*
X0338828Y0052660D01*
X0338715Y0052771D01*
X0338605Y0052885D01*
X0338498Y0053002D01*
X0338394Y0053121D01*
X0338293Y0053243D01*
X0338196Y0053368D01*
X0338101Y0053495D01*
X0338010Y0053624D01*
X0337921Y0053755D01*
X0337837Y0053889D01*
X0337755Y0054025D01*
X0337677Y0054162D01*
X0337603Y0054302D01*
X0337532Y0054444D01*
X0337464Y0054587D01*
X0337400Y0054732D01*
X0337340Y0054878D01*
X0337284Y0055026D01*
X0337231Y0055175D01*
X0337182Y0055326D01*
X0337137Y0055478D01*
X0337096Y0055631D01*
X0337058Y0055784D01*
X0337025Y0055939D01*
X0336995Y0056095D01*
X0336969Y0056251D01*
X0336948Y0056408D01*
X0336930Y0056565D01*
X0336916Y0056723D01*
X0336906Y0056881D01*
X0336900Y0057039D01*
X0336898Y0057197D01*
X0202197Y0057947D02*
X0202197Y0064447D01*
X0202195Y0064507D01*
X0202190Y0064568D01*
X0202181Y0064627D01*
X0202168Y0064686D01*
X0202152Y0064745D01*
X0202132Y0064802D01*
X0202109Y0064857D01*
X0202082Y0064912D01*
X0202053Y0064964D01*
X0202020Y0065015D01*
X0201984Y0065064D01*
X0201946Y0065110D01*
X0201904Y0065154D01*
X0201860Y0065196D01*
X0201814Y0065234D01*
X0201765Y0065270D01*
X0201714Y0065303D01*
X0201662Y0065332D01*
X0201607Y0065359D01*
X0201552Y0065382D01*
X0201495Y0065402D01*
X0201436Y0065418D01*
X0201377Y0065431D01*
X0201318Y0065440D01*
X0201257Y0065445D01*
X0201197Y0065447D01*
X0195197Y0065447D02*
X0195137Y0065445D01*
X0195076Y0065440D01*
X0195017Y0065431D01*
X0194958Y0065418D01*
X0194899Y0065402D01*
X0194842Y0065382D01*
X0194787Y0065359D01*
X0194732Y0065332D01*
X0194680Y0065303D01*
X0194629Y0065270D01*
X0194580Y0065234D01*
X0194534Y0065196D01*
X0194490Y0065154D01*
X0194448Y0065110D01*
X0194410Y0065064D01*
X0194374Y0065015D01*
X0194341Y0064964D01*
X0194312Y0064912D01*
X0194285Y0064857D01*
X0194262Y0064802D01*
X0194242Y0064745D01*
X0194226Y0064686D01*
X0194213Y0064627D01*
X0194204Y0064568D01*
X0194199Y0064507D01*
X0194197Y0064447D01*
X0194197Y0057947D01*
X0194199Y0057887D01*
X0194204Y0057826D01*
X0194213Y0057767D01*
X0194226Y0057708D01*
X0194242Y0057649D01*
X0194262Y0057592D01*
X0194285Y0057537D01*
X0194312Y0057482D01*
X0194341Y0057430D01*
X0194374Y0057379D01*
X0194410Y0057330D01*
X0194448Y0057284D01*
X0194490Y0057240D01*
X0194534Y0057198D01*
X0194580Y0057160D01*
X0194629Y0057124D01*
X0194680Y0057091D01*
X0194732Y0057062D01*
X0194787Y0057035D01*
X0194842Y0057012D01*
X0194899Y0056992D01*
X0194958Y0056976D01*
X0195017Y0056963D01*
X0195076Y0056954D01*
X0195137Y0056949D01*
X0195197Y0056947D01*
X0201197Y0056947D02*
X0201257Y0056949D01*
X0201318Y0056954D01*
X0201377Y0056963D01*
X0201436Y0056976D01*
X0201495Y0056992D01*
X0201552Y0057012D01*
X0201607Y0057035D01*
X0201662Y0057062D01*
X0201714Y0057091D01*
X0201765Y0057124D01*
X0201814Y0057160D01*
X0201860Y0057198D01*
X0201904Y0057240D01*
X0201946Y0057284D01*
X0201984Y0057330D01*
X0202020Y0057379D01*
X0202053Y0057430D01*
X0202082Y0057482D01*
X0202109Y0057537D01*
X0202132Y0057592D01*
X0202152Y0057649D01*
X0202168Y0057708D01*
X0202181Y0057767D01*
X0202190Y0057826D01*
X0202195Y0057887D01*
X0202197Y0057947D01*
X0190502Y0150443D02*
X0178691Y0150443D01*
X0178691Y0160285D02*
X0178691Y0171309D01*
X0178691Y0181151D02*
X0190502Y0181151D01*
X0186566Y0180757D02*
X0186564Y0180670D01*
X0186558Y0180583D01*
X0186549Y0180496D01*
X0186535Y0180410D01*
X0186518Y0180325D01*
X0186497Y0180240D01*
X0186472Y0180157D01*
X0186444Y0180074D01*
X0186412Y0179993D01*
X0186376Y0179914D01*
X0186337Y0179836D01*
X0186295Y0179760D01*
X0186249Y0179686D01*
X0186200Y0179614D01*
X0186148Y0179544D01*
X0186093Y0179477D01*
X0186035Y0179412D01*
X0185974Y0179349D01*
X0185910Y0179290D01*
X0185844Y0179233D01*
X0185775Y0179180D01*
X0185704Y0179129D01*
X0185631Y0179082D01*
X0185556Y0179037D01*
X0185479Y0178997D01*
X0185401Y0178959D01*
X0185320Y0178926D01*
X0185239Y0178895D01*
X0185156Y0178869D01*
X0185071Y0178846D01*
X0184986Y0178827D01*
X0184901Y0178812D01*
X0184814Y0178800D01*
X0184728Y0178792D01*
X0184641Y0178788D01*
X0184553Y0178788D01*
X0184466Y0178792D01*
X0184380Y0178800D01*
X0184293Y0178812D01*
X0184208Y0178827D01*
X0184123Y0178846D01*
X0184038Y0178869D01*
X0183955Y0178895D01*
X0183874Y0178926D01*
X0183793Y0178959D01*
X0183715Y0178997D01*
X0183638Y0179037D01*
X0183563Y0179082D01*
X0183490Y0179129D01*
X0183419Y0179180D01*
X0183350Y0179233D01*
X0183284Y0179290D01*
X0183220Y0179349D01*
X0183159Y0179412D01*
X0183101Y0179477D01*
X0183046Y0179544D01*
X0182994Y0179614D01*
X0182945Y0179686D01*
X0182899Y0179760D01*
X0182857Y0179836D01*
X0182818Y0179914D01*
X0182782Y0179993D01*
X0182750Y0180074D01*
X0182722Y0180157D01*
X0182697Y0180240D01*
X0182676Y0180325D01*
X0182659Y0180410D01*
X0182645Y0180496D01*
X0182636Y0180583D01*
X0182630Y0180670D01*
X0182628Y0180757D01*
X0190502Y0171309D02*
X0190502Y0160285D01*
X0336898Y0342197D02*
X0336900Y0342355D01*
X0336906Y0342513D01*
X0336916Y0342671D01*
X0336930Y0342829D01*
X0336948Y0342986D01*
X0336969Y0343143D01*
X0336995Y0343299D01*
X0337025Y0343455D01*
X0337058Y0343610D01*
X0337096Y0343763D01*
X0337137Y0343916D01*
X0337182Y0344068D01*
X0337231Y0344219D01*
X0337284Y0344368D01*
X0337340Y0344516D01*
X0337400Y0344662D01*
X0337464Y0344807D01*
X0337532Y0344950D01*
X0337603Y0345092D01*
X0337677Y0345232D01*
X0337755Y0345369D01*
X0337837Y0345505D01*
X0337921Y0345639D01*
X0338010Y0345770D01*
X0338101Y0345899D01*
X0338196Y0346026D01*
X0338293Y0346151D01*
X0338394Y0346273D01*
X0338498Y0346392D01*
X0338605Y0346509D01*
X0338715Y0346623D01*
X0338828Y0346734D01*
X0338943Y0346843D01*
X0339061Y0346948D01*
X0339182Y0347050D01*
X0339305Y0347150D01*
X0339431Y0347246D01*
X0339559Y0347339D01*
X0339689Y0347429D01*
X0339822Y0347515D01*
X0339957Y0347599D01*
X0340093Y0347678D01*
X0340232Y0347755D01*
X0340373Y0347827D01*
X0340515Y0347897D01*
X0340659Y0347962D01*
X0340805Y0348024D01*
X0340952Y0348082D01*
X0341101Y0348137D01*
X0341251Y0348188D01*
X0341402Y0348235D01*
X0341554Y0348278D01*
X0341707Y0348317D01*
X0341862Y0348353D01*
X0342017Y0348384D01*
X0342173Y0348412D01*
X0342329Y0348436D01*
X0342486Y0348456D01*
X0342644Y0348472D01*
X0342801Y0348484D01*
X0342960Y0348492D01*
X0343118Y0348496D01*
X0343276Y0348496D01*
X0343434Y0348492D01*
X0343593Y0348484D01*
X0343750Y0348472D01*
X0343908Y0348456D01*
X0344065Y0348436D01*
X0344221Y0348412D01*
X0344377Y0348384D01*
X0344532Y0348353D01*
X0344687Y0348317D01*
X0344840Y0348278D01*
X0344992Y0348235D01*
X0345143Y0348188D01*
X0345293Y0348137D01*
X0345442Y0348082D01*
X0345589Y0348024D01*
X0345735Y0347962D01*
X0345879Y0347897D01*
X0346021Y0347827D01*
X0346162Y0347755D01*
X0346301Y0347678D01*
X0346437Y0347599D01*
X0346572Y0347515D01*
X0346705Y0347429D01*
X0346835Y0347339D01*
X0346963Y0347246D01*
X0347089Y0347150D01*
X0347212Y0347050D01*
X0347333Y0346948D01*
X0347451Y0346843D01*
X0347566Y0346734D01*
X0347679Y0346623D01*
X0347789Y0346509D01*
X0347896Y0346392D01*
X0348000Y0346273D01*
X0348101Y0346151D01*
X0348198Y0346026D01*
X0348293Y0345899D01*
X0348384Y0345770D01*
X0348473Y0345639D01*
X0348557Y0345505D01*
X0348639Y0345369D01*
X0348717Y0345232D01*
X0348791Y0345092D01*
X0348862Y0344950D01*
X0348930Y0344807D01*
X0348994Y0344662D01*
X0349054Y0344516D01*
X0349110Y0344368D01*
X0349163Y0344219D01*
X0349212Y0344068D01*
X0349257Y0343916D01*
X0349298Y0343763D01*
X0349336Y0343610D01*
X0349369Y0343455D01*
X0349399Y0343299D01*
X0349425Y0343143D01*
X0349446Y0342986D01*
X0349464Y0342829D01*
X0349478Y0342671D01*
X0349488Y0342513D01*
X0349494Y0342355D01*
X0349496Y0342197D01*
X0349494Y0342039D01*
X0349488Y0341881D01*
X0349478Y0341723D01*
X0349464Y0341565D01*
X0349446Y0341408D01*
X0349425Y0341251D01*
X0349399Y0341095D01*
X0349369Y0340939D01*
X0349336Y0340784D01*
X0349298Y0340631D01*
X0349257Y0340478D01*
X0349212Y0340326D01*
X0349163Y0340175D01*
X0349110Y0340026D01*
X0349054Y0339878D01*
X0348994Y0339732D01*
X0348930Y0339587D01*
X0348862Y0339444D01*
X0348791Y0339302D01*
X0348717Y0339162D01*
X0348639Y0339025D01*
X0348557Y0338889D01*
X0348473Y0338755D01*
X0348384Y0338624D01*
X0348293Y0338495D01*
X0348198Y0338368D01*
X0348101Y0338243D01*
X0348000Y0338121D01*
X0347896Y0338002D01*
X0347789Y0337885D01*
X0347679Y0337771D01*
X0347566Y0337660D01*
X0347451Y0337551D01*
X0347333Y0337446D01*
X0347212Y0337344D01*
X0347089Y0337244D01*
X0346963Y0337148D01*
X0346835Y0337055D01*
X0346705Y0336965D01*
X0346572Y0336879D01*
X0346437Y0336795D01*
X0346301Y0336716D01*
X0346162Y0336639D01*
X0346021Y0336567D01*
X0345879Y0336497D01*
X0345735Y0336432D01*
X0345589Y0336370D01*
X0345442Y0336312D01*
X0345293Y0336257D01*
X0345143Y0336206D01*
X0344992Y0336159D01*
X0344840Y0336116D01*
X0344687Y0336077D01*
X0344532Y0336041D01*
X0344377Y0336010D01*
X0344221Y0335982D01*
X0344065Y0335958D01*
X0343908Y0335938D01*
X0343750Y0335922D01*
X0343593Y0335910D01*
X0343434Y0335902D01*
X0343276Y0335898D01*
X0343118Y0335898D01*
X0342960Y0335902D01*
X0342801Y0335910D01*
X0342644Y0335922D01*
X0342486Y0335938D01*
X0342329Y0335958D01*
X0342173Y0335982D01*
X0342017Y0336010D01*
X0341862Y0336041D01*
X0341707Y0336077D01*
X0341554Y0336116D01*
X0341402Y0336159D01*
X0341251Y0336206D01*
X0341101Y0336257D01*
X0340952Y0336312D01*
X0340805Y0336370D01*
X0340659Y0336432D01*
X0340515Y0336497D01*
X0340373Y0336567D01*
X0340232Y0336639D01*
X0340093Y0336716D01*
X0339957Y0336795D01*
X0339822Y0336879D01*
X0339689Y0336965D01*
X0339559Y0337055D01*
X0339431Y0337148D01*
X0339305Y0337244D01*
X0339182Y0337344D01*
X0339061Y0337446D01*
X0338943Y0337551D01*
X0338828Y0337660D01*
X0338715Y0337771D01*
X0338605Y0337885D01*
X0338498Y0338002D01*
X0338394Y0338121D01*
X0338293Y0338243D01*
X0338196Y0338368D01*
X0338101Y0338495D01*
X0338010Y0338624D01*
X0337921Y0338755D01*
X0337837Y0338889D01*
X0337755Y0339025D01*
X0337677Y0339162D01*
X0337603Y0339302D01*
X0337532Y0339444D01*
X0337464Y0339587D01*
X0337400Y0339732D01*
X0337340Y0339878D01*
X0337284Y0340026D01*
X0337231Y0340175D01*
X0337182Y0340326D01*
X0337137Y0340478D01*
X0337096Y0340631D01*
X0337058Y0340784D01*
X0337025Y0340939D01*
X0336995Y0341095D01*
X0336969Y0341251D01*
X0336948Y0341408D01*
X0336930Y0341565D01*
X0336916Y0341723D01*
X0336906Y0341881D01*
X0336900Y0342039D01*
X0336898Y0342197D01*
D19*
X0153396Y0096607D02*
X0153396Y0092003D01*
X0151861Y0092003D02*
X0154931Y0092003D01*
X0151861Y0095072D02*
X0153396Y0096607D01*
X0140340Y0082394D02*
X0138038Y0082394D01*
X0138038Y0077791D01*
X0140340Y0077791D01*
X0141107Y0078558D01*
X0141107Y0081627D01*
X0140340Y0082394D01*
X0136503Y0081627D02*
X0135736Y0082394D01*
X0134201Y0082394D01*
X0133434Y0081627D01*
X0133434Y0080860D01*
X0134201Y0080092D01*
X0135736Y0080092D01*
X0136503Y0079325D01*
X0136503Y0078558D01*
X0135736Y0077791D01*
X0134201Y0077791D01*
X0133434Y0078558D01*
X0131899Y0077791D02*
X0131899Y0080860D01*
X0128830Y0080860D02*
X0128830Y0078558D01*
X0129597Y0077791D01*
X0131899Y0077791D01*
D20*
X0110317Y0117197D02*
X0110077Y0117197D01*
X0121197Y0136077D02*
X0121197Y0136317D01*
X0121197Y0144077D02*
X0121197Y0144317D01*
X0048197Y0184077D02*
X0048197Y0184317D01*
X0190197Y0242077D02*
X0190197Y0242317D01*
X0190197Y0250077D02*
X0190197Y0250317D01*
X0234077Y0224197D02*
X0234317Y0224197D01*
X0242077Y0224197D02*
X0242317Y0224197D01*
X0267197Y0135317D02*
X0267197Y0135077D01*
X0252317Y0125197D02*
X0252077Y0125197D01*
X0244317Y0125197D02*
X0244077Y0125197D01*
X0252077Y0112197D02*
X0252317Y0112197D01*
X0295077Y0125197D02*
X0295317Y0125197D01*
X0210317Y0050197D02*
X0210077Y0050197D01*
X0351197Y0210077D02*
X0351197Y0210317D01*
X0269897Y0326977D02*
X0269897Y0327217D01*
X0269797Y0335877D02*
X0269797Y0336117D01*
X0185317Y0343197D02*
X0185077Y0343197D01*
X0086197Y0336317D02*
X0086197Y0336077D01*
D21*
X0118197Y0117197D03*
X0128197Y0117197D03*
X0138197Y0117197D03*
X0148197Y0117197D03*
X0158197Y0117197D03*
X0255197Y0073197D03*
X0262197Y0073197D03*
X0282197Y0096197D03*
X0289197Y0096197D03*
D22*
X0266120Y0125953D03*
M02*
