%
M48
M72
T01C0.01500
T02C0.03543
T03C0.04000
T04C0.08100
T05C0.11811
%
T01
X87197Y89197
X110230Y104567
X105629Y112374
X121088Y104884
X123896Y111807
X131860Y103884
X143197Y114120
X153197Y114120
X163094Y117185
X182578Y123143
X190197Y104197
X199197Y80197
X219197Y76197
X248200Y89707
X254456Y81822
X258176Y81822
X261155Y64307
X259426Y102312
X257642Y114040
X282566Y104077
X268743Y140899
X267197Y165197
X271905Y197738
X235069Y233529
X228765Y229822
X212033Y225500
X209263Y227963
X211275Y221799
X219910Y213181
X219910Y209257
X218762Y203155
X211734Y209611
X202998Y210801
X195062Y217695
X194312Y221489
X197918Y223287
X195731Y226497
X185848Y223024
X174508Y216921
X174583Y212765
X174987Y208608
X171607Y206295
X185575Y207876
X195278Y202830
X199720Y196616
X203544Y194648
X202939Y185334
X227819Y171293
X230120Y197861
X198473Y239079
X197968Y242804
X180026Y254413
X166200Y233091
X163160Y230571
X160315Y233005
X144207Y232543
X123959Y232416
X127197Y260197
X113197Y302197
X83197Y276197
X62921Y250697
X56539Y245237
X62921Y240697
X58197Y224197
X86197Y202197
X56579Y190292
X39197Y174197
X71197Y125197
X93197Y132197
X136197Y144197
X159197Y147197
X151741Y211001
X252197Y279197
X249847Y324280
X323197Y228197
X347638Y205412
X353197Y180197
X311197Y181197
X350197Y235197
X171342Y71867
X205747Y47093
X44197Y290197
T02
X42497Y197197
X197797Y42597
X353497Y197397
X198197Y352097
T03
X256034Y347860
X266034Y347860
X276034Y347860
X286034Y347860
X296034Y347860
X306034Y347860
X349697Y312397
X349697Y302397
X349697Y292397
X349697Y282397
X349697Y272397
X349697Y262397
X349997Y142997
X349997Y132997
X349997Y122997
X349997Y112997
X349997Y102997
X349997Y92997
X128597Y346397
X118597Y346397
X108597Y346397
X98597Y346397
X88597Y346397
X78597Y346397
T04
X298197Y62197
X318197Y62197
T05
X53197Y62197
X53197Y330197
X343197Y342197
X343197Y57197
M30
