G75*
%MOIN*%
%OFA0B0*%
%FSLAX25Y25*%
%IPPOS*%
%LPD*%
%AMOC8*
5,1,8,0,0,1.08239X$1,22.5*
%
%ADD10C,0.00600*%
%ADD11C,0.00800*%
D10*
X0295805Y0289564D02*
X0295805Y0293835D01*
X0296873Y0294902D01*
X0299008Y0294902D01*
X0300075Y0293835D01*
X0300075Y0289564D01*
X0299008Y0288497D01*
X0296873Y0288497D01*
X0295805Y0289564D01*
X0300102Y0284902D02*
X0304372Y0280632D01*
X0303305Y0281700D02*
X0300102Y0278497D01*
X0304372Y0278497D02*
X0304372Y0284902D01*
X0306548Y0283835D02*
X0307615Y0284902D01*
X0309750Y0284902D01*
X0310818Y0283835D01*
X0310818Y0279564D01*
X0309750Y0278497D01*
X0307615Y0278497D01*
X0306548Y0279564D01*
X0312993Y0279564D02*
X0312993Y0280632D01*
X0314061Y0281700D01*
X0316196Y0281700D01*
X0317263Y0282767D01*
X0317263Y0283835D01*
X0316196Y0284902D01*
X0314061Y0284902D01*
X0312993Y0283835D01*
X0312993Y0279564D02*
X0314061Y0278497D01*
X0316196Y0278497D01*
X0317263Y0279564D01*
X0319439Y0277429D02*
X0323709Y0277429D01*
X0325871Y0278497D02*
X0328006Y0278497D01*
X0326938Y0278497D02*
X0326938Y0284902D01*
X0325871Y0284902D02*
X0328006Y0284902D01*
X0330181Y0283835D02*
X0330181Y0281700D01*
X0331249Y0280632D01*
X0334451Y0280632D01*
X0334451Y0278497D02*
X0334451Y0284902D01*
X0331249Y0284902D01*
X0330181Y0283835D01*
X0336627Y0283835D02*
X0337694Y0284902D01*
X0339829Y0284902D01*
X0340897Y0283835D01*
X0340897Y0282767D01*
X0339829Y0281700D01*
X0337694Y0281700D01*
X0336627Y0280632D01*
X0336627Y0279564D01*
X0337694Y0278497D01*
X0339829Y0278497D01*
X0340897Y0279564D01*
X0340897Y0274902D02*
X0337694Y0274902D01*
X0336627Y0273835D01*
X0336627Y0271700D01*
X0337694Y0270632D01*
X0340897Y0270632D01*
X0340897Y0268497D02*
X0340897Y0274902D01*
X0334451Y0274902D02*
X0334451Y0268497D01*
X0331249Y0268497D01*
X0330181Y0269564D01*
X0330181Y0270632D01*
X0331249Y0271700D01*
X0334451Y0271700D01*
X0334451Y0274902D02*
X0331249Y0274902D01*
X0330181Y0273835D01*
X0330181Y0272767D01*
X0331249Y0271700D01*
X0328006Y0272767D02*
X0326938Y0271700D01*
X0323736Y0271700D01*
X0323736Y0273835D02*
X0323736Y0269564D01*
X0324803Y0268497D01*
X0326938Y0268497D01*
X0328006Y0269564D01*
X0328006Y0272767D02*
X0328006Y0273835D01*
X0326938Y0274902D01*
X0324803Y0274902D01*
X0323736Y0273835D01*
X0324803Y0264902D02*
X0328006Y0264902D01*
X0328006Y0258497D01*
X0324803Y0258497D01*
X0323736Y0259564D01*
X0323736Y0263835D01*
X0324803Y0264902D01*
X0330181Y0263835D02*
X0330181Y0259564D01*
X0331249Y0258497D01*
X0334451Y0258497D01*
X0334451Y0264902D01*
X0331249Y0264902D01*
X0330181Y0263835D01*
X0336627Y0264902D02*
X0336627Y0260632D01*
X0338762Y0258497D01*
X0340897Y0260632D01*
X0340897Y0264902D01*
X0323709Y0287429D02*
X0319439Y0287429D01*
X0317263Y0288497D02*
X0317263Y0294902D01*
X0315128Y0292767D01*
X0312993Y0294902D01*
X0312993Y0288497D01*
X0310818Y0288497D02*
X0308683Y0288497D01*
X0309750Y0288497D02*
X0309750Y0294902D01*
X0308683Y0294902D02*
X0310818Y0294902D01*
X0306521Y0293835D02*
X0306521Y0292767D01*
X0305453Y0291700D01*
X0303318Y0291700D01*
X0302251Y0290632D01*
X0302251Y0289564D01*
X0303318Y0288497D01*
X0305453Y0288497D01*
X0306521Y0289564D01*
X0306521Y0293835D02*
X0305453Y0294902D01*
X0303318Y0294902D01*
X0302251Y0293835D01*
X0302305Y0299497D02*
X0300170Y0299497D01*
X0299102Y0300564D01*
X0299102Y0301632D01*
X0300170Y0302700D01*
X0302305Y0302700D01*
X0303372Y0303767D01*
X0303372Y0304835D01*
X0302305Y0305902D01*
X0300170Y0305902D01*
X0299102Y0304835D01*
X0296927Y0305902D02*
X0294792Y0305902D01*
X0295859Y0305902D02*
X0295859Y0299497D01*
X0294792Y0299497D02*
X0296927Y0299497D01*
X0302305Y0299497D02*
X0303372Y0300564D01*
X0305548Y0300564D02*
X0306615Y0299497D01*
X0308750Y0299497D01*
X0309818Y0300564D01*
X0309818Y0304835D01*
X0308750Y0305902D01*
X0306615Y0305902D01*
X0305548Y0304835D01*
X0305548Y0300564D01*
X0311993Y0299497D02*
X0311993Y0305902D01*
X0314128Y0303767D01*
X0316263Y0305902D01*
X0316263Y0299497D01*
X0318439Y0298429D02*
X0322709Y0298429D01*
X0324871Y0299497D02*
X0327006Y0299497D01*
X0325938Y0299497D02*
X0325938Y0305902D01*
X0324871Y0305902D02*
X0327006Y0305902D01*
X0329181Y0304835D02*
X0329181Y0302700D01*
X0330249Y0301632D01*
X0333451Y0301632D01*
X0333451Y0299497D02*
X0333451Y0305902D01*
X0330249Y0305902D01*
X0329181Y0304835D01*
X0329181Y0309497D02*
X0329181Y0315902D01*
X0327006Y0315902D02*
X0323803Y0315902D01*
X0322736Y0314835D01*
X0322736Y0310564D01*
X0323803Y0309497D01*
X0327006Y0309497D01*
X0327006Y0315902D01*
X0333451Y0315902D02*
X0329181Y0309497D01*
X0333451Y0309497D02*
X0333451Y0315902D01*
X0335627Y0314835D02*
X0336694Y0315902D01*
X0338829Y0315902D01*
X0339897Y0314835D01*
X0339897Y0310564D01*
X0338829Y0309497D01*
X0336694Y0309497D01*
X0335627Y0310564D01*
X0335627Y0312700D01*
X0337762Y0312700D01*
X0336694Y0305902D02*
X0338829Y0305902D01*
X0339897Y0304835D01*
X0339897Y0303767D01*
X0338829Y0302700D01*
X0336694Y0302700D01*
X0335627Y0301632D01*
X0335627Y0300564D01*
X0336694Y0299497D01*
X0338829Y0299497D01*
X0339897Y0300564D01*
X0335627Y0304835D02*
X0336694Y0305902D01*
X0337694Y0294902D02*
X0336627Y0293835D01*
X0337694Y0294902D02*
X0339829Y0294902D01*
X0340897Y0293835D01*
X0340897Y0292767D01*
X0339829Y0291700D01*
X0337694Y0291700D01*
X0336627Y0290632D01*
X0336627Y0289564D01*
X0337694Y0288497D01*
X0339829Y0288497D01*
X0340897Y0289564D01*
X0334451Y0288497D02*
X0334451Y0294902D01*
X0331249Y0294902D01*
X0330181Y0293835D01*
X0330181Y0291700D01*
X0331249Y0290632D01*
X0334451Y0290632D01*
X0328006Y0288497D02*
X0325871Y0288497D01*
X0326938Y0288497D02*
X0326938Y0294902D01*
X0325871Y0294902D02*
X0328006Y0294902D01*
X0299902Y0322228D02*
X0298835Y0321160D01*
X0294564Y0321160D01*
X0293497Y0322228D01*
X0293497Y0324363D01*
X0294564Y0325431D01*
X0296700Y0325431D01*
X0296700Y0323295D01*
X0298835Y0325431D02*
X0299902Y0324363D01*
X0299902Y0322228D01*
X0299902Y0327606D02*
X0293497Y0327606D01*
X0289902Y0327606D02*
X0289902Y0330809D01*
X0288835Y0331876D01*
X0286700Y0331876D01*
X0285632Y0330809D01*
X0285632Y0327606D01*
X0285632Y0329741D02*
X0283497Y0331876D01*
X0283497Y0334051D02*
X0289902Y0338322D01*
X0293497Y0337254D02*
X0293497Y0334051D01*
X0299902Y0334051D01*
X0299902Y0337254D01*
X0298835Y0338322D01*
X0294564Y0338322D01*
X0293497Y0337254D01*
X0289902Y0334051D02*
X0283497Y0338322D01*
X0279902Y0338322D02*
X0273497Y0334051D01*
X0269902Y0334051D02*
X0269902Y0337254D01*
X0268835Y0338322D01*
X0264564Y0338322D01*
X0263497Y0337254D01*
X0263497Y0334051D01*
X0269902Y0334051D01*
X0268835Y0331876D02*
X0269902Y0330809D01*
X0269902Y0327606D01*
X0263497Y0327606D01*
X0263497Y0330809D01*
X0264564Y0331876D01*
X0268835Y0331876D01*
X0273497Y0329741D02*
X0279902Y0329741D01*
X0279902Y0327606D02*
X0279902Y0331876D01*
X0279902Y0334051D02*
X0273497Y0338322D01*
X0269902Y0325431D02*
X0265632Y0325431D01*
X0263497Y0323295D01*
X0265632Y0321160D01*
X0269902Y0321160D01*
X0259902Y0322160D02*
X0259902Y0325363D01*
X0258835Y0326431D01*
X0256700Y0326431D01*
X0255632Y0325363D01*
X0255632Y0322160D01*
X0253497Y0322160D02*
X0259902Y0322160D01*
X0259902Y0328606D02*
X0253497Y0328606D01*
X0255632Y0328606D02*
X0255632Y0331809D01*
X0256700Y0332876D01*
X0258835Y0332876D01*
X0259902Y0331809D01*
X0259902Y0328606D01*
X0258835Y0335051D02*
X0257767Y0335051D01*
X0256700Y0336119D01*
X0256700Y0338254D01*
X0255632Y0339322D01*
X0254564Y0339322D01*
X0253497Y0338254D01*
X0253497Y0336119D01*
X0254564Y0335051D01*
X0258835Y0335051D02*
X0259902Y0336119D01*
X0259902Y0338254D01*
X0258835Y0339322D01*
X0283497Y0327606D02*
X0289902Y0327606D01*
X0293497Y0331876D02*
X0299902Y0331876D01*
X0302497Y0331876D02*
X0302497Y0327606D01*
X0308902Y0327606D01*
X0308902Y0331876D01*
X0308902Y0334051D02*
X0302497Y0338322D01*
X0308902Y0338322D01*
X0308902Y0334051D02*
X0302497Y0334051D01*
X0305700Y0329741D02*
X0305700Y0327606D01*
X0299902Y0327606D02*
X0293497Y0331876D01*
X0131902Y0332051D02*
X0131902Y0335254D01*
X0130835Y0336322D01*
X0126564Y0336322D01*
X0125497Y0335254D01*
X0125497Y0332051D01*
X0131902Y0332051D01*
X0131902Y0329876D02*
X0125497Y0329876D01*
X0131902Y0325606D01*
X0125497Y0325606D01*
X0126564Y0323431D02*
X0128700Y0323431D01*
X0128700Y0321295D01*
X0130835Y0319160D02*
X0126564Y0319160D01*
X0125497Y0320228D01*
X0125497Y0322363D01*
X0126564Y0323431D01*
X0121902Y0325606D02*
X0121902Y0328809D01*
X0120835Y0329876D01*
X0118700Y0329876D01*
X0117632Y0328809D01*
X0117632Y0325606D01*
X0117632Y0327741D02*
X0115497Y0329876D01*
X0115497Y0332051D02*
X0121902Y0336322D01*
X0121902Y0332051D02*
X0115497Y0336322D01*
X0111902Y0336322D02*
X0105497Y0332051D01*
X0101902Y0333119D02*
X0101902Y0335254D01*
X0100835Y0336322D01*
X0096564Y0336322D01*
X0095497Y0335254D01*
X0095497Y0333119D01*
X0096564Y0332051D01*
X0096564Y0329876D02*
X0095497Y0328809D01*
X0095497Y0325606D01*
X0101902Y0325606D01*
X0101902Y0328809D01*
X0100835Y0329876D01*
X0099767Y0329876D01*
X0098700Y0328809D01*
X0098700Y0325606D01*
X0098700Y0323431D02*
X0097632Y0322363D01*
X0097632Y0319160D01*
X0095497Y0319160D02*
X0101902Y0319160D01*
X0101902Y0322363D01*
X0100835Y0323431D01*
X0098700Y0323431D01*
X0098700Y0328809D02*
X0097632Y0329876D01*
X0096564Y0329876D01*
X0099767Y0332051D02*
X0098700Y0333119D01*
X0098700Y0336322D01*
X0099767Y0332051D02*
X0100835Y0332051D01*
X0101902Y0333119D01*
X0105497Y0336322D02*
X0111902Y0332051D01*
X0111902Y0329876D02*
X0111902Y0325606D01*
X0111902Y0327741D02*
X0105497Y0327741D01*
X0115497Y0325606D02*
X0121902Y0325606D01*
X0130835Y0323431D02*
X0131902Y0322363D01*
X0131902Y0320228D01*
X0130835Y0319160D01*
X0091902Y0319160D02*
X0091902Y0322363D01*
X0090835Y0323431D01*
X0089767Y0323431D01*
X0088700Y0322363D01*
X0088700Y0319160D01*
X0088700Y0316985D02*
X0087632Y0315918D01*
X0087632Y0312715D01*
X0085497Y0312715D02*
X0091902Y0312715D01*
X0091902Y0315918D01*
X0090835Y0316985D01*
X0088700Y0316985D01*
X0091902Y0319160D02*
X0085497Y0319160D01*
X0085497Y0322363D01*
X0086564Y0323431D01*
X0087632Y0323431D01*
X0088700Y0322363D01*
X0089767Y0325606D02*
X0091902Y0327741D01*
X0085497Y0327741D01*
X0085497Y0325606D02*
X0085497Y0329876D01*
X0086564Y0332051D02*
X0085497Y0333119D01*
X0085497Y0335254D01*
X0086564Y0336322D01*
X0088700Y0336322D01*
X0089767Y0335254D01*
X0089767Y0334186D01*
X0088700Y0332051D01*
X0091902Y0332051D01*
X0091902Y0336322D01*
X0081902Y0335254D02*
X0081902Y0332051D01*
X0075497Y0332051D01*
X0075497Y0335254D01*
X0076564Y0336322D01*
X0080835Y0336322D01*
X0081902Y0335254D01*
X0080835Y0329876D02*
X0076564Y0329876D01*
X0075497Y0328809D01*
X0075497Y0325606D01*
X0081902Y0325606D01*
X0081902Y0328809D01*
X0080835Y0329876D01*
X0081902Y0323431D02*
X0077632Y0323431D01*
X0075497Y0321295D01*
X0077632Y0319160D01*
X0081902Y0319160D01*
X0300102Y0130497D02*
X0304372Y0130497D01*
X0304372Y0136902D01*
X0306548Y0135835D02*
X0307615Y0136902D01*
X0309750Y0136902D01*
X0310818Y0135835D01*
X0310818Y0131564D01*
X0309750Y0130497D01*
X0307615Y0130497D01*
X0306548Y0131564D01*
X0312993Y0131564D02*
X0314061Y0130497D01*
X0316196Y0130497D01*
X0317263Y0131564D01*
X0316196Y0133700D02*
X0317263Y0134767D01*
X0317263Y0135835D01*
X0316196Y0136902D01*
X0314061Y0136902D01*
X0312993Y0135835D01*
X0314061Y0133700D02*
X0312993Y0132632D01*
X0312993Y0131564D01*
X0314061Y0133700D02*
X0316196Y0133700D01*
X0319439Y0129429D02*
X0323709Y0129429D01*
X0325884Y0131564D02*
X0326952Y0130497D01*
X0329087Y0130497D01*
X0330154Y0131564D01*
X0330154Y0135835D01*
X0329087Y0136902D01*
X0326952Y0136902D01*
X0325884Y0135835D01*
X0324803Y0140497D02*
X0323736Y0141564D01*
X0323736Y0145835D01*
X0324803Y0146902D01*
X0328006Y0146902D01*
X0328006Y0140497D01*
X0324803Y0140497D01*
X0330181Y0140497D02*
X0330181Y0146902D01*
X0334451Y0146902D02*
X0330181Y0140497D01*
X0334451Y0140497D02*
X0334451Y0146902D01*
X0336627Y0145835D02*
X0337694Y0146902D01*
X0339829Y0146902D01*
X0340897Y0145835D01*
X0340897Y0141564D01*
X0339829Y0140497D01*
X0337694Y0140497D01*
X0336627Y0141564D01*
X0336627Y0143700D01*
X0338762Y0143700D01*
X0338762Y0136902D02*
X0340897Y0136902D01*
X0339829Y0136902D02*
X0339829Y0130497D01*
X0338762Y0130497D02*
X0340897Y0130497D01*
X0336600Y0130497D02*
X0332330Y0134767D01*
X0332330Y0135835D01*
X0333397Y0136902D01*
X0335532Y0136902D01*
X0336600Y0135835D01*
X0336600Y0130497D02*
X0332330Y0130497D01*
X0333397Y0125902D02*
X0332330Y0124835D01*
X0332330Y0123767D01*
X0336600Y0119497D01*
X0332330Y0119497D01*
X0330154Y0120564D02*
X0329087Y0119497D01*
X0326952Y0119497D01*
X0325884Y0120564D01*
X0323709Y0118429D02*
X0319439Y0118429D01*
X0318358Y0115902D02*
X0321560Y0112700D01*
X0317290Y0112700D01*
X0318358Y0115902D02*
X0318358Y0109497D01*
X0319358Y0105902D02*
X0318290Y0104835D01*
X0318290Y0103767D01*
X0319358Y0102700D01*
X0318290Y0101632D01*
X0318290Y0100564D01*
X0319358Y0099497D01*
X0321493Y0099497D01*
X0322560Y0100564D01*
X0324736Y0099497D02*
X0329006Y0099497D01*
X0326871Y0099497D02*
X0326871Y0105902D01*
X0329006Y0103767D01*
X0331181Y0103767D02*
X0332249Y0102700D01*
X0335451Y0102700D01*
X0337627Y0102700D02*
X0338694Y0101632D01*
X0341897Y0101632D01*
X0341897Y0099497D02*
X0341897Y0105902D01*
X0338694Y0105902D01*
X0337627Y0104835D01*
X0337627Y0102700D01*
X0335451Y0105902D02*
X0335451Y0099497D01*
X0332249Y0099497D01*
X0331181Y0100564D01*
X0331181Y0101632D01*
X0332249Y0102700D01*
X0331181Y0103767D02*
X0331181Y0104835D01*
X0332249Y0105902D01*
X0335451Y0105902D01*
X0334451Y0109497D02*
X0331249Y0109497D01*
X0330181Y0110564D01*
X0330181Y0111632D01*
X0331249Y0112700D01*
X0334451Y0112700D01*
X0336627Y0112700D02*
X0337694Y0111632D01*
X0340897Y0111632D01*
X0340897Y0109497D02*
X0340897Y0115902D01*
X0337694Y0115902D01*
X0336627Y0114835D01*
X0336627Y0112700D01*
X0334451Y0115902D02*
X0331249Y0115902D01*
X0330181Y0114835D01*
X0330181Y0113767D01*
X0331249Y0112700D01*
X0328006Y0113767D02*
X0325871Y0115902D01*
X0325871Y0109497D01*
X0328006Y0109497D02*
X0323736Y0109497D01*
X0321493Y0105902D02*
X0319358Y0105902D01*
X0321493Y0105902D02*
X0322560Y0104835D01*
X0320425Y0102700D02*
X0319358Y0102700D01*
X0325803Y0095902D02*
X0324736Y0094835D01*
X0324736Y0090564D01*
X0325803Y0089497D01*
X0329006Y0089497D01*
X0329006Y0095902D01*
X0325803Y0095902D01*
X0331181Y0094835D02*
X0332249Y0095902D01*
X0335451Y0095902D01*
X0335451Y0089497D01*
X0332249Y0089497D01*
X0331181Y0090564D01*
X0331181Y0094835D01*
X0337627Y0095902D02*
X0337627Y0091632D01*
X0339762Y0089497D01*
X0341897Y0091632D01*
X0341897Y0095902D01*
X0334451Y0109497D02*
X0334451Y0115902D01*
X0338762Y0119497D02*
X0340897Y0119497D01*
X0339829Y0119497D02*
X0339829Y0125902D01*
X0338762Y0125902D02*
X0340897Y0125902D01*
X0336600Y0124835D02*
X0335532Y0125902D01*
X0333397Y0125902D01*
X0330154Y0124835D02*
X0330154Y0120564D01*
X0330154Y0124835D02*
X0329087Y0125902D01*
X0326952Y0125902D01*
X0325884Y0124835D01*
X0317263Y0124835D02*
X0317263Y0123767D01*
X0316196Y0122700D01*
X0314061Y0122700D01*
X0312993Y0121632D01*
X0312993Y0120564D01*
X0314061Y0119497D01*
X0316196Y0119497D01*
X0317263Y0120564D01*
X0317263Y0124835D02*
X0316196Y0125902D01*
X0314061Y0125902D01*
X0312993Y0124835D01*
X0310818Y0125902D02*
X0307615Y0125902D01*
X0306548Y0124835D01*
X0306548Y0120564D01*
X0307615Y0119497D01*
X0310818Y0119497D01*
X0310818Y0125902D01*
X0304372Y0123767D02*
X0304372Y0119497D01*
X0304372Y0122700D02*
X0300102Y0122700D01*
X0300102Y0123767D02*
X0300102Y0119497D01*
X0300102Y0123767D02*
X0302237Y0125902D01*
X0304372Y0123767D01*
D11*
X0145805Y0315765D02*
X0136597Y0315765D01*
X0136597Y0321904D01*
X0138131Y0324973D02*
X0136597Y0326508D01*
X0136597Y0329577D01*
X0138131Y0331112D01*
X0144270Y0331112D01*
X0145805Y0329577D01*
X0145805Y0326508D01*
X0144270Y0324973D01*
X0138131Y0324973D01*
X0136597Y0334181D02*
X0145805Y0334181D01*
X0145805Y0338785D01*
X0144270Y0340320D01*
X0141201Y0340320D01*
X0139666Y0338785D01*
X0139666Y0334181D01*
X0139666Y0337250D02*
X0136597Y0340320D01*
X0136597Y0343389D02*
X0142735Y0343389D01*
X0145805Y0346458D01*
X0142735Y0349528D01*
X0136597Y0349528D01*
X0141201Y0349528D02*
X0141201Y0343389D01*
X0239597Y0344924D02*
X0241131Y0343389D01*
X0239597Y0344924D02*
X0239597Y0347993D01*
X0241131Y0349528D01*
X0242666Y0349528D01*
X0244201Y0347993D01*
X0244201Y0344924D01*
X0245735Y0343389D01*
X0247270Y0343389D01*
X0248805Y0344924D01*
X0248805Y0347993D01*
X0247270Y0349528D01*
X0247270Y0340320D02*
X0244201Y0340320D01*
X0242666Y0338785D01*
X0242666Y0334181D01*
X0239597Y0334181D02*
X0248805Y0334181D01*
X0248805Y0338785D01*
X0247270Y0340320D01*
X0247270Y0331112D02*
X0248805Y0329577D01*
X0248805Y0326508D01*
X0247270Y0324973D01*
X0241131Y0324973D01*
X0239597Y0326508D01*
X0239597Y0329577D01*
X0241131Y0331112D01*
X0244201Y0331112D01*
X0244201Y0328043D01*
M02*
