G75*
%MOIN*%
%OFA0B0*%
%FSLAX25Y25*%
%IPPOS*%
%LPD*%
%AMOC8*
5,1,8,0,0,1.08239X$1,22.5*
%
%ADD10C,0.01000*%
%ADD11R,0.03937X0.04331*%
%ADD12R,0.03543X0.02953*%
%ADD13R,0.04331X0.03937*%
%ADD14R,0.01575X0.05315*%
%ADD15R,0.07087X0.07087*%
%ADD16R,0.09055X0.05118*%
%ADD17R,0.06299X0.06299*%
%ADD18R,0.03543X0.02756*%
%ADD19R,0.10000X0.05000*%
%ADD20R,0.01181X0.04724*%
%ADD21R,0.04724X0.01181*%
%ADD22R,0.09449X0.02992*%
%ADD23R,0.02362X0.04921*%
%ADD24R,0.04724X0.14961*%
%ADD25R,0.05709X0.05512*%
%ADD26R,0.03937X0.02362*%
%ADD27R,0.03740X0.03346*%
%ADD28R,0.03268X0.02480*%
%ADD29C,0.14000*%
%ADD30R,0.04600X0.06300*%
%ADD31R,0.00600X0.07200*%
%ADD32R,0.05000X0.02500*%
%ADD33R,0.02500X0.05000*%
%ADD34R,0.04134X0.02559*%
%ADD35R,0.02000X0.02000*%
%ADD36C,0.11811*%
%ADD37C,0.01181*%
%ADD38R,0.03740X0.01969*%
%ADD39R,0.07480X0.05118*%
%ADD40R,0.06299X0.04724*%
%ADD41C,0.06000*%
%ADD42R,0.03543X0.01969*%
%ADD43C,0.06693*%
%ADD44R,0.01969X0.03543*%
D10*
X0110735Y0165904D02*
X0111133Y0165560D01*
X0111681Y0165339D01*
X0112304Y0165245D01*
X0112924Y0165281D01*
X0113466Y0165451D01*
X0113855Y0165759D01*
X0114010Y0166096D01*
X0114014Y0166208D01*
X0114028Y0166633D01*
X0114039Y0167906D01*
X0114149Y0169698D01*
X0114564Y0171444D01*
X0115208Y0172670D01*
X0115507Y0173001D01*
X0115781Y0173305D01*
X0116959Y0173894D01*
X0118921Y0174225D01*
X0120972Y0173987D01*
X0122327Y0173459D01*
X0122694Y0173173D01*
X0123039Y0172903D01*
X0123700Y0171614D01*
X0123987Y0169581D01*
X0124053Y0167448D01*
X0124223Y0166015D01*
X0124397Y0165586D01*
X0124422Y0165523D01*
X0124607Y0165374D01*
X0125004Y0165215D01*
X0125526Y0165114D01*
X0126106Y0165079D01*
X0126683Y0165116D01*
X0127192Y0165232D01*
X0127571Y0165433D01*
X0127739Y0165648D01*
X0127755Y0165726D01*
X0127938Y0166703D01*
X0128363Y0169659D01*
X0128812Y0174094D01*
X0129006Y0178486D01*
X0128950Y0181350D01*
X0128847Y0182293D01*
X0128810Y0182629D01*
X0128426Y0183602D01*
X0127578Y0184672D01*
X0126452Y0185524D01*
X0125198Y0186177D01*
X0123962Y0186650D01*
X0122896Y0186965D01*
X0122147Y0187138D01*
X0121865Y0187192D01*
X0121969Y0187159D02*
X0120086Y0184644D01*
X0117893Y0182081D01*
X0115436Y0179487D01*
X0112756Y0176876D01*
X0110620Y0174908D01*
X0109898Y0174265D01*
X0109281Y0174917D01*
X0107409Y0176851D01*
X0104887Y0179440D01*
X0102428Y0182016D01*
X0100136Y0184560D01*
X0098110Y0187059D01*
X0096455Y0189495D01*
X0095266Y0191849D01*
X0094727Y0193533D01*
X0094650Y0194107D01*
X0094570Y0194697D01*
X0094665Y0196513D01*
X0095289Y0199199D01*
X0096489Y0201975D01*
X0098235Y0204663D01*
X0100494Y0207071D01*
X0103237Y0209017D01*
X0106431Y0210313D01*
X0109142Y0210781D01*
X0110046Y0210777D01*
X0110953Y0210773D01*
X0113674Y0210299D01*
X0116898Y0209011D01*
X0119677Y0207093D01*
X0121965Y0204721D01*
X0123718Y0202073D01*
X0124892Y0199327D01*
X0125444Y0196661D01*
X0125452Y0194835D01*
X0125332Y0194253D01*
X0125211Y0193673D01*
X0124635Y0191979D01*
X0123500Y0189609D01*
X0121969Y0187159D01*
X0117953Y0189009D02*
X0118858Y0190691D01*
X0119431Y0192549D01*
X0119631Y0194045D01*
X0119631Y0194543D01*
X0119631Y0195043D01*
X0119431Y0196539D01*
X0118858Y0198397D01*
X0117953Y0200079D01*
X0116754Y0201543D01*
X0115300Y0202751D01*
X0113632Y0203665D01*
X0111789Y0204241D01*
X0110304Y0204443D01*
X0109811Y0204443D01*
X0109316Y0204443D01*
X0107832Y0204241D01*
X0105988Y0203665D01*
X0104320Y0202751D01*
X0102867Y0201543D01*
X0101668Y0200079D01*
X0100763Y0198397D01*
X0100191Y0196539D01*
X0099992Y0195043D01*
X0099992Y0194543D01*
X0099992Y0194045D01*
X0100191Y0192549D01*
X0100763Y0190691D01*
X0101668Y0189009D01*
X0102867Y0187543D01*
X0104320Y0186334D01*
X0105988Y0185422D01*
X0107832Y0184846D01*
X0109316Y0184644D01*
X0109811Y0184644D01*
X0110304Y0184644D01*
X0111789Y0184846D01*
X0113632Y0185422D01*
X0115300Y0186334D01*
X0116754Y0187543D01*
X0117953Y0189009D01*
X0112389Y0191013D02*
X0112413Y0191171D01*
X0112449Y0191411D01*
X0112498Y0192141D01*
X0112506Y0193127D01*
X0112489Y0194089D01*
X0112503Y0194989D01*
X0112599Y0195787D01*
X0112835Y0196441D01*
X0113263Y0196913D01*
X0113764Y0197135D01*
X0113938Y0197161D01*
X0115351Y0197377D01*
X0104112Y0197383D01*
X0104129Y0197415D01*
X0104193Y0197483D01*
X0104317Y0197559D01*
X0104513Y0197615D01*
X0104798Y0197617D01*
X0105184Y0197537D01*
X0105686Y0197343D01*
X0106165Y0197095D01*
X0106319Y0197003D01*
X0106493Y0196899D01*
X0106915Y0196419D01*
X0107222Y0195631D01*
X0107330Y0194701D01*
X0107330Y0193689D01*
X0107313Y0192653D01*
X0107369Y0191657D01*
X0107590Y0190759D01*
X0107913Y0190173D01*
X0108065Y0190019D01*
X0108191Y0189891D01*
X0108604Y0189537D01*
X0109154Y0189211D01*
X0109759Y0189065D01*
X0110289Y0189085D01*
X0110460Y0189122D01*
X0110617Y0189157D01*
X0111059Y0189405D01*
X0111668Y0189929D01*
X0112163Y0190561D01*
X0112389Y0191013D01*
X0112316Y0191523D02*
X0107479Y0191475D01*
X0112316Y0191523D01*
X0107479Y0191475D01*
X0112316Y0191523D01*
X0113930Y0195553D02*
X0113589Y0195895D01*
X0113464Y0196209D01*
X0113464Y0196313D01*
X0113464Y0196419D01*
X0113589Y0196731D01*
X0113930Y0197073D01*
X0114435Y0197303D01*
X0114900Y0197385D01*
X0115055Y0197385D01*
X0115209Y0197385D01*
X0115673Y0197303D01*
X0116180Y0197073D01*
X0116521Y0196731D01*
X0116647Y0196419D01*
X0116647Y0196313D01*
X0116647Y0196209D01*
X0116521Y0195895D01*
X0116180Y0195553D01*
X0115673Y0195323D01*
X0115209Y0195239D01*
X0115055Y0195239D01*
X0114900Y0195239D01*
X0114435Y0195323D01*
X0113930Y0195553D01*
X0117858Y0199819D02*
X0114732Y0203035D01*
X0114818Y0203109D01*
X0115060Y0203295D01*
X0115427Y0203533D01*
X0115887Y0203769D01*
X0116411Y0203941D01*
X0116969Y0203995D01*
X0117530Y0203871D01*
X0117951Y0203621D01*
X0118065Y0203511D01*
X0118173Y0203405D01*
X0118418Y0203001D01*
X0118565Y0202419D01*
X0118554Y0201805D01*
X0118435Y0201207D01*
X0118256Y0200665D01*
X0118067Y0200225D01*
X0117917Y0199927D01*
X0117858Y0199819D01*
X0106498Y0196625D02*
X0106498Y0196521D01*
X0106498Y0196415D01*
X0106372Y0196103D01*
X0106031Y0195761D01*
X0105526Y0195531D01*
X0105061Y0195445D01*
X0104907Y0195445D01*
X0104752Y0195445D01*
X0104288Y0195531D01*
X0103781Y0195761D01*
X0103440Y0196103D01*
X0103316Y0196415D01*
X0103316Y0196521D01*
X0103316Y0196625D01*
X0103440Y0196937D01*
X0103781Y0197279D01*
X0104288Y0197509D01*
X0104752Y0197593D01*
X0104907Y0197593D01*
X0105061Y0197593D01*
X0105526Y0197509D01*
X0106031Y0197279D01*
X0106372Y0196937D01*
X0106498Y0196625D01*
X0100763Y0198115D02*
X0103144Y0202083D01*
X0103061Y0202131D01*
X0102832Y0202241D01*
X0102484Y0202377D01*
X0102047Y0202493D01*
X0101549Y0202549D01*
X0101017Y0202501D01*
X0100481Y0202305D01*
X0100081Y0202035D01*
X0099970Y0201923D01*
X0099839Y0201793D01*
X0099546Y0201305D01*
X0099421Y0200657D01*
X0099521Y0200019D01*
X0099770Y0199423D01*
X0100092Y0198901D01*
X0100415Y0198487D01*
X0100664Y0198213D01*
X0100763Y0198115D01*
X0102190Y0182071D02*
X0102172Y0181661D01*
X0102126Y0180528D01*
X0102068Y0178823D01*
X0102008Y0176697D01*
X0101961Y0174297D01*
X0101942Y0171774D01*
X0101962Y0169276D01*
X0102008Y0167535D01*
X0102036Y0166954D01*
X0102041Y0166862D01*
X0102179Y0166588D01*
X0102531Y0166279D01*
X0103027Y0166039D01*
X0103604Y0165883D01*
X0104200Y0165825D01*
X0104752Y0165880D01*
X0105196Y0166061D01*
X0105430Y0166289D01*
X0105469Y0166381D01*
X0105639Y0166783D01*
X0105814Y0168125D01*
X0105785Y0169861D01*
X0105911Y0171379D01*
X0106451Y0172308D01*
X0106720Y0172472D01*
X0106827Y0172538D01*
X0107176Y0172690D01*
X0107712Y0172842D01*
X0108289Y0172910D01*
X0108867Y0172881D01*
X0109402Y0172737D01*
X0109854Y0172463D01*
X0110183Y0172043D01*
X0110334Y0171608D01*
X0110349Y0171459D01*
X0110384Y0171122D01*
X0110454Y0170105D01*
X0110479Y0169032D01*
X0110493Y0167898D01*
X0110539Y0166749D01*
X0110564Y0166366D01*
X0110571Y0166249D01*
X0110735Y0165904D01*
X0127688Y0184404D02*
X0127961Y0184312D01*
X0128857Y0184255D01*
X0129570Y0184689D01*
X0129966Y0185551D01*
X0130186Y0186688D01*
X0130374Y0187948D01*
X0130668Y0189177D01*
X0131209Y0190221D01*
X0131880Y0190819D01*
X0132142Y0190927D01*
X0132260Y0190825D02*
X0131686Y0190985D01*
X0131060Y0191415D01*
X0130639Y0192059D01*
X0130485Y0192647D01*
X0130485Y0192843D01*
X0130485Y0193041D01*
X0130639Y0193631D01*
X0131060Y0194273D01*
X0131686Y0194705D01*
X0132260Y0194863D01*
X0132452Y0194863D01*
X0132643Y0194863D01*
X0133217Y0194705D01*
X0133842Y0194273D01*
X0134264Y0193631D01*
X0134419Y0193041D01*
X0134419Y0192843D01*
X0134419Y0192647D01*
X0134264Y0192059D01*
X0133842Y0191415D01*
X0133217Y0190985D01*
X0132643Y0190825D01*
X0132452Y0190825D01*
X0132260Y0190825D01*
D11*
X0170197Y0176543D03*
X0170197Y0169850D03*
X0199197Y0169850D03*
X0199197Y0176543D03*
X0222197Y0179543D03*
X0222197Y0172850D03*
X0244197Y0128543D03*
X0244197Y0121850D03*
X0252197Y0121850D03*
X0252197Y0115543D03*
X0252197Y0108850D03*
X0252197Y0128543D03*
X0282197Y0099543D03*
X0289197Y0099543D03*
X0289197Y0092850D03*
X0282197Y0092850D03*
X0262197Y0076543D03*
X0262197Y0069850D03*
X0255197Y0069850D03*
X0255197Y0076543D03*
X0210197Y0053543D03*
X0210197Y0046850D03*
X0158197Y0113850D03*
X0158197Y0120543D03*
X0148197Y0120543D03*
X0148197Y0113850D03*
X0138197Y0113850D03*
X0138197Y0120543D03*
X0128197Y0120543D03*
X0128197Y0113850D03*
X0118197Y0113850D03*
X0118197Y0120543D03*
X0110197Y0120543D03*
X0110197Y0113850D03*
X0234197Y0220850D03*
X0234197Y0227543D03*
X0242197Y0227543D03*
X0242197Y0220850D03*
X0295197Y0128543D03*
X0295197Y0121850D03*
X0185197Y0339850D03*
X0185197Y0346543D03*
D12*
X0207850Y0179953D03*
X0207850Y0174441D03*
X0214543Y0174441D03*
X0214543Y0179953D03*
D13*
X0214543Y0167197D03*
X0207850Y0167197D03*
X0263850Y0135197D03*
X0270543Y0135197D03*
X0270543Y0109197D03*
X0270543Y0103197D03*
X0263850Y0103197D03*
X0263850Y0109197D03*
X0330750Y0123097D03*
X0337443Y0123097D03*
X0337543Y0131197D03*
X0330850Y0131197D03*
X0347850Y0210197D03*
X0354543Y0210197D03*
X0273243Y0327097D03*
X0266550Y0327097D03*
X0266450Y0335997D03*
X0273143Y0335997D03*
X0193543Y0250197D03*
X0186850Y0250197D03*
X0186850Y0242197D03*
X0193543Y0242197D03*
X0155543Y0244197D03*
X0148850Y0244197D03*
X0148850Y0236197D03*
X0155543Y0236197D03*
X0155543Y0228197D03*
X0148850Y0228197D03*
X0124543Y0144197D03*
X0117850Y0144197D03*
X0117850Y0136197D03*
X0124543Y0136197D03*
X0070543Y0113197D03*
X0063850Y0113197D03*
X0063850Y0103197D03*
X0070543Y0103197D03*
X0070543Y0093197D03*
X0063850Y0093197D03*
X0051543Y0184197D03*
X0044850Y0184197D03*
X0082850Y0336197D03*
X0089543Y0336197D03*
D14*
X0253079Y0058339D03*
X0255638Y0058339D03*
X0258197Y0058339D03*
X0260756Y0058339D03*
X0263315Y0058339D03*
D15*
X0262724Y0047905D03*
X0253669Y0047905D03*
D16*
X0243433Y0047905D03*
X0272961Y0047905D03*
D17*
X0270795Y0057492D03*
X0245598Y0057492D03*
D18*
X0283197Y0059756D03*
X0283197Y0054638D03*
D19*
X0169197Y0191197D03*
D20*
X0188433Y0189953D03*
X0190402Y0189953D03*
X0192370Y0189953D03*
X0194339Y0189953D03*
X0196307Y0189953D03*
X0198276Y0189953D03*
X0200244Y0189953D03*
X0202213Y0189953D03*
X0204181Y0189953D03*
X0206150Y0189953D03*
X0208118Y0189953D03*
X0210087Y0189953D03*
X0212055Y0189953D03*
X0214024Y0189953D03*
X0215992Y0189953D03*
X0217961Y0189953D03*
X0217961Y0234441D03*
X0215992Y0234441D03*
X0214024Y0234441D03*
X0212055Y0234441D03*
X0210087Y0234441D03*
X0208118Y0234441D03*
X0206150Y0234441D03*
X0204181Y0234441D03*
X0202213Y0234441D03*
X0200244Y0234441D03*
X0198276Y0234441D03*
X0196307Y0234441D03*
X0194339Y0234441D03*
X0192370Y0234441D03*
X0190402Y0234441D03*
X0188433Y0234441D03*
D21*
X0180953Y0226961D03*
X0180953Y0224992D03*
X0180953Y0223024D03*
X0180953Y0221055D03*
X0180953Y0219087D03*
X0180953Y0217118D03*
X0180953Y0215150D03*
X0180953Y0213181D03*
X0180953Y0211213D03*
X0180953Y0209244D03*
X0180953Y0207276D03*
X0180953Y0205307D03*
X0180953Y0203339D03*
X0180953Y0201370D03*
X0180953Y0199402D03*
X0180953Y0197433D03*
X0225441Y0197433D03*
X0225441Y0199402D03*
X0225441Y0201370D03*
X0225441Y0203339D03*
X0225441Y0205307D03*
X0225441Y0207276D03*
X0225441Y0209244D03*
X0225441Y0211213D03*
X0225441Y0213181D03*
X0225441Y0215150D03*
X0225441Y0217118D03*
X0225441Y0219087D03*
X0225441Y0221055D03*
X0225441Y0223024D03*
X0225441Y0224992D03*
X0225441Y0226961D03*
D22*
X0070111Y0240697D03*
X0070111Y0245697D03*
X0070111Y0250697D03*
X0070111Y0255697D03*
X0070111Y0260697D03*
X0046883Y0260697D03*
X0046883Y0255697D03*
X0046883Y0250697D03*
X0046883Y0245697D03*
X0046883Y0240697D03*
D23*
X0118197Y0092197D03*
X0122528Y0092197D03*
X0126858Y0092197D03*
X0131189Y0092197D03*
X0135520Y0092197D03*
X0139850Y0092197D03*
X0144181Y0092197D03*
X0148512Y0092197D03*
D24*
X0113669Y0082354D03*
D25*
X0155008Y0085504D03*
D26*
X0155795Y0080583D03*
D27*
X0152055Y0076646D03*
D28*
X0292197Y0075669D03*
X0300197Y0075669D03*
X0300197Y0084724D03*
X0292197Y0084724D03*
D29*
X0298197Y0062197D03*
X0318197Y0062197D03*
D30*
X0134197Y0226197D03*
X0128197Y0226197D03*
D31*
X0131197Y0226197D03*
D32*
X0198197Y0331197D03*
X0198197Y0335197D03*
X0198197Y0063197D03*
X0198197Y0059197D03*
D33*
X0333197Y0197197D03*
X0337197Y0197197D03*
X0063197Y0197197D03*
X0059197Y0197197D03*
D34*
X0122028Y0235965D03*
X0122028Y0244419D03*
X0138366Y0244429D03*
X0138366Y0235965D03*
D35*
X0123197Y0129197D03*
X0118197Y0125197D03*
X0118197Y0107197D03*
X0128197Y0107197D03*
X0133197Y0107197D03*
X0138197Y0107197D03*
X0148197Y0107197D03*
X0158197Y0107197D03*
X0162197Y0085197D03*
X0297197Y0091197D03*
X0208197Y0343197D03*
X0179197Y0347197D03*
D36*
X0053197Y0062197D03*
X0053197Y0330197D03*
X0343197Y0342197D03*
X0343197Y0057197D03*
D37*
X0049272Y0091819D02*
X0049272Y0094575D01*
X0052028Y0094575D01*
X0052028Y0091819D01*
X0049272Y0091819D01*
X0049272Y0092999D02*
X0052028Y0092999D01*
X0052028Y0094179D02*
X0049272Y0094179D01*
X0042366Y0094575D02*
X0042366Y0091819D01*
X0042366Y0094575D02*
X0045122Y0094575D01*
X0045122Y0091819D01*
X0042366Y0091819D01*
X0042366Y0092999D02*
X0045122Y0092999D01*
X0045122Y0094179D02*
X0042366Y0094179D01*
X0042366Y0101819D02*
X0042366Y0104575D01*
X0045122Y0104575D01*
X0045122Y0101819D01*
X0042366Y0101819D01*
X0042366Y0102999D02*
X0045122Y0102999D01*
X0045122Y0104179D02*
X0042366Y0104179D01*
X0049272Y0104575D02*
X0049272Y0101819D01*
X0049272Y0104575D02*
X0052028Y0104575D01*
X0052028Y0101819D01*
X0049272Y0101819D01*
X0049272Y0102999D02*
X0052028Y0102999D01*
X0052028Y0104179D02*
X0049272Y0104179D01*
X0049272Y0111819D02*
X0049272Y0114575D01*
X0052028Y0114575D01*
X0052028Y0111819D01*
X0049272Y0111819D01*
X0049272Y0112999D02*
X0052028Y0112999D01*
X0052028Y0114179D02*
X0049272Y0114179D01*
X0042366Y0114575D02*
X0042366Y0111819D01*
X0042366Y0114575D02*
X0045122Y0114575D01*
X0045122Y0111819D01*
X0042366Y0111819D01*
X0042366Y0112999D02*
X0045122Y0112999D01*
X0045122Y0114179D02*
X0042366Y0114179D01*
D38*
X0262282Y0119358D03*
X0262282Y0121917D03*
X0262282Y0124476D03*
X0262282Y0127035D03*
X0272912Y0127035D03*
X0272912Y0127035D03*
X0272912Y0124476D03*
X0272912Y0124476D03*
X0272912Y0121917D03*
X0272912Y0121917D03*
X0272912Y0119358D03*
X0272912Y0119358D03*
D39*
X0190896Y0154970D03*
X0178298Y0154970D03*
X0178298Y0176624D03*
X0190896Y0176624D03*
D40*
X0283197Y0129102D03*
X0283197Y0117291D03*
D41*
X0346997Y0112997D02*
X0352997Y0112997D01*
X0352997Y0102997D02*
X0346997Y0102997D01*
X0346997Y0092997D02*
X0352997Y0092997D01*
X0352997Y0122997D02*
X0346997Y0122997D01*
X0346997Y0132997D02*
X0352997Y0132997D01*
X0352997Y0142997D02*
X0346997Y0142997D01*
X0346697Y0262397D02*
X0352697Y0262397D01*
X0352697Y0272397D02*
X0346697Y0272397D01*
X0346697Y0282397D02*
X0352697Y0282397D01*
X0352697Y0292397D02*
X0346697Y0292397D01*
X0346697Y0302397D02*
X0352697Y0302397D01*
X0352697Y0312397D02*
X0346697Y0312397D01*
X0306034Y0344860D02*
X0306034Y0350860D01*
X0296034Y0350860D02*
X0296034Y0344860D01*
X0286034Y0344860D02*
X0286034Y0350860D01*
X0276034Y0350860D02*
X0276034Y0344860D01*
X0266034Y0344860D02*
X0266034Y0350860D01*
X0256034Y0350860D02*
X0256034Y0344860D01*
X0128597Y0343397D02*
X0128597Y0349397D01*
X0118597Y0349397D02*
X0118597Y0343397D01*
X0108597Y0343397D02*
X0108597Y0349397D01*
X0098597Y0349397D02*
X0098597Y0343397D01*
X0088597Y0343397D02*
X0088597Y0349397D01*
X0078597Y0349397D02*
X0078597Y0343397D01*
D42*
X0194428Y0343503D03*
X0194428Y0346697D03*
X0201965Y0346697D03*
X0201965Y0343503D03*
X0201565Y0051191D03*
X0201565Y0047997D03*
X0194028Y0047997D03*
X0194028Y0051191D03*
D43*
X0197797Y0042597D03*
X0042497Y0197197D03*
X0198197Y0352097D03*
X0353497Y0197397D03*
D44*
X0348097Y0201165D03*
X0344903Y0201165D03*
X0344903Y0193628D03*
X0348097Y0193628D03*
X0051091Y0193428D03*
X0047897Y0193428D03*
X0047897Y0200965D03*
X0051091Y0200965D03*
M02*
